<?xml version="1.0" encoding="UTF-8"?>
<svg id="Layer_1" data-name="Layer 1" xmlns="http://www.w3.org/2000/svg" viewBox="0 0 357.753 461.377">
  <defs>
    <style>
      .cls-1 {
        fill: #502f26;
      }

      .cls-2 {
        opacity: 0;
      }

      .cls-2, .cls-3, .cls-4, .cls-5, .cls-6, .cls-7, .cls-8, .cls-9, .cls-10, .cls-11, .cls-12, .cls-13 {
        fill: #ea7460;
      }

      .cls-14 {
        fill: #727272;
      }

      .cls-15 {
        fill: #474444;
      }

      .cls-16 {
        fill: #494242;
      }

      .cls-17 {
        fill: #faa284;
      }

      .cls-18 {
        fill: #8c8b85;
      }

      .cls-19 {
        fill: #595454;
      }

      .cls-20 {
        fill: #2d2b2b;
      }

      .cls-21 {
        fill: #a53d3d;
      }

      .cls-22 {
        fill: #fff;
      }

      .cls-23 {
        fill: #f0f2f1;
      }

      .cls-24 {
        fill: #d6bb64;
      }

      .cls-25 {
        opacity: .9;
      }

      .cls-26 {
        fill: #e5eae8;
      }

      .cls-4 {
        opacity: .909;
      }

      .cls-5 {
        opacity: .727;
      }

      .cls-6 {
        opacity: .818;
      }

      .cls-7 {
        opacity: .455;
      }

      .cls-8 {
        opacity: .364;
      }

      .cls-9 {
        opacity: .636;
      }

      .cls-10 {
        opacity: .545;
      }

      .cls-11 {
        opacity: .182;
      }

      .cls-12 {
        opacity: .273;
      }

      .cls-13 {
        opacity: .091;
      }

      .cls-27 {
        fill: #d3755f;
      }

      .cls-28 {
        fill: #afafaf;
      }
    </style>
  </defs>
  <g>
    <g>
      <g>
        <polygon class="cls-18" points="357.753 143.232 338.391 215.38 311.097 221.139 330.075 148.866 357.753 143.232"/>
        <polygon class="cls-28" points="357.753 143.232 353.356 139.501 325.365 145.346 330.075 148.866 357.753 143.232"/>
        <polygon class="cls-14" points="325.365 145.346 306.526 217.192 311.097 221.139 330.075 148.866 325.365 145.346"/>
        <path class="cls-24" d="M345.718,156.717c-.704,2.691-2.53,4.539-4.082,4.135-1.552-.407-2.238-2.915-1.535-5.604.704-2.692,2.531-4.54,4.083-4.133,1.551.405,2.237,2.915,1.534,5.603Z"/>
      </g>
      <path class="cls-17" d="M321.184,180.702c5.712-4.431,16.293-5.091,22.569-2.946h0c6.276-10.185,11.761-4.743,11.761-4.743-1.303,2.649-3.256,8.746-4.017,11.101,1.888,3.511,2.133,6.99,2.133,6.99-.223,12.661-8.479,39.907-8.479,39.907l-14.201,4.863-7.585-10.175c-5.484-4.692-3.617-13.209-3.617-13.209l-4.89-1.488c-3.62-1.808-.672-24.871,6.325-30.299Z"/>
      <path class="cls-23" d="M312.159,237.357l5.795-16.532s21.03-3.302,31.114,13.726l-8.383,18.949-28.527-16.144Z"/>
      <path class="cls-15" d="M226.117,199.637s21.294,12.232,50.72,96.189c0,0,22.851-42.385,33.279-61.687,0,0,14.939-2.015,34.189,15.872,0,0-26.886,79.079-47.384,97.593,0,0-35.512,36.043-65.271-40.167,0,0-17.324-81.851-5.532-107.8Z"/>
    </g>
    <path class="cls-20" d="M254.244,452.363c-7.256-28.961-15.352-54.827-24.376-76.015,0,0,4.614-62.41,7.524-67.303,2.908-4.893,18.421-17.148,17.426-31.888-.995-14.741-19.404-42.331-19.62-43.789-.218-1.458-5.771-31.641-5.771-31.641,0,0-72.228-32.78-141.265,5.325v70.427s30.13,84.099,28.35,105.438c-.661,7.91-10.316,28.975-21.344,75.531"/>
    <g>
      <path class="cls-17" d="M87.801,400.516l14.3-7.509,2.976,6.374c7.021-.525,10.931-4.114,14.312-3.819,3.383.292,9.296-1.888,9.296-1.888,1.89,5.271-5.146,8.728-5.146,8.728.476.02.951.034,1.427.054,1.172.044,2.344.083,3.515.132,1.493.064,2.991.101,4.484.172,1.444.069,2.893.081,4.337.174,1.118.071,2.238.115,3.339.331,1.142.226,2.167.721,3.231,1.216,1.319.615,7.985,4.972,9.144,5.548.539.267,1.657.814,1.657.819.203,1.532-.061,3.062-1.064,4.158-1.799,1.964-5.097,1.123-6.708.424-1.204-.522-2.738-1.518-3.861-2.251-.963-.625-.63-.782-2.505-1.03-1.093-.145-2.199-.027-3.3-.049-2.393-.044-4.785-.074-7.178-.088-.544-.002-1.091-.005-1.635-.01,0,0,10.488,4.663,13.672,6.455,2.383,1.339,7.906,10.02,7.906,10.02,4.006,6.215-4.609,6.158-4.609,6.158.297.564.669,1.495.49,2.197-.152.579-.662.946-1.084,1.204-.782.473-1.638.569-2.483.628-1.552.108-3.136-.069-4.545-.821-.392-.211-.767-.463-1.135-.726-.358-.26-.706-.537-1.047-.819-.436-.363-.856-.743-1.275-1.128-1.285-1.196-2.579-2.388-3.726-3.773-.137-.167-.419-.689-.625-.75,0-.002-8.397-2.557-8.397-2.557,2.493,2.263,4.2,8.183,7.512,11.51.498.5.99,1.047,1.356,1.699.336.598.689,1.461.4,2.204-.277.718-1.015.767-1.576.846-1.814.252-3.569-.203-5.217-1.037-.846-.427-1.638-.993-2.371-1.647-.539-.48-1.037-1.015-1.498-1.601-.199-.248-.402-.5-.586-.811-3.778-7.004-8.848-11.285-17.156-9.257-11.974,2.92-16.482-14.969-16.482-14.969l1.853-14.508Z"/>
      <g>
        <path class="cls-23" d="M91.432,379.579l14.773,14.682s.534,17.58-21.275,24.484l-11.429-10.419,17.931-28.747Z"/>
        <path class="cls-19" d="M88.347,206.248S-2.858,302.84.069,332.337c0,0,0,19.77,73.118,78.451,0,0,20.397.208,26.046-26.151l-53.766-58.576,50.132-45.997s11.815-47.512-7.253-73.817Z"/>
      </g>
    </g>
    <g>
      <path class="cls-16" d="M111.257,177.64s-23.328-75.021-13.286-127.322C108.012-1.982,154.286-.308,164.412.11c10.126.418,69.122,5.656,65.775,77.303-3.348,71.649-19.666,86.965-16.737,100.227,2.93,13.262,21.912,21.886,20.58,26.361-1.333,4.474-6.948,10.038-9.978,26.361-3.03,16.323-16.054,37.487-39.61,39.409-23.556,1.922-50.365-16.945-66.744-41.63-16.379-24.686-23.425-22.027-29.734-21.893,0,0,.952-4.258,5.846-7.083,4.893-2.824,20.235-11.66,17.448-21.525Z"/>
      <path class="cls-17" d="M114.174,84.891c-3.568-49.257,49.882-49.317,49.882-49.317,46.935,3.018,52.302,24.689,52.167,48.079.49,8.621-1.424,22.469-3.893,33.948-5.621,26.14-15.102,43.345-36.533,45.868-45.766,5.387-56.906-40.982-56.906-40.982,0,0-2.421-5.881-4.717-37.596Z"/>
      <g class="cls-25">
        <path class="cls-2" d="M174.68,119.457c.067,12.094,9.928,21.845,22.021,21.777,12.095-.066,21.846-9.925,21.777-22.02-.066-12.094-9.924-21.845-22.02-21.777-12.094.066-21.846,9.926-21.779,22.02Z"/>
        <path class="cls-13" d="M196.47,99.361c-11.031.06-19.927,9.054-19.865,20.085.061,11.031,9.056,19.925,20.087,19.864,11.032-.06,19.927-9.053,19.864-20.086-.06-11.031-9.052-19.925-20.085-19.864Z"/>
        <path class="cls-11" d="M196.48,101.285c-9.968.054-18.007,8.182-17.952,18.151.056,9.969,8.184,18.006,18.152,17.951,9.97-.055,18.007-8.181,17.951-18.151-.055-9.968-8.18-18.006-18.151-17.95Z"/>
        <path class="cls-12" d="M196.491,103.209c-8.906.048-16.088,7.31-16.039,16.216.05,8.906,7.311,16.087,16.217,16.037,8.907-.049,16.088-7.309,16.037-16.216-.049-8.906-7.308-16.087-16.216-16.037Z"/>
        <path class="cls-8" d="M196.502,105.133c-7.843.043-14.169,6.438-14.125,14.281.044,7.844,6.439,14.167,14.282,14.124,7.844-.043,14.169-6.437,14.124-14.282-.043-7.843-6.437-14.167-14.281-14.124Z"/>
        <path class="cls-7" d="M196.512,107.057c-6.78.037-12.249,5.565-12.212,12.346.038,6.781,5.567,12.248,12.348,12.211,6.782-.037,12.249-5.565,12.211-12.347-.037-6.781-5.565-12.248-12.346-12.21Z"/>
        <path class="cls-10" d="M196.523,108.981c-5.718.031-10.33,4.693-10.299,10.412.032,5.719,4.695,10.329,10.413,10.297,5.719-.031,10.33-4.693,10.297-10.412-.031-5.718-4.693-10.329-10.412-10.297Z"/>
        <path class="cls-9" d="M196.534,110.905c-4.655.025-8.41,3.821-8.385,8.477.026,4.657,3.823,8.409,8.478,8.384,4.656-.026,8.41-3.821,8.384-8.478-.026-4.656-3.821-8.409-8.477-8.383Z"/>
        <path class="cls-5" d="M196.545,112.829c-3.592.019-6.491,2.949-6.472,6.542.02,3.594,2.951,6.49,6.543,6.471,3.594-.02,6.491-2.949,6.471-6.543-.02-3.593-2.949-6.49-6.542-6.47Z"/>
        <path class="cls-6" d="M196.555,114.753c-2.53.013-4.572,2.077-4.558,4.607.014,2.532,2.079,4.571,4.609,4.557,2.531-.014,4.572-2.076,4.557-4.608-.014-2.531-2.077-4.571-4.607-4.556Z"/>
        <path class="cls-4" d="M196.566,116.677c-1.467.007-2.652,1.204-2.645,2.673.008,1.469,1.207,2.651,2.674,2.644,1.468-.008,2.652-1.204,2.644-2.674-.008-1.468-1.205-2.651-2.673-2.643Z"/>
        <path class="cls-3" d="M195.845,119.339c.002.407.335.732.739.731.406-.003.733-.332.731-.739-.003-.406-.334-.732-.738-.729-.405.001-.733.332-.732.738Z"/>
      </g>
      <g class="cls-25">
        <path class="cls-2" d="M113.473,118.59c.078,13.967,11.466,25.228,25.433,25.151,13.967-.077,25.229-11.462,25.151-25.429-.077-13.969-11.462-25.229-25.43-25.153-13.968.077-25.229,11.464-25.153,25.432Z"/>
        <path class="cls-13" d="M138.638,95.381c-12.741.07-23.013,10.456-22.943,23.197.071,12.739,10.459,23.011,23.198,22.941,12.739-.071,23.013-10.456,22.941-23.195-.071-12.742-10.455-23.013-23.196-22.943Z"/>
        <path class="cls-11" d="M138.651,97.603c-11.513.064-20.796,9.449-20.733,20.963.064,11.512,9.451,20.795,20.964,20.731,11.512-.064,20.796-9.449,20.731-20.961-.064-11.515-9.448-20.796-20.962-20.733Z"/>
        <path class="cls-12" d="M138.663,99.825c-10.286.057-18.58,8.442-18.523,18.729.057,10.285,8.444,18.578,18.729,18.521,10.285-.057,18.58-8.442,18.522-18.727-.057-10.287-8.441-18.58-18.727-18.524Z"/>
        <path class="cls-8" d="M138.675,102.047c-9.059.05-16.363,7.435-16.313,16.494.05,9.058,7.437,16.361,16.494,16.312,9.058-.051,16.363-7.435,16.312-16.492-.05-9.06-7.434-16.363-16.493-16.314Z"/>
        <path class="cls-7" d="M138.687,104.269c-7.832.043-14.147,6.428-14.103,14.26.043,7.83,6.429,14.145,14.26,14.102,7.831-.044,14.146-6.428,14.102-14.258-.043-7.833-6.427-14.146-14.259-14.104Z"/>
        <path class="cls-10" d="M138.7,106.491c-6.604.036-11.931,5.421-11.893,12.026.036,6.603,5.422,11.928,12.025,11.892,6.604-.037,11.93-5.421,11.893-12.024-.036-6.606-5.42-11.93-12.025-11.894Z"/>
        <path class="cls-9" d="M138.712,108.713c-5.377.03-9.714,4.413-9.683,9.791.029,5.376,4.414,9.711,9.79,9.682,5.377-.03,9.713-4.414,9.683-9.79-.03-5.378-4.413-9.713-9.79-9.684Z"/>
        <path class="cls-5" d="M138.724,110.935c-4.15.023-7.498,3.406-7.473,7.557.021,4.149,3.407,7.495,7.556,7.473,4.15-.024,7.497-3.407,7.473-7.556-.023-4.151-3.406-7.497-7.556-7.474Z"/>
        <path class="cls-6" d="M138.736,113.157c-2.923.016-5.281,2.399-5.263,5.323.014,2.922,2.4,5.278,5.321,5.263,2.922-.017,5.28-2.4,5.264-5.322-.016-2.924-2.399-5.28-5.322-5.264Z"/>
        <path class="cls-4" d="M138.749,115.379c-1.695.009-3.065,1.392-3.053,3.089.007,1.694,1.392,3.061,3.087,3.053,1.695-.01,3.064-1.393,3.054-3.087-.009-1.697-1.392-3.064-3.087-3.054Z"/>
        <path class="cls-3" d="M137.918,118.455c0,.467.385.845.852.843.468-.004.847-.386.844-.853-.002-.469-.385-.847-.853-.845-.468.002-.848.385-.843.854Z"/>
      </g>
      <g>
        <path class="cls-21" d="M187.648,129.614s-13.961,4.36-36.325-.065c0,0,5.416,18.134,20.65,16.963,13.565-1.046,15.675-16.898,15.675-16.898Z"/>
        <path class="cls-22" d="M187.118,130.526s-14.516,4.957-34.884-.063c0,0,3.421,7.577,19.461,7.091,14.256-.43,15.423-7.029,15.423-7.029Z"/>
      </g>
      <path class="cls-1" d="M186.89,76.881s10.566-4.116,22.152,4.211c0,0,.123-1.427-2.251-3.854-2.373-2.429-9.513-6.098-16.936-4.403,0,0-4.54,2.566-2.966,4.046Z"/>
      <path class="cls-1" d="M158.182,78.913s-12.126-5.069-25.677,3.995c0,0-.113-1.629,2.678-4.307,2.787-2.676,11.111-6.599,19.648-4.401,0,0,5.2,3.084,3.35,4.713Z"/>
      <path class="cls-27" d="M168.364,122.869c10.785,4.855,16.891-.071,17.531-5.238.419-3.364-1.375-6.437-4.57-7.832-6.576-2.865-10.885-13.313-10.927-13.421h0c-.12,2.357,1.917,11.323,10.194,16.58,1.788,1.135,2.885,2.302,2.682,3.965-.358,2.898-4.728,7.075-14.911,5.945h0Z"/>
      <path class="cls-1" d="M143.995,87.974s6.744-.239,7.563-2.811c0,0,1.025,3.522-3.007,4.917,1.374,1.532,2.301,3.767,2.422,6.303.23,4.817-2.521,8.859-6.147,9.032-3.623.173-6.745-3.593-6.977-8.409-.228-4.816,2.523-8.858,6.146-9.032Z"/>
      <path class="cls-1" d="M193.372,87.7s6.744-.238,7.566-2.81c0,0,1.022,3.522-3.008,4.917,1.373,1.531,2.3,3.767,2.422,6.303.23,4.816-2.523,8.859-6.146,9.032-3.626.173-6.747-3.593-6.98-8.409-.227-4.816,2.524-8.859,6.146-9.033Z"/>
      <path class="cls-26" d="M115.16,96.988s4.766-37.482,58.414-36.726c42.726.602,42.726,29.707,42.726,29.707,0,0,11.439-61.133-51.228-58.611-64.848,2.61-49.912,65.63-49.912,65.63Z"/>
    </g>
  </g>
  <path class="cls-20" d="M254.244,452.363s-62.083,15.242-159.077,6.084"/>
</svg>