<?xml version="1.0" encoding="UTF-8"?>
<svg id="Layer_1" data-name="Layer 1" xmlns="http://www.w3.org/2000/svg" xmlns:xlink="http://www.w3.org/1999/xlink" viewBox="0 0 758.58 859.933">
  <defs>
    <style>
      .cls-1 {
        fill: #21201f;
      }

      .cls-2 {
        fill: #502f26;
      }

      .cls-3 {
        fill: #9d8a79;
      }

      .cls-4 {
        fill: #d4b8a2;
      }

      .cls-5 {
        fill: #faa284;
      }

      .cls-6 {
        fill: #db7c65;
      }

      .cls-7 {
        fill: #ef8d72;
      }

      .cls-8 {
        fill: #922;
      }

      .cls-9 {
        fill: #997c28;
      }

      .cls-10 {
        fill: #141413;
      }

      .cls-11 {
        fill: #fff;
      }

      .cls-12 {
        fill: #efeeed;
      }

      .cls-13 {
        fill: #443c3b;
      }

      .cls-14 {
        fill: #703636;
      }

      .cls-15 {
        fill: #ad9683;
      }

      .cls-16 {
        fill: #332828;
      }

      .cls-17 {
        fill: #d6bb64;
      }

      .cls-18 {
        opacity: .2;
      }

      .cls-19 {
        fill: #594d41;
      }

      .cls-20 {
        fill: #cbdaed;
      }

      .cls-21 {
        fill: #eae2dc;
      }

      .cls-22 {
        fill: #897768;
      }

      .cls-23 {
        clip-path: url(#clippath);
      }

      .cls-24 {
        fill: #3f3e3d;
      }

      .cls-25 {
        fill: #a5b2bf;
      }
    </style>
    <clipPath id="clippath">
      <path class="cls-12" d="M632.536,281.507s-3.282-146.664-7.036-196.554c-1.75-23.256-27.774-12.405-41-10.53-21.162,3-35.876-6.789-37.5,1.461-4.81,24.424,3.006,111.644,3.006,111.644,0,0-13.805,75.979-14.006,93.979,0,0-13.335-161,3.75-222,0,0-4.419-41.334,48.5-41.334,58.615,0,57.316,30.333,60.076,45,0,0,21.128,106.088,23.795,139.237,0,0-13.926,68.429-39.585,79.097Z"/>
    </clipPath>
  </defs>
  <g>
    <path class="cls-19" d="M84.716,712.14h114.126l1.586,135.107h8.058l2.221-135.107h115.729l34.838,133.303,7.933-1.01-78.331-348.769H121.845l-80.526,348.667,7.939,1.011,35.458-133.202ZM210.785,704.466l3.164-196.485h60.945l50.293,196.485h-114.402ZM85.986,704.466l51.225-196.485h59.312l2.262,196.485h-112.799Z"/>
    <rect class="cls-21" x="39.744" y="82.211" width="331.037" height="503.338"/>
    <g>
      <path class="cls-17" d="M124.839,501.255c-7.586-13.114-11.951-28.33-11.951-44.577,0-24.623,9.977-46.913,26.117-63.047l63.047,63.047-77.213,44.577Z"/>
      <path class="cls-9" d="M211.219,458.205v-86.416c47.725,0,86.42,38.69,86.42,86.416s-38.695,86.414-86.42,86.414c-31.98,0-59.886-17.385-74.824-43.21l74.824-43.204Z"/>
      <path class="cls-17" d="M136.395,382.736c17.641-17.642,42.006-28.551,68.92-28.551v97.474l-68.92-68.923Z"/>
    </g>
    <rect class="cls-15" x="16.158" y="34.699" width="383" height="47"/>
    <rect class="cls-22" x="16.158" y="68.699" width="383" height="13"/>
    <g>
      <rect class="cls-19" x="298.158" y="133.699" width="5" height="182"/>
      <rect class="cls-19" x="81.158" y="309.699" width="222" height="6"/>
      <rect class="cls-17" x="94.158" y="285.699" width="20" height="24"/>
      <rect class="cls-17" x="124.158" y="275.699" width="17" height="34"/>
      <rect class="cls-17" x="152.158" y="245.699" width="20" height="64"/>
      <rect class="cls-17" x="179.158" y="203.699" width="20" height="106"/>
      <rect class="cls-17" x="207.158" y="179.699" width="22" height="130"/>
      <rect class="cls-17" x="237.01" y="162.698" width="22.53" height="147"/>
      <rect class="cls-17" x="267.158" y="144.699" width="18" height="165"/>
      <rect class="cls-4" x="81.158" y="323.699" width="219" height="9"/>
      <rect class="cls-4" x="312.158" y="133.699" width="9" height="176"/>
    </g>
    <rect class="cls-3" x="157.158" y="104.699" width="94" height="22"/>
    <rect class="cls-4" x="58.158" y="515.699" width="65" height="30"/>
    <rect class="cls-4" x="297.158" y="370.699" width="50" height="23"/>
    <rect class="cls-4" x="68.158" y="365.699" width="43" height="17"/>
  </g>
  <path class="cls-18" d="M369.227,297.423s-50.578-18.312-90.828-5.906c0,0-7.75,4.906,3.75,5.906s47,7.75,50,8.75l-3,5,15.25,8.972-2.25,6.778,28.107,26.75-1.029-56.25Z"/>
  <g>
    <path class="cls-5" d="M344.342,297.928s-32.777-4.549-49.814-3.411c-17.037,1.137-30.424,1.421-5.355-9.098,0,0,9.655-4.548,19.146-3.98,0,0-1.785-5.462,14.685-4.927,15.872.516,23.322.442,29.692,5.779l-8.354,15.636Z"/>
    <path class="cls-25" d="M523.359,195.333s-26.345,20.912-76.639,107.523c0,0-33.114-15.833-92.518-29.05,0,0-16.497,12.625-12.328,32.714,0,0,85.017,42.387,120.268,42.009,0,0,19.007-4.765,65.405-83.768,0,0,11.31-60.642-4.189-69.429Z"/>
  </g>
  <polygon class="cls-14" points="644.627 218.702 631.569 70.729 541.852 71.85 539.479 217.146 644.627 218.702"/>
  <ellipse class="cls-18" cx="368.319" cy="842.933" rx="368.319" ry="17"/>
  <g>
    <path class="cls-1" d="M627.833,833.699h57s3.35-15.143-8.546-35.143l-38.405.474s-11.049,15.669-10.049,34.669Z"/>
    <rect class="cls-10" x="628.158" y="833.699" width="57" height="9"/>
    <path class="cls-24" d="M677.833,817.871c0,3.899-9.627,7.062-21.5,7.062s-21.5-3.162-21.5-7.062,9.627-7.061,21.5-7.061,21.5,3.161,21.5,7.061Z"/>
  </g>
  <g>
    <path class="cls-1" d="M571.083,795.064s4.417,22.635,1.084,38.635h-107.334s-3.666-23.274,43-23.219l29.939-20.236,33.311,4.82Z"/>
    <path class="cls-10" d="M572.158,842.699h-36.2l-.436-6.197s-14.527,6.038-34.884,6.038c-9.896,0-35.479.393-35.479.393v-9.233h107v9Z"/>
    <path class="cls-24" d="M504.82,810.631s-1.577,16.538-38.615,15.753c0,0,5.102-15.055,38.615-15.753Z"/>
    <path class="cls-10" d="M537.5,833.699s1.039-27.171,35.187-27.336c0,0,1.813,18.336-.854,27.336h-34.333Z"/>
  </g>
  <g>
    <path class="cls-5" d="M576.436,175.665l-.68,24.74,40.984,1.126.884-32.185c-17.222,7.81-34.209,7.158-41.189,6.318Z"/>
    <path class="cls-7" d="M617.624,169.347l.683-24.794-40.985-1.127-.886,32.239c6.98.84,23.967,1.491,41.189-6.318Z"/>
  </g>
  <g>
    <path class="cls-20" d="M622.158,177.173v6s45.383,17.426,57.526,22.296c0,0-18.028,103.293-18.489,130.748-.461,27.455-1.288,76.206-1.288,76.206,0,0,28.85,293.992,36.992,385.371,0,0-89.197,24.879-191.538-3.121,0,0,5.025-298.5,7.838-377.5,1.777-194.248,5.643-194,10.24-221.84,0,0,36.719-9.66,50.719-12.66v-5.5s23,7.34,48,0Z"/>
    <path class="cls-25" d="M576.629,328.203l4-.059c-1.022-69.629,15.656-146.524,15.824-147.293l-3.906-.857c-.17.773-16.946,78.122-15.918,148.209Z"/>
  </g>
  <path class="cls-5" d="M677.122,405.085l-10.188-4.004-6.23,2.926c-6.672-.5-10.389-3.91-13.601-3.633-3.215.279-8.836-1.793-8.836-1.793-1.797,5.01,4.891,8.295,4.891,8.295-.451.02-.902.033-1.358.051-1.111.043-2.227.08-3.34.127-1.42.06-2.842.096-4.262.162-1.373.066-2.748.078-4.121.166-1.062.066-2.127.109-3.174.316-1.086.213-2.06.684-3.072,1.154-1.254.584-7.59,4.725-8.69,5.271-.514.254-1.576.775-1.576.779-.193,1.455.057,2.91,1.012,3.951,1.709,1.867,4.844,1.068,6.375.404,1.145-.498,2.604-1.443,3.67-2.141.916-.594.598-.742,2.381-.978,1.037-.137,2.09-.025,3.137-.047,2.273-.041,4.547-.068,6.822-.082.518-.004,1.035-.006,1.553-.01,0,0-9.967,4.432-12.994,6.135-2.266,1.271-7.514,9.523-7.514,9.523-3.807,5.906,4.381,5.853,4.381,5.853-.281.535-.638,1.42-.467,2.088.145.549.629.9,1.031,1.143.742.451,1.557.543,2.359.598,1.475.101,2.979-.064,4.32-.781.371-.199.729-.439,1.078-.689.34-.246.67-.51.996-.779.414-.344.812-.703,1.209-1.07,1.223-1.139,2.453-2.27,3.541-3.586.133-.158.4-.654.598-.713-.002-.002,7.979-2.432,7.979-2.432-2.369,2.152-3.992,7.779-7.139,10.939-.473.477-.941.996-1.287,1.615-.32.57-.656,1.391-.381,2.096.264.682.965.729,1.498.803,1.725.242,3.392-.193,4.957-.984.805-.406,1.557-.943,2.256-1.566.512-.455.984-.965,1.424-1.521.188-.236.381-.475.555-.772,3.592-6.656,8.41-10.725,16.307-8.799,11.379,2.775,15.666-14.226,15.666-14.226l-1.766-13.789Z"/>
  <path class="cls-20" d="M679.356,205.469s81.935,93.78,79.155,121.815c0,0-7.035,38.365-76.529,94.139,0,0-9.936-1.752-21.968-21.252l47.843-77.026-40.275-45.522s-6.349-47.151,11.774-72.153Z"/>
  <g>
    <path class="cls-5" d="M640.624,100.985l-4.047,4.619c-.276-6.493-.47-6.93-.577-10.432-.69-22.471-4.647-32.25-4.647-32.25-6.603-27.5-85.152-6.581-85.152-6.581,1.632,14.831-5.238,71.514,11.866,96.757,5.097,7.521,11.538,13.834,22.347,15.526,47.084,7.373,59.185-38.69,59.185-38.69,0,0,17.179,3.577,16.296-18.363-.695-17.275-15.27-10.586-15.27-10.586Z"/>
    <path class="cls-6" d="M546.2,56.342s78.55-20.919,85.152,6.581c0,0,3.095,7.66,4.288,24.981l-8.891,1.268s-4-14.5-18.126-12.625c-14.124,1.875-12.612,5.762-48.874,1.25-6.413-.798-11.167,6.334-13.594,17.801.156-8.414.476-35.337.044-39.257Z"/>
    <path class="cls-2" d="M571.236,105.853c-.039,4.05-2.497,7.142-5.493,6.9-2.996-.24-5.389-3.719-5.349-7.771.04-4.051,2.499-7.142,5.493-6.901,2.995.239,5.391,3.719,5.349,7.771Z"/>
    <path class="cls-2" d="M612.392,104.655c-.038,4.051-2.498,7.143-5.494,6.902-2.994-.241-5.391-3.721-5.349-7.77.04-4.052,2.501-7.142,5.491-6.902,2.996.239,5.393,3.72,5.351,7.77Z"/>
    <path class="cls-6" d="M586.829,128.842c-9.104,3.681-14.012-.604-14.377-4.911-.239-2.805,1.351-5.295,4.045-6.351,5.548-2.166,9.458-10.696,9.497-10.784h0c.024,1.961-1.954,9.333-8.991,13.427-1.521.885-2.469,1.819-2.354,3.206.205,2.414,3.694,6.019,12.18,5.413h0Z"/>
    <path class="cls-2" d="M552.735,84.953l-.398-2.741c.594-.047,9.992-2.605,21.019-1.676l.097,4.299c-9.033-1.336-20.571.107-20.717.118Z"/>
    <path class="cls-2" d="M619.562,86.39c-7.369-2.857-21.027-3.389-21.156-3.418l.898-3.92c.537.11,12.924.541,21.181,4.952l-.923,2.386Z"/>
    <path class="cls-13" d="M632.536,105.417s-5.37,26.922-15.536,26.422c-10.168-.5-39.667-4.333-58.334,2,0,0-8.442,3.114-11.666-21.072,0,0-1.358,59.109,42.769,57.406,38.855-1.5,47.38-33.56,47.38-33.56l-.223-29.817-4.39-1.379Z"/>
    <path class="cls-11" d="M602.657,134.699h-33.066s2.822,10.947,16.532,10.917c12.928-.028,16.384-7.917,16.534-10.917Z"/>
    <g>
      <path class="cls-12" d="M632.536,281.507s-3.282-146.664-7.036-196.554c-1.75-23.256-27.774-12.405-41-10.53-21.162,3-35.876-6.789-37.5,1.461-4.81,24.424,3.006,111.644,3.006,111.644,0,0-13.805,75.979-14.006,93.979,0,0-13.335-161,3.75-222,0,0-4.419-41.334,48.5-41.334,58.615,0,57.316,30.333,60.076,45,0,0,21.128,106.088,23.795,139.237,0,0-13.926,68.429-39.585,79.097Z"/>
      <g class="cls-23">
        <g>
          <g>
            <path class="cls-8" d="M669.326,12.149c1.242,1.596,3.195,1.676,4.648.545l.265-.205c1.453-1.131,1.854-3.044.613-4.64l-4.947-6.356c-1.241-1.595-3.426-1.972-4.879-.841l-.263.204c-1.454,1.131-1.626,3.341-.382,4.936l4.945,6.357Z"/>
            <path class="cls-8" d="M669.326,31.149c1.242,1.596,3.195,1.676,4.648.545l.265-.205c1.453-1.131,1.854-3.044.613-4.64l-4.947-6.356c-1.241-1.595-3.426-1.972-4.879-.841l-.263.204c-1.454,1.131-1.626,3.341-.382,4.936l4.945,6.357Z"/>
            <path class="cls-8" d="M669.326,50.149c1.242,1.596,3.195,1.676,4.648.545l.265-.205c1.453-1.131,1.854-3.044.613-4.64l-4.947-6.356c-1.241-1.595-3.426-1.972-4.879-.841l-.263.204c-1.454,1.131-1.626,3.341-.382,4.936l4.945,6.357Z"/>
            <path class="cls-8" d="M669.326,69.149c1.242,1.596,3.195,1.676,4.648.545l.265-.205c1.453-1.131,1.854-3.044.613-4.64l-4.947-6.356c-1.241-1.595-3.426-1.972-4.879-.841l-.263.204c-1.454,1.131-1.626,3.341-.382,4.936l4.945,6.357Z"/>
            <path class="cls-8" d="M669.326,88.149c1.242,1.596,3.195,1.676,4.648.545l.265-.205c1.453-1.131,1.854-3.044.613-4.64l-4.947-6.356c-1.241-1.595-3.426-1.972-4.879-.841l-.263.204c-1.454,1.131-1.626,3.341-.382,4.936l4.945,6.357Z"/>
            <path class="cls-8" d="M669.326,107.149c1.242,1.596,3.195,1.676,4.648.545l.265-.205c1.453-1.131,1.854-3.044.613-4.64l-4.947-6.356c-1.241-1.595-3.426-1.972-4.879-.841l-.263.204c-1.454,1.131-1.626,3.341-.382,4.936l4.945,6.357Z"/>
            <path class="cls-8" d="M669.326,126.149c1.242,1.596,3.195,1.676,4.648.545l.265-.205c1.453-1.131,1.854-3.044.613-4.64l-4.947-6.356c-1.241-1.595-3.426-1.972-4.879-.841l-.263.204c-1.454,1.131-1.626,3.341-.382,4.936l4.945,6.357Z"/>
            <path class="cls-8" d="M669.326,145.149c1.242,1.596,3.195,1.676,4.648.545l.265-.205c1.453-1.131,1.854-3.044.613-4.64l-4.947-6.356c-1.241-1.595-3.426-1.972-4.879-.841l-.263.204c-1.454,1.131-1.626,3.341-.382,4.936l4.945,6.357Z"/>
            <path class="cls-8" d="M669.326,164.149c1.242,1.596,3.195,1.676,4.648.545l.265-.205c1.453-1.131,1.854-3.044.613-4.64l-4.947-6.356c-1.241-1.595-3.426-1.972-4.879-.841l-.263.204c-1.454,1.131-1.626,3.341-.382,4.936l4.945,6.357Z"/>
            <path class="cls-8" d="M669.326,183.149c1.242,1.596,3.195,1.676,4.648.545l.265-.205c1.453-1.131,1.854-3.044.613-4.64l-4.947-6.356c-1.241-1.595-3.426-1.972-4.879-.841l-.263.204c-1.454,1.131-1.626,3.341-.382,4.936l4.945,6.357Z"/>
            <path class="cls-8" d="M669.326,202.149c1.242,1.596,3.195,1.676,4.648.545l.265-.205c1.453-1.131,1.854-3.044.613-4.64l-4.947-6.356c-1.241-1.595-3.426-1.972-4.879-.841l-.263.204c-1.454,1.131-1.626,3.341-.382,4.936l4.945,6.357Z"/>
            <path class="cls-8" d="M669.326,221.149c1.242,1.596,3.195,1.676,4.648.545l.265-.205c1.453-1.131,1.854-3.044.613-4.64l-4.947-6.356c-1.241-1.595-3.426-1.972-4.879-.841l-.263.204c-1.454,1.131-1.626,3.341-.382,4.936l4.945,6.357Z"/>
            <path class="cls-8" d="M669.326,240.149c1.242,1.596,3.195,1.676,4.648.545l.265-.205c1.453-1.131,1.854-3.044.613-4.64l-4.947-6.356c-1.241-1.595-3.426-1.972-4.879-.841l-.263.204c-1.454,1.131-1.626,3.341-.382,4.936l4.945,6.357Z"/>
            <path class="cls-8" d="M669.326,259.149c1.242,1.596,3.195,1.676,4.648.545l.265-.205c1.453-1.131,1.854-3.044.613-4.64l-4.947-6.356c-1.241-1.595-3.426-1.972-4.879-.841l-.263.204c-1.454,1.131-1.626,3.341-.382,4.936l4.945,6.357Z"/>
            <path class="cls-8" d="M669.326,278.149c1.242,1.596,3.195,1.676,4.648.545l.265-.205c1.453-1.131,1.854-3.044.613-4.64l-4.947-6.356c-1.241-1.595-3.426-1.972-4.879-.841l-.263.204c-1.454,1.131-1.626,3.341-.382,4.936l4.945,6.357Z"/>
            <path class="cls-8" d="M669.326,297.149c1.242,1.596,3.195,1.676,4.648.545l.265-.205c1.453-1.131,1.854-3.044.613-4.64l-4.947-6.356c-1.241-1.595-3.426-1.972-4.879-.841l-.263.204c-1.454,1.131-1.626,3.341-.382,4.936l4.945,6.357Z"/>
          </g>
          <g>
            <path class="cls-8" d="M650.326,12.149c1.242,1.596,3.195,1.676,4.648.545l.265-.205c1.453-1.131,1.854-3.044.613-4.64l-4.947-6.356c-1.241-1.595-3.426-1.972-4.879-.841l-.263.204c-1.454,1.131-1.626,3.341-.382,4.936l4.945,6.357Z"/>
            <path class="cls-8" d="M650.326,31.149c1.242,1.596,3.195,1.676,4.648.545l.265-.205c1.453-1.131,1.854-3.044.613-4.64l-4.947-6.356c-1.241-1.595-3.426-1.972-4.879-.841l-.263.204c-1.454,1.131-1.626,3.341-.382,4.936l4.945,6.357Z"/>
            <path class="cls-8" d="M650.326,50.149c1.242,1.596,3.195,1.676,4.648.545l.265-.205c1.453-1.131,1.854-3.044.613-4.64l-4.947-6.356c-1.241-1.595-3.426-1.972-4.879-.841l-.263.204c-1.454,1.131-1.626,3.341-.382,4.936l4.945,6.357Z"/>
            <path class="cls-8" d="M650.326,69.149c1.242,1.596,3.195,1.676,4.648.545l.265-.205c1.453-1.131,1.854-3.044.613-4.64l-4.947-6.356c-1.241-1.595-3.426-1.972-4.879-.841l-.263.204c-1.454,1.131-1.626,3.341-.382,4.936l4.945,6.357Z"/>
            <path class="cls-8" d="M650.326,88.149c1.242,1.596,3.195,1.676,4.648.545l.265-.205c1.453-1.131,1.854-3.044.613-4.64l-4.947-6.356c-1.241-1.595-3.426-1.972-4.879-.841l-.263.204c-1.454,1.131-1.626,3.341-.382,4.936l4.945,6.357Z"/>
            <path class="cls-8" d="M650.326,107.149c1.242,1.596,3.195,1.676,4.648.545l.265-.205c1.453-1.131,1.854-3.044.613-4.64l-4.947-6.356c-1.241-1.595-3.426-1.972-4.879-.841l-.263.204c-1.454,1.131-1.626,3.341-.382,4.936l4.945,6.357Z"/>
            <path class="cls-8" d="M650.326,126.149c1.242,1.596,3.195,1.676,4.648.545l.265-.205c1.453-1.131,1.854-3.044.613-4.64l-4.947-6.356c-1.241-1.595-3.426-1.972-4.879-.841l-.263.204c-1.454,1.131-1.626,3.341-.382,4.936l4.945,6.357Z"/>
            <path class="cls-8" d="M650.326,145.149c1.242,1.596,3.195,1.676,4.648.545l.265-.205c1.453-1.131,1.854-3.044.613-4.64l-4.947-6.356c-1.241-1.595-3.426-1.972-4.879-.841l-.263.204c-1.454,1.131-1.626,3.341-.382,4.936l4.945,6.357Z"/>
            <path class="cls-8" d="M650.326,164.149c1.242,1.596,3.195,1.676,4.648.545l.265-.205c1.453-1.131,1.854-3.044.613-4.64l-4.947-6.356c-1.241-1.595-3.426-1.972-4.879-.841l-.263.204c-1.454,1.131-1.626,3.341-.382,4.936l4.945,6.357Z"/>
            <path class="cls-8" d="M650.326,183.149c1.242,1.596,3.195,1.676,4.648.545l.265-.205c1.453-1.131,1.854-3.044.613-4.64l-4.947-6.356c-1.241-1.595-3.426-1.972-4.879-.841l-.263.204c-1.454,1.131-1.626,3.341-.382,4.936l4.945,6.357Z"/>
            <path class="cls-8" d="M650.326,202.149c1.242,1.596,3.195,1.676,4.648.545l.265-.205c1.453-1.131,1.854-3.044.613-4.64l-4.947-6.356c-1.241-1.595-3.426-1.972-4.879-.841l-.263.204c-1.454,1.131-1.626,3.341-.382,4.936l4.945,6.357Z"/>
            <path class="cls-8" d="M650.326,221.149c1.242,1.596,3.195,1.676,4.648.545l.265-.205c1.453-1.131,1.854-3.044.613-4.64l-4.947-6.356c-1.241-1.595-3.426-1.972-4.879-.841l-.263.204c-1.454,1.131-1.626,3.341-.382,4.936l4.945,6.357Z"/>
            <path class="cls-8" d="M650.326,240.149c1.242,1.596,3.195,1.676,4.648.545l.265-.205c1.453-1.131,1.854-3.044.613-4.64l-4.947-6.356c-1.241-1.595-3.426-1.972-4.879-.841l-.263.204c-1.454,1.131-1.626,3.341-.382,4.936l4.945,6.357Z"/>
            <path class="cls-8" d="M650.326,259.149c1.242,1.596,3.195,1.676,4.648.545l.265-.205c1.453-1.131,1.854-3.044.613-4.64l-4.947-6.356c-1.241-1.595-3.426-1.972-4.879-.841l-.263.204c-1.454,1.131-1.626,3.341-.382,4.936l4.945,6.357Z"/>
            <path class="cls-8" d="M650.326,278.149c1.242,1.596,3.195,1.676,4.648.545l.265-.205c1.453-1.131,1.854-3.044.613-4.64l-4.947-6.356c-1.241-1.595-3.426-1.972-4.879-.841l-.263.204c-1.454,1.131-1.626,3.341-.382,4.936l4.945,6.357Z"/>
            <path class="cls-8" d="M650.326,297.149c1.242,1.596,3.195,1.676,4.648.545l.265-.205c1.453-1.131,1.854-3.044.613-4.64l-4.947-6.356c-1.241-1.595-3.426-1.972-4.879-.841l-.263.204c-1.454,1.131-1.626,3.341-.382,4.936l4.945,6.357Z"/>
          </g>
          <g>
            <path class="cls-8" d="M631.326,12.149c1.242,1.596,3.195,1.676,4.648.545l.265-.205c1.453-1.131,1.854-3.044.613-4.64l-4.947-6.356c-1.241-1.595-3.426-1.972-4.879-.841l-.263.204c-1.454,1.131-1.626,3.341-.382,4.936l4.945,6.357Z"/>
            <path class="cls-8" d="M631.326,31.149c1.242,1.596,3.195,1.676,4.648.545l.265-.205c1.453-1.131,1.854-3.044.613-4.64l-4.947-6.356c-1.241-1.595-3.426-1.972-4.879-.841l-.263.204c-1.454,1.131-1.626,3.341-.382,4.936l4.945,6.357Z"/>
            <path class="cls-8" d="M631.326,50.149c1.242,1.596,3.195,1.676,4.648.545l.265-.205c1.453-1.131,1.854-3.044.613-4.64l-4.947-6.356c-1.241-1.595-3.426-1.972-4.879-.841l-.263.204c-1.454,1.131-1.626,3.341-.382,4.936l4.945,6.357Z"/>
            <path class="cls-8" d="M631.326,69.149c1.242,1.596,3.195,1.676,4.648.545l.265-.205c1.453-1.131,1.854-3.044.613-4.64l-4.947-6.356c-1.241-1.595-3.426-1.972-4.879-.841l-.263.204c-1.454,1.131-1.626,3.341-.382,4.936l4.945,6.357Z"/>
            <path class="cls-8" d="M631.326,88.149c1.242,1.596,3.195,1.676,4.648.545l.265-.205c1.453-1.131,1.854-3.044.613-4.64l-4.947-6.356c-1.241-1.595-3.426-1.972-4.879-.841l-.263.204c-1.454,1.131-1.626,3.341-.382,4.936l4.945,6.357Z"/>
            <path class="cls-8" d="M631.326,107.149c1.242,1.596,3.195,1.676,4.648.545l.265-.205c1.453-1.131,1.854-3.044.613-4.64l-4.947-6.356c-1.241-1.595-3.426-1.972-4.879-.841l-.263.204c-1.454,1.131-1.626,3.341-.382,4.936l4.945,6.357Z"/>
            <path class="cls-8" d="M631.326,126.149c1.242,1.596,3.195,1.676,4.648.545l.265-.205c1.453-1.131,1.854-3.044.613-4.64l-4.947-6.356c-1.241-1.595-3.426-1.972-4.879-.841l-.263.204c-1.454,1.131-1.626,3.341-.382,4.936l4.945,6.357Z"/>
            <path class="cls-8" d="M631.326,145.149c1.242,1.596,3.195,1.676,4.648.545l.265-.205c1.453-1.131,1.854-3.044.613-4.64l-4.947-6.356c-1.241-1.595-3.426-1.972-4.879-.841l-.263.204c-1.454,1.131-1.626,3.341-.382,4.936l4.945,6.357Z"/>
            <path class="cls-8" d="M631.326,164.149c1.242,1.596,3.195,1.676,4.648.545l.265-.205c1.453-1.131,1.854-3.044.613-4.64l-4.947-6.356c-1.241-1.595-3.426-1.972-4.879-.841l-.263.204c-1.454,1.131-1.626,3.341-.382,4.936l4.945,6.357Z"/>
            <path class="cls-8" d="M631.326,183.149c1.242,1.596,3.195,1.676,4.648.545l.265-.205c1.453-1.131,1.854-3.044.613-4.64l-4.947-6.356c-1.241-1.595-3.426-1.972-4.879-.841l-.263.204c-1.454,1.131-1.626,3.341-.382,4.936l4.945,6.357Z"/>
            <path class="cls-8" d="M631.326,202.149c1.242,1.596,3.195,1.676,4.648.545l.265-.205c1.453-1.131,1.854-3.044.613-4.64l-4.947-6.356c-1.241-1.595-3.426-1.972-4.879-.841l-.263.204c-1.454,1.131-1.626,3.341-.382,4.936l4.945,6.357Z"/>
            <path class="cls-8" d="M631.326,221.149c1.242,1.596,3.195,1.676,4.648.545l.265-.205c1.453-1.131,1.854-3.044.613-4.64l-4.947-6.356c-1.241-1.595-3.426-1.972-4.879-.841l-.263.204c-1.454,1.131-1.626,3.341-.382,4.936l4.945,6.357Z"/>
            <path class="cls-8" d="M631.326,240.149c1.242,1.596,3.195,1.676,4.648.545l.265-.205c1.453-1.131,1.854-3.044.613-4.64l-4.947-6.356c-1.241-1.595-3.426-1.972-4.879-.841l-.263.204c-1.454,1.131-1.626,3.341-.382,4.936l4.945,6.357Z"/>
            <path class="cls-8" d="M631.326,259.149c1.242,1.596,3.195,1.676,4.648.545l.265-.205c1.453-1.131,1.854-3.044.613-4.64l-4.947-6.356c-1.241-1.595-3.426-1.972-4.879-.841l-.263.204c-1.454,1.131-1.626,3.341-.382,4.936l4.945,6.357Z"/>
            <path class="cls-8" d="M631.326,278.149c1.242,1.596,3.195,1.676,4.648.545l.265-.205c1.453-1.131,1.854-3.044.613-4.64l-4.947-6.356c-1.241-1.595-3.426-1.972-4.879-.841l-.263.204c-1.454,1.131-1.626,3.341-.382,4.936l4.945,6.357Z"/>
            <path class="cls-8" d="M631.326,297.149c1.242,1.596,3.195,1.676,4.648.545l.265-.205c1.453-1.131,1.854-3.044.613-4.64l-4.947-6.356c-1.241-1.595-3.426-1.972-4.879-.841l-.263.204c-1.454,1.131-1.626,3.341-.382,4.936l4.945,6.357Z"/>
          </g>
          <g>
            <path class="cls-8" d="M612.326,12.149c1.242,1.596,3.195,1.676,4.648.545l.265-.205c1.453-1.131,1.854-3.044.613-4.64l-4.947-6.356c-1.241-1.595-3.426-1.972-4.879-.841l-.263.204c-1.454,1.131-1.626,3.341-.382,4.936l4.945,6.357Z"/>
            <path class="cls-8" d="M612.326,31.149c1.242,1.596,3.195,1.676,4.648.545l.265-.205c1.453-1.131,1.854-3.044.613-4.64l-4.947-6.356c-1.241-1.595-3.426-1.972-4.879-.841l-.263.204c-1.454,1.131-1.626,3.341-.382,4.936l4.945,6.357Z"/>
            <path class="cls-8" d="M612.326,50.149c1.242,1.596,3.195,1.676,4.648.545l.265-.205c1.453-1.131,1.854-3.044.613-4.64l-4.947-6.356c-1.241-1.595-3.426-1.972-4.879-.841l-.263.204c-1.454,1.131-1.626,3.341-.382,4.936l4.945,6.357Z"/>
            <path class="cls-8" d="M612.326,69.149c1.242,1.596,3.195,1.676,4.648.545l.265-.205c1.453-1.131,1.854-3.044.613-4.64l-4.947-6.356c-1.241-1.595-3.426-1.972-4.879-.841l-.263.204c-1.454,1.131-1.626,3.341-.382,4.936l4.945,6.357Z"/>
            <path class="cls-8" d="M612.326,88.149c1.242,1.596,3.195,1.676,4.648.545l.265-.205c1.453-1.131,1.854-3.044.613-4.64l-4.947-6.356c-1.241-1.595-3.426-1.972-4.879-.841l-.263.204c-1.454,1.131-1.626,3.341-.382,4.936l4.945,6.357Z"/>
            <path class="cls-8" d="M612.326,107.149c1.242,1.596,3.195,1.676,4.648.545l.265-.205c1.453-1.131,1.854-3.044.613-4.64l-4.947-6.356c-1.241-1.595-3.426-1.972-4.879-.841l-.263.204c-1.454,1.131-1.626,3.341-.382,4.936l4.945,6.357Z"/>
            <path class="cls-8" d="M612.326,126.149c1.242,1.596,3.195,1.676,4.648.545l.265-.205c1.453-1.131,1.854-3.044.613-4.64l-4.947-6.356c-1.241-1.595-3.426-1.972-4.879-.841l-.263.204c-1.454,1.131-1.626,3.341-.382,4.936l4.945,6.357Z"/>
            <path class="cls-8" d="M612.326,145.149c1.242,1.596,3.195,1.676,4.648.545l.265-.205c1.453-1.131,1.854-3.044.613-4.64l-4.947-6.356c-1.241-1.595-3.426-1.972-4.879-.841l-.263.204c-1.454,1.131-1.626,3.341-.382,4.936l4.945,6.357Z"/>
            <path class="cls-8" d="M612.326,164.149c1.242,1.596,3.195,1.676,4.648.545l.265-.205c1.453-1.131,1.854-3.044.613-4.64l-4.947-6.356c-1.241-1.595-3.426-1.972-4.879-.841l-.263.204c-1.454,1.131-1.626,3.341-.382,4.936l4.945,6.357Z"/>
            <path class="cls-8" d="M612.326,183.149c1.242,1.596,3.195,1.676,4.648.545l.265-.205c1.453-1.131,1.854-3.044.613-4.64l-4.947-6.356c-1.241-1.595-3.426-1.972-4.879-.841l-.263.204c-1.454,1.131-1.626,3.341-.382,4.936l4.945,6.357Z"/>
            <path class="cls-8" d="M612.326,202.149c1.242,1.596,3.195,1.676,4.648.545l.265-.205c1.453-1.131,1.854-3.044.613-4.64l-4.947-6.356c-1.241-1.595-3.426-1.972-4.879-.841l-.263.204c-1.454,1.131-1.626,3.341-.382,4.936l4.945,6.357Z"/>
            <path class="cls-8" d="M612.326,221.149c1.242,1.596,3.195,1.676,4.648.545l.265-.205c1.453-1.131,1.854-3.044.613-4.64l-4.947-6.356c-1.241-1.595-3.426-1.972-4.879-.841l-.263.204c-1.454,1.131-1.626,3.341-.382,4.936l4.945,6.357Z"/>
            <path class="cls-8" d="M612.326,240.149c1.242,1.596,3.195,1.676,4.648.545l.265-.205c1.453-1.131,1.854-3.044.613-4.64l-4.947-6.356c-1.241-1.595-3.426-1.972-4.879-.841l-.263.204c-1.454,1.131-1.626,3.341-.382,4.936l4.945,6.357Z"/>
            <path class="cls-8" d="M612.326,259.149c1.242,1.596,3.195,1.676,4.648.545l.265-.205c1.453-1.131,1.854-3.044.613-4.64l-4.947-6.356c-1.241-1.595-3.426-1.972-4.879-.841l-.263.204c-1.454,1.131-1.626,3.341-.382,4.936l4.945,6.357Z"/>
            <path class="cls-8" d="M612.326,278.149c1.242,1.596,3.195,1.676,4.648.545l.265-.205c1.453-1.131,1.854-3.044.613-4.64l-4.947-6.356c-1.241-1.595-3.426-1.972-4.879-.841l-.263.204c-1.454,1.131-1.626,3.341-.382,4.936l4.945,6.357Z"/>
            <path class="cls-8" d="M612.326,297.149c1.242,1.596,3.195,1.676,4.648.545l.265-.205c1.453-1.131,1.854-3.044.613-4.64l-4.947-6.356c-1.241-1.595-3.426-1.972-4.879-.841l-.263.204c-1.454,1.131-1.626,3.341-.382,4.936l4.945,6.357Z"/>
          </g>
          <g>
            <path class="cls-8" d="M593.326,12.149c1.242,1.596,3.195,1.676,4.648.545l.265-.205c1.453-1.131,1.854-3.044.613-4.64l-4.947-6.356c-1.241-1.595-3.426-1.972-4.879-.841l-.263.204c-1.454,1.131-1.626,3.341-.382,4.936l4.945,6.357Z"/>
            <path class="cls-8" d="M593.326,31.149c1.242,1.596,3.195,1.676,4.648.545l.265-.205c1.453-1.131,1.854-3.044.613-4.64l-4.947-6.356c-1.241-1.595-3.426-1.972-4.879-.841l-.263.204c-1.454,1.131-1.626,3.341-.382,4.936l4.945,6.357Z"/>
            <path class="cls-8" d="M593.326,50.149c1.242,1.596,3.195,1.676,4.648.545l.265-.205c1.453-1.131,1.854-3.044.613-4.64l-4.947-6.356c-1.241-1.595-3.426-1.972-4.879-.841l-.263.204c-1.454,1.131-1.626,3.341-.382,4.936l4.945,6.357Z"/>
            <path class="cls-8" d="M593.326,69.149c1.242,1.596,3.195,1.676,4.648.545l.265-.205c1.453-1.131,1.854-3.044.613-4.64l-4.947-6.356c-1.241-1.595-3.426-1.972-4.879-.841l-.263.204c-1.454,1.131-1.626,3.341-.382,4.936l4.945,6.357Z"/>
            <path class="cls-8" d="M593.326,88.149c1.242,1.596,3.195,1.676,4.648.545l.265-.205c1.453-1.131,1.854-3.044.613-4.64l-4.947-6.356c-1.241-1.595-3.426-1.972-4.879-.841l-.263.204c-1.454,1.131-1.626,3.341-.382,4.936l4.945,6.357Z"/>
            <path class="cls-8" d="M593.326,107.149c1.242,1.596,3.195,1.676,4.648.545l.265-.205c1.453-1.131,1.854-3.044.613-4.64l-4.947-6.356c-1.241-1.595-3.426-1.972-4.879-.841l-.263.204c-1.454,1.131-1.626,3.341-.382,4.936l4.945,6.357Z"/>
            <path class="cls-8" d="M593.326,126.149c1.242,1.596,3.195,1.676,4.648.545l.265-.205c1.453-1.131,1.854-3.044.613-4.64l-4.947-6.356c-1.241-1.595-3.426-1.972-4.879-.841l-.263.204c-1.454,1.131-1.626,3.341-.382,4.936l4.945,6.357Z"/>
            <path class="cls-8" d="M593.326,145.149c1.242,1.596,3.195,1.676,4.648.545l.265-.205c1.453-1.131,1.854-3.044.613-4.64l-4.947-6.356c-1.241-1.595-3.426-1.972-4.879-.841l-.263.204c-1.454,1.131-1.626,3.341-.382,4.936l4.945,6.357Z"/>
            <path class="cls-8" d="M593.326,164.149c1.242,1.596,3.195,1.676,4.648.545l.265-.205c1.453-1.131,1.854-3.044.613-4.64l-4.947-6.356c-1.241-1.595-3.426-1.972-4.879-.841l-.263.204c-1.454,1.131-1.626,3.341-.382,4.936l4.945,6.357Z"/>
            <path class="cls-8" d="M593.326,183.149c1.242,1.596,3.195,1.676,4.648.545l.265-.205c1.453-1.131,1.854-3.044.613-4.64l-4.947-6.356c-1.241-1.595-3.426-1.972-4.879-.841l-.263.204c-1.454,1.131-1.626,3.341-.382,4.936l4.945,6.357Z"/>
            <path class="cls-8" d="M593.326,202.149c1.242,1.596,3.195,1.676,4.648.545l.265-.205c1.453-1.131,1.854-3.044.613-4.64l-4.947-6.356c-1.241-1.595-3.426-1.972-4.879-.841l-.263.204c-1.454,1.131-1.626,3.341-.382,4.936l4.945,6.357Z"/>
            <path class="cls-8" d="M593.326,221.149c1.242,1.596,3.195,1.676,4.648.545l.265-.205c1.453-1.131,1.854-3.044.613-4.64l-4.947-6.356c-1.241-1.595-3.426-1.972-4.879-.841l-.263.204c-1.454,1.131-1.626,3.341-.382,4.936l4.945,6.357Z"/>
            <path class="cls-8" d="M593.326,240.149c1.242,1.596,3.195,1.676,4.648.545l.265-.205c1.453-1.131,1.854-3.044.613-4.64l-4.947-6.356c-1.241-1.595-3.426-1.972-4.879-.841l-.263.204c-1.454,1.131-1.626,3.341-.382,4.936l4.945,6.357Z"/>
            <path class="cls-8" d="M593.326,259.149c1.242,1.596,3.195,1.676,4.648.545l.265-.205c1.453-1.131,1.854-3.044.613-4.64l-4.947-6.356c-1.241-1.595-3.426-1.972-4.879-.841l-.263.204c-1.454,1.131-1.626,3.341-.382,4.936l4.945,6.357Z"/>
            <path class="cls-8" d="M593.326,278.149c1.242,1.596,3.195,1.676,4.648.545l.265-.205c1.453-1.131,1.854-3.044.613-4.64l-4.947-6.356c-1.241-1.595-3.426-1.972-4.879-.841l-.263.204c-1.454,1.131-1.626,3.341-.382,4.936l4.945,6.357Z"/>
            <path class="cls-8" d="M593.326,297.149c1.242,1.596,3.195,1.676,4.648.545l.265-.205c1.453-1.131,1.854-3.044.613-4.64l-4.947-6.356c-1.241-1.595-3.426-1.972-4.879-.841l-.263.204c-1.454,1.131-1.626,3.341-.382,4.936l4.945,6.357Z"/>
          </g>
          <g>
            <path class="cls-8" d="M574.326,12.149c1.242,1.596,3.195,1.676,4.648.545l.265-.205c1.453-1.131,1.854-3.044.613-4.64l-4.947-6.356c-1.241-1.595-3.426-1.972-4.879-.841l-.263.204c-1.454,1.131-1.626,3.341-.382,4.936l4.945,6.357Z"/>
            <path class="cls-8" d="M574.326,31.149c1.242,1.596,3.195,1.676,4.648.545l.265-.205c1.453-1.131,1.854-3.044.613-4.64l-4.947-6.356c-1.241-1.595-3.426-1.972-4.879-.841l-.263.204c-1.454,1.131-1.626,3.341-.382,4.936l4.945,6.357Z"/>
            <path class="cls-8" d="M574.326,50.149c1.242,1.596,3.195,1.676,4.648.545l.265-.205c1.453-1.131,1.854-3.044.613-4.64l-4.947-6.356c-1.241-1.595-3.426-1.972-4.879-.841l-.263.204c-1.454,1.131-1.626,3.341-.382,4.936l4.945,6.357Z"/>
            <path class="cls-8" d="M574.326,69.149c1.242,1.596,3.195,1.676,4.648.545l.265-.205c1.453-1.131,1.854-3.044.613-4.64l-4.947-6.356c-1.241-1.595-3.426-1.972-4.879-.841l-.263.204c-1.454,1.131-1.626,3.341-.382,4.936l4.945,6.357Z"/>
            <path class="cls-8" d="M574.326,88.149c1.242,1.596,3.195,1.676,4.648.545l.265-.205c1.453-1.131,1.854-3.044.613-4.64l-4.947-6.356c-1.241-1.595-3.426-1.972-4.879-.841l-.263.204c-1.454,1.131-1.626,3.341-.382,4.936l4.945,6.357Z"/>
            <path class="cls-8" d="M574.326,107.149c1.242,1.596,3.195,1.676,4.648.545l.265-.205c1.453-1.131,1.854-3.044.613-4.64l-4.947-6.356c-1.241-1.595-3.426-1.972-4.879-.841l-.263.204c-1.454,1.131-1.626,3.341-.382,4.936l4.945,6.357Z"/>
            <path class="cls-8" d="M574.326,126.149c1.242,1.596,3.195,1.676,4.648.545l.265-.205c1.453-1.131,1.854-3.044.613-4.64l-4.947-6.356c-1.241-1.595-3.426-1.972-4.879-.841l-.263.204c-1.454,1.131-1.626,3.341-.382,4.936l4.945,6.357Z"/>
            <path class="cls-8" d="M574.326,145.149c1.242,1.596,3.195,1.676,4.648.545l.265-.205c1.453-1.131,1.854-3.044.613-4.64l-4.947-6.356c-1.241-1.595-3.426-1.972-4.879-.841l-.263.204c-1.454,1.131-1.626,3.341-.382,4.936l4.945,6.357Z"/>
            <path class="cls-8" d="M574.326,164.149c1.242,1.596,3.195,1.676,4.648.545l.265-.205c1.453-1.131,1.854-3.044.613-4.64l-4.947-6.356c-1.241-1.595-3.426-1.972-4.879-.841l-.263.204c-1.454,1.131-1.626,3.341-.382,4.936l4.945,6.357Z"/>
            <path class="cls-8" d="M574.326,183.149c1.242,1.596,3.195,1.676,4.648.545l.265-.205c1.453-1.131,1.854-3.044.613-4.64l-4.947-6.356c-1.241-1.595-3.426-1.972-4.879-.841l-.263.204c-1.454,1.131-1.626,3.341-.382,4.936l4.945,6.357Z"/>
            <path class="cls-8" d="M574.326,202.149c1.242,1.596,3.195,1.676,4.648.545l.265-.205c1.453-1.131,1.854-3.044.613-4.64l-4.947-6.356c-1.241-1.595-3.426-1.972-4.879-.841l-.263.204c-1.454,1.131-1.626,3.341-.382,4.936l4.945,6.357Z"/>
            <path class="cls-8" d="M574.326,221.149c1.242,1.596,3.195,1.676,4.648.545l.265-.205c1.453-1.131,1.854-3.044.613-4.64l-4.947-6.356c-1.241-1.595-3.426-1.972-4.879-.841l-.263.204c-1.454,1.131-1.626,3.341-.382,4.936l4.945,6.357Z"/>
            <path class="cls-8" d="M574.326,240.149c1.242,1.596,3.195,1.676,4.648.545l.265-.205c1.453-1.131,1.854-3.044.613-4.64l-4.947-6.356c-1.241-1.595-3.426-1.972-4.879-.841l-.263.204c-1.454,1.131-1.626,3.341-.382,4.936l4.945,6.357Z"/>
            <path class="cls-8" d="M574.326,259.149c1.242,1.596,3.195,1.676,4.648.545l.265-.205c1.453-1.131,1.854-3.044.613-4.64l-4.947-6.356c-1.241-1.595-3.426-1.972-4.879-.841l-.263.204c-1.454,1.131-1.626,3.341-.382,4.936l4.945,6.357Z"/>
            <path class="cls-8" d="M574.326,278.149c1.242,1.596,3.195,1.676,4.648.545l.265-.205c1.453-1.131,1.854-3.044.613-4.64l-4.947-6.356c-1.241-1.595-3.426-1.972-4.879-.841l-.263.204c-1.454,1.131-1.626,3.341-.382,4.936l4.945,6.357Z"/>
            <path class="cls-8" d="M574.326,297.149c1.242,1.596,3.195,1.676,4.648.545l.265-.205c1.453-1.131,1.854-3.044.613-4.64l-4.947-6.356c-1.241-1.595-3.426-1.972-4.879-.841l-.263.204c-1.454,1.131-1.626,3.341-.382,4.936l4.945,6.357Z"/>
          </g>
          <g>
            <path class="cls-8" d="M555.326,12.149c1.242,1.596,3.195,1.676,4.648.545l.265-.205c1.453-1.131,1.854-3.044.613-4.64l-4.947-6.356c-1.241-1.595-3.426-1.972-4.879-.841l-.263.204c-1.454,1.131-1.626,3.341-.382,4.936l4.945,6.357Z"/>
            <path class="cls-8" d="M555.326,31.149c1.242,1.596,3.195,1.676,4.648.545l.265-.205c1.453-1.131,1.854-3.044.613-4.64l-4.947-6.356c-1.241-1.595-3.426-1.972-4.879-.841l-.263.204c-1.454,1.131-1.626,3.341-.382,4.936l4.945,6.357Z"/>
            <path class="cls-8" d="M555.326,50.149c1.242,1.596,3.195,1.676,4.648.545l.265-.205c1.453-1.131,1.854-3.044.613-4.64l-4.947-6.356c-1.241-1.595-3.426-1.972-4.879-.841l-.263.204c-1.454,1.131-1.626,3.341-.382,4.936l4.945,6.357Z"/>
            <path class="cls-8" d="M555.326,69.149c1.242,1.596,3.195,1.676,4.648.545l.265-.205c1.453-1.131,1.854-3.044.613-4.64l-4.947-6.356c-1.241-1.595-3.426-1.972-4.879-.841l-.263.204c-1.454,1.131-1.626,3.341-.382,4.936l4.945,6.357Z"/>
            <path class="cls-8" d="M555.326,88.149c1.242,1.596,3.195,1.676,4.648.545l.265-.205c1.453-1.131,1.854-3.044.613-4.64l-4.947-6.356c-1.241-1.595-3.426-1.972-4.879-.841l-.263.204c-1.454,1.131-1.626,3.341-.382,4.936l4.945,6.357Z"/>
            <path class="cls-8" d="M555.326,107.149c1.242,1.596,3.195,1.676,4.648.545l.265-.205c1.453-1.131,1.854-3.044.613-4.64l-4.947-6.356c-1.241-1.595-3.426-1.972-4.879-.841l-.263.204c-1.454,1.131-1.626,3.341-.382,4.936l4.945,6.357Z"/>
            <path class="cls-8" d="M555.326,126.149c1.242,1.596,3.195,1.676,4.648.545l.265-.205c1.453-1.131,1.854-3.044.613-4.64l-4.947-6.356c-1.241-1.595-3.426-1.972-4.879-.841l-.263.204c-1.454,1.131-1.626,3.341-.382,4.936l4.945,6.357Z"/>
            <path class="cls-8" d="M555.326,145.149c1.242,1.596,3.195,1.676,4.648.545l.265-.205c1.453-1.131,1.854-3.044.613-4.64l-4.947-6.356c-1.241-1.595-3.426-1.972-4.879-.841l-.263.204c-1.454,1.131-1.626,3.341-.382,4.936l4.945,6.357Z"/>
            <path class="cls-8" d="M555.326,164.149c1.242,1.596,3.195,1.676,4.648.545l.265-.205c1.453-1.131,1.854-3.044.613-4.64l-4.947-6.356c-1.241-1.595-3.426-1.972-4.879-.841l-.263.204c-1.454,1.131-1.626,3.341-.382,4.936l4.945,6.357Z"/>
            <path class="cls-8" d="M555.326,183.149c1.242,1.596,3.195,1.676,4.648.545l.265-.205c1.453-1.131,1.854-3.044.613-4.64l-4.947-6.356c-1.241-1.595-3.426-1.972-4.879-.841l-.263.204c-1.454,1.131-1.626,3.341-.382,4.936l4.945,6.357Z"/>
            <path class="cls-8" d="M555.326,202.149c1.242,1.596,3.195,1.676,4.648.545l.265-.205c1.453-1.131,1.854-3.044.613-4.64l-4.947-6.356c-1.241-1.595-3.426-1.972-4.879-.841l-.263.204c-1.454,1.131-1.626,3.341-.382,4.936l4.945,6.357Z"/>
            <path class="cls-8" d="M555.326,221.149c1.242,1.596,3.195,1.676,4.648.545l.265-.205c1.453-1.131,1.854-3.044.613-4.64l-4.947-6.356c-1.241-1.595-3.426-1.972-4.879-.841l-.263.204c-1.454,1.131-1.626,3.341-.382,4.936l4.945,6.357Z"/>
            <path class="cls-8" d="M555.326,240.149c1.242,1.596,3.195,1.676,4.648.545l.265-.205c1.453-1.131,1.854-3.044.613-4.64l-4.947-6.356c-1.241-1.595-3.426-1.972-4.879-.841l-.263.204c-1.454,1.131-1.626,3.341-.382,4.936l4.945,6.357Z"/>
            <path class="cls-8" d="M555.326,259.149c1.242,1.596,3.195,1.676,4.648.545l.265-.205c1.453-1.131,1.854-3.044.613-4.64l-4.947-6.356c-1.241-1.595-3.426-1.972-4.879-.841l-.263.204c-1.454,1.131-1.626,3.341-.382,4.936l4.945,6.357Z"/>
            <path class="cls-8" d="M555.326,278.149c1.242,1.596,3.195,1.676,4.648.545l.265-.205c1.453-1.131,1.854-3.044.613-4.64l-4.947-6.356c-1.241-1.595-3.426-1.972-4.879-.841l-.263.204c-1.454,1.131-1.626,3.341-.382,4.936l4.945,6.357Z"/>
            <path class="cls-8" d="M555.326,297.149c1.242,1.596,3.195,1.676,4.648.545l.265-.205c1.453-1.131,1.854-3.044.613-4.64l-4.947-6.356c-1.241-1.595-3.426-1.972-4.879-.841l-.263.204c-1.454,1.131-1.626,3.341-.382,4.936l4.945,6.357Z"/>
          </g>
          <g>
            <path class="cls-8" d="M536.326,12.149c1.242,1.596,3.195,1.676,4.648.545l.265-.205c1.453-1.131,1.854-3.044.613-4.64l-4.947-6.356c-1.241-1.595-3.426-1.972-4.879-.841l-.263.204c-1.454,1.131-1.626,3.341-.382,4.936l4.945,6.357Z"/>
            <path class="cls-8" d="M536.326,31.149c1.242,1.596,3.195,1.676,4.648.545l.265-.205c1.453-1.131,1.854-3.044.613-4.64l-4.947-6.356c-1.241-1.595-3.426-1.972-4.879-.841l-.263.204c-1.454,1.131-1.626,3.341-.382,4.936l4.945,6.357Z"/>
            <path class="cls-8" d="M536.326,50.149c1.242,1.596,3.195,1.676,4.648.545l.265-.205c1.453-1.131,1.854-3.044.613-4.64l-4.947-6.356c-1.241-1.595-3.426-1.972-4.879-.841l-.263.204c-1.454,1.131-1.626,3.341-.382,4.936l4.945,6.357Z"/>
            <path class="cls-8" d="M536.326,69.149c1.242,1.596,3.195,1.676,4.648.545l.265-.205c1.453-1.131,1.854-3.044.613-4.64l-4.947-6.356c-1.241-1.595-3.426-1.972-4.879-.841l-.263.204c-1.454,1.131-1.626,3.341-.382,4.936l4.945,6.357Z"/>
            <path class="cls-8" d="M536.326,88.149c1.242,1.596,3.195,1.676,4.648.545l.265-.205c1.453-1.131,1.854-3.044.613-4.64l-4.947-6.356c-1.241-1.595-3.426-1.972-4.879-.841l-.263.204c-1.454,1.131-1.626,3.341-.382,4.936l4.945,6.357Z"/>
            <path class="cls-8" d="M536.326,107.149c1.242,1.596,3.195,1.676,4.648.545l.265-.205c1.453-1.131,1.854-3.044.613-4.64l-4.947-6.356c-1.241-1.595-3.426-1.972-4.879-.841l-.263.204c-1.454,1.131-1.626,3.341-.382,4.936l4.945,6.357Z"/>
            <path class="cls-8" d="M536.326,126.149c1.242,1.596,3.195,1.676,4.648.545l.265-.205c1.453-1.131,1.854-3.044.613-4.64l-4.947-6.356c-1.241-1.595-3.426-1.972-4.879-.841l-.263.204c-1.454,1.131-1.626,3.341-.382,4.936l4.945,6.357Z"/>
            <path class="cls-8" d="M536.326,145.149c1.242,1.596,3.195,1.676,4.648.545l.265-.205c1.453-1.131,1.854-3.044.613-4.64l-4.947-6.356c-1.241-1.595-3.426-1.972-4.879-.841l-.263.204c-1.454,1.131-1.626,3.341-.382,4.936l4.945,6.357Z"/>
            <path class="cls-8" d="M536.326,164.149c1.242,1.596,3.195,1.676,4.648.545l.265-.205c1.453-1.131,1.854-3.044.613-4.64l-4.947-6.356c-1.241-1.595-3.426-1.972-4.879-.841l-.263.204c-1.454,1.131-1.626,3.341-.382,4.936l4.945,6.357Z"/>
            <path class="cls-8" d="M536.326,183.149c1.242,1.596,3.195,1.676,4.648.545l.265-.205c1.453-1.131,1.854-3.044.613-4.64l-4.947-6.356c-1.241-1.595-3.426-1.972-4.879-.841l-.263.204c-1.454,1.131-1.626,3.341-.382,4.936l4.945,6.357Z"/>
            <path class="cls-8" d="M536.326,202.149c1.242,1.596,3.195,1.676,4.648.545l.265-.205c1.453-1.131,1.854-3.044.613-4.64l-4.947-6.356c-1.241-1.595-3.426-1.972-4.879-.841l-.263.204c-1.454,1.131-1.626,3.341-.382,4.936l4.945,6.357Z"/>
            <path class="cls-8" d="M536.326,221.149c1.242,1.596,3.195,1.676,4.648.545l.265-.205c1.453-1.131,1.854-3.044.613-4.64l-4.947-6.356c-1.241-1.595-3.426-1.972-4.879-.841l-.263.204c-1.454,1.131-1.626,3.341-.382,4.936l4.945,6.357Z"/>
            <path class="cls-8" d="M536.326,240.149c1.242,1.596,3.195,1.676,4.648.545l.265-.205c1.453-1.131,1.854-3.044.613-4.64l-4.947-6.356c-1.241-1.595-3.426-1.972-4.879-.841l-.263.204c-1.454,1.131-1.626,3.341-.382,4.936l4.945,6.357Z"/>
            <path class="cls-8" d="M536.326,259.149c1.242,1.596,3.195,1.676,4.648.545l.265-.205c1.453-1.131,1.854-3.044.613-4.64l-4.947-6.356c-1.241-1.595-3.426-1.972-4.879-.841l-.263.204c-1.454,1.131-1.626,3.341-.382,4.936l4.945,6.357Z"/>
            <path class="cls-8" d="M536.326,278.149c1.242,1.596,3.195,1.676,4.648.545l.265-.205c1.453-1.131,1.854-3.044.613-4.64l-4.947-6.356c-1.241-1.595-3.426-1.972-4.879-.841l-.263.204c-1.454,1.131-1.626,3.341-.382,4.936l4.945,6.357Z"/>
            <path class="cls-8" d="M536.326,297.149c1.242,1.596,3.195,1.676,4.648.545l.265-.205c1.453-1.131,1.854-3.044.613-4.64l-4.947-6.356c-1.241-1.595-3.426-1.972-4.879-.841l-.263.204c-1.454,1.131-1.626,3.341-.382,4.936l4.945,6.357Z"/>
          </g>
          <g>
            <path class="cls-8" d="M517.326,12.149c1.242,1.596,3.195,1.676,4.648.545l.265-.205c1.453-1.131,1.854-3.044.613-4.64l-4.947-6.356c-1.241-1.595-3.426-1.972-4.879-.841l-.263.204c-1.454,1.131-1.626,3.341-.382,4.936l4.945,6.357Z"/>
            <path class="cls-8" d="M517.326,31.149c1.242,1.596,3.195,1.676,4.648.545l.265-.205c1.453-1.131,1.854-3.044.613-4.64l-4.947-6.356c-1.241-1.595-3.426-1.972-4.879-.841l-.263.204c-1.454,1.131-1.626,3.341-.382,4.936l4.945,6.357Z"/>
            <path class="cls-8" d="M517.326,50.149c1.242,1.596,3.195,1.676,4.648.545l.265-.205c1.453-1.131,1.854-3.044.613-4.64l-4.947-6.356c-1.241-1.595-3.426-1.972-4.879-.841l-.263.204c-1.454,1.131-1.626,3.341-.382,4.936l4.945,6.357Z"/>
            <path class="cls-8" d="M517.326,69.149c1.242,1.596,3.195,1.676,4.648.545l.265-.205c1.453-1.131,1.854-3.044.613-4.64l-4.947-6.356c-1.241-1.595-3.426-1.972-4.879-.841l-.263.204c-1.454,1.131-1.626,3.341-.382,4.936l4.945,6.357Z"/>
            <path class="cls-8" d="M517.326,88.149c1.242,1.596,3.195,1.676,4.648.545l.265-.205c1.453-1.131,1.854-3.044.613-4.64l-4.947-6.356c-1.241-1.595-3.426-1.972-4.879-.841l-.263.204c-1.454,1.131-1.626,3.341-.382,4.936l4.945,6.357Z"/>
            <path class="cls-8" d="M517.326,107.149c1.242,1.596,3.195,1.676,4.648.545l.265-.205c1.453-1.131,1.854-3.044.613-4.64l-4.947-6.356c-1.241-1.595-3.426-1.972-4.879-.841l-.263.204c-1.454,1.131-1.626,3.341-.382,4.936l4.945,6.357Z"/>
            <path class="cls-8" d="M517.326,126.149c1.242,1.596,3.195,1.676,4.648.545l.265-.205c1.453-1.131,1.854-3.044.613-4.64l-4.947-6.356c-1.241-1.595-3.426-1.972-4.879-.841l-.263.204c-1.454,1.131-1.626,3.341-.382,4.936l4.945,6.357Z"/>
            <path class="cls-8" d="M517.326,145.149c1.242,1.596,3.195,1.676,4.648.545l.265-.205c1.453-1.131,1.854-3.044.613-4.64l-4.947-6.356c-1.241-1.595-3.426-1.972-4.879-.841l-.263.204c-1.454,1.131-1.626,3.341-.382,4.936l4.945,6.357Z"/>
            <path class="cls-8" d="M517.326,164.149c1.242,1.596,3.195,1.676,4.648.545l.265-.205c1.453-1.131,1.854-3.044.613-4.64l-4.947-6.356c-1.241-1.595-3.426-1.972-4.879-.841l-.263.204c-1.454,1.131-1.626,3.341-.382,4.936l4.945,6.357Z"/>
            <path class="cls-8" d="M517.326,183.149c1.242,1.596,3.195,1.676,4.648.545l.265-.205c1.453-1.131,1.854-3.044.613-4.64l-4.947-6.356c-1.241-1.595-3.426-1.972-4.879-.841l-.263.204c-1.454,1.131-1.626,3.341-.382,4.936l4.945,6.357Z"/>
            <path class="cls-8" d="M517.326,202.149c1.242,1.596,3.195,1.676,4.648.545l.265-.205c1.453-1.131,1.854-3.044.613-4.64l-4.947-6.356c-1.241-1.595-3.426-1.972-4.879-.841l-.263.204c-1.454,1.131-1.626,3.341-.382,4.936l4.945,6.357Z"/>
            <path class="cls-8" d="M517.326,221.149c1.242,1.596,3.195,1.676,4.648.545l.265-.205c1.453-1.131,1.854-3.044.613-4.64l-4.947-6.356c-1.241-1.595-3.426-1.972-4.879-.841l-.263.204c-1.454,1.131-1.626,3.341-.382,4.936l4.945,6.357Z"/>
            <path class="cls-8" d="M517.326,240.149c1.242,1.596,3.195,1.676,4.648.545l.265-.205c1.453-1.131,1.854-3.044.613-4.64l-4.947-6.356c-1.241-1.595-3.426-1.972-4.879-.841l-.263.204c-1.454,1.131-1.626,3.341-.382,4.936l4.945,6.357Z"/>
            <path class="cls-8" d="M517.326,259.149c1.242,1.596,3.195,1.676,4.648.545l.265-.205c1.453-1.131,1.854-3.044.613-4.64l-4.947-6.356c-1.241-1.595-3.426-1.972-4.879-.841l-.263.204c-1.454,1.131-1.626,3.341-.382,4.936l4.945,6.357Z"/>
            <path class="cls-8" d="M517.326,278.149c1.242,1.596,3.195,1.676,4.648.545l.265-.205c1.453-1.131,1.854-3.044.613-4.64l-4.947-6.356c-1.241-1.595-3.426-1.972-4.879-.841l-.263.204c-1.454,1.131-1.626,3.341-.382,4.936l4.945,6.357Z"/>
            <path class="cls-8" d="M517.326,297.149c1.242,1.596,3.195,1.676,4.648.545l.265-.205c1.453-1.131,1.854-3.044.613-4.64l-4.947-6.356c-1.241-1.595-3.426-1.972-4.879-.841l-.263.204c-1.454,1.131-1.626,3.341-.382,4.936l4.945,6.357Z"/>
          </g>
          <g>
            <path class="cls-8" d="M673.025,15.499c-1.597,1.242-1.676,3.195-.547,4.647l.206.265c1.131,1.453,3.044,1.853,4.64.613l6.355-4.947c1.596-1.241,1.973-3.426.842-4.879l-.205-.263c-1.131-1.454-3.34-1.626-4.934-.382l-6.356,4.945Z"/>
            <path class="cls-8" d="M654.025,15.499c-1.597,1.242-1.676,3.195-.547,4.647l.206.265c1.131,1.453,3.044,1.853,4.64.613l6.355-4.947c1.596-1.241,1.973-3.426.842-4.879l-.205-.263c-1.131-1.454-3.34-1.626-4.934-.382l-6.356,4.945Z"/>
            <path class="cls-8" d="M635.025,15.499c-1.597,1.242-1.676,3.195-.547,4.647l.206.265c1.131,1.453,3.044,1.853,4.64.613l6.355-4.947c1.596-1.241,1.973-3.426.842-4.879l-.205-.263c-1.131-1.454-3.34-1.626-4.934-.382l-6.356,4.945Z"/>
            <path class="cls-8" d="M616.025,15.499c-1.597,1.242-1.676,3.195-.547,4.647l.206.265c1.131,1.453,3.044,1.853,4.64.613l6.355-4.947c1.596-1.241,1.973-3.426.842-4.879l-.205-.263c-1.131-1.454-3.34-1.626-4.934-.382l-6.356,4.945Z"/>
            <path class="cls-8" d="M597.025,15.499c-1.597,1.242-1.676,3.195-.547,4.647l.206.265c1.131,1.453,3.044,1.853,4.64.613l6.355-4.947c1.596-1.241,1.973-3.426.842-4.879l-.205-.263c-1.131-1.454-3.34-1.626-4.934-.382l-6.356,4.945Z"/>
            <path class="cls-8" d="M578.025,15.499c-1.597,1.242-1.676,3.195-.547,4.647l.206.265c1.131,1.453,3.044,1.853,4.64.613l6.355-4.947c1.596-1.241,1.973-3.426.842-4.879l-.205-.263c-1.131-1.454-3.34-1.626-4.934-.382l-6.356,4.945Z"/>
            <path class="cls-8" d="M559.025,15.499c-1.597,1.242-1.676,3.195-.547,4.647l.206.265c1.131,1.453,3.044,1.853,4.64.613l6.355-4.947c1.596-1.241,1.973-3.426.842-4.879l-.205-.263c-1.131-1.454-3.34-1.626-4.934-.382l-6.356,4.945Z"/>
            <path class="cls-8" d="M540.025,15.499c-1.597,1.242-1.676,3.195-.547,4.647l.206.265c1.131,1.453,3.044,1.853,4.64.613l6.355-4.947c1.596-1.241,1.973-3.426.842-4.879l-.205-.263c-1.131-1.454-3.34-1.626-4.934-.382l-6.356,4.945Z"/>
            <path class="cls-8" d="M521.025,15.499c-1.597,1.242-1.676,3.195-.547,4.647l.206.265c1.131,1.453,3.044,1.853,4.64.613l6.355-4.947c1.596-1.241,1.973-3.426.842-4.879l-.205-.263c-1.131-1.454-3.34-1.626-4.934-.382l-6.356,4.945Z"/>
          </g>
          <g>
            <path class="cls-8" d="M673.025,34.499c-1.597,1.242-1.676,3.195-.547,4.647l.206.265c1.131,1.453,3.044,1.853,4.64.613l6.355-4.947c1.596-1.241,1.973-3.426.842-4.879l-.205-.263c-1.131-1.454-3.34-1.626-4.934-.382l-6.356,4.945Z"/>
            <path class="cls-8" d="M654.025,34.499c-1.597,1.242-1.676,3.195-.547,4.647l.206.265c1.131,1.453,3.044,1.853,4.64.613l6.355-4.947c1.596-1.241,1.973-3.426.842-4.879l-.205-.263c-1.131-1.454-3.34-1.626-4.934-.382l-6.356,4.945Z"/>
            <path class="cls-8" d="M635.025,34.499c-1.597,1.242-1.676,3.195-.547,4.647l.206.265c1.131,1.453,3.044,1.853,4.64.613l6.355-4.947c1.596-1.241,1.973-3.426.842-4.879l-.205-.263c-1.131-1.454-3.34-1.626-4.934-.382l-6.356,4.945Z"/>
            <path class="cls-8" d="M616.025,34.499c-1.597,1.242-1.676,3.195-.547,4.647l.206.265c1.131,1.453,3.044,1.853,4.64.613l6.355-4.947c1.596-1.241,1.973-3.426.842-4.879l-.205-.263c-1.131-1.454-3.34-1.626-4.934-.382l-6.356,4.945Z"/>
            <path class="cls-8" d="M597.025,34.499c-1.597,1.242-1.676,3.195-.547,4.647l.206.265c1.131,1.453,3.044,1.853,4.64.613l6.355-4.947c1.596-1.241,1.973-3.426.842-4.879l-.205-.263c-1.131-1.454-3.34-1.626-4.934-.382l-6.356,4.945Z"/>
            <path class="cls-8" d="M578.025,34.499c-1.597,1.242-1.676,3.195-.547,4.647l.206.265c1.131,1.453,3.044,1.853,4.64.613l6.355-4.947c1.596-1.241,1.973-3.426.842-4.879l-.205-.263c-1.131-1.454-3.34-1.626-4.934-.382l-6.356,4.945Z"/>
            <path class="cls-8" d="M559.025,34.499c-1.597,1.242-1.676,3.195-.547,4.647l.206.265c1.131,1.453,3.044,1.853,4.64.613l6.355-4.947c1.596-1.241,1.973-3.426.842-4.879l-.205-.263c-1.131-1.454-3.34-1.626-4.934-.382l-6.356,4.945Z"/>
            <path class="cls-8" d="M540.025,34.499c-1.597,1.242-1.676,3.195-.547,4.647l.206.265c1.131,1.453,3.044,1.853,4.64.613l6.355-4.947c1.596-1.241,1.973-3.426.842-4.879l-.205-.263c-1.131-1.454-3.34-1.626-4.934-.382l-6.356,4.945Z"/>
            <path class="cls-8" d="M521.025,34.499c-1.597,1.242-1.676,3.195-.547,4.647l.206.265c1.131,1.453,3.044,1.853,4.64.613l6.355-4.947c1.596-1.241,1.973-3.426.842-4.879l-.205-.263c-1.131-1.454-3.34-1.626-4.934-.382l-6.356,4.945Z"/>
          </g>
          <g>
            <path class="cls-8" d="M673.025,53.499c-1.597,1.242-1.676,3.195-.547,4.647l.206.265c1.131,1.453,3.044,1.853,4.64.613l6.355-4.947c1.596-1.241,1.973-3.426.842-4.879l-.205-.263c-1.131-1.454-3.34-1.626-4.934-.382l-6.356,4.945Z"/>
            <path class="cls-8" d="M654.025,53.499c-1.597,1.242-1.676,3.195-.547,4.647l.206.265c1.131,1.453,3.044,1.853,4.64.613l6.355-4.947c1.596-1.241,1.973-3.426.842-4.879l-.205-.263c-1.131-1.454-3.34-1.626-4.934-.382l-6.356,4.945Z"/>
            <path class="cls-8" d="M635.025,53.499c-1.597,1.242-1.676,3.195-.547,4.647l.206.265c1.131,1.453,3.044,1.853,4.64.613l6.355-4.947c1.596-1.241,1.973-3.426.842-4.879l-.205-.263c-1.131-1.454-3.34-1.626-4.934-.382l-6.356,4.945Z"/>
            <path class="cls-8" d="M616.025,53.499c-1.597,1.242-1.676,3.195-.547,4.647l.206.265c1.131,1.453,3.044,1.853,4.64.613l6.355-4.947c1.596-1.241,1.973-3.426.842-4.879l-.205-.263c-1.131-1.454-3.34-1.626-4.934-.382l-6.356,4.945Z"/>
            <path class="cls-8" d="M597.025,53.499c-1.597,1.242-1.676,3.195-.547,4.647l.206.265c1.131,1.453,3.044,1.853,4.64.613l6.355-4.947c1.596-1.241,1.973-3.426.842-4.879l-.205-.263c-1.131-1.454-3.34-1.626-4.934-.382l-6.356,4.945Z"/>
            <path class="cls-8" d="M578.025,53.499c-1.597,1.242-1.676,3.195-.547,4.647l.206.265c1.131,1.453,3.044,1.853,4.64.613l6.355-4.947c1.596-1.241,1.973-3.426.842-4.879l-.205-.263c-1.131-1.454-3.34-1.626-4.934-.382l-6.356,4.945Z"/>
            <path class="cls-8" d="M559.025,53.499c-1.597,1.242-1.676,3.195-.547,4.647l.206.265c1.131,1.453,3.044,1.853,4.64.613l6.355-4.947c1.596-1.241,1.973-3.426.842-4.879l-.205-.263c-1.131-1.454-3.34-1.626-4.934-.382l-6.356,4.945Z"/>
            <path class="cls-8" d="M540.025,53.499c-1.597,1.242-1.676,3.195-.547,4.647l.206.265c1.131,1.453,3.044,1.853,4.64.613l6.355-4.947c1.596-1.241,1.973-3.426.842-4.879l-.205-.263c-1.131-1.454-3.34-1.626-4.934-.382l-6.356,4.945Z"/>
            <path class="cls-8" d="M521.025,53.499c-1.597,1.242-1.676,3.195-.547,4.647l.206.265c1.131,1.453,3.044,1.853,4.64.613l6.355-4.947c1.596-1.241,1.973-3.426.842-4.879l-.205-.263c-1.131-1.454-3.34-1.626-4.934-.382l-6.356,4.945Z"/>
          </g>
          <g>
            <path class="cls-8" d="M673.025,72.499c-1.597,1.242-1.676,3.195-.547,4.647l.206.265c1.131,1.453,3.044,1.853,4.64.613l6.355-4.947c1.596-1.241,1.973-3.426.842-4.879l-.205-.263c-1.131-1.454-3.34-1.626-4.934-.382l-6.356,4.945Z"/>
            <path class="cls-8" d="M654.025,72.499c-1.597,1.242-1.676,3.195-.547,4.647l.206.265c1.131,1.453,3.044,1.853,4.64.613l6.355-4.947c1.596-1.241,1.973-3.426.842-4.879l-.205-.263c-1.131-1.454-3.34-1.626-4.934-.382l-6.356,4.945Z"/>
            <path class="cls-8" d="M635.025,72.499c-1.597,1.242-1.676,3.195-.547,4.647l.206.265c1.131,1.453,3.044,1.853,4.64.613l6.355-4.947c1.596-1.241,1.973-3.426.842-4.879l-.205-.263c-1.131-1.454-3.34-1.626-4.934-.382l-6.356,4.945Z"/>
            <path class="cls-8" d="M616.025,72.499c-1.597,1.242-1.676,3.195-.547,4.647l.206.265c1.131,1.453,3.044,1.853,4.64.613l6.355-4.947c1.596-1.241,1.973-3.426.842-4.879l-.205-.263c-1.131-1.454-3.34-1.626-4.934-.382l-6.356,4.945Z"/>
            <path class="cls-8" d="M597.025,72.499c-1.597,1.242-1.676,3.195-.547,4.647l.206.265c1.131,1.453,3.044,1.853,4.64.613l6.355-4.947c1.596-1.241,1.973-3.426.842-4.879l-.205-.263c-1.131-1.454-3.34-1.626-4.934-.382l-6.356,4.945Z"/>
            <path class="cls-8" d="M578.025,72.499c-1.597,1.242-1.676,3.195-.547,4.647l.206.265c1.131,1.453,3.044,1.853,4.64.613l6.355-4.947c1.596-1.241,1.973-3.426.842-4.879l-.205-.263c-1.131-1.454-3.34-1.626-4.934-.382l-6.356,4.945Z"/>
            <path class="cls-8" d="M559.025,72.499c-1.597,1.242-1.676,3.195-.547,4.647l.206.265c1.131,1.453,3.044,1.853,4.64.613l6.355-4.947c1.596-1.241,1.973-3.426.842-4.879l-.205-.263c-1.131-1.454-3.34-1.626-4.934-.382l-6.356,4.945Z"/>
            <path class="cls-8" d="M540.025,72.499c-1.597,1.242-1.676,3.195-.547,4.647l.206.265c1.131,1.453,3.044,1.853,4.64.613l6.355-4.947c1.596-1.241,1.973-3.426.842-4.879l-.205-.263c-1.131-1.454-3.34-1.626-4.934-.382l-6.356,4.945Z"/>
            <path class="cls-8" d="M521.025,72.499c-1.597,1.242-1.676,3.195-.547,4.647l.206.265c1.131,1.453,3.044,1.853,4.64.613l6.355-4.947c1.596-1.241,1.973-3.426.842-4.879l-.205-.263c-1.131-1.454-3.34-1.626-4.934-.382l-6.356,4.945Z"/>
          </g>
          <g>
            <path class="cls-8" d="M673.025,91.499c-1.597,1.242-1.676,3.195-.547,4.647l.206.265c1.131,1.453,3.044,1.853,4.64.613l6.355-4.947c1.596-1.241,1.973-3.426.842-4.879l-.205-.263c-1.131-1.454-3.34-1.626-4.934-.382l-6.356,4.945Z"/>
            <path class="cls-8" d="M654.025,91.499c-1.597,1.242-1.676,3.195-.547,4.647l.206.265c1.131,1.453,3.044,1.853,4.64.613l6.355-4.947c1.596-1.241,1.973-3.426.842-4.879l-.205-.263c-1.131-1.454-3.34-1.626-4.934-.382l-6.356,4.945Z"/>
            <path class="cls-8" d="M635.025,91.499c-1.597,1.242-1.676,3.195-.547,4.647l.206.265c1.131,1.453,3.044,1.853,4.64.613l6.355-4.947c1.596-1.241,1.973-3.426.842-4.879l-.205-.263c-1.131-1.454-3.34-1.626-4.934-.382l-6.356,4.945Z"/>
            <path class="cls-8" d="M616.025,91.499c-1.597,1.242-1.676,3.195-.547,4.647l.206.265c1.131,1.453,3.044,1.853,4.64.613l6.355-4.947c1.596-1.241,1.973-3.426.842-4.879l-.205-.263c-1.131-1.454-3.34-1.626-4.934-.382l-6.356,4.945Z"/>
            <path class="cls-8" d="M597.025,91.499c-1.597,1.242-1.676,3.195-.547,4.647l.206.265c1.131,1.453,3.044,1.853,4.64.613l6.355-4.947c1.596-1.241,1.973-3.426.842-4.879l-.205-.263c-1.131-1.454-3.34-1.626-4.934-.382l-6.356,4.945Z"/>
            <path class="cls-8" d="M578.025,91.499c-1.597,1.242-1.676,3.195-.547,4.647l.206.265c1.131,1.453,3.044,1.853,4.64.613l6.355-4.947c1.596-1.241,1.973-3.426.842-4.879l-.205-.263c-1.131-1.454-3.34-1.626-4.934-.382l-6.356,4.945Z"/>
            <path class="cls-8" d="M559.025,91.499c-1.597,1.242-1.676,3.195-.547,4.647l.206.265c1.131,1.453,3.044,1.853,4.64.613l6.355-4.947c1.596-1.241,1.973-3.426.842-4.879l-.205-.263c-1.131-1.454-3.34-1.626-4.934-.382l-6.356,4.945Z"/>
            <path class="cls-8" d="M540.025,91.499c-1.597,1.242-1.676,3.195-.547,4.647l.206.265c1.131,1.453,3.044,1.853,4.64.613l6.355-4.947c1.596-1.241,1.973-3.426.842-4.879l-.205-.263c-1.131-1.454-3.34-1.626-4.934-.382l-6.356,4.945Z"/>
            <path class="cls-8" d="M521.025,91.499c-1.597,1.242-1.676,3.195-.547,4.647l.206.265c1.131,1.453,3.044,1.853,4.64.613l6.355-4.947c1.596-1.241,1.973-3.426.842-4.879l-.205-.263c-1.131-1.454-3.34-1.626-4.934-.382l-6.356,4.945Z"/>
          </g>
          <g>
            <path class="cls-8" d="M673.025,110.499c-1.597,1.242-1.676,3.195-.547,4.647l.206.265c1.131,1.453,3.044,1.853,4.64.613l6.355-4.947c1.596-1.241,1.973-3.426.842-4.879l-.205-.263c-1.131-1.454-3.34-1.626-4.934-.382l-6.356,4.945Z"/>
            <path class="cls-8" d="M654.025,110.499c-1.597,1.242-1.676,3.195-.547,4.647l.206.265c1.131,1.453,3.044,1.853,4.64.613l6.355-4.947c1.596-1.241,1.973-3.426.842-4.879l-.205-.263c-1.131-1.454-3.34-1.626-4.934-.382l-6.356,4.945Z"/>
            <path class="cls-8" d="M635.025,110.499c-1.597,1.242-1.676,3.195-.547,4.647l.206.265c1.131,1.453,3.044,1.853,4.64.613l6.355-4.947c1.596-1.241,1.973-3.426.842-4.879l-.205-.263c-1.131-1.454-3.34-1.626-4.934-.382l-6.356,4.945Z"/>
            <path class="cls-8" d="M616.025,110.499c-1.597,1.242-1.676,3.195-.547,4.647l.206.265c1.131,1.453,3.044,1.853,4.64.613l6.355-4.947c1.596-1.241,1.973-3.426.842-4.879l-.205-.263c-1.131-1.454-3.34-1.626-4.934-.382l-6.356,4.945Z"/>
            <path class="cls-8" d="M597.025,110.499c-1.597,1.242-1.676,3.195-.547,4.647l.206.265c1.131,1.453,3.044,1.853,4.64.613l6.355-4.947c1.596-1.241,1.973-3.426.842-4.879l-.205-.263c-1.131-1.454-3.34-1.626-4.934-.382l-6.356,4.945Z"/>
            <path class="cls-8" d="M578.025,110.499c-1.597,1.242-1.676,3.195-.547,4.647l.206.265c1.131,1.453,3.044,1.853,4.64.613l6.355-4.947c1.596-1.241,1.973-3.426.842-4.879l-.205-.263c-1.131-1.454-3.34-1.626-4.934-.382l-6.356,4.945Z"/>
            <path class="cls-8" d="M559.025,110.499c-1.597,1.242-1.676,3.195-.547,4.647l.206.265c1.131,1.453,3.044,1.853,4.64.613l6.355-4.947c1.596-1.241,1.973-3.426.842-4.879l-.205-.263c-1.131-1.454-3.34-1.626-4.934-.382l-6.356,4.945Z"/>
            <path class="cls-8" d="M540.025,110.499c-1.597,1.242-1.676,3.195-.547,4.647l.206.265c1.131,1.453,3.044,1.853,4.64.613l6.355-4.947c1.596-1.241,1.973-3.426.842-4.879l-.205-.263c-1.131-1.454-3.34-1.626-4.934-.382l-6.356,4.945Z"/>
            <path class="cls-8" d="M521.025,110.499c-1.597,1.242-1.676,3.195-.547,4.647l.206.265c1.131,1.453,3.044,1.853,4.64.613l6.355-4.947c1.596-1.241,1.973-3.426.842-4.879l-.205-.263c-1.131-1.454-3.34-1.626-4.934-.382l-6.356,4.945Z"/>
          </g>
          <g>
            <path class="cls-8" d="M673.025,129.499c-1.597,1.242-1.676,3.195-.547,4.647l.206.265c1.131,1.453,3.044,1.853,4.64.613l6.355-4.947c1.596-1.241,1.973-3.426.842-4.879l-.205-.263c-1.131-1.454-3.34-1.626-4.934-.382l-6.356,4.945Z"/>
            <path class="cls-8" d="M654.025,129.499c-1.597,1.242-1.676,3.195-.547,4.647l.206.265c1.131,1.453,3.044,1.853,4.64.613l6.355-4.947c1.596-1.241,1.973-3.426.842-4.879l-.205-.263c-1.131-1.454-3.34-1.626-4.934-.382l-6.356,4.945Z"/>
            <path class="cls-8" d="M635.025,129.499c-1.597,1.242-1.676,3.195-.547,4.647l.206.265c1.131,1.453,3.044,1.853,4.64.613l6.355-4.947c1.596-1.241,1.973-3.426.842-4.879l-.205-.263c-1.131-1.454-3.34-1.626-4.934-.382l-6.356,4.945Z"/>
            <path class="cls-8" d="M616.025,129.499c-1.597,1.242-1.676,3.195-.547,4.647l.206.265c1.131,1.453,3.044,1.853,4.64.613l6.355-4.947c1.596-1.241,1.973-3.426.842-4.879l-.205-.263c-1.131-1.454-3.34-1.626-4.934-.382l-6.356,4.945Z"/>
            <path class="cls-8" d="M597.025,129.499c-1.597,1.242-1.676,3.195-.547,4.647l.206.265c1.131,1.453,3.044,1.853,4.64.613l6.355-4.947c1.596-1.241,1.973-3.426.842-4.879l-.205-.263c-1.131-1.454-3.34-1.626-4.934-.382l-6.356,4.945Z"/>
            <path class="cls-8" d="M578.025,129.499c-1.597,1.242-1.676,3.195-.547,4.647l.206.265c1.131,1.453,3.044,1.853,4.64.613l6.355-4.947c1.596-1.241,1.973-3.426.842-4.879l-.205-.263c-1.131-1.454-3.34-1.626-4.934-.382l-6.356,4.945Z"/>
            <path class="cls-8" d="M559.025,129.499c-1.597,1.242-1.676,3.195-.547,4.647l.206.265c1.131,1.453,3.044,1.853,4.64.613l6.355-4.947c1.596-1.241,1.973-3.426.842-4.879l-.205-.263c-1.131-1.454-3.34-1.626-4.934-.382l-6.356,4.945Z"/>
            <path class="cls-8" d="M540.025,129.499c-1.597,1.242-1.676,3.195-.547,4.647l.206.265c1.131,1.453,3.044,1.853,4.64.613l6.355-4.947c1.596-1.241,1.973-3.426.842-4.879l-.205-.263c-1.131-1.454-3.34-1.626-4.934-.382l-6.356,4.945Z"/>
            <path class="cls-8" d="M521.025,129.499c-1.597,1.242-1.676,3.195-.547,4.647l.206.265c1.131,1.453,3.044,1.853,4.64.613l6.355-4.947c1.596-1.241,1.973-3.426.842-4.879l-.205-.263c-1.131-1.454-3.34-1.626-4.934-.382l-6.356,4.945Z"/>
          </g>
          <g>
            <path class="cls-8" d="M673.025,148.499c-1.597,1.242-1.676,3.195-.547,4.647l.206.265c1.131,1.453,3.044,1.853,4.64.613l6.355-4.947c1.596-1.241,1.973-3.426.842-4.879l-.205-.263c-1.131-1.454-3.34-1.626-4.934-.382l-6.356,4.945Z"/>
            <path class="cls-8" d="M654.025,148.499c-1.597,1.242-1.676,3.195-.547,4.647l.206.265c1.131,1.453,3.044,1.853,4.64.613l6.355-4.947c1.596-1.241,1.973-3.426.842-4.879l-.205-.263c-1.131-1.454-3.34-1.626-4.934-.382l-6.356,4.945Z"/>
            <path class="cls-8" d="M635.025,148.499c-1.597,1.242-1.676,3.195-.547,4.647l.206.265c1.131,1.453,3.044,1.853,4.64.613l6.355-4.947c1.596-1.241,1.973-3.426.842-4.879l-.205-.263c-1.131-1.454-3.34-1.626-4.934-.382l-6.356,4.945Z"/>
            <path class="cls-8" d="M616.025,148.499c-1.597,1.242-1.676,3.195-.547,4.647l.206.265c1.131,1.453,3.044,1.853,4.64.613l6.355-4.947c1.596-1.241,1.973-3.426.842-4.879l-.205-.263c-1.131-1.454-3.34-1.626-4.934-.382l-6.356,4.945Z"/>
            <path class="cls-8" d="M597.025,148.499c-1.597,1.242-1.676,3.195-.547,4.647l.206.265c1.131,1.453,3.044,1.853,4.64.613l6.355-4.947c1.596-1.241,1.973-3.426.842-4.879l-.205-.263c-1.131-1.454-3.34-1.626-4.934-.382l-6.356,4.945Z"/>
            <path class="cls-8" d="M578.025,148.499c-1.597,1.242-1.676,3.195-.547,4.647l.206.265c1.131,1.453,3.044,1.853,4.64.613l6.355-4.947c1.596-1.241,1.973-3.426.842-4.879l-.205-.263c-1.131-1.454-3.34-1.626-4.934-.382l-6.356,4.945Z"/>
            <path class="cls-8" d="M559.025,148.499c-1.597,1.242-1.676,3.195-.547,4.647l.206.265c1.131,1.453,3.044,1.853,4.64.613l6.355-4.947c1.596-1.241,1.973-3.426.842-4.879l-.205-.263c-1.131-1.454-3.34-1.626-4.934-.382l-6.356,4.945Z"/>
            <path class="cls-8" d="M540.025,148.499c-1.597,1.242-1.676,3.195-.547,4.647l.206.265c1.131,1.453,3.044,1.853,4.64.613l6.355-4.947c1.596-1.241,1.973-3.426.842-4.879l-.205-.263c-1.131-1.454-3.34-1.626-4.934-.382l-6.356,4.945Z"/>
            <path class="cls-8" d="M521.025,148.499c-1.597,1.242-1.676,3.195-.547,4.647l.206.265c1.131,1.453,3.044,1.853,4.64.613l6.355-4.947c1.596-1.241,1.973-3.426.842-4.879l-.205-.263c-1.131-1.454-3.34-1.626-4.934-.382l-6.356,4.945Z"/>
          </g>
          <g>
            <path class="cls-8" d="M673.025,167.499c-1.597,1.242-1.676,3.195-.547,4.647l.206.265c1.131,1.453,3.044,1.853,4.64.613l6.355-4.947c1.596-1.241,1.973-3.426.842-4.879l-.205-.263c-1.131-1.454-3.34-1.626-4.934-.382l-6.356,4.945Z"/>
            <path class="cls-8" d="M654.025,167.499c-1.597,1.242-1.676,3.195-.547,4.647l.206.265c1.131,1.453,3.044,1.853,4.64.613l6.355-4.947c1.596-1.241,1.973-3.426.842-4.879l-.205-.263c-1.131-1.454-3.34-1.626-4.934-.382l-6.356,4.945Z"/>
            <path class="cls-8" d="M635.025,167.499c-1.597,1.242-1.676,3.195-.547,4.647l.206.265c1.131,1.453,3.044,1.853,4.64.613l6.355-4.947c1.596-1.241,1.973-3.426.842-4.879l-.205-.263c-1.131-1.454-3.34-1.626-4.934-.382l-6.356,4.945Z"/>
            <path class="cls-8" d="M616.025,167.499c-1.597,1.242-1.676,3.195-.547,4.647l.206.265c1.131,1.453,3.044,1.853,4.64.613l6.355-4.947c1.596-1.241,1.973-3.426.842-4.879l-.205-.263c-1.131-1.454-3.34-1.626-4.934-.382l-6.356,4.945Z"/>
            <path class="cls-8" d="M597.025,167.499c-1.597,1.242-1.676,3.195-.547,4.647l.206.265c1.131,1.453,3.044,1.853,4.64.613l6.355-4.947c1.596-1.241,1.973-3.426.842-4.879l-.205-.263c-1.131-1.454-3.34-1.626-4.934-.382l-6.356,4.945Z"/>
            <path class="cls-8" d="M578.025,167.499c-1.597,1.242-1.676,3.195-.547,4.647l.206.265c1.131,1.453,3.044,1.853,4.64.613l6.355-4.947c1.596-1.241,1.973-3.426.842-4.879l-.205-.263c-1.131-1.454-3.34-1.626-4.934-.382l-6.356,4.945Z"/>
            <path class="cls-8" d="M559.025,167.499c-1.597,1.242-1.676,3.195-.547,4.647l.206.265c1.131,1.453,3.044,1.853,4.64.613l6.355-4.947c1.596-1.241,1.973-3.426.842-4.879l-.205-.263c-1.131-1.454-3.34-1.626-4.934-.382l-6.356,4.945Z"/>
            <path class="cls-8" d="M540.025,167.499c-1.597,1.242-1.676,3.195-.547,4.647l.206.265c1.131,1.453,3.044,1.853,4.64.613l6.355-4.947c1.596-1.241,1.973-3.426.842-4.879l-.205-.263c-1.131-1.454-3.34-1.626-4.934-.382l-6.356,4.945Z"/>
            <path class="cls-8" d="M521.025,167.499c-1.597,1.242-1.676,3.195-.547,4.647l.206.265c1.131,1.453,3.044,1.853,4.64.613l6.355-4.947c1.596-1.241,1.973-3.426.842-4.879l-.205-.263c-1.131-1.454-3.34-1.626-4.934-.382l-6.356,4.945Z"/>
          </g>
          <g>
            <path class="cls-8" d="M673.025,186.499c-1.597,1.242-1.676,3.195-.547,4.647l.206.265c1.131,1.453,3.044,1.853,4.64.613l6.355-4.947c1.596-1.241,1.973-3.426.842-4.879l-.205-.263c-1.131-1.454-3.34-1.626-4.934-.382l-6.356,4.945Z"/>
            <path class="cls-8" d="M654.025,186.499c-1.597,1.242-1.676,3.195-.547,4.647l.206.265c1.131,1.453,3.044,1.853,4.64.613l6.355-4.947c1.596-1.241,1.973-3.426.842-4.879l-.205-.263c-1.131-1.454-3.34-1.626-4.934-.382l-6.356,4.945Z"/>
            <path class="cls-8" d="M635.025,186.499c-1.597,1.242-1.676,3.195-.547,4.647l.206.265c1.131,1.453,3.044,1.853,4.64.613l6.355-4.947c1.596-1.241,1.973-3.426.842-4.879l-.205-.263c-1.131-1.454-3.34-1.626-4.934-.382l-6.356,4.945Z"/>
            <path class="cls-8" d="M616.025,186.499c-1.597,1.242-1.676,3.195-.547,4.647l.206.265c1.131,1.453,3.044,1.853,4.64.613l6.355-4.947c1.596-1.241,1.973-3.426.842-4.879l-.205-.263c-1.131-1.454-3.34-1.626-4.934-.382l-6.356,4.945Z"/>
            <path class="cls-8" d="M597.025,186.499c-1.597,1.242-1.676,3.195-.547,4.647l.206.265c1.131,1.453,3.044,1.853,4.64.613l6.355-4.947c1.596-1.241,1.973-3.426.842-4.879l-.205-.263c-1.131-1.454-3.34-1.626-4.934-.382l-6.356,4.945Z"/>
            <path class="cls-8" d="M578.025,186.499c-1.597,1.242-1.676,3.195-.547,4.647l.206.265c1.131,1.453,3.044,1.853,4.64.613l6.355-4.947c1.596-1.241,1.973-3.426.842-4.879l-.205-.263c-1.131-1.454-3.34-1.626-4.934-.382l-6.356,4.945Z"/>
            <path class="cls-8" d="M559.025,186.499c-1.597,1.242-1.676,3.195-.547,4.647l.206.265c1.131,1.453,3.044,1.853,4.64.613l6.355-4.947c1.596-1.241,1.973-3.426.842-4.879l-.205-.263c-1.131-1.454-3.34-1.626-4.934-.382l-6.356,4.945Z"/>
            <path class="cls-8" d="M540.025,186.499c-1.597,1.242-1.676,3.195-.547,4.647l.206.265c1.131,1.453,3.044,1.853,4.64.613l6.355-4.947c1.596-1.241,1.973-3.426.842-4.879l-.205-.263c-1.131-1.454-3.34-1.626-4.934-.382l-6.356,4.945Z"/>
            <path class="cls-8" d="M521.025,186.499c-1.597,1.242-1.676,3.195-.547,4.647l.206.265c1.131,1.453,3.044,1.853,4.64.613l6.355-4.947c1.596-1.241,1.973-3.426.842-4.879l-.205-.263c-1.131-1.454-3.34-1.626-4.934-.382l-6.356,4.945Z"/>
          </g>
          <g>
            <path class="cls-8" d="M673.025,205.499c-1.597,1.242-1.676,3.195-.547,4.647l.206.265c1.131,1.453,3.044,1.853,4.64.613l6.355-4.947c1.596-1.241,1.973-3.426.842-4.879l-.205-.263c-1.131-1.454-3.34-1.626-4.934-.382l-6.356,4.945Z"/>
            <path class="cls-8" d="M654.025,205.499c-1.597,1.242-1.676,3.195-.547,4.647l.206.265c1.131,1.453,3.044,1.853,4.64.613l6.355-4.947c1.596-1.241,1.973-3.426.842-4.879l-.205-.263c-1.131-1.454-3.34-1.626-4.934-.382l-6.356,4.945Z"/>
            <path class="cls-8" d="M635.025,205.499c-1.597,1.242-1.676,3.195-.547,4.647l.206.265c1.131,1.453,3.044,1.853,4.64.613l6.355-4.947c1.596-1.241,1.973-3.426.842-4.879l-.205-.263c-1.131-1.454-3.34-1.626-4.934-.382l-6.356,4.945Z"/>
            <path class="cls-8" d="M616.025,205.499c-1.597,1.242-1.676,3.195-.547,4.647l.206.265c1.131,1.453,3.044,1.853,4.64.613l6.355-4.947c1.596-1.241,1.973-3.426.842-4.879l-.205-.263c-1.131-1.454-3.34-1.626-4.934-.382l-6.356,4.945Z"/>
            <path class="cls-8" d="M597.025,205.499c-1.597,1.242-1.676,3.195-.547,4.647l.206.265c1.131,1.453,3.044,1.853,4.64.613l6.355-4.947c1.596-1.241,1.973-3.426.842-4.879l-.205-.263c-1.131-1.454-3.34-1.626-4.934-.382l-6.356,4.945Z"/>
            <path class="cls-8" d="M578.025,205.499c-1.597,1.242-1.676,3.195-.547,4.647l.206.265c1.131,1.453,3.044,1.853,4.64.613l6.355-4.947c1.596-1.241,1.973-3.426.842-4.879l-.205-.263c-1.131-1.454-3.34-1.626-4.934-.382l-6.356,4.945Z"/>
            <path class="cls-8" d="M559.025,205.499c-1.597,1.242-1.676,3.195-.547,4.647l.206.265c1.131,1.453,3.044,1.853,4.64.613l6.355-4.947c1.596-1.241,1.973-3.426.842-4.879l-.205-.263c-1.131-1.454-3.34-1.626-4.934-.382l-6.356,4.945Z"/>
            <path class="cls-8" d="M540.025,205.499c-1.597,1.242-1.676,3.195-.547,4.647l.206.265c1.131,1.453,3.044,1.853,4.64.613l6.355-4.947c1.596-1.241,1.973-3.426.842-4.879l-.205-.263c-1.131-1.454-3.34-1.626-4.934-.382l-6.356,4.945Z"/>
            <path class="cls-8" d="M521.025,205.499c-1.597,1.242-1.676,3.195-.547,4.647l.206.265c1.131,1.453,3.044,1.853,4.64.613l6.355-4.947c1.596-1.241,1.973-3.426.842-4.879l-.205-.263c-1.131-1.454-3.34-1.626-4.934-.382l-6.356,4.945Z"/>
          </g>
          <g>
            <path class="cls-8" d="M673.025,224.499c-1.597,1.242-1.676,3.195-.547,4.647l.206.265c1.131,1.453,3.044,1.853,4.64.613l6.355-4.947c1.596-1.241,1.973-3.426.842-4.879l-.205-.263c-1.131-1.454-3.34-1.626-4.934-.382l-6.356,4.945Z"/>
            <path class="cls-8" d="M654.025,224.499c-1.597,1.242-1.676,3.195-.547,4.647l.206.265c1.131,1.453,3.044,1.853,4.64.613l6.355-4.947c1.596-1.241,1.973-3.426.842-4.879l-.205-.263c-1.131-1.454-3.34-1.626-4.934-.382l-6.356,4.945Z"/>
            <path class="cls-8" d="M635.025,224.499c-1.597,1.242-1.676,3.195-.547,4.647l.206.265c1.131,1.453,3.044,1.853,4.64.613l6.355-4.947c1.596-1.241,1.973-3.426.842-4.879l-.205-.263c-1.131-1.454-3.34-1.626-4.934-.382l-6.356,4.945Z"/>
            <path class="cls-8" d="M616.025,224.499c-1.597,1.242-1.676,3.195-.547,4.647l.206.265c1.131,1.453,3.044,1.853,4.64.613l6.355-4.947c1.596-1.241,1.973-3.426.842-4.879l-.205-.263c-1.131-1.454-3.34-1.626-4.934-.382l-6.356,4.945Z"/>
            <path class="cls-8" d="M597.025,224.499c-1.597,1.242-1.676,3.195-.547,4.647l.206.265c1.131,1.453,3.044,1.853,4.64.613l6.355-4.947c1.596-1.241,1.973-3.426.842-4.879l-.205-.263c-1.131-1.454-3.34-1.626-4.934-.382l-6.356,4.945Z"/>
            <path class="cls-8" d="M578.025,224.499c-1.597,1.242-1.676,3.195-.547,4.647l.206.265c1.131,1.453,3.044,1.853,4.64.613l6.355-4.947c1.596-1.241,1.973-3.426.842-4.879l-.205-.263c-1.131-1.454-3.34-1.626-4.934-.382l-6.356,4.945Z"/>
            <path class="cls-8" d="M559.025,224.499c-1.597,1.242-1.676,3.195-.547,4.647l.206.265c1.131,1.453,3.044,1.853,4.64.613l6.355-4.947c1.596-1.241,1.973-3.426.842-4.879l-.205-.263c-1.131-1.454-3.34-1.626-4.934-.382l-6.356,4.945Z"/>
            <path class="cls-8" d="M540.025,224.499c-1.597,1.242-1.676,3.195-.547,4.647l.206.265c1.131,1.453,3.044,1.853,4.64.613l6.355-4.947c1.596-1.241,1.973-3.426.842-4.879l-.205-.263c-1.131-1.454-3.34-1.626-4.934-.382l-6.356,4.945Z"/>
            <path class="cls-8" d="M521.025,224.499c-1.597,1.242-1.676,3.195-.547,4.647l.206.265c1.131,1.453,3.044,1.853,4.64.613l6.355-4.947c1.596-1.241,1.973-3.426.842-4.879l-.205-.263c-1.131-1.454-3.34-1.626-4.934-.382l-6.356,4.945Z"/>
          </g>
          <g>
            <path class="cls-8" d="M673.025,243.499c-1.597,1.242-1.676,3.195-.547,4.647l.206.265c1.131,1.453,3.044,1.853,4.64.613l6.355-4.947c1.596-1.241,1.973-3.426.842-4.879l-.205-.263c-1.131-1.454-3.34-1.626-4.934-.382l-6.356,4.945Z"/>
            <path class="cls-8" d="M654.025,243.499c-1.597,1.242-1.676,3.195-.547,4.647l.206.265c1.131,1.453,3.044,1.853,4.64.613l6.355-4.947c1.596-1.241,1.973-3.426.842-4.879l-.205-.263c-1.131-1.454-3.34-1.626-4.934-.382l-6.356,4.945Z"/>
            <path class="cls-8" d="M635.025,243.499c-1.597,1.242-1.676,3.195-.547,4.647l.206.265c1.131,1.453,3.044,1.853,4.64.613l6.355-4.947c1.596-1.241,1.973-3.426.842-4.879l-.205-.263c-1.131-1.454-3.34-1.626-4.934-.382l-6.356,4.945Z"/>
            <path class="cls-8" d="M616.025,243.499c-1.597,1.242-1.676,3.195-.547,4.647l.206.265c1.131,1.453,3.044,1.853,4.64.613l6.355-4.947c1.596-1.241,1.973-3.426.842-4.879l-.205-.263c-1.131-1.454-3.34-1.626-4.934-.382l-6.356,4.945Z"/>
            <path class="cls-8" d="M597.025,243.499c-1.597,1.242-1.676,3.195-.547,4.647l.206.265c1.131,1.453,3.044,1.853,4.64.613l6.355-4.947c1.596-1.241,1.973-3.426.842-4.879l-.205-.263c-1.131-1.454-3.34-1.626-4.934-.382l-6.356,4.945Z"/>
            <path class="cls-8" d="M578.025,243.499c-1.597,1.242-1.676,3.195-.547,4.647l.206.265c1.131,1.453,3.044,1.853,4.64.613l6.355-4.947c1.596-1.241,1.973-3.426.842-4.879l-.205-.263c-1.131-1.454-3.34-1.626-4.934-.382l-6.356,4.945Z"/>
            <path class="cls-8" d="M559.025,243.499c-1.597,1.242-1.676,3.195-.547,4.647l.206.265c1.131,1.453,3.044,1.853,4.64.613l6.355-4.947c1.596-1.241,1.973-3.426.842-4.879l-.205-.263c-1.131-1.454-3.34-1.626-4.934-.382l-6.356,4.945Z"/>
            <path class="cls-8" d="M540.025,243.499c-1.597,1.242-1.676,3.195-.547,4.647l.206.265c1.131,1.453,3.044,1.853,4.64.613l6.355-4.947c1.596-1.241,1.973-3.426.842-4.879l-.205-.263c-1.131-1.454-3.34-1.626-4.934-.382l-6.356,4.945Z"/>
            <path class="cls-8" d="M521.025,243.499c-1.597,1.242-1.676,3.195-.547,4.647l.206.265c1.131,1.453,3.044,1.853,4.64.613l6.355-4.947c1.596-1.241,1.973-3.426.842-4.879l-.205-.263c-1.131-1.454-3.34-1.626-4.934-.382l-6.356,4.945Z"/>
          </g>
          <g>
            <path class="cls-8" d="M673.025,262.499c-1.597,1.242-1.676,3.195-.547,4.647l.206.265c1.131,1.453,3.044,1.853,4.64.613l6.355-4.947c1.596-1.241,1.973-3.426.842-4.879l-.205-.263c-1.131-1.454-3.34-1.626-4.934-.382l-6.356,4.945Z"/>
            <path class="cls-8" d="M654.025,262.499c-1.597,1.242-1.676,3.195-.547,4.647l.206.265c1.131,1.453,3.044,1.853,4.64.613l6.355-4.947c1.596-1.241,1.973-3.426.842-4.879l-.205-.263c-1.131-1.454-3.34-1.626-4.934-.382l-6.356,4.945Z"/>
            <path class="cls-8" d="M635.025,262.499c-1.597,1.242-1.676,3.195-.547,4.647l.206.265c1.131,1.453,3.044,1.853,4.64.613l6.355-4.947c1.596-1.241,1.973-3.426.842-4.879l-.205-.263c-1.131-1.454-3.34-1.626-4.934-.382l-6.356,4.945Z"/>
            <path class="cls-8" d="M616.025,262.499c-1.597,1.242-1.676,3.195-.547,4.647l.206.265c1.131,1.453,3.044,1.853,4.64.613l6.355-4.947c1.596-1.241,1.973-3.426.842-4.879l-.205-.263c-1.131-1.454-3.34-1.626-4.934-.382l-6.356,4.945Z"/>
            <path class="cls-8" d="M597.025,262.499c-1.597,1.242-1.676,3.195-.547,4.647l.206.265c1.131,1.453,3.044,1.853,4.64.613l6.355-4.947c1.596-1.241,1.973-3.426.842-4.879l-.205-.263c-1.131-1.454-3.34-1.626-4.934-.382l-6.356,4.945Z"/>
            <path class="cls-8" d="M578.025,262.499c-1.597,1.242-1.676,3.195-.547,4.647l.206.265c1.131,1.453,3.044,1.853,4.64.613l6.355-4.947c1.596-1.241,1.973-3.426.842-4.879l-.205-.263c-1.131-1.454-3.34-1.626-4.934-.382l-6.356,4.945Z"/>
            <path class="cls-8" d="M559.025,262.499c-1.597,1.242-1.676,3.195-.547,4.647l.206.265c1.131,1.453,3.044,1.853,4.64.613l6.355-4.947c1.596-1.241,1.973-3.426.842-4.879l-.205-.263c-1.131-1.454-3.34-1.626-4.934-.382l-6.356,4.945Z"/>
            <path class="cls-8" d="M540.025,262.499c-1.597,1.242-1.676,3.195-.547,4.647l.206.265c1.131,1.453,3.044,1.853,4.64.613l6.355-4.947c1.596-1.241,1.973-3.426.842-4.879l-.205-.263c-1.131-1.454-3.34-1.626-4.934-.382l-6.356,4.945Z"/>
            <path class="cls-8" d="M521.025,262.499c-1.597,1.242-1.676,3.195-.547,4.647l.206.265c1.131,1.453,3.044,1.853,4.64.613l6.355-4.947c1.596-1.241,1.973-3.426.842-4.879l-.205-.263c-1.131-1.454-3.34-1.626-4.934-.382l-6.356,4.945Z"/>
          </g>
          <g>
            <path class="cls-8" d="M673.025,281.499c-1.597,1.242-1.676,3.195-.547,4.647l.206.265c1.131,1.453,3.044,1.853,4.64.613l6.355-4.947c1.596-1.241,1.973-3.426.842-4.879l-.205-.263c-1.131-1.454-3.34-1.626-4.934-.382l-6.356,4.945Z"/>
            <path class="cls-8" d="M654.025,281.499c-1.597,1.242-1.676,3.195-.547,4.647l.206.265c1.131,1.453,3.044,1.853,4.64.613l6.355-4.947c1.596-1.241,1.973-3.426.842-4.879l-.205-.263c-1.131-1.454-3.34-1.626-4.934-.382l-6.356,4.945Z"/>
            <path class="cls-8" d="M635.025,281.499c-1.597,1.242-1.676,3.195-.547,4.647l.206.265c1.131,1.453,3.044,1.853,4.64.613l6.355-4.947c1.596-1.241,1.973-3.426.842-4.879l-.205-.263c-1.131-1.454-3.34-1.626-4.934-.382l-6.356,4.945Z"/>
            <path class="cls-8" d="M616.025,281.499c-1.597,1.242-1.676,3.195-.547,4.647l.206.265c1.131,1.453,3.044,1.853,4.64.613l6.355-4.947c1.596-1.241,1.973-3.426.842-4.879l-.205-.263c-1.131-1.454-3.34-1.626-4.934-.382l-6.356,4.945Z"/>
            <path class="cls-8" d="M597.025,281.499c-1.597,1.242-1.676,3.195-.547,4.647l.206.265c1.131,1.453,3.044,1.853,4.64.613l6.355-4.947c1.596-1.241,1.973-3.426.842-4.879l-.205-.263c-1.131-1.454-3.34-1.626-4.934-.382l-6.356,4.945Z"/>
            <path class="cls-8" d="M578.025,281.499c-1.597,1.242-1.676,3.195-.547,4.647l.206.265c1.131,1.453,3.044,1.853,4.64.613l6.355-4.947c1.596-1.241,1.973-3.426.842-4.879l-.205-.263c-1.131-1.454-3.34-1.626-4.934-.382l-6.356,4.945Z"/>
            <path class="cls-8" d="M559.025,281.499c-1.597,1.242-1.676,3.195-.547,4.647l.206.265c1.131,1.453,3.044,1.853,4.64.613l6.355-4.947c1.596-1.241,1.973-3.426.842-4.879l-.205-.263c-1.131-1.454-3.34-1.626-4.934-.382l-6.356,4.945Z"/>
            <path class="cls-8" d="M540.025,281.499c-1.597,1.242-1.676,3.195-.547,4.647l.206.265c1.131,1.453,3.044,1.853,4.64.613l6.355-4.947c1.596-1.241,1.973-3.426.842-4.879l-.205-.263c-1.131-1.454-3.34-1.626-4.934-.382l-6.356,4.945Z"/>
            <path class="cls-8" d="M521.025,281.499c-1.597,1.242-1.676,3.195-.547,4.647l.206.265c1.131,1.453,3.044,1.853,4.64.613l6.355-4.947c1.596-1.241,1.973-3.426.842-4.879l-.205-.263c-1.131-1.454-3.34-1.626-4.934-.382l-6.356,4.945Z"/>
          </g>
        </g>
      </g>
    </g>
    <path class="cls-16" d="M578.44,66.219c38.379,0,67.732-5.979,69.342-6.313,2.433-.506,3.995-2.888,3.489-5.32-.504-2.434-2.883-3.995-5.32-3.492-.507.105-51.343,10.443-105.666,3.945-2.462-.293-4.707,1.465-5.002,3.934-.296,2.469,1.465,4.707,3.934,5.003,13.592,1.625,26.876,2.244,39.224,2.244Z"/>
  </g>
</svg>