<?xml version="1.0" encoding="UTF-8"?>
<svg id="Layer_1" data-name="Layer 1" xmlns="http://www.w3.org/2000/svg" xmlns:xlink="http://www.w3.org/1999/xlink" viewBox="0 0 462.08 863.933">
  <defs>
    <style>
      .cls-1 {
        fill: #e58e73;
      }

      .cls-2 {
        fill: #e58628;
      }

      .cls-3 {
        fill: #21201f;
      }

      .cls-4 {
        fill: #ca6039;
      }

      .cls-5 {
        fill: #502f26;
      }

      .cls-6 {
        fill: #547c3c;
      }

      .cls-7 {
        fill: #87412b;
      }

      .cls-8 {
        fill: #faa284;
      }

      .cls-9 {
        fill: #db7c65;
      }

      .cls-10 {
        fill: #723424;
      }

      .cls-11 {
        fill: #ef8d72;
      }

      .cls-12 {
        fill: #922;
      }

      .cls-13 {
        fill: #dbd9d9;
      }

      .cls-14 {
        fill: #93bc7a;
      }

      .cls-15 {
        fill: #141413;
      }

      .cls-16 {
        fill: #fff;
      }

      .cls-17 {
        fill: #efeeed;
      }

      .cls-18 {
        fill: #443c3b;
      }

      .cls-19 {
        fill: #703636;
      }

      .cls-20 {
        fill: #70a057;
      }

      .cls-21 {
        fill: #332828;
      }

      .cls-22 {
        fill: #ffb12b;
      }

      .cls-23 {
        fill: #d6bb64;
      }

      .cls-24 {
        opacity: .2;
      }

      .cls-25 {
        fill: #cbdaed;
      }

      .cls-26 {
        fill: #b55735;
      }

      .cls-27 {
        fill: #d3d3d3;
      }

      .cls-28 {
        clip-path: url(#clippath);
      }

      .cls-29 {
        fill: #3f3e3d;
      }

      .cls-30 {
        fill: #a5b2bf;
      }
    </style>
    <clipPath id="clippath">
      <path class="cls-17" d="M256.975,281.507s3.281-146.664,7.035-196.554c1.75-23.256,27.775-12.405,41-10.53,21.162,3,35.877-6.789,37.5,1.461,4.81,24.424-3.006,111.644-3.006,111.644,0,0,13.805,75.98,14.006,93.98,0,0,13.336-161-3.75-222,0,0,4.42-41.334-48.5-41.334-58.615,0-57.316,30.333-60.076,45,0,0-21.127,106.088-23.795,139.237,0,0,13.926,68.429,39.586,79.097Z"/>
    </clipPath>
  </defs>
  <g>
    <path class="cls-11" d="M398.059,181.984l-20.717-10.725s-22.691-6-31.684-32.75c-8.994-26.749,10.775-37.094,15.887-35.699,8.576,2.339,22.396,8.106,36.662,57.869l-.148,21.305Z"/>
    <g>
      <path class="cls-13" d="M384.44,141.325c1.371,2.306.285,4.768-1.815,6.016l-23.766,14.127c-2.1,1.249-5.479,1.441-6.85-.864l-28.65-48.199c-1.373-2.305.147-5.63,2.244-6.879l23.766-14.128c2.102-1.245,5.049-.576,6.42,1.731l28.65,48.197Z"/>
      <rect class="cls-23" x="335.43" y="102.021" width="34.897" height="48.102" transform="translate(-14.873 198.016) rotate(-30.729)"/>
      <path class="cls-16" d="M371.707,149.353c-.943-1.592-3-2.114-4.592-1.169-1.588.944-2.111,2.999-1.166,4.591.945,1.59,3,2.111,4.588,1.168,1.592-.946,2.115-3.002,1.17-4.59Z"/>
      <path class="cls-27" d="M340.902,99.463c-.203-.341-.645-.452-.984-.251l-6.063,3.604c-.342.203-.453.642-.25.986l.23.386c.201.341.642.452.984.251l6.063-3.604c.34-.204.451-.643.25-.984l-.23-.387Z"/>
    </g>
    <path class="cls-30" d="M365.732,196.394s43.41,53.4,47.729,54.445c0,0-38.125-67.04-45.24-74.76,0,0,9.229-22.895,34.863-20.294,0,0,82.781,104.474,34.236,140.63,0,0-28.143,15.898-70.475-25.908,0,0-14.762-50.698-1.113-74.113Z"/>
  </g>
  <polygon class="cls-19" points="245.883 224.702 258.941 76.729 348.658 77.85 351.031 223.146 245.883 224.702"/>
  <g>
    <path class="cls-8" d="M314.85,177.044l.641,23.335-38.656,1.062-.834-30.356c16.244,7.365,32.266,6.752,38.85,5.959Z"/>
    <path class="cls-11" d="M276,171.085l-.643-23.385,38.656-1.063.836,30.407c-6.584.793-22.605,1.406-38.85-5.959Z"/>
  </g>
  <path class="cls-24" d="M140.459,847.899c0,8.854,71.996,16.033,160.81,16.033s160.811-7.179,160.811-16.033-71.998-16.035-160.811-16.035-160.811,7.18-160.811,16.035Z"/>
  <g>
    <g>
      <polygon class="cls-4" points="14.119 577.878 183.621 625.122 194.271 620.364 225.701 507.606 62.99 462.255 43.66 468.187 14.119 577.878"/>
      <g>
        <polygon class="cls-7" points="184.375 621.485 193.684 618.259 224.68 507.036 214.211 511.04 184.375 621.485"/>
        <polygon class="cls-10" points="224.68 507.036 214.211 511.04 184.375 621.485 186.596 620.716 215.381 513.954 223.998 509.499 224.68 507.036"/>
      </g>
      <path class="cls-10" d="M191.539,580.274s-1.676,8.068-5.811,7.434c-4.137-.635-62.693-17.387-62.693-17.387l-3.391,12.164-31.115-7.811,3.705-13.284-68.875-18.681,2.057-7.188,166.123,44.753Z"/>
    </g>
    <g>
      <path class="cls-14" d="M75.615,526.895c-6.609-7.997-13.223-15.991-19.842-23.982-15.859,13.133-35.293,21.194-55.774,23.148.984,10.328,1.967,20.658,2.941,30.986,26.69-2.542,52.01-13.045,72.674-30.153Z"/>
      <path class="cls-20" d="M71.516,527.771c-5.607-7.19-11.219-14.374-16.834-21.56-14.941,11.68-32.772,19.077-51.578,21.406,1.121,9.049,2.238,18.1,3.352,27.148,23.725-2.937,46.215-12.267,65.061-26.995Z"/>
      <path class="cls-6" d="M40.273,544.384c5.879-2.435,7.822-9.717,4.602-15.666-3.223-5.965-9.394-8.885-13.988-6.988-4.586,1.918-6.873,8.347-4.936,14.841,1.928,6.483,8.445,10.253,14.322,7.814Z"/>
      <path class="cls-14" d="M33.99,526.509c-.301-.709-.602-1.416-.904-2.124-.621.265-1.248.524-1.875.777.277.692.557,1.384.838,2.075-1.916.785-4.184,1.975-5.262,2.803.457.311.916.62,1.377.928,1.145-.853,2.441-1.701,4.377-2.51.584,1.445,1.166,2.889,1.748,4.335-2.764,1.884-4.943,3.69-4.424,5.226.51,1.512,3.525,1.814,6.881.856.273.678.545,1.355.816,2.032.727-.293,1.451-.593,2.17-.899-.271-.639-.543-1.274-.814-1.912-.002-.002.447-.187.508-.215,2.516-1.084,4.498-2.362,5.42-3.16-.506-.233-1.006-.469-1.506-.708-.672.567-2.293,1.743-4.494,2.689-.025.013-.441.186-.441.186-.541-1.271-1.08-2.539-1.621-3.811-.006-.021.361-.203.465-.273,3.646-2.457,5.279-4.457,4.473-6.057-.76-1.507-2.851-1.986-7.73-.238ZM34.924,534.358c.437,1.084.875,2.168,1.311,3.253-1.178.136-2.893.013-3.113-.581-.293-.773.955-1.81,1.803-2.672ZM38.383,528.21c.404.887.537,1.554-2.238,3.363-.541-1.273-1.084-2.549-1.627-3.824,2.027-.58,3.449-.436,3.865.461Z"/>
    </g>
    <g>
      <path class="cls-14" d="M199.471,607.903c5.816-8.59,11.631-17.182,17.44-25.78-17.195-11.618-29.797-28.862-35.645-48.753-9.953,2.926-19.91,5.847-29.867,8.762,7.885,26.838,24.881,50.097,48.072,65.772Z"/>
      <path class="cls-20" d="M197.355,604.123c5.357-7.38,10.709-14.761,16.061-22.143-15.512-11.235-27.082-27.068-33.076-45.239-8.658,2.854-17.32,5.705-25.981,8.551,7.789,23.633,22.834,44.223,42.996,58.831Z"/>
      <path class="cls-6" d="M172.363,577.259c3.894,5.334,11.568,5.539,16.514.926,4.967-4.617,6.225-11.345,3.289-15.387-2.963-4.027-9.756-4.865-15.664-1.545-5.899,3.307-8.041,10.67-4.139,16.006Z"/>
      <path class="cls-14" d="M188.264,566.953c.615-.458,1.231-.921,1.848-1.381-.41-.55-.814-1.104-1.213-1.661-.608.433-1.213.865-1.82,1.299-1.232-1.705-2.932-3.672-3.992-4.557-.197.519-.393,1.043-.582,1.569,1.105.939,2.24,2.028,3.5,3.755-1.266.904-2.533,1.809-3.803,2.715-2.521-2.311-4.809-4.084-6.186-3.228-1.357.837-.934,3.911.848,7.04-.594.422-1.188.846-1.783,1.269.469.656.945,1.309,1.43,1.955.555-.415,1.109-.828,1.664-1.242.002,0,.301.404.34.455,1.699,2.254,3.469,3.918,4.492,4.642.096-.555.195-1.105.299-1.655-.728-.535-2.303-1.863-3.785-3.832-.019-.024-.295-.395-.293-.396,1.105-.825,2.211-1.651,3.318-2.476.018-.014.285.312.379.396,3.322,3.045,5.705,4.164,7.055,2.989,1.277-1.109,1.193-3.269-1.715-7.657ZM180.828,569.675c-.953.678-1.904,1.357-2.855,2.035-.428-1.141-.728-2.875-.203-3.225.688-.462,2.01.547,3.059,1.189ZM187.699,571.674c-.764.604-1.383.895-3.848-1.426,1.111-.828,2.221-1.657,3.33-2.486,1.07,1.862,1.289,3.289.517,3.912Z"/>
    </g>
    <g>
      <path class="cls-14" d="M107.055,593.575c9.598,3.935,19.197,7.869,28.801,11.797,7.856-19.211,22.158-35.072,40.428-44.865-4.896-9.147-9.795-18.295-14.687-27.443-24.654,13.211-43.945,34.603-54.541,60.512Z"/>
      <path class="cls-20" d="M110.322,590.731c8.318,3.734,16.637,7.464,24.957,11.189,7.826-17.48,20.957-32.047,37.518-41.632-4.566-7.892-9.131-15.785-13.687-23.682-21.539,12.462-38.615,31.398-48.787,54.124Z"/>
      <path class="cls-6" d="M131.502,560.77c-4.424,4.904-3.055,12.461,2.475,16.358,5.537,3.914,12.377,3.771,15.734.068,3.336-3.723,2.766-10.543-1.695-15.647-4.441-5.1-12.086-5.691-16.514-.779Z"/>
      <path class="cls-14" d="M144.844,574.228c.576.508,1.152,1.016,1.73,1.526.453-.515.912-1.023,1.379-1.528-.549-.506-1.098-1.01-1.644-1.515,1.416-1.559,2.996-3.622,3.643-4.841-.551-.087-1.102-.17-1.654-.248-.695,1.273-1.527,2.608-2.959,4.194-1.144-1.055-2.291-2.111-3.437-3.169,1.744-2.94,3.014-5.541,1.895-6.715-1.1-1.157-4.019-.111-6.715,2.271-.539-.496-1.074-.992-1.609-1.486-.547.594-1.088,1.195-1.621,1.801.518.457,1.037.915,1.557,1.375,0,0-.334.375-.379.425-1.856,2.124-3.123,4.196-3.621,5.347.561-.02,1.121-.035,1.68-.046.375-.824,1.352-2.634,2.977-4.491.02-.023.326-.368.326-.366,1.035.913,2.068,1.826,3.105,2.741.016.015-.248.344-.311.455-2.303,3.873-2.91,6.434-1.484,7.515,1.348,1.023,3.445.499,7.145-3.245ZM140.66,567.505c-.859-.792-1.719-1.585-2.578-2.377,1.029-.651,2.666-1.303,3.115-.859.594.578-.123,2.078-.537,3.236ZM140.109,574.641c-.748-.624-1.162-1.17.607-4.058,1.037.918,2.076,1.834,3.115,2.75-1.604,1.428-2.957,1.937-3.723,1.308Z"/>
    </g>
    <g>
      <path class="cls-14" d="M54.209,586.215c10.119-2.288,20.238-4.581,30.356-6.88-4.6-20.238-1.998-41.436,7.338-59.945-9.262-4.674-18.523-9.353-27.783-14.034-12.602,24.972-16.109,53.563-9.91,80.859Z"/>
      <path class="cls-20" d="M55.252,582.012c8.955-1.721,17.908-3.444,26.859-5.171-3.631-18.805-1.246-38.27,6.811-55.625-8.269-3.842-16.539-7.684-24.805-11.531-10.477,22.57-13.584,47.88-8.865,72.327Z"/>
      <path class="cls-6" d="M55.391,545.319c-.807,6.555,4.654,11.954,11.416,11.971,6.779.027,12.303-4.02,12.924-8.978.592-4.964-3.789-10.222-10.373-11.84-6.564-1.622-13.164,2.286-13.967,8.847Z"/>
      <path class="cls-14" d="M74.039,548.675c.766.086,1.529.172,2.293.258.078-.682.16-1.361.25-2.043-.736-.098-1.476-.197-2.215-.296.266-2.089.373-4.685.203-6.056-.5.244-.998.493-1.496.748.162,1.439.248,3.012-.014,5.133-1.545-.207-3.088-.414-4.631-.62-.264-3.411-.719-6.269-2.307-6.587-1.564-.315-3.358,2.217-4.193,5.717-.727-.098-1.449-.195-2.174-.293-.106.801-.201,1.601-.293,2.404.689.076,1.377.154,2.064.231.002.001-.057.501-.065.565-.301,2.806-.147,5.23.105,6.459.447-.34.897-.674,1.35-1.004-.168-.891-.404-2.934-.144-5.386.004-.03.057-.488.057-.488,1.373.153,2.744.308,4.117.462.02.004-.006.424.006.551.34,4.494,1.312,6.938,3.102,7.004,1.691.065,3.106-1.568,3.984-6.76ZM66.754,545.575c-1.158-.156-2.316-.311-3.476-.467.471-1.125,1.436-2.598,2.059-2.491.818.133,1.094,1.772,1.418,2.958ZM70.402,551.732c-.971-.08-1.623-.29-1.834-3.671,1.377.155,2.754.311,4.131.464-.494,2.09-1.311,3.28-2.297,3.207Z"/>
    </g>
    <g>
      <path class="cls-14" d="M191.691,535.669c-10.32-1.069-20.637-2.133-30.961-3.19-2.113,20.646-11.356,39.9-26.119,54.453,7.281,7.391,14.561,14.785,21.834,22.18,19.926-19.633,32.393-45.6,35.246-73.443Z"/>
      <path class="cls-20" d="M189.359,539.316c-9.033-1.233-18.068-2.462-27.103-3.688-2.57,18.978-11.057,36.659-24.238,50.527,6.607,6.284,13.213,12.568,19.814,18.856,17.147-18.033,28.182-41.02,31.527-65.694Z"/>
      <path class="cls-6" d="M177.496,574.038c2.859-5.951-.586-12.814-6.988-14.992-6.418-2.194-12.941-.123-15.117,4.375-2.146,4.514.324,10.896,6.043,14.533,5.703,3.637,13.205,2.045,16.063-3.916Z"/>
      <path class="cls-14" d="M160.898,564.895c-.695-.325-1.393-.651-2.09-.977-.289.622-.588,1.24-.891,1.855.67.33,1.336.658,2.006.99-.918,1.893-1.852,4.319-2.131,5.672.553-.072,1.106-.147,1.658-.23.307-1.418.729-2.933,1.652-4.859,1.398.69,2.797,1.379,4.193,2.069-.844,3.313-1.324,6.167.078,6.978,1.381.799,3.889-1.028,5.803-4.074.654.323,1.308.647,1.963.972.358-.725.707-1.452,1.047-2.184-.627-.293-1.254-.587-1.883-.881,0,0,.215-.454.242-.514,1.184-2.561,1.813-4.908,1.967-6.152-.531.178-1.066.35-1.598.518-.127.898-.555,2.909-1.588,5.149-.012.028-.209.444-.209.444-1.252-.584-2.504-1.168-3.754-1.754-.02-.011.141-.4.17-.524,1.115-4.364.975-6.993-.697-7.626-1.582-.604-3.445.493-5.939,5.129ZM166.811,570.163c1.049.519,2.096,1.036,3.144,1.553-.805.916-2.19,2.002-2.746,1.703-.734-.387-.469-2.027-.398-3.256ZM165.324,563.163c.896.387,1.445.794.564,4.064-1.256-.587-2.512-1.173-3.766-1.761,1.135-1.821,2.289-2.689,3.201-2.303Z"/>
    </g>
    <g>
      <path class="cls-14" d="M94.299,535.524c-8.562-5.854-17.131-11.706-25.703-17.551-11.693,17.144-28.99,29.669-48.904,35.434,2.881,9.965,5.758,19.935,8.631,29.902,26.871-7.769,50.203-24.662,65.977-47.785Z"/>
      <path class="cls-20" d="M90.51,537.622c-7.355-5.389-14.713-10.773-22.07-16.154-11.301,15.461-27.186,26.963-45.385,32.877,2.818,8.673,5.633,17.346,8.441,26.02,23.666-7.687,44.32-22.643,59.014-42.742Z"/>
      <path class="cls-6" d="M63.539,562.499c5.35-3.869,5.59-11.548.996-16.512-4.596-4.984-11.314-6.273-15.371-3.355-4.041,2.944-4.908,9.733-1.613,15.657,3.281,5.914,10.637,8.088,15.988,4.209Z"/>
      <path class="cls-14" d="M53.301,546.554c-.455-.617-.912-1.236-1.371-1.855-.553.407-1.107.81-1.666,1.206.428.61.861,1.219,1.291,1.826-1.709,1.226-3.686,2.916-4.574,3.973.519.199,1.039.397,1.568.588.942-1.1,2.035-2.232,3.768-3.484.9,1.272,1.799,2.543,2.699,3.816-2.322,2.514-4.104,4.79-3.252,6.172.832,1.36,3.904.948,7.041-.817.42.597.84,1.192,1.262,1.789.66-.467,1.313-.939,1.961-1.422-.412-.557-.824-1.113-1.236-1.672,0,0,.406-.295.459-.335,2.264-1.689,3.932-3.453,4.66-4.473-.555-.098-1.103-.201-1.652-.306-.541.727-1.871,2.293-3.85,3.769-.022.02-.395.292-.395.291-.822-1.109-1.644-2.219-2.465-3.33-.012-.018.315-.283.399-.379,3.061-3.307,4.191-5.686,3.023-7.039-1.105-1.283-3.269-1.207-7.67,1.682ZM55.99,554.002c.676.954,1.35,1.907,2.025,2.862-1.145.422-2.877.717-3.225.187-.463-.689.555-2.004,1.199-3.05ZM58.019,547.138c.602.767.891,1.387-1.441,3.842-.824-1.113-1.646-2.228-2.473-3.342,1.867-1.06,3.293-1.273,3.914-.5Z"/>
    </g>
    <g>
      <path class="cls-26" d="M226.41,507.804l-13.805,4.139-20.143,70.551s-1.324,3.393-4.82,2.935c-3.494-.457-163.443-45.658-163.443-45.658,0,0-3.848-1.521-2.775-5.361,1.07-3.842,19.807-71.066,19.807-71.066l17.842-2.182,167.338,46.643Z"/>
      <rect class="cls-22" x="94.742" y="551.696" width="18.864" height="32.066" transform="translate(-470.678 515.626) rotate(-74.423)"/>
      <rect class="cls-2" x="107.916" y="569.045" width="18.863" height="4.714" transform="translate(-464.565 530.801) rotate(-74.403)"/>
      <path class="cls-1" d="M43.236,466.686c-.258.929.283,1.892,1.213,2.149l161.994,45.153c.928.259,1.891-.284,2.148-1.212l.078-.273c.26-.928-.283-1.891-1.213-2.149l-161.996-45.153c-.928-.259-1.889.284-2.147,1.212l-.078.272Z"/>
      <rect class="cls-1" x="107.521" y="466.105" width="15.091" height="5.66" transform="translate(-367.547 453.942) rotate(-74.434)"/>
      <rect class="cls-1" x="148.606" y="479.009" width="15.091" height="4.716" transform="translate(-349.459 502.712) rotate(-74.445)"/>
      <rect class="cls-16" x="85.963" y="564.058" width="13.204" height="2.829" transform="translate(-476.992 502.759) rotate(-74.42)"/>
      <path class="cls-22" d="M147.877,487.872c-.443,1.592.234,3.003,1.457,3.344l9.611,2.68c1.225.34,2.533-.516,2.977-2.108h0c.445-1.589-.234-3.002-1.457-3.344l-9.611-2.679c-1.223-.34-2.533.518-2.977,2.107h0Z"/>
      <path class="cls-22" d="M106.102,476.228c-.443,1.594.193,2.992,1.365,3.318l9.197,2.565c1.174.326,2.439-.542,2.883-2.135h0c.443-1.59-.189-2.99-1.363-3.316l-9.197-2.564c-1.174-.326-2.441.543-2.885,2.133h0Z"/>
      <path class="cls-4" d="M112.795,459.523c-.416,1.487.453,3.03,1.941,3.446l44.584,12.426c1.486.414,3.029-.455,3.443-1.943l.018-.062c.414-1.488-.455-3.031-1.943-3.445l-44.582-12.427c-1.486-.415-3.029.456-3.445,1.944l-.016.062Z"/>
    </g>
  </g>
  <g>
    <path class="cls-3" d="M218.377,743.886s-18.637,11.578-27.572,24.137l68.779,74.283s18.596-12.506-11.346-44.768l-5.178-33.686-24.684-19.966Z"/>
    <path class="cls-15" d="M184.537,773.749l23.24,25.1,4.711-3.798s5.178,13.831,18.223,27.921c6.34,6.849,22.514,24.716,22.514,24.716l6.106-5.655-68.564-74.052-6.229,5.768Z"/>
    <path class="cls-29" d="M250.209,799.589s-10.436,11.689,13.842,36.818c0,0,7.148-13.177-13.842-36.818Z"/>
    <path class="cls-15" d="M213.019,792.017s18.139-18.13-3.629-41.869c0,0-13.852,10.494-18.373,18.107l22.002,23.762Z"/>
  </g>
  <g>
    <path class="cls-3" d="M322.644,803.371s-4.166,21.452-1.021,36.452h101.236s3.457-21.964-40.557-21.913l-28.238-19.086-31.42,4.547Z"/>
    <path class="cls-15" d="M322.352,848.823h33.424s.412-6.114.412-6.114c0,0,14.1,5.559,33.301,5.559,9.334,0,33.863.235,33.863.235v-8.68s-101,0-101,0v9Z"/>
    <path class="cls-29" d="M385.144,818.036s1.486,15.599,36.42,14.858c0,0-4.811-14.199-36.42-14.858Z"/>
    <path class="cls-15" d="M354.32,839.823s-.978-25.628-33.187-25.783c0,0-1.709,17.783.805,25.783h32.383Z"/>
  </g>
  <g>
    <path class="cls-8" d="M154.315,429.666l1.705,8.496s5.76,13.131,4.555,18.05c-1.547,6.312.236,16.252.236,16.252,0,0-7.783,2.553-8.094-9.083,0,0-5.014,19.077-8.941,18.576,0,0-3.258-1.941-5.187-3.841,0,0-3.422.736-6.256-4.23,0,0-5.004.991-6.228-3.095,0,0-3.375-1.709-4.459-6.234-1.117-4.652-.24-4.721.438-13.289,0,0,4.664-16.758,12.848-21.085l19.385-.518Z"/>
    <path class="cls-25" d="M216.383,199.495s-17.059,9.982-56.285,108.2c0,0-31.877,68.813-33.914,121.745,0,0,14.207,13.568,35.424,6.8,0,0,28.563-87.725,33.352-107.282l34.537-51.646s2.928-63.797-13.113-77.817Z"/>
  </g>
  <g>
    <path class="cls-25" d="M272.352,171.173v6s-44.883,17.426-57.025,22.296c0,0,18.277,103.293,18.738,130.748.461,27.455,1.414,76.206,1.414,76.206,0,0-5.814,83.172,32.49,241.25,0,0-50.916,65-74.26,94,0,0,65.611,103,191.426,60.167l-22.629-113.167c33-39.5,21.482-230.166,19.797-277.5,0,0-8.229-162.346-16.838-214.481,0,0-31.113-17.02-45.113-20.02v-5.5s-23,7.34-48,0Z"/>
    <path class="cls-30" d="M318.881,322.203l-4-.059c1.023-69.629-15.656-146.525-15.824-147.293l3.906-.857c.17.773,16.947,78.122,15.918,148.209Z"/>
  </g>
  <path class="cls-30" d="M267.978,647.673s-50.92,65-74.266,94c0,0,26.84,42.127,79.096,61.293,10.395-64.248-4.83-155.293-4.83-155.293Z"/>
  <path class="cls-30" d="M326.178,485.69l36.328,202.982c16.918-20.251,22.135-80.234,22.975-140.267-35.578-20.904-59.303-62.716-59.303-62.716Z"/>
  <g>
    <path class="cls-8" d="M248.887,100.985l4.047,4.619c.275-6.493.469-6.93.576-10.432.691-22.472,4.648-32.25,4.648-32.25,6.602-27.5,85.152-6.581,85.152-6.581-1.633,14.831,5.238,71.514-11.867,96.757-5.096,7.521-11.537,13.834-22.346,15.526-47.084,7.373-59.186-38.69-59.186-38.69,0,0-17.178,3.577-16.295-18.363.695-17.275,15.27-10.586,15.27-10.586Z"/>
    <path class="cls-9" d="M343.311,56.342s-78.551-20.919-85.152,6.581c0,0-3.096,7.66-4.289,24.981l8.891,1.269s4-14.5,18.127-12.625c14.123,1.875,12.611,5.762,48.873,1.25,6.414-.798,11.168,6.334,13.594,17.801-.156-8.414-.475-35.337-.043-39.257Z"/>
    <path class="cls-5" d="M318.274,105.853c.039,4.05,2.498,7.142,5.494,6.9,2.996-.24,5.389-3.719,5.348-7.77-.039-4.051-2.498-7.142-5.492-6.901-2.996.239-5.391,3.719-5.35,7.771Z"/>
    <path class="cls-5" d="M277.119,104.655c.037,4.051,2.498,7.143,5.494,6.902,2.994-.241,5.391-3.721,5.348-7.77-.039-4.052-2.5-7.142-5.49-6.902-2.996.239-5.395,3.72-5.352,7.77Z"/>
    <path class="cls-9" d="M302.682,128.842c9.103,3.681,14.012-.604,14.377-4.911.238-2.805-1.352-5.295-4.045-6.351-5.549-2.166-9.459-10.696-9.498-10.784h0c-.023,1.961,1.955,9.333,8.992,13.427,1.52.885,2.469,1.819,2.353,3.206-.205,2.414-3.695,6.02-12.18,5.413h0Z"/>
    <path class="cls-5" d="M336.775,84.953l.398-2.741c-.594-.047-9.992-2.604-21.019-1.676l-.096,4.299c9.033-1.336,20.57.107,20.717.118Z"/>
    <path class="cls-5" d="M269.949,86.39c7.369-2.857,21.027-3.389,21.156-3.418l-.898-3.92c-.537.11-12.924.541-21.182,4.952l.924,2.386Z"/>
    <path class="cls-18" d="M256.975,105.417s5.369,26.922,15.535,26.422c10.168-.5,39.666-4.333,58.334,2,0,0,8.443,3.114,11.666-21.072,0,0,1.359,59.109-42.768,57.406-38.855-1.5-47.381-33.56-47.381-33.56l.223-29.817,4.391-1.379Z"/>
    <path class="cls-16" d="M286.854,134.823s16.99,0,33.066,0c0,0-2.822,10.947-16.533,10.917-12.928-.028-16.383-7.917-16.533-10.917Z"/>
    <g>
      <path class="cls-17" d="M256.975,281.507s3.281-146.664,7.035-196.554c1.75-23.256,27.775-12.405,41-10.53,21.162,3,35.877-6.789,37.5,1.461,4.81,24.424-3.006,111.644-3.006,111.644,0,0,13.805,75.98,14.006,93.98,0,0,13.336-161-3.75-222,0,0,4.42-41.334-48.5-41.334-58.615,0-57.316,30.333-60.076,45,0,0-21.127,106.088-23.795,139.237,0,0,13.926,68.429,39.586,79.097Z"/>
      <g class="cls-28">
        <g>
          <g>
            <path class="cls-12" d="M220.184,12.149c-1.242,1.596-3.195,1.676-4.647.545l-.266-.205c-1.453-1.131-1.853-3.044-.613-4.64l4.947-6.356c1.242-1.595,3.426-1.972,4.879-.841l.264.204c1.453,1.131,1.625,3.341.381,4.936l-4.945,6.357Z"/>
            <path class="cls-12" d="M220.184,31.149c-1.242,1.596-3.195,1.676-4.647.545l-.266-.205c-1.453-1.131-1.853-3.044-.613-4.64l4.947-6.356c1.242-1.595,3.426-1.972,4.879-.841l.264.204c1.453,1.131,1.625,3.341.381,4.936l-4.945,6.357Z"/>
            <path class="cls-12" d="M220.184,50.149c-1.242,1.596-3.195,1.676-4.647.545l-.266-.205c-1.453-1.131-1.853-3.044-.613-4.64l4.947-6.356c1.242-1.595,3.426-1.972,4.879-.841l.264.204c1.453,1.131,1.625,3.341.381,4.936l-4.945,6.357Z"/>
            <path class="cls-12" d="M220.184,69.149c-1.242,1.596-3.195,1.676-4.647.545l-.266-.205c-1.453-1.131-1.853-3.044-.613-4.64l4.947-6.356c1.242-1.595,3.426-1.972,4.879-.841l.264.204c1.453,1.131,1.625,3.341.381,4.936l-4.945,6.357Z"/>
            <path class="cls-12" d="M220.184,88.149c-1.242,1.596-3.195,1.676-4.647.545l-.266-.205c-1.453-1.131-1.853-3.044-.613-4.64l4.947-6.356c1.242-1.595,3.426-1.972,4.879-.841l.264.204c1.453,1.131,1.625,3.341.381,4.936l-4.945,6.357Z"/>
            <path class="cls-12" d="M220.184,107.149c-1.242,1.596-3.195,1.676-4.647.545l-.266-.205c-1.453-1.131-1.853-3.044-.613-4.64l4.947-6.356c1.242-1.595,3.426-1.972,4.879-.841l.264.204c1.453,1.131,1.625,3.341.381,4.936l-4.945,6.357Z"/>
            <path class="cls-12" d="M220.184,126.149c-1.242,1.596-3.195,1.676-4.647.545l-.266-.205c-1.453-1.131-1.853-3.044-.613-4.64l4.947-6.356c1.242-1.595,3.426-1.972,4.879-.841l.264.204c1.453,1.131,1.625,3.341.381,4.936l-4.945,6.357Z"/>
            <path class="cls-12" d="M220.184,145.149c-1.242,1.596-3.195,1.676-4.647.545l-.266-.205c-1.453-1.131-1.853-3.044-.613-4.64l4.947-6.356c1.242-1.595,3.426-1.972,4.879-.841l.264.204c1.453,1.131,1.625,3.341.381,4.936l-4.945,6.357Z"/>
            <path class="cls-12" d="M220.184,164.149c-1.242,1.596-3.195,1.676-4.647.545l-.266-.205c-1.453-1.131-1.853-3.044-.613-4.64l4.947-6.356c1.242-1.595,3.426-1.972,4.879-.841l.264.204c1.453,1.131,1.625,3.341.381,4.936l-4.945,6.357Z"/>
            <path class="cls-12" d="M220.184,183.149c-1.242,1.596-3.195,1.676-4.647.545l-.266-.205c-1.453-1.131-1.853-3.044-.613-4.64l4.947-6.356c1.242-1.595,3.426-1.972,4.879-.841l.264.204c1.453,1.131,1.625,3.341.381,4.936l-4.945,6.357Z"/>
            <path class="cls-12" d="M220.184,202.149c-1.242,1.596-3.195,1.676-4.647.545l-.266-.205c-1.453-1.131-1.853-3.044-.613-4.64l4.947-6.356c1.242-1.595,3.426-1.972,4.879-.841l.264.204c1.453,1.131,1.625,3.341.381,4.936l-4.945,6.357Z"/>
            <path class="cls-12" d="M220.184,221.149c-1.242,1.596-3.195,1.676-4.647.545l-.266-.205c-1.453-1.131-1.853-3.044-.613-4.64l4.947-6.356c1.242-1.595,3.426-1.972,4.879-.841l.264.204c1.453,1.131,1.625,3.341.381,4.936l-4.945,6.357Z"/>
            <path class="cls-12" d="M220.184,240.149c-1.242,1.596-3.195,1.676-4.647.545l-.266-.205c-1.453-1.131-1.853-3.044-.613-4.64l4.947-6.356c1.242-1.595,3.426-1.972,4.879-.841l.264.204c1.453,1.131,1.625,3.341.381,4.936l-4.945,6.357Z"/>
            <path class="cls-12" d="M220.184,259.149c-1.242,1.596-3.195,1.676-4.647.545l-.266-.205c-1.453-1.131-1.853-3.044-.613-4.64l4.947-6.356c1.242-1.595,3.426-1.972,4.879-.841l.264.204c1.453,1.131,1.625,3.341.381,4.936l-4.945,6.357Z"/>
            <path class="cls-12" d="M220.184,278.149c-1.242,1.596-3.195,1.676-4.647.545l-.266-.205c-1.453-1.131-1.853-3.044-.613-4.64l4.947-6.356c1.242-1.595,3.426-1.972,4.879-.841l.264.204c1.453,1.131,1.625,3.341.381,4.936l-4.945,6.357Z"/>
            <path class="cls-12" d="M220.184,297.149c-1.242,1.596-3.195,1.676-4.647.545l-.266-.205c-1.453-1.131-1.853-3.044-.613-4.64l4.947-6.356c1.242-1.595,3.426-1.972,4.879-.841l.264.204c1.453,1.131,1.625,3.341.381,4.936l-4.945,6.357Z"/>
          </g>
          <g>
            <path class="cls-12" d="M239.184,12.149c-1.242,1.596-3.195,1.676-4.647.545l-.266-.205c-1.453-1.131-1.853-3.044-.613-4.64l4.947-6.356c1.242-1.595,3.426-1.972,4.879-.841l.264.204c1.453,1.131,1.625,3.341.381,4.936l-4.945,6.357Z"/>
            <path class="cls-12" d="M239.184,31.149c-1.242,1.596-3.195,1.676-4.647.545l-.266-.205c-1.453-1.131-1.853-3.044-.613-4.64l4.947-6.356c1.242-1.595,3.426-1.972,4.879-.841l.264.204c1.453,1.131,1.625,3.341.381,4.936l-4.945,6.357Z"/>
            <path class="cls-12" d="M239.184,50.149c-1.242,1.596-3.195,1.676-4.647.545l-.266-.205c-1.453-1.131-1.853-3.044-.613-4.64l4.947-6.356c1.242-1.595,3.426-1.972,4.879-.841l.264.204c1.453,1.131,1.625,3.341.381,4.936l-4.945,6.357Z"/>
            <path class="cls-12" d="M239.184,69.149c-1.242,1.596-3.195,1.676-4.647.545l-.266-.205c-1.453-1.131-1.853-3.044-.613-4.64l4.947-6.356c1.242-1.595,3.426-1.972,4.879-.841l.264.204c1.453,1.131,1.625,3.341.381,4.936l-4.945,6.357Z"/>
            <path class="cls-12" d="M239.184,88.149c-1.242,1.596-3.195,1.676-4.647.545l-.266-.205c-1.453-1.131-1.853-3.044-.613-4.64l4.947-6.356c1.242-1.595,3.426-1.972,4.879-.841l.264.204c1.453,1.131,1.625,3.341.381,4.936l-4.945,6.357Z"/>
            <path class="cls-12" d="M239.184,107.149c-1.242,1.596-3.195,1.676-4.647.545l-.266-.205c-1.453-1.131-1.853-3.044-.613-4.64l4.947-6.356c1.242-1.595,3.426-1.972,4.879-.841l.264.204c1.453,1.131,1.625,3.341.381,4.936l-4.945,6.357Z"/>
            <path class="cls-12" d="M239.184,126.149c-1.242,1.596-3.195,1.676-4.647.545l-.266-.205c-1.453-1.131-1.853-3.044-.613-4.64l4.947-6.356c1.242-1.595,3.426-1.972,4.879-.841l.264.204c1.453,1.131,1.625,3.341.381,4.936l-4.945,6.357Z"/>
            <path class="cls-12" d="M239.184,145.149c-1.242,1.596-3.195,1.676-4.647.545l-.266-.205c-1.453-1.131-1.853-3.044-.613-4.64l4.947-6.356c1.242-1.595,3.426-1.972,4.879-.841l.264.204c1.453,1.131,1.625,3.341.381,4.936l-4.945,6.357Z"/>
            <path class="cls-12" d="M239.184,164.149c-1.242,1.596-3.195,1.676-4.647.545l-.266-.205c-1.453-1.131-1.853-3.044-.613-4.64l4.947-6.356c1.242-1.595,3.426-1.972,4.879-.841l.264.204c1.453,1.131,1.625,3.341.381,4.936l-4.945,6.357Z"/>
            <path class="cls-12" d="M239.184,183.149c-1.242,1.596-3.195,1.676-4.647.545l-.266-.205c-1.453-1.131-1.853-3.044-.613-4.64l4.947-6.356c1.242-1.595,3.426-1.972,4.879-.841l.264.204c1.453,1.131,1.625,3.341.381,4.936l-4.945,6.357Z"/>
            <path class="cls-12" d="M239.184,202.149c-1.242,1.596-3.195,1.676-4.647.545l-.266-.205c-1.453-1.131-1.853-3.044-.613-4.64l4.947-6.356c1.242-1.595,3.426-1.972,4.879-.841l.264.204c1.453,1.131,1.625,3.341.381,4.936l-4.945,6.357Z"/>
            <path class="cls-12" d="M239.184,221.149c-1.242,1.596-3.195,1.676-4.647.545l-.266-.205c-1.453-1.131-1.853-3.044-.613-4.64l4.947-6.356c1.242-1.595,3.426-1.972,4.879-.841l.264.204c1.453,1.131,1.625,3.341.381,4.936l-4.945,6.357Z"/>
            <path class="cls-12" d="M239.184,240.149c-1.242,1.596-3.195,1.676-4.647.545l-.266-.205c-1.453-1.131-1.853-3.044-.613-4.64l4.947-6.356c1.242-1.595,3.426-1.972,4.879-.841l.264.204c1.453,1.131,1.625,3.341.381,4.936l-4.945,6.357Z"/>
            <path class="cls-12" d="M239.184,259.149c-1.242,1.596-3.195,1.676-4.647.545l-.266-.205c-1.453-1.131-1.853-3.044-.613-4.64l4.947-6.356c1.242-1.595,3.426-1.972,4.879-.841l.264.204c1.453,1.131,1.625,3.341.381,4.936l-4.945,6.357Z"/>
            <path class="cls-12" d="M239.184,278.149c-1.242,1.596-3.195,1.676-4.647.545l-.266-.205c-1.453-1.131-1.853-3.044-.613-4.64l4.947-6.356c1.242-1.595,3.426-1.972,4.879-.841l.264.204c1.453,1.131,1.625,3.341.381,4.936l-4.945,6.357Z"/>
            <path class="cls-12" d="M239.184,297.149c-1.242,1.596-3.195,1.676-4.647.545l-.266-.205c-1.453-1.131-1.853-3.044-.613-4.64l4.947-6.356c1.242-1.595,3.426-1.972,4.879-.841l.264.204c1.453,1.131,1.625,3.341.381,4.936l-4.945,6.357Z"/>
          </g>
          <g>
            <path class="cls-12" d="M258.184,12.149c-1.242,1.596-3.195,1.676-4.647.545l-.266-.205c-1.453-1.131-1.853-3.044-.613-4.64l4.947-6.356c1.242-1.595,3.426-1.972,4.879-.841l.264.204c1.453,1.131,1.625,3.341.381,4.936l-4.945,6.357Z"/>
            <path class="cls-12" d="M258.184,31.149c-1.242,1.596-3.195,1.676-4.647.545l-.266-.205c-1.453-1.131-1.853-3.044-.613-4.64l4.947-6.356c1.242-1.595,3.426-1.972,4.879-.841l.264.204c1.453,1.131,1.625,3.341.381,4.936l-4.945,6.357Z"/>
            <path class="cls-12" d="M258.184,50.149c-1.242,1.596-3.195,1.676-4.647.545l-.266-.205c-1.453-1.131-1.853-3.044-.613-4.64l4.947-6.356c1.242-1.595,3.426-1.972,4.879-.841l.264.204c1.453,1.131,1.625,3.341.381,4.936l-4.945,6.357Z"/>
            <path class="cls-12" d="M258.184,69.149c-1.242,1.596-3.195,1.676-4.647.545l-.266-.205c-1.453-1.131-1.853-3.044-.613-4.64l4.947-6.356c1.242-1.595,3.426-1.972,4.879-.841l.264.204c1.453,1.131,1.625,3.341.381,4.936l-4.945,6.357Z"/>
            <path class="cls-12" d="M258.184,88.149c-1.242,1.596-3.195,1.676-4.647.545l-.266-.205c-1.453-1.131-1.853-3.044-.613-4.64l4.947-6.356c1.242-1.595,3.426-1.972,4.879-.841l.264.204c1.453,1.131,1.625,3.341.381,4.936l-4.945,6.357Z"/>
            <path class="cls-12" d="M258.184,107.149c-1.242,1.596-3.195,1.676-4.647.545l-.266-.205c-1.453-1.131-1.853-3.044-.613-4.64l4.947-6.356c1.242-1.595,3.426-1.972,4.879-.841l.264.204c1.453,1.131,1.625,3.341.381,4.936l-4.945,6.357Z"/>
            <path class="cls-12" d="M258.184,126.149c-1.242,1.596-3.195,1.676-4.647.545l-.266-.205c-1.453-1.131-1.853-3.044-.613-4.64l4.947-6.356c1.242-1.595,3.426-1.972,4.879-.841l.264.204c1.453,1.131,1.625,3.341.381,4.936l-4.945,6.357Z"/>
            <path class="cls-12" d="M258.184,145.149c-1.242,1.596-3.195,1.676-4.647.545l-.266-.205c-1.453-1.131-1.853-3.044-.613-4.64l4.947-6.356c1.242-1.595,3.426-1.972,4.879-.841l.264.204c1.453,1.131,1.625,3.341.381,4.936l-4.945,6.357Z"/>
            <path class="cls-12" d="M258.184,164.149c-1.242,1.596-3.195,1.676-4.647.545l-.266-.205c-1.453-1.131-1.853-3.044-.613-4.64l4.947-6.356c1.242-1.595,3.426-1.972,4.879-.841l.264.204c1.453,1.131,1.625,3.341.381,4.936l-4.945,6.357Z"/>
            <path class="cls-12" d="M258.184,183.149c-1.242,1.596-3.195,1.676-4.647.545l-.266-.205c-1.453-1.131-1.853-3.044-.613-4.64l4.947-6.356c1.242-1.595,3.426-1.972,4.879-.841l.264.204c1.453,1.131,1.625,3.341.381,4.936l-4.945,6.357Z"/>
            <path class="cls-12" d="M258.184,202.149c-1.242,1.596-3.195,1.676-4.647.545l-.266-.205c-1.453-1.131-1.853-3.044-.613-4.64l4.947-6.356c1.242-1.595,3.426-1.972,4.879-.841l.264.204c1.453,1.131,1.625,3.341.381,4.936l-4.945,6.357Z"/>
            <path class="cls-12" d="M258.184,221.149c-1.242,1.596-3.195,1.676-4.647.545l-.266-.205c-1.453-1.131-1.853-3.044-.613-4.64l4.947-6.356c1.242-1.595,3.426-1.972,4.879-.841l.264.204c1.453,1.131,1.625,3.341.381,4.936l-4.945,6.357Z"/>
            <path class="cls-12" d="M258.184,240.149c-1.242,1.596-3.195,1.676-4.647.545l-.266-.205c-1.453-1.131-1.853-3.044-.613-4.64l4.947-6.356c1.242-1.595,3.426-1.972,4.879-.841l.264.204c1.453,1.131,1.625,3.341.381,4.936l-4.945,6.357Z"/>
            <path class="cls-12" d="M258.184,259.149c-1.242,1.596-3.195,1.676-4.647.545l-.266-.205c-1.453-1.131-1.853-3.044-.613-4.64l4.947-6.356c1.242-1.595,3.426-1.972,4.879-.841l.264.204c1.453,1.131,1.625,3.341.381,4.936l-4.945,6.357Z"/>
            <path class="cls-12" d="M258.184,278.149c-1.242,1.596-3.195,1.676-4.647.545l-.266-.205c-1.453-1.131-1.853-3.044-.613-4.64l4.947-6.356c1.242-1.595,3.426-1.972,4.879-.841l.264.204c1.453,1.131,1.625,3.341.381,4.936l-4.945,6.357Z"/>
            <path class="cls-12" d="M258.184,297.149c-1.242,1.596-3.195,1.676-4.647.545l-.266-.205c-1.453-1.131-1.853-3.044-.613-4.64l4.947-6.356c1.242-1.595,3.426-1.972,4.879-.841l.264.204c1.453,1.131,1.625,3.341.381,4.936l-4.945,6.357Z"/>
          </g>
          <g>
            <path class="cls-12" d="M277.184,12.149c-1.242,1.596-3.195,1.676-4.647.545l-.266-.205c-1.453-1.131-1.853-3.044-.613-4.64l4.947-6.356c1.242-1.595,3.426-1.972,4.879-.841l.264.204c1.453,1.131,1.625,3.341.381,4.936l-4.945,6.357Z"/>
            <path class="cls-12" d="M277.184,31.149c-1.242,1.596-3.195,1.676-4.647.545l-.266-.205c-1.453-1.131-1.853-3.044-.613-4.64l4.947-6.356c1.242-1.595,3.426-1.972,4.879-.841l.264.204c1.453,1.131,1.625,3.341.381,4.936l-4.945,6.357Z"/>
            <path class="cls-12" d="M277.184,50.149c-1.242,1.596-3.195,1.676-4.647.545l-.266-.205c-1.453-1.131-1.853-3.044-.613-4.64l4.947-6.356c1.242-1.595,3.426-1.972,4.879-.841l.264.204c1.453,1.131,1.625,3.341.381,4.936l-4.945,6.357Z"/>
            <path class="cls-12" d="M277.184,69.149c-1.242,1.596-3.195,1.676-4.647.545l-.266-.205c-1.453-1.131-1.853-3.044-.613-4.64l4.947-6.356c1.242-1.595,3.426-1.972,4.879-.841l.264.204c1.453,1.131,1.625,3.341.381,4.936l-4.945,6.357Z"/>
            <path class="cls-12" d="M277.184,88.149c-1.242,1.596-3.195,1.676-4.647.545l-.266-.205c-1.453-1.131-1.853-3.044-.613-4.64l4.947-6.356c1.242-1.595,3.426-1.972,4.879-.841l.264.204c1.453,1.131,1.625,3.341.381,4.936l-4.945,6.357Z"/>
            <path class="cls-12" d="M277.184,107.149c-1.242,1.596-3.195,1.676-4.647.545l-.266-.205c-1.453-1.131-1.853-3.044-.613-4.64l4.947-6.356c1.242-1.595,3.426-1.972,4.879-.841l.264.204c1.453,1.131,1.625,3.341.381,4.936l-4.945,6.357Z"/>
            <path class="cls-12" d="M277.184,126.149c-1.242,1.596-3.195,1.676-4.647.545l-.266-.205c-1.453-1.131-1.853-3.044-.613-4.64l4.947-6.356c1.242-1.595,3.426-1.972,4.879-.841l.264.204c1.453,1.131,1.625,3.341.381,4.936l-4.945,6.357Z"/>
            <path class="cls-12" d="M277.184,145.149c-1.242,1.596-3.195,1.676-4.647.545l-.266-.205c-1.453-1.131-1.853-3.044-.613-4.64l4.947-6.356c1.242-1.595,3.426-1.972,4.879-.841l.264.204c1.453,1.131,1.625,3.341.381,4.936l-4.945,6.357Z"/>
            <path class="cls-12" d="M277.184,164.149c-1.242,1.596-3.195,1.676-4.647.545l-.266-.205c-1.453-1.131-1.853-3.044-.613-4.64l4.947-6.356c1.242-1.595,3.426-1.972,4.879-.841l.264.204c1.453,1.131,1.625,3.341.381,4.936l-4.945,6.357Z"/>
            <path class="cls-12" d="M277.184,183.149c-1.242,1.596-3.195,1.676-4.647.545l-.266-.205c-1.453-1.131-1.853-3.044-.613-4.64l4.947-6.356c1.242-1.595,3.426-1.972,4.879-.841l.264.204c1.453,1.131,1.625,3.341.381,4.936l-4.945,6.357Z"/>
            <path class="cls-12" d="M277.184,202.149c-1.242,1.596-3.195,1.676-4.647.545l-.266-.205c-1.453-1.131-1.853-3.044-.613-4.64l4.947-6.356c1.242-1.595,3.426-1.972,4.879-.841l.264.204c1.453,1.131,1.625,3.341.381,4.936l-4.945,6.357Z"/>
            <path class="cls-12" d="M277.184,221.149c-1.242,1.596-3.195,1.676-4.647.545l-.266-.205c-1.453-1.131-1.853-3.044-.613-4.64l4.947-6.356c1.242-1.595,3.426-1.972,4.879-.841l.264.204c1.453,1.131,1.625,3.341.381,4.936l-4.945,6.357Z"/>
            <path class="cls-12" d="M277.184,240.149c-1.242,1.596-3.195,1.676-4.647.545l-.266-.205c-1.453-1.131-1.853-3.044-.613-4.64l4.947-6.356c1.242-1.595,3.426-1.972,4.879-.841l.264.204c1.453,1.131,1.625,3.341.381,4.936l-4.945,6.357Z"/>
            <path class="cls-12" d="M277.184,259.149c-1.242,1.596-3.195,1.676-4.647.545l-.266-.205c-1.453-1.131-1.853-3.044-.613-4.64l4.947-6.356c1.242-1.595,3.426-1.972,4.879-.841l.264.204c1.453,1.131,1.625,3.341.381,4.936l-4.945,6.357Z"/>
            <path class="cls-12" d="M277.184,278.149c-1.242,1.596-3.195,1.676-4.647.545l-.266-.205c-1.453-1.131-1.853-3.044-.613-4.64l4.947-6.356c1.242-1.595,3.426-1.972,4.879-.841l.264.204c1.453,1.131,1.625,3.341.381,4.936l-4.945,6.357Z"/>
            <path class="cls-12" d="M277.184,297.149c-1.242,1.596-3.195,1.676-4.647.545l-.266-.205c-1.453-1.131-1.853-3.044-.613-4.64l4.947-6.356c1.242-1.595,3.426-1.972,4.879-.841l.264.204c1.453,1.131,1.625,3.341.381,4.936l-4.945,6.357Z"/>
          </g>
          <g>
            <path class="cls-12" d="M296.184,12.149c-1.242,1.596-3.195,1.676-4.647.545l-.266-.205c-1.453-1.131-1.853-3.044-.613-4.64l4.947-6.356c1.242-1.595,3.426-1.972,4.879-.841l.264.204c1.453,1.131,1.625,3.341.381,4.936l-4.945,6.357Z"/>
            <path class="cls-12" d="M296.184,31.149c-1.242,1.596-3.195,1.676-4.647.545l-.266-.205c-1.453-1.131-1.853-3.044-.613-4.64l4.947-6.356c1.242-1.595,3.426-1.972,4.879-.841l.264.204c1.453,1.131,1.625,3.341.381,4.936l-4.945,6.357Z"/>
            <path class="cls-12" d="M296.184,50.149c-1.242,1.596-3.195,1.676-4.647.545l-.266-.205c-1.453-1.131-1.853-3.044-.613-4.64l4.947-6.356c1.242-1.595,3.426-1.972,4.879-.841l.264.204c1.453,1.131,1.625,3.341.381,4.936l-4.945,6.357Z"/>
            <path class="cls-12" d="M296.184,69.149c-1.242,1.596-3.195,1.676-4.647.545l-.266-.205c-1.453-1.131-1.853-3.044-.613-4.64l4.947-6.356c1.242-1.595,3.426-1.972,4.879-.841l.264.204c1.453,1.131,1.625,3.341.381,4.936l-4.945,6.357Z"/>
            <path class="cls-12" d="M296.184,88.149c-1.242,1.596-3.195,1.676-4.647.545l-.266-.205c-1.453-1.131-1.853-3.044-.613-4.64l4.947-6.356c1.242-1.595,3.426-1.972,4.879-.841l.264.204c1.453,1.131,1.625,3.341.381,4.936l-4.945,6.357Z"/>
            <path class="cls-12" d="M296.184,107.149c-1.242,1.596-3.195,1.676-4.647.545l-.266-.205c-1.453-1.131-1.853-3.044-.613-4.64l4.947-6.356c1.242-1.595,3.426-1.972,4.879-.841l.264.204c1.453,1.131,1.625,3.341.381,4.936l-4.945,6.357Z"/>
            <path class="cls-12" d="M296.184,126.149c-1.242,1.596-3.195,1.676-4.647.545l-.266-.205c-1.453-1.131-1.853-3.044-.613-4.64l4.947-6.356c1.242-1.595,3.426-1.972,4.879-.841l.264.204c1.453,1.131,1.625,3.341.381,4.936l-4.945,6.357Z"/>
            <path class="cls-12" d="M296.184,145.149c-1.242,1.596-3.195,1.676-4.647.545l-.266-.205c-1.453-1.131-1.853-3.044-.613-4.64l4.947-6.356c1.242-1.595,3.426-1.972,4.879-.841l.264.204c1.453,1.131,1.625,3.341.381,4.936l-4.945,6.357Z"/>
            <path class="cls-12" d="M296.184,164.149c-1.242,1.596-3.195,1.676-4.647.545l-.266-.205c-1.453-1.131-1.853-3.044-.613-4.64l4.947-6.356c1.242-1.595,3.426-1.972,4.879-.841l.264.204c1.453,1.131,1.625,3.341.381,4.936l-4.945,6.357Z"/>
            <path class="cls-12" d="M296.184,183.149c-1.242,1.596-3.195,1.676-4.647.545l-.266-.205c-1.453-1.131-1.853-3.044-.613-4.64l4.947-6.356c1.242-1.595,3.426-1.972,4.879-.841l.264.204c1.453,1.131,1.625,3.341.381,4.936l-4.945,6.357Z"/>
            <path class="cls-12" d="M296.184,202.149c-1.242,1.596-3.195,1.676-4.647.545l-.266-.205c-1.453-1.131-1.853-3.044-.613-4.64l4.947-6.356c1.242-1.595,3.426-1.972,4.879-.841l.264.204c1.453,1.131,1.625,3.341.381,4.936l-4.945,6.357Z"/>
            <path class="cls-12" d="M296.184,221.149c-1.242,1.596-3.195,1.676-4.647.545l-.266-.205c-1.453-1.131-1.853-3.044-.613-4.64l4.947-6.356c1.242-1.595,3.426-1.972,4.879-.841l.264.204c1.453,1.131,1.625,3.341.381,4.936l-4.945,6.357Z"/>
            <path class="cls-12" d="M296.184,240.149c-1.242,1.596-3.195,1.676-4.647.545l-.266-.205c-1.453-1.131-1.853-3.044-.613-4.64l4.947-6.356c1.242-1.595,3.426-1.972,4.879-.841l.264.204c1.453,1.131,1.625,3.341.381,4.936l-4.945,6.357Z"/>
            <path class="cls-12" d="M296.184,259.149c-1.242,1.596-3.195,1.676-4.647.545l-.266-.205c-1.453-1.131-1.853-3.044-.613-4.64l4.947-6.356c1.242-1.595,3.426-1.972,4.879-.841l.264.204c1.453,1.131,1.625,3.341.381,4.936l-4.945,6.357Z"/>
            <path class="cls-12" d="M296.184,278.149c-1.242,1.596-3.195,1.676-4.647.545l-.266-.205c-1.453-1.131-1.853-3.044-.613-4.64l4.947-6.356c1.242-1.595,3.426-1.972,4.879-.841l.264.204c1.453,1.131,1.625,3.341.381,4.936l-4.945,6.357Z"/>
            <path class="cls-12" d="M296.184,297.149c-1.242,1.596-3.195,1.676-4.647.545l-.266-.205c-1.453-1.131-1.853-3.044-.613-4.64l4.947-6.356c1.242-1.595,3.426-1.972,4.879-.841l.264.204c1.453,1.131,1.625,3.341.381,4.936l-4.945,6.357Z"/>
          </g>
          <g>
            <path class="cls-12" d="M315.184,12.149c-1.242,1.596-3.195,1.676-4.647.545l-.266-.205c-1.453-1.131-1.853-3.044-.613-4.64l4.947-6.356c1.242-1.595,3.426-1.972,4.879-.841l.264.204c1.453,1.131,1.625,3.341.381,4.936l-4.945,6.357Z"/>
            <path class="cls-12" d="M315.184,31.149c-1.242,1.596-3.195,1.676-4.647.545l-.266-.205c-1.453-1.131-1.853-3.044-.613-4.64l4.947-6.356c1.242-1.595,3.426-1.972,4.879-.841l.264.204c1.453,1.131,1.625,3.341.381,4.936l-4.945,6.357Z"/>
            <path class="cls-12" d="M315.184,50.149c-1.242,1.596-3.195,1.676-4.647.545l-.266-.205c-1.453-1.131-1.853-3.044-.613-4.64l4.947-6.356c1.242-1.595,3.426-1.972,4.879-.841l.264.204c1.453,1.131,1.625,3.341.381,4.936l-4.945,6.357Z"/>
            <path class="cls-12" d="M315.184,69.149c-1.242,1.596-3.195,1.676-4.647.545l-.266-.205c-1.453-1.131-1.853-3.044-.613-4.64l4.947-6.356c1.242-1.595,3.426-1.972,4.879-.841l.264.204c1.453,1.131,1.625,3.341.381,4.936l-4.945,6.357Z"/>
            <path class="cls-12" d="M315.184,88.149c-1.242,1.596-3.195,1.676-4.647.545l-.266-.205c-1.453-1.131-1.853-3.044-.613-4.64l4.947-6.356c1.242-1.595,3.426-1.972,4.879-.841l.264.204c1.453,1.131,1.625,3.341.381,4.936l-4.945,6.357Z"/>
            <path class="cls-12" d="M315.184,107.149c-1.242,1.596-3.195,1.676-4.647.545l-.266-.205c-1.453-1.131-1.853-3.044-.613-4.64l4.947-6.356c1.242-1.595,3.426-1.972,4.879-.841l.264.204c1.453,1.131,1.625,3.341.381,4.936l-4.945,6.357Z"/>
            <path class="cls-12" d="M315.184,126.149c-1.242,1.596-3.195,1.676-4.647.545l-.266-.205c-1.453-1.131-1.853-3.044-.613-4.64l4.947-6.356c1.242-1.595,3.426-1.972,4.879-.841l.264.204c1.453,1.131,1.625,3.341.381,4.936l-4.945,6.357Z"/>
            <path class="cls-12" d="M315.184,145.149c-1.242,1.596-3.195,1.676-4.647.545l-.266-.205c-1.453-1.131-1.853-3.044-.613-4.64l4.947-6.356c1.242-1.595,3.426-1.972,4.879-.841l.264.204c1.453,1.131,1.625,3.341.381,4.936l-4.945,6.357Z"/>
            <path class="cls-12" d="M315.184,164.149c-1.242,1.596-3.195,1.676-4.647.545l-.266-.205c-1.453-1.131-1.853-3.044-.613-4.64l4.947-6.356c1.242-1.595,3.426-1.972,4.879-.841l.264.204c1.453,1.131,1.625,3.341.381,4.936l-4.945,6.357Z"/>
            <path class="cls-12" d="M315.184,183.149c-1.242,1.596-3.195,1.676-4.647.545l-.266-.205c-1.453-1.131-1.853-3.044-.613-4.64l4.947-6.356c1.242-1.595,3.426-1.972,4.879-.841l.264.204c1.453,1.131,1.625,3.341.381,4.936l-4.945,6.357Z"/>
            <path class="cls-12" d="M315.184,202.149c-1.242,1.596-3.195,1.676-4.647.545l-.266-.205c-1.453-1.131-1.853-3.044-.613-4.64l4.947-6.356c1.242-1.595,3.426-1.972,4.879-.841l.264.204c1.453,1.131,1.625,3.341.381,4.936l-4.945,6.357Z"/>
            <path class="cls-12" d="M315.184,221.149c-1.242,1.596-3.195,1.676-4.647.545l-.266-.205c-1.453-1.131-1.853-3.044-.613-4.64l4.947-6.356c1.242-1.595,3.426-1.972,4.879-.841l.264.204c1.453,1.131,1.625,3.341.381,4.936l-4.945,6.357Z"/>
            <path class="cls-12" d="M315.184,240.149c-1.242,1.596-3.195,1.676-4.647.545l-.266-.205c-1.453-1.131-1.853-3.044-.613-4.64l4.947-6.356c1.242-1.595,3.426-1.972,4.879-.841l.264.204c1.453,1.131,1.625,3.341.381,4.936l-4.945,6.357Z"/>
            <path class="cls-12" d="M315.184,259.149c-1.242,1.596-3.195,1.676-4.647.545l-.266-.205c-1.453-1.131-1.853-3.044-.613-4.64l4.947-6.356c1.242-1.595,3.426-1.972,4.879-.841l.264.204c1.453,1.131,1.625,3.341.381,4.936l-4.945,6.357Z"/>
            <path class="cls-12" d="M315.184,278.149c-1.242,1.596-3.195,1.676-4.647.545l-.266-.205c-1.453-1.131-1.853-3.044-.613-4.64l4.947-6.356c1.242-1.595,3.426-1.972,4.879-.841l.264.204c1.453,1.131,1.625,3.341.381,4.936l-4.945,6.357Z"/>
            <path class="cls-12" d="M315.184,297.149c-1.242,1.596-3.195,1.676-4.647.545l-.266-.205c-1.453-1.131-1.853-3.044-.613-4.64l4.947-6.356c1.242-1.595,3.426-1.972,4.879-.841l.264.204c1.453,1.131,1.625,3.341.381,4.936l-4.945,6.357Z"/>
          </g>
          <g>
            <path class="cls-12" d="M334.184,12.149c-1.242,1.596-3.195,1.676-4.647.545l-.266-.205c-1.453-1.131-1.853-3.044-.613-4.64l4.947-6.356c1.242-1.595,3.426-1.972,4.879-.841l.264.204c1.453,1.131,1.625,3.341.381,4.936l-4.945,6.357Z"/>
            <path class="cls-12" d="M334.184,31.149c-1.242,1.596-3.195,1.676-4.647.545l-.266-.205c-1.453-1.131-1.853-3.044-.613-4.64l4.947-6.356c1.242-1.595,3.426-1.972,4.879-.841l.264.204c1.453,1.131,1.625,3.341.381,4.936l-4.945,6.357Z"/>
            <path class="cls-12" d="M334.184,50.149c-1.242,1.596-3.195,1.676-4.647.545l-.266-.205c-1.453-1.131-1.853-3.044-.613-4.64l4.947-6.356c1.242-1.595,3.426-1.972,4.879-.841l.264.204c1.453,1.131,1.625,3.341.381,4.936l-4.945,6.357Z"/>
            <path class="cls-12" d="M334.184,69.149c-1.242,1.596-3.195,1.676-4.647.545l-.266-.205c-1.453-1.131-1.853-3.044-.613-4.64l4.947-6.356c1.242-1.595,3.426-1.972,4.879-.841l.264.204c1.453,1.131,1.625,3.341.381,4.936l-4.945,6.357Z"/>
            <path class="cls-12" d="M334.184,88.149c-1.242,1.596-3.195,1.676-4.647.545l-.266-.205c-1.453-1.131-1.853-3.044-.613-4.64l4.947-6.356c1.242-1.595,3.426-1.972,4.879-.841l.264.204c1.453,1.131,1.625,3.341.381,4.936l-4.945,6.357Z"/>
            <path class="cls-12" d="M334.184,107.149c-1.242,1.596-3.195,1.676-4.647.545l-.266-.205c-1.453-1.131-1.853-3.044-.613-4.64l4.947-6.356c1.242-1.595,3.426-1.972,4.879-.841l.264.204c1.453,1.131,1.625,3.341.381,4.936l-4.945,6.357Z"/>
            <path class="cls-12" d="M334.184,126.149c-1.242,1.596-3.195,1.676-4.647.545l-.266-.205c-1.453-1.131-1.853-3.044-.613-4.64l4.947-6.356c1.242-1.595,3.426-1.972,4.879-.841l.264.204c1.453,1.131,1.625,3.341.381,4.936l-4.945,6.357Z"/>
            <path class="cls-12" d="M334.184,145.149c-1.242,1.596-3.195,1.676-4.647.545l-.266-.205c-1.453-1.131-1.853-3.044-.613-4.64l4.947-6.356c1.242-1.595,3.426-1.972,4.879-.841l.264.204c1.453,1.131,1.625,3.341.381,4.936l-4.945,6.357Z"/>
            <path class="cls-12" d="M334.184,164.149c-1.242,1.596-3.195,1.676-4.647.545l-.266-.205c-1.453-1.131-1.853-3.044-.613-4.64l4.947-6.356c1.242-1.595,3.426-1.972,4.879-.841l.264.204c1.453,1.131,1.625,3.341.381,4.936l-4.945,6.357Z"/>
            <path class="cls-12" d="M334.184,183.149c-1.242,1.596-3.195,1.676-4.647.545l-.266-.205c-1.453-1.131-1.853-3.044-.613-4.64l4.947-6.356c1.242-1.595,3.426-1.972,4.879-.841l.264.204c1.453,1.131,1.625,3.341.381,4.936l-4.945,6.357Z"/>
            <path class="cls-12" d="M334.184,202.149c-1.242,1.596-3.195,1.676-4.647.545l-.266-.205c-1.453-1.131-1.853-3.044-.613-4.64l4.947-6.356c1.242-1.595,3.426-1.972,4.879-.841l.264.204c1.453,1.131,1.625,3.341.381,4.936l-4.945,6.357Z"/>
            <path class="cls-12" d="M334.184,221.149c-1.242,1.596-3.195,1.676-4.647.545l-.266-.205c-1.453-1.131-1.853-3.044-.613-4.64l4.947-6.356c1.242-1.595,3.426-1.972,4.879-.841l.264.204c1.453,1.131,1.625,3.341.381,4.936l-4.945,6.357Z"/>
            <path class="cls-12" d="M334.184,240.149c-1.242,1.596-3.195,1.676-4.647.545l-.266-.205c-1.453-1.131-1.853-3.044-.613-4.64l4.947-6.356c1.242-1.595,3.426-1.972,4.879-.841l.264.204c1.453,1.131,1.625,3.341.381,4.936l-4.945,6.357Z"/>
            <path class="cls-12" d="M334.184,259.149c-1.242,1.596-3.195,1.676-4.647.545l-.266-.205c-1.453-1.131-1.853-3.044-.613-4.64l4.947-6.356c1.242-1.595,3.426-1.972,4.879-.841l.264.204c1.453,1.131,1.625,3.341.381,4.936l-4.945,6.357Z"/>
            <path class="cls-12" d="M334.184,278.149c-1.242,1.596-3.195,1.676-4.647.545l-.266-.205c-1.453-1.131-1.853-3.044-.613-4.64l4.947-6.356c1.242-1.595,3.426-1.972,4.879-.841l.264.204c1.453,1.131,1.625,3.341.381,4.936l-4.945,6.357Z"/>
            <path class="cls-12" d="M334.184,297.149c-1.242,1.596-3.195,1.676-4.647.545l-.266-.205c-1.453-1.131-1.853-3.044-.613-4.64l4.947-6.356c1.242-1.595,3.426-1.972,4.879-.841l.264.204c1.453,1.131,1.625,3.341.381,4.936l-4.945,6.357Z"/>
          </g>
          <g>
            <path class="cls-12" d="M353.184,12.149c-1.242,1.596-3.195,1.676-4.647.545l-.266-.205c-1.453-1.131-1.853-3.044-.613-4.64l4.947-6.356c1.242-1.595,3.426-1.972,4.879-.841l.264.204c1.453,1.131,1.625,3.341.381,4.936l-4.945,6.357Z"/>
            <path class="cls-12" d="M353.184,31.149c-1.242,1.596-3.195,1.676-4.647.545l-.266-.205c-1.453-1.131-1.853-3.044-.613-4.64l4.947-6.356c1.242-1.595,3.426-1.972,4.879-.841l.264.204c1.453,1.131,1.625,3.341.381,4.936l-4.945,6.357Z"/>
            <path class="cls-12" d="M353.184,50.149c-1.242,1.596-3.195,1.676-4.647.545l-.266-.205c-1.453-1.131-1.853-3.044-.613-4.64l4.947-6.356c1.242-1.595,3.426-1.972,4.879-.841l.264.204c1.453,1.131,1.625,3.341.381,4.936l-4.945,6.357Z"/>
            <path class="cls-12" d="M353.184,69.149c-1.242,1.596-3.195,1.676-4.647.545l-.266-.205c-1.453-1.131-1.853-3.044-.613-4.64l4.947-6.356c1.242-1.595,3.426-1.972,4.879-.841l.264.204c1.453,1.131,1.625,3.341.381,4.936l-4.945,6.357Z"/>
            <path class="cls-12" d="M353.184,88.149c-1.242,1.596-3.195,1.676-4.647.545l-.266-.205c-1.453-1.131-1.853-3.044-.613-4.64l4.947-6.356c1.242-1.595,3.426-1.972,4.879-.841l.264.204c1.453,1.131,1.625,3.341.381,4.936l-4.945,6.357Z"/>
            <path class="cls-12" d="M353.184,107.149c-1.242,1.596-3.195,1.676-4.647.545l-.266-.205c-1.453-1.131-1.853-3.044-.613-4.64l4.947-6.356c1.242-1.595,3.426-1.972,4.879-.841l.264.204c1.453,1.131,1.625,3.341.381,4.936l-4.945,6.357Z"/>
            <path class="cls-12" d="M353.184,126.149c-1.242,1.596-3.195,1.676-4.647.545l-.266-.205c-1.453-1.131-1.853-3.044-.613-4.64l4.947-6.356c1.242-1.595,3.426-1.972,4.879-.841l.264.204c1.453,1.131,1.625,3.341.381,4.936l-4.945,6.357Z"/>
            <path class="cls-12" d="M353.184,145.149c-1.242,1.596-3.195,1.676-4.647.545l-.266-.205c-1.453-1.131-1.853-3.044-.613-4.64l4.947-6.356c1.242-1.595,3.426-1.972,4.879-.841l.264.204c1.453,1.131,1.625,3.341.381,4.936l-4.945,6.357Z"/>
            <path class="cls-12" d="M353.184,164.149c-1.242,1.596-3.195,1.676-4.647.545l-.266-.205c-1.453-1.131-1.853-3.044-.613-4.64l4.947-6.356c1.242-1.595,3.426-1.972,4.879-.841l.264.204c1.453,1.131,1.625,3.341.381,4.936l-4.945,6.357Z"/>
            <path class="cls-12" d="M353.184,183.149c-1.242,1.596-3.195,1.676-4.647.545l-.266-.205c-1.453-1.131-1.853-3.044-.613-4.64l4.947-6.356c1.242-1.595,3.426-1.972,4.879-.841l.264.204c1.453,1.131,1.625,3.341.381,4.936l-4.945,6.357Z"/>
            <path class="cls-12" d="M353.184,202.149c-1.242,1.596-3.195,1.676-4.647.545l-.266-.205c-1.453-1.131-1.853-3.044-.613-4.64l4.947-6.356c1.242-1.595,3.426-1.972,4.879-.841l.264.204c1.453,1.131,1.625,3.341.381,4.936l-4.945,6.357Z"/>
            <path class="cls-12" d="M353.184,221.149c-1.242,1.596-3.195,1.676-4.647.545l-.266-.205c-1.453-1.131-1.853-3.044-.613-4.64l4.947-6.356c1.242-1.595,3.426-1.972,4.879-.841l.264.204c1.453,1.131,1.625,3.341.381,4.936l-4.945,6.357Z"/>
            <path class="cls-12" d="M353.184,240.149c-1.242,1.596-3.195,1.676-4.647.545l-.266-.205c-1.453-1.131-1.853-3.044-.613-4.64l4.947-6.356c1.242-1.595,3.426-1.972,4.879-.841l.264.204c1.453,1.131,1.625,3.341.381,4.936l-4.945,6.357Z"/>
            <path class="cls-12" d="M353.184,259.149c-1.242,1.596-3.195,1.676-4.647.545l-.266-.205c-1.453-1.131-1.853-3.044-.613-4.64l4.947-6.356c1.242-1.595,3.426-1.972,4.879-.841l.264.204c1.453,1.131,1.625,3.341.381,4.936l-4.945,6.357Z"/>
            <path class="cls-12" d="M353.184,278.149c-1.242,1.596-3.195,1.676-4.647.545l-.266-.205c-1.453-1.131-1.853-3.044-.613-4.64l4.947-6.356c1.242-1.595,3.426-1.972,4.879-.841l.264.204c1.453,1.131,1.625,3.341.381,4.936l-4.945,6.357Z"/>
            <path class="cls-12" d="M353.184,297.149c-1.242,1.596-3.195,1.676-4.647.545l-.266-.205c-1.453-1.131-1.853-3.044-.613-4.64l4.947-6.356c1.242-1.595,3.426-1.972,4.879-.841l.264.204c1.453,1.131,1.625,3.341.381,4.936l-4.945,6.357Z"/>
          </g>
          <g>
            <path class="cls-12" d="M372.184,12.149c-1.242,1.596-3.195,1.676-4.647.545l-.266-.205c-1.453-1.131-1.853-3.044-.613-4.64l4.947-6.356c1.242-1.595,3.426-1.972,4.879-.841l.264.204c1.453,1.131,1.625,3.341.381,4.936l-4.945,6.357Z"/>
            <path class="cls-12" d="M372.184,31.149c-1.242,1.596-3.195,1.676-4.647.545l-.266-.205c-1.453-1.131-1.853-3.044-.613-4.64l4.947-6.356c1.242-1.595,3.426-1.972,4.879-.841l.264.204c1.453,1.131,1.625,3.341.381,4.936l-4.945,6.357Z"/>
            <path class="cls-12" d="M372.184,50.149c-1.242,1.596-3.195,1.676-4.647.545l-.266-.205c-1.453-1.131-1.853-3.044-.613-4.64l4.947-6.356c1.242-1.595,3.426-1.972,4.879-.841l.264.204c1.453,1.131,1.625,3.341.381,4.936l-4.945,6.357Z"/>
            <path class="cls-12" d="M372.184,69.149c-1.242,1.596-3.195,1.676-4.647.545l-.266-.205c-1.453-1.131-1.853-3.044-.613-4.64l4.947-6.356c1.242-1.595,3.426-1.972,4.879-.841l.264.204c1.453,1.131,1.625,3.341.381,4.936l-4.945,6.357Z"/>
            <path class="cls-12" d="M372.184,88.149c-1.242,1.596-3.195,1.676-4.647.545l-.266-.205c-1.453-1.131-1.853-3.044-.613-4.64l4.947-6.356c1.242-1.595,3.426-1.972,4.879-.841l.264.204c1.453,1.131,1.625,3.341.381,4.936l-4.945,6.357Z"/>
            <path class="cls-12" d="M372.184,107.149c-1.242,1.596-3.195,1.676-4.647.545l-.266-.205c-1.453-1.131-1.853-3.044-.613-4.64l4.947-6.356c1.242-1.595,3.426-1.972,4.879-.841l.264.204c1.453,1.131,1.625,3.341.381,4.936l-4.945,6.357Z"/>
            <path class="cls-12" d="M372.184,126.149c-1.242,1.596-3.195,1.676-4.647.545l-.266-.205c-1.453-1.131-1.853-3.044-.613-4.64l4.947-6.356c1.242-1.595,3.426-1.972,4.879-.841l.264.204c1.453,1.131,1.625,3.341.381,4.936l-4.945,6.357Z"/>
            <path class="cls-12" d="M372.184,145.149c-1.242,1.596-3.195,1.676-4.647.545l-.266-.205c-1.453-1.131-1.853-3.044-.613-4.64l4.947-6.356c1.242-1.595,3.426-1.972,4.879-.841l.264.204c1.453,1.131,1.625,3.341.381,4.936l-4.945,6.357Z"/>
            <path class="cls-12" d="M372.184,164.149c-1.242,1.596-3.195,1.676-4.647.545l-.266-.205c-1.453-1.131-1.853-3.044-.613-4.64l4.947-6.356c1.242-1.595,3.426-1.972,4.879-.841l.264.204c1.453,1.131,1.625,3.341.381,4.936l-4.945,6.357Z"/>
            <path class="cls-12" d="M372.184,183.149c-1.242,1.596-3.195,1.676-4.647.545l-.266-.205c-1.453-1.131-1.853-3.044-.613-4.64l4.947-6.356c1.242-1.595,3.426-1.972,4.879-.841l.264.204c1.453,1.131,1.625,3.341.381,4.936l-4.945,6.357Z"/>
            <path class="cls-12" d="M372.184,202.149c-1.242,1.596-3.195,1.676-4.647.545l-.266-.205c-1.453-1.131-1.853-3.044-.613-4.64l4.947-6.356c1.242-1.595,3.426-1.972,4.879-.841l.264.204c1.453,1.131,1.625,3.341.381,4.936l-4.945,6.357Z"/>
            <path class="cls-12" d="M372.184,221.149c-1.242,1.596-3.195,1.676-4.647.545l-.266-.205c-1.453-1.131-1.853-3.044-.613-4.64l4.947-6.356c1.242-1.595,3.426-1.972,4.879-.841l.264.204c1.453,1.131,1.625,3.341.381,4.936l-4.945,6.357Z"/>
            <path class="cls-12" d="M372.184,240.149c-1.242,1.596-3.195,1.676-4.647.545l-.266-.205c-1.453-1.131-1.853-3.044-.613-4.64l4.947-6.356c1.242-1.595,3.426-1.972,4.879-.841l.264.204c1.453,1.131,1.625,3.341.381,4.936l-4.945,6.357Z"/>
            <path class="cls-12" d="M372.184,259.149c-1.242,1.596-3.195,1.676-4.647.545l-.266-.205c-1.453-1.131-1.853-3.044-.613-4.64l4.947-6.356c1.242-1.595,3.426-1.972,4.879-.841l.264.204c1.453,1.131,1.625,3.341.381,4.936l-4.945,6.357Z"/>
            <path class="cls-12" d="M372.184,278.149c-1.242,1.596-3.195,1.676-4.647.545l-.266-.205c-1.453-1.131-1.853-3.044-.613-4.64l4.947-6.356c1.242-1.595,3.426-1.972,4.879-.841l.264.204c1.453,1.131,1.625,3.341.381,4.936l-4.945,6.357Z"/>
            <path class="cls-12" d="M372.184,297.149c-1.242,1.596-3.195,1.676-4.647.545l-.266-.205c-1.453-1.131-1.853-3.044-.613-4.64l4.947-6.356c1.242-1.595,3.426-1.972,4.879-.841l.264.204c1.453,1.131,1.625,3.341.381,4.936l-4.945,6.357Z"/>
          </g>
          <g>
            <path class="cls-12" d="M216.484,15.499c1.598,1.242,1.676,3.195.547,4.647l-.205.265c-1.131,1.453-3.045,1.853-4.641.613l-6.355-4.947c-1.596-1.241-1.973-3.426-.842-4.879l.205-.263c1.131-1.454,3.34-1.626,4.936-.382l6.355,4.945Z"/>
            <path class="cls-12" d="M235.484,15.499c1.598,1.242,1.676,3.195.547,4.647l-.205.265c-1.131,1.453-3.045,1.853-4.641.613l-6.355-4.947c-1.596-1.241-1.973-3.426-.842-4.879l.205-.263c1.131-1.454,3.34-1.626,4.936-.382l6.355,4.945Z"/>
            <path class="cls-12" d="M254.484,15.499c1.598,1.242,1.676,3.195.547,4.647l-.205.265c-1.131,1.453-3.045,1.853-4.641.613l-6.355-4.947c-1.596-1.241-1.973-3.426-.842-4.879l.205-.263c1.131-1.454,3.34-1.626,4.936-.382l6.355,4.945Z"/>
            <path class="cls-12" d="M273.484,15.499c1.598,1.242,1.676,3.195.547,4.647l-.205.265c-1.131,1.453-3.045,1.853-4.641.613l-6.355-4.947c-1.596-1.241-1.973-3.426-.842-4.879l.205-.263c1.131-1.454,3.34-1.626,4.936-.382l6.355,4.945Z"/>
            <path class="cls-12" d="M292.484,15.499c1.598,1.242,1.676,3.195.547,4.647l-.205.265c-1.131,1.453-3.045,1.853-4.641.613l-6.355-4.947c-1.596-1.241-1.973-3.426-.842-4.879l.205-.263c1.131-1.454,3.34-1.626,4.936-.382l6.355,4.945Z"/>
            <path class="cls-12" d="M311.484,15.499c1.598,1.242,1.676,3.195.547,4.647l-.205.265c-1.131,1.453-3.045,1.853-4.641.613l-6.355-4.947c-1.596-1.241-1.973-3.426-.842-4.879l.205-.263c1.131-1.454,3.34-1.626,4.936-.382l6.355,4.945Z"/>
            <path class="cls-12" d="M330.484,15.499c1.598,1.242,1.676,3.195.547,4.647l-.205.265c-1.131,1.453-3.045,1.853-4.641.613l-6.355-4.947c-1.596-1.241-1.973-3.426-.842-4.879l.205-.263c1.131-1.454,3.34-1.626,4.936-.382l6.355,4.945Z"/>
            <path class="cls-12" d="M349.484,15.499c1.598,1.242,1.676,3.195.547,4.647l-.205.265c-1.131,1.453-3.045,1.853-4.641.613l-6.355-4.947c-1.596-1.241-1.973-3.426-.842-4.879l.205-.263c1.131-1.454,3.34-1.626,4.936-.382l6.355,4.945Z"/>
            <path class="cls-12" d="M368.484,15.499c1.598,1.242,1.676,3.195.547,4.647l-.205.265c-1.131,1.453-3.045,1.853-4.641.613l-6.355-4.947c-1.596-1.241-1.973-3.426-.842-4.879l.205-.263c1.131-1.454,3.34-1.626,4.936-.382l6.355,4.945Z"/>
          </g>
          <g>
            <path class="cls-12" d="M216.484,34.499c1.598,1.242,1.676,3.195.547,4.647l-.205.265c-1.131,1.453-3.045,1.853-4.641.613l-6.355-4.947c-1.596-1.241-1.973-3.426-.842-4.879l.205-.263c1.131-1.454,3.34-1.626,4.936-.382l6.355,4.945Z"/>
            <path class="cls-12" d="M235.484,34.499c1.598,1.242,1.676,3.195.547,4.647l-.205.265c-1.131,1.453-3.045,1.853-4.641.613l-6.355-4.947c-1.596-1.241-1.973-3.426-.842-4.879l.205-.263c1.131-1.454,3.34-1.626,4.936-.382l6.355,4.945Z"/>
            <path class="cls-12" d="M254.484,34.499c1.598,1.242,1.676,3.195.547,4.647l-.205.265c-1.131,1.453-3.045,1.853-4.641.613l-6.355-4.947c-1.596-1.241-1.973-3.426-.842-4.879l.205-.263c1.131-1.454,3.34-1.626,4.936-.382l6.355,4.945Z"/>
            <path class="cls-12" d="M273.484,34.499c1.598,1.242,1.676,3.195.547,4.647l-.205.265c-1.131,1.453-3.045,1.853-4.641.613l-6.355-4.947c-1.596-1.241-1.973-3.426-.842-4.879l.205-.263c1.131-1.454,3.34-1.626,4.936-.382l6.355,4.945Z"/>
            <path class="cls-12" d="M292.484,34.499c1.598,1.242,1.676,3.195.547,4.647l-.205.265c-1.131,1.453-3.045,1.853-4.641.613l-6.355-4.947c-1.596-1.241-1.973-3.426-.842-4.879l.205-.263c1.131-1.454,3.34-1.626,4.936-.382l6.355,4.945Z"/>
            <path class="cls-12" d="M311.484,34.499c1.598,1.242,1.676,3.195.547,4.647l-.205.265c-1.131,1.453-3.045,1.853-4.641.613l-6.355-4.947c-1.596-1.241-1.973-3.426-.842-4.879l.205-.263c1.131-1.454,3.34-1.626,4.936-.382l6.355,4.945Z"/>
            <path class="cls-12" d="M330.484,34.499c1.598,1.242,1.676,3.195.547,4.647l-.205.265c-1.131,1.453-3.045,1.853-4.641.613l-6.355-4.947c-1.596-1.241-1.973-3.426-.842-4.879l.205-.263c1.131-1.454,3.34-1.626,4.936-.382l6.355,4.945Z"/>
            <path class="cls-12" d="M349.484,34.499c1.598,1.242,1.676,3.195.547,4.647l-.205.265c-1.131,1.453-3.045,1.853-4.641.613l-6.355-4.947c-1.596-1.241-1.973-3.426-.842-4.879l.205-.263c1.131-1.454,3.34-1.626,4.936-.382l6.355,4.945Z"/>
            <path class="cls-12" d="M368.484,34.499c1.598,1.242,1.676,3.195.547,4.647l-.205.265c-1.131,1.453-3.045,1.853-4.641.613l-6.355-4.947c-1.596-1.241-1.973-3.426-.842-4.879l.205-.263c1.131-1.454,3.34-1.626,4.936-.382l6.355,4.945Z"/>
          </g>
          <g>
            <path class="cls-12" d="M216.484,53.499c1.598,1.242,1.676,3.195.547,4.647l-.205.265c-1.131,1.453-3.045,1.853-4.641.613l-6.355-4.947c-1.596-1.241-1.973-3.426-.842-4.879l.205-.263c1.131-1.454,3.34-1.626,4.936-.382l6.355,4.945Z"/>
            <path class="cls-12" d="M235.484,53.499c1.598,1.242,1.676,3.195.547,4.647l-.205.265c-1.131,1.453-3.045,1.853-4.641.613l-6.355-4.947c-1.596-1.241-1.973-3.426-.842-4.879l.205-.263c1.131-1.454,3.34-1.626,4.936-.382l6.355,4.945Z"/>
            <path class="cls-12" d="M254.484,53.499c1.598,1.242,1.676,3.195.547,4.647l-.205.265c-1.131,1.453-3.045,1.853-4.641.613l-6.355-4.947c-1.596-1.241-1.973-3.426-.842-4.879l.205-.263c1.131-1.454,3.34-1.626,4.936-.382l6.355,4.945Z"/>
            <path class="cls-12" d="M273.484,53.499c1.598,1.242,1.676,3.195.547,4.647l-.205.265c-1.131,1.453-3.045,1.853-4.641.613l-6.355-4.947c-1.596-1.241-1.973-3.426-.842-4.879l.205-.263c1.131-1.454,3.34-1.626,4.936-.382l6.355,4.945Z"/>
            <path class="cls-12" d="M292.484,53.499c1.598,1.242,1.676,3.195.547,4.647l-.205.265c-1.131,1.453-3.045,1.853-4.641.613l-6.355-4.947c-1.596-1.241-1.973-3.426-.842-4.879l.205-.263c1.131-1.454,3.34-1.626,4.936-.382l6.355,4.945Z"/>
            <path class="cls-12" d="M311.484,53.499c1.598,1.242,1.676,3.195.547,4.647l-.205.265c-1.131,1.453-3.045,1.853-4.641.613l-6.355-4.947c-1.596-1.241-1.973-3.426-.842-4.879l.205-.263c1.131-1.454,3.34-1.626,4.936-.382l6.355,4.945Z"/>
            <path class="cls-12" d="M330.484,53.499c1.598,1.242,1.676,3.195.547,4.647l-.205.265c-1.131,1.453-3.045,1.853-4.641.613l-6.355-4.947c-1.596-1.241-1.973-3.426-.842-4.879l.205-.263c1.131-1.454,3.34-1.626,4.936-.382l6.355,4.945Z"/>
            <path class="cls-12" d="M349.484,53.499c1.598,1.242,1.676,3.195.547,4.647l-.205.265c-1.131,1.453-3.045,1.853-4.641.613l-6.355-4.947c-1.596-1.241-1.973-3.426-.842-4.879l.205-.263c1.131-1.454,3.34-1.626,4.936-.382l6.355,4.945Z"/>
            <path class="cls-12" d="M368.484,53.499c1.598,1.242,1.676,3.195.547,4.647l-.205.265c-1.131,1.453-3.045,1.853-4.641.613l-6.355-4.947c-1.596-1.241-1.973-3.426-.842-4.879l.205-.263c1.131-1.454,3.34-1.626,4.936-.382l6.355,4.945Z"/>
          </g>
          <g>
            <path class="cls-12" d="M216.484,72.499c1.598,1.242,1.676,3.195.547,4.647l-.205.265c-1.131,1.453-3.045,1.853-4.641.613l-6.355-4.947c-1.596-1.241-1.973-3.426-.842-4.879l.205-.263c1.131-1.454,3.34-1.626,4.936-.382l6.355,4.945Z"/>
            <path class="cls-12" d="M235.484,72.499c1.598,1.242,1.676,3.195.547,4.647l-.205.265c-1.131,1.453-3.045,1.853-4.641.613l-6.355-4.947c-1.596-1.241-1.973-3.426-.842-4.879l.205-.263c1.131-1.454,3.34-1.626,4.936-.382l6.355,4.945Z"/>
            <path class="cls-12" d="M254.484,72.499c1.598,1.242,1.676,3.195.547,4.647l-.205.265c-1.131,1.453-3.045,1.853-4.641.613l-6.355-4.947c-1.596-1.241-1.973-3.426-.842-4.879l.205-.263c1.131-1.454,3.34-1.626,4.936-.382l6.355,4.945Z"/>
            <path class="cls-12" d="M273.484,72.499c1.598,1.242,1.676,3.195.547,4.647l-.205.265c-1.131,1.453-3.045,1.853-4.641.613l-6.355-4.947c-1.596-1.241-1.973-3.426-.842-4.879l.205-.263c1.131-1.454,3.34-1.626,4.936-.382l6.355,4.945Z"/>
            <path class="cls-12" d="M292.484,72.499c1.598,1.242,1.676,3.195.547,4.647l-.205.265c-1.131,1.453-3.045,1.853-4.641.613l-6.355-4.947c-1.596-1.241-1.973-3.426-.842-4.879l.205-.263c1.131-1.454,3.34-1.626,4.936-.382l6.355,4.945Z"/>
            <path class="cls-12" d="M311.484,72.499c1.598,1.242,1.676,3.195.547,4.647l-.205.265c-1.131,1.453-3.045,1.853-4.641.613l-6.355-4.947c-1.596-1.241-1.973-3.426-.842-4.879l.205-.263c1.131-1.454,3.34-1.626,4.936-.382l6.355,4.945Z"/>
            <path class="cls-12" d="M330.484,72.499c1.598,1.242,1.676,3.195.547,4.647l-.205.265c-1.131,1.453-3.045,1.853-4.641.613l-6.355-4.947c-1.596-1.241-1.973-3.426-.842-4.879l.205-.263c1.131-1.454,3.34-1.626,4.936-.382l6.355,4.945Z"/>
            <path class="cls-12" d="M349.484,72.499c1.598,1.242,1.676,3.195.547,4.647l-.205.265c-1.131,1.453-3.045,1.853-4.641.613l-6.355-4.947c-1.596-1.241-1.973-3.426-.842-4.879l.205-.263c1.131-1.454,3.34-1.626,4.936-.382l6.355,4.945Z"/>
            <path class="cls-12" d="M368.484,72.499c1.598,1.242,1.676,3.195.547,4.647l-.205.265c-1.131,1.453-3.045,1.853-4.641.613l-6.355-4.947c-1.596-1.241-1.973-3.426-.842-4.879l.205-.263c1.131-1.454,3.34-1.626,4.936-.382l6.355,4.945Z"/>
          </g>
          <g>
            <path class="cls-12" d="M216.484,91.499c1.598,1.242,1.676,3.195.547,4.647l-.205.265c-1.131,1.453-3.045,1.853-4.641.613l-6.355-4.947c-1.596-1.241-1.973-3.426-.842-4.879l.205-.263c1.131-1.454,3.34-1.626,4.936-.382l6.355,4.945Z"/>
            <path class="cls-12" d="M235.484,91.499c1.598,1.242,1.676,3.195.547,4.647l-.205.265c-1.131,1.453-3.045,1.853-4.641.613l-6.355-4.947c-1.596-1.241-1.973-3.426-.842-4.879l.205-.263c1.131-1.454,3.34-1.626,4.936-.382l6.355,4.945Z"/>
            <path class="cls-12" d="M254.484,91.499c1.598,1.242,1.676,3.195.547,4.647l-.205.265c-1.131,1.453-3.045,1.853-4.641.613l-6.355-4.947c-1.596-1.241-1.973-3.426-.842-4.879l.205-.263c1.131-1.454,3.34-1.626,4.936-.382l6.355,4.945Z"/>
            <path class="cls-12" d="M273.484,91.499c1.598,1.242,1.676,3.195.547,4.647l-.205.265c-1.131,1.453-3.045,1.853-4.641.613l-6.355-4.947c-1.596-1.241-1.973-3.426-.842-4.879l.205-.263c1.131-1.454,3.34-1.626,4.936-.382l6.355,4.945Z"/>
            <path class="cls-12" d="M292.484,91.499c1.598,1.242,1.676,3.195.547,4.647l-.205.265c-1.131,1.453-3.045,1.853-4.641.613l-6.355-4.947c-1.596-1.241-1.973-3.426-.842-4.879l.205-.263c1.131-1.454,3.34-1.626,4.936-.382l6.355,4.945Z"/>
            <path class="cls-12" d="M311.484,91.499c1.598,1.242,1.676,3.195.547,4.647l-.205.265c-1.131,1.453-3.045,1.853-4.641.613l-6.355-4.947c-1.596-1.241-1.973-3.426-.842-4.879l.205-.263c1.131-1.454,3.34-1.626,4.936-.382l6.355,4.945Z"/>
            <path class="cls-12" d="M330.484,91.499c1.598,1.242,1.676,3.195.547,4.647l-.205.265c-1.131,1.453-3.045,1.853-4.641.613l-6.355-4.947c-1.596-1.241-1.973-3.426-.842-4.879l.205-.263c1.131-1.454,3.34-1.626,4.936-.382l6.355,4.945Z"/>
            <path class="cls-12" d="M349.484,91.499c1.598,1.242,1.676,3.195.547,4.647l-.205.265c-1.131,1.453-3.045,1.853-4.641.613l-6.355-4.947c-1.596-1.241-1.973-3.426-.842-4.879l.205-.263c1.131-1.454,3.34-1.626,4.936-.382l6.355,4.945Z"/>
            <path class="cls-12" d="M368.484,91.499c1.598,1.242,1.676,3.195.547,4.647l-.205.265c-1.131,1.453-3.045,1.853-4.641.613l-6.355-4.947c-1.596-1.241-1.973-3.426-.842-4.879l.205-.263c1.131-1.454,3.34-1.626,4.936-.382l6.355,4.945Z"/>
          </g>
          <g>
            <path class="cls-12" d="M216.484,110.499c1.598,1.242,1.676,3.195.547,4.647l-.205.265c-1.131,1.453-3.045,1.853-4.641.613l-6.355-4.947c-1.596-1.241-1.973-3.426-.842-4.879l.205-.263c1.131-1.454,3.34-1.626,4.936-.382l6.355,4.945Z"/>
            <path class="cls-12" d="M235.484,110.499c1.598,1.242,1.676,3.195.547,4.647l-.205.265c-1.131,1.453-3.045,1.853-4.641.613l-6.355-4.947c-1.596-1.241-1.973-3.426-.842-4.879l.205-.263c1.131-1.454,3.34-1.626,4.936-.382l6.355,4.945Z"/>
            <path class="cls-12" d="M254.484,110.499c1.598,1.242,1.676,3.195.547,4.647l-.205.265c-1.131,1.453-3.045,1.853-4.641.613l-6.355-4.947c-1.596-1.241-1.973-3.426-.842-4.879l.205-.263c1.131-1.454,3.34-1.626,4.936-.382l6.355,4.945Z"/>
            <path class="cls-12" d="M273.484,110.499c1.598,1.242,1.676,3.195.547,4.647l-.205.265c-1.131,1.453-3.045,1.853-4.641.613l-6.355-4.947c-1.596-1.241-1.973-3.426-.842-4.879l.205-.263c1.131-1.454,3.34-1.626,4.936-.382l6.355,4.945Z"/>
            <path class="cls-12" d="M292.484,110.499c1.598,1.242,1.676,3.195.547,4.647l-.205.265c-1.131,1.453-3.045,1.853-4.641.613l-6.355-4.947c-1.596-1.241-1.973-3.426-.842-4.879l.205-.263c1.131-1.454,3.34-1.626,4.936-.382l6.355,4.945Z"/>
            <path class="cls-12" d="M311.484,110.499c1.598,1.242,1.676,3.195.547,4.647l-.205.265c-1.131,1.453-3.045,1.853-4.641.613l-6.355-4.947c-1.596-1.241-1.973-3.426-.842-4.879l.205-.263c1.131-1.454,3.34-1.626,4.936-.382l6.355,4.945Z"/>
            <path class="cls-12" d="M330.484,110.499c1.598,1.242,1.676,3.195.547,4.647l-.205.265c-1.131,1.453-3.045,1.853-4.641.613l-6.355-4.947c-1.596-1.241-1.973-3.426-.842-4.879l.205-.263c1.131-1.454,3.34-1.626,4.936-.382l6.355,4.945Z"/>
            <path class="cls-12" d="M349.484,110.499c1.598,1.242,1.676,3.195.547,4.647l-.205.265c-1.131,1.453-3.045,1.853-4.641.613l-6.355-4.947c-1.596-1.241-1.973-3.426-.842-4.879l.205-.263c1.131-1.454,3.34-1.626,4.936-.382l6.355,4.945Z"/>
            <path class="cls-12" d="M368.484,110.499c1.598,1.242,1.676,3.195.547,4.647l-.205.265c-1.131,1.453-3.045,1.853-4.641.613l-6.355-4.947c-1.596-1.241-1.973-3.426-.842-4.879l.205-.263c1.131-1.454,3.34-1.626,4.936-.382l6.355,4.945Z"/>
          </g>
          <g>
            <path class="cls-12" d="M216.484,129.499c1.598,1.242,1.676,3.195.547,4.647l-.205.265c-1.131,1.453-3.045,1.853-4.641.613l-6.355-4.947c-1.596-1.241-1.973-3.426-.842-4.879l.205-.263c1.131-1.454,3.34-1.626,4.936-.382l6.355,4.945Z"/>
            <path class="cls-12" d="M235.484,129.499c1.598,1.242,1.676,3.195.547,4.647l-.205.265c-1.131,1.453-3.045,1.853-4.641.613l-6.355-4.947c-1.596-1.241-1.973-3.426-.842-4.879l.205-.263c1.131-1.454,3.34-1.626,4.936-.382l6.355,4.945Z"/>
            <path class="cls-12" d="M254.484,129.499c1.598,1.242,1.676,3.195.547,4.647l-.205.265c-1.131,1.453-3.045,1.853-4.641.613l-6.355-4.947c-1.596-1.241-1.973-3.426-.842-4.879l.205-.263c1.131-1.454,3.34-1.626,4.936-.382l6.355,4.945Z"/>
            <path class="cls-12" d="M273.484,129.499c1.598,1.242,1.676,3.195.547,4.647l-.205.265c-1.131,1.453-3.045,1.853-4.641.613l-6.355-4.947c-1.596-1.241-1.973-3.426-.842-4.879l.205-.263c1.131-1.454,3.34-1.626,4.936-.382l6.355,4.945Z"/>
            <path class="cls-12" d="M292.484,129.499c1.598,1.242,1.676,3.195.547,4.647l-.205.265c-1.131,1.453-3.045,1.853-4.641.613l-6.355-4.947c-1.596-1.241-1.973-3.426-.842-4.879l.205-.263c1.131-1.454,3.34-1.626,4.936-.382l6.355,4.945Z"/>
            <path class="cls-12" d="M311.484,129.499c1.598,1.242,1.676,3.195.547,4.647l-.205.265c-1.131,1.453-3.045,1.853-4.641.613l-6.355-4.947c-1.596-1.241-1.973-3.426-.842-4.879l.205-.263c1.131-1.454,3.34-1.626,4.936-.382l6.355,4.945Z"/>
            <path class="cls-12" d="M330.484,129.499c1.598,1.242,1.676,3.195.547,4.647l-.205.265c-1.131,1.453-3.045,1.853-4.641.613l-6.355-4.947c-1.596-1.241-1.973-3.426-.842-4.879l.205-.263c1.131-1.454,3.34-1.626,4.936-.382l6.355,4.945Z"/>
            <path class="cls-12" d="M349.484,129.499c1.598,1.242,1.676,3.195.547,4.647l-.205.265c-1.131,1.453-3.045,1.853-4.641.613l-6.355-4.947c-1.596-1.241-1.973-3.426-.842-4.879l.205-.263c1.131-1.454,3.34-1.626,4.936-.382l6.355,4.945Z"/>
            <path class="cls-12" d="M368.484,129.499c1.598,1.242,1.676,3.195.547,4.647l-.205.265c-1.131,1.453-3.045,1.853-4.641.613l-6.355-4.947c-1.596-1.241-1.973-3.426-.842-4.879l.205-.263c1.131-1.454,3.34-1.626,4.936-.382l6.355,4.945Z"/>
          </g>
          <g>
            <path class="cls-12" d="M216.484,148.499c1.598,1.242,1.676,3.195.547,4.647l-.205.265c-1.131,1.453-3.045,1.853-4.641.613l-6.355-4.947c-1.596-1.241-1.973-3.426-.842-4.879l.205-.263c1.131-1.454,3.34-1.626,4.936-.382l6.355,4.945Z"/>
            <path class="cls-12" d="M235.484,148.499c1.598,1.242,1.676,3.195.547,4.647l-.205.265c-1.131,1.453-3.045,1.853-4.641.613l-6.355-4.947c-1.596-1.241-1.973-3.426-.842-4.879l.205-.263c1.131-1.454,3.34-1.626,4.936-.382l6.355,4.945Z"/>
            <path class="cls-12" d="M254.484,148.499c1.598,1.242,1.676,3.195.547,4.647l-.205.265c-1.131,1.453-3.045,1.853-4.641.613l-6.355-4.947c-1.596-1.241-1.973-3.426-.842-4.879l.205-.263c1.131-1.454,3.34-1.626,4.936-.382l6.355,4.945Z"/>
            <path class="cls-12" d="M273.484,148.499c1.598,1.242,1.676,3.195.547,4.647l-.205.265c-1.131,1.453-3.045,1.853-4.641.613l-6.355-4.947c-1.596-1.241-1.973-3.426-.842-4.879l.205-.263c1.131-1.454,3.34-1.626,4.936-.382l6.355,4.945Z"/>
            <path class="cls-12" d="M292.484,148.499c1.598,1.242,1.676,3.195.547,4.647l-.205.265c-1.131,1.453-3.045,1.853-4.641.613l-6.355-4.947c-1.596-1.241-1.973-3.426-.842-4.879l.205-.263c1.131-1.454,3.34-1.626,4.936-.382l6.355,4.945Z"/>
            <path class="cls-12" d="M311.484,148.499c1.598,1.242,1.676,3.195.547,4.647l-.205.265c-1.131,1.453-3.045,1.853-4.641.613l-6.355-4.947c-1.596-1.241-1.973-3.426-.842-4.879l.205-.263c1.131-1.454,3.34-1.626,4.936-.382l6.355,4.945Z"/>
            <path class="cls-12" d="M330.484,148.499c1.598,1.242,1.676,3.195.547,4.647l-.205.265c-1.131,1.453-3.045,1.853-4.641.613l-6.355-4.947c-1.596-1.241-1.973-3.426-.842-4.879l.205-.263c1.131-1.454,3.34-1.626,4.936-.382l6.355,4.945Z"/>
            <path class="cls-12" d="M349.484,148.499c1.598,1.242,1.676,3.195.547,4.647l-.205.265c-1.131,1.453-3.045,1.853-4.641.613l-6.355-4.947c-1.596-1.241-1.973-3.426-.842-4.879l.205-.263c1.131-1.454,3.34-1.626,4.936-.382l6.355,4.945Z"/>
            <path class="cls-12" d="M368.484,148.499c1.598,1.242,1.676,3.195.547,4.647l-.205.265c-1.131,1.453-3.045,1.853-4.641.613l-6.355-4.947c-1.596-1.241-1.973-3.426-.842-4.879l.205-.263c1.131-1.454,3.34-1.626,4.936-.382l6.355,4.945Z"/>
          </g>
          <g>
            <path class="cls-12" d="M216.484,167.499c1.598,1.242,1.676,3.195.547,4.647l-.205.265c-1.131,1.453-3.045,1.853-4.641.613l-6.355-4.947c-1.596-1.241-1.973-3.426-.842-4.879l.205-.263c1.131-1.454,3.34-1.626,4.936-.382l6.355,4.945Z"/>
            <path class="cls-12" d="M235.484,167.499c1.598,1.242,1.676,3.195.547,4.647l-.205.265c-1.131,1.453-3.045,1.853-4.641.613l-6.355-4.947c-1.596-1.241-1.973-3.426-.842-4.879l.205-.263c1.131-1.454,3.34-1.626,4.936-.382l6.355,4.945Z"/>
            <path class="cls-12" d="M254.484,167.499c1.598,1.242,1.676,3.195.547,4.647l-.205.265c-1.131,1.453-3.045,1.853-4.641.613l-6.355-4.947c-1.596-1.241-1.973-3.426-.842-4.879l.205-.263c1.131-1.454,3.34-1.626,4.936-.382l6.355,4.945Z"/>
            <path class="cls-12" d="M273.484,167.499c1.598,1.242,1.676,3.195.547,4.647l-.205.265c-1.131,1.453-3.045,1.853-4.641.613l-6.355-4.947c-1.596-1.241-1.973-3.426-.842-4.879l.205-.263c1.131-1.454,3.34-1.626,4.936-.382l6.355,4.945Z"/>
            <path class="cls-12" d="M292.484,167.499c1.598,1.242,1.676,3.195.547,4.647l-.205.265c-1.131,1.453-3.045,1.853-4.641.613l-6.355-4.947c-1.596-1.241-1.973-3.426-.842-4.879l.205-.263c1.131-1.454,3.34-1.626,4.936-.382l6.355,4.945Z"/>
            <path class="cls-12" d="M311.484,167.499c1.598,1.242,1.676,3.195.547,4.647l-.205.265c-1.131,1.453-3.045,1.853-4.641.613l-6.355-4.947c-1.596-1.241-1.973-3.426-.842-4.879l.205-.263c1.131-1.454,3.34-1.626,4.936-.382l6.355,4.945Z"/>
            <path class="cls-12" d="M330.484,167.499c1.598,1.242,1.676,3.195.547,4.647l-.205.265c-1.131,1.453-3.045,1.853-4.641.613l-6.355-4.947c-1.596-1.241-1.973-3.426-.842-4.879l.205-.263c1.131-1.454,3.34-1.626,4.936-.382l6.355,4.945Z"/>
            <path class="cls-12" d="M349.484,167.499c1.598,1.242,1.676,3.195.547,4.647l-.205.265c-1.131,1.453-3.045,1.853-4.641.613l-6.355-4.947c-1.596-1.241-1.973-3.426-.842-4.879l.205-.263c1.131-1.454,3.34-1.626,4.936-.382l6.355,4.945Z"/>
            <path class="cls-12" d="M368.484,167.499c1.598,1.242,1.676,3.195.547,4.647l-.205.265c-1.131,1.453-3.045,1.853-4.641.613l-6.355-4.947c-1.596-1.241-1.973-3.426-.842-4.879l.205-.263c1.131-1.454,3.34-1.626,4.936-.382l6.355,4.945Z"/>
          </g>
          <g>
            <path class="cls-12" d="M216.484,186.499c1.598,1.242,1.676,3.195.547,4.647l-.205.265c-1.131,1.453-3.045,1.853-4.641.613l-6.355-4.947c-1.596-1.241-1.973-3.426-.842-4.879l.205-.263c1.131-1.454,3.34-1.626,4.936-.382l6.355,4.945Z"/>
            <path class="cls-12" d="M235.484,186.499c1.598,1.242,1.676,3.195.547,4.647l-.205.265c-1.131,1.453-3.045,1.853-4.641.613l-6.355-4.947c-1.596-1.241-1.973-3.426-.842-4.879l.205-.263c1.131-1.454,3.34-1.626,4.936-.382l6.355,4.945Z"/>
            <path class="cls-12" d="M254.484,186.499c1.598,1.242,1.676,3.195.547,4.647l-.205.265c-1.131,1.453-3.045,1.853-4.641.613l-6.355-4.947c-1.596-1.241-1.973-3.426-.842-4.879l.205-.263c1.131-1.454,3.34-1.626,4.936-.382l6.355,4.945Z"/>
            <path class="cls-12" d="M273.484,186.499c1.598,1.242,1.676,3.195.547,4.647l-.205.265c-1.131,1.453-3.045,1.853-4.641.613l-6.355-4.947c-1.596-1.241-1.973-3.426-.842-4.879l.205-.263c1.131-1.454,3.34-1.626,4.936-.382l6.355,4.945Z"/>
            <path class="cls-12" d="M292.484,186.499c1.598,1.242,1.676,3.195.547,4.647l-.205.265c-1.131,1.453-3.045,1.853-4.641.613l-6.355-4.947c-1.596-1.241-1.973-3.426-.842-4.879l.205-.263c1.131-1.454,3.34-1.626,4.936-.382l6.355,4.945Z"/>
            <path class="cls-12" d="M311.484,186.499c1.598,1.242,1.676,3.195.547,4.647l-.205.265c-1.131,1.453-3.045,1.853-4.641.613l-6.355-4.947c-1.596-1.241-1.973-3.426-.842-4.879l.205-.263c1.131-1.454,3.34-1.626,4.936-.382l6.355,4.945Z"/>
            <path class="cls-12" d="M330.484,186.499c1.598,1.242,1.676,3.195.547,4.647l-.205.265c-1.131,1.453-3.045,1.853-4.641.613l-6.355-4.947c-1.596-1.241-1.973-3.426-.842-4.879l.205-.263c1.131-1.454,3.34-1.626,4.936-.382l6.355,4.945Z"/>
            <path class="cls-12" d="M349.484,186.499c1.598,1.242,1.676,3.195.547,4.647l-.205.265c-1.131,1.453-3.045,1.853-4.641.613l-6.355-4.947c-1.596-1.241-1.973-3.426-.842-4.879l.205-.263c1.131-1.454,3.34-1.626,4.936-.382l6.355,4.945Z"/>
            <path class="cls-12" d="M368.484,186.499c1.598,1.242,1.676,3.195.547,4.647l-.205.265c-1.131,1.453-3.045,1.853-4.641.613l-6.355-4.947c-1.596-1.241-1.973-3.426-.842-4.879l.205-.263c1.131-1.454,3.34-1.626,4.936-.382l6.355,4.945Z"/>
          </g>
          <g>
            <path class="cls-12" d="M216.484,205.499c1.598,1.242,1.676,3.195.547,4.647l-.205.265c-1.131,1.453-3.045,1.853-4.641.613l-6.355-4.947c-1.596-1.241-1.973-3.426-.842-4.879l.205-.263c1.131-1.454,3.34-1.626,4.936-.382l6.355,4.945Z"/>
            <path class="cls-12" d="M235.484,205.499c1.598,1.242,1.676,3.195.547,4.647l-.205.265c-1.131,1.453-3.045,1.853-4.641.613l-6.355-4.947c-1.596-1.241-1.973-3.426-.842-4.879l.205-.263c1.131-1.454,3.34-1.626,4.936-.382l6.355,4.945Z"/>
            <path class="cls-12" d="M254.484,205.499c1.598,1.242,1.676,3.195.547,4.647l-.205.265c-1.131,1.453-3.045,1.853-4.641.613l-6.355-4.947c-1.596-1.241-1.973-3.426-.842-4.879l.205-.263c1.131-1.454,3.34-1.626,4.936-.382l6.355,4.945Z"/>
            <path class="cls-12" d="M273.484,205.499c1.598,1.242,1.676,3.195.547,4.647l-.205.265c-1.131,1.453-3.045,1.853-4.641.613l-6.355-4.947c-1.596-1.241-1.973-3.426-.842-4.879l.205-.263c1.131-1.454,3.34-1.626,4.936-.382l6.355,4.945Z"/>
            <path class="cls-12" d="M292.484,205.499c1.598,1.242,1.676,3.195.547,4.647l-.205.265c-1.131,1.453-3.045,1.853-4.641.613l-6.355-4.947c-1.596-1.241-1.973-3.426-.842-4.879l.205-.263c1.131-1.454,3.34-1.626,4.936-.382l6.355,4.945Z"/>
            <path class="cls-12" d="M311.484,205.499c1.598,1.242,1.676,3.195.547,4.647l-.205.265c-1.131,1.453-3.045,1.853-4.641.613l-6.355-4.947c-1.596-1.241-1.973-3.426-.842-4.879l.205-.263c1.131-1.454,3.34-1.626,4.936-.382l6.355,4.945Z"/>
            <path class="cls-12" d="M330.484,205.499c1.598,1.242,1.676,3.195.547,4.647l-.205.265c-1.131,1.453-3.045,1.853-4.641.613l-6.355-4.947c-1.596-1.241-1.973-3.426-.842-4.879l.205-.263c1.131-1.454,3.34-1.626,4.936-.382l6.355,4.945Z"/>
            <path class="cls-12" d="M349.484,205.499c1.598,1.242,1.676,3.195.547,4.647l-.205.265c-1.131,1.453-3.045,1.853-4.641.613l-6.355-4.947c-1.596-1.241-1.973-3.426-.842-4.879l.205-.263c1.131-1.454,3.34-1.626,4.936-.382l6.355,4.945Z"/>
            <path class="cls-12" d="M368.484,205.499c1.598,1.242,1.676,3.195.547,4.647l-.205.265c-1.131,1.453-3.045,1.853-4.641.613l-6.355-4.947c-1.596-1.241-1.973-3.426-.842-4.879l.205-.263c1.131-1.454,3.34-1.626,4.936-.382l6.355,4.945Z"/>
          </g>
          <g>
            <path class="cls-12" d="M216.484,224.499c1.598,1.242,1.676,3.195.547,4.647l-.205.265c-1.131,1.453-3.045,1.853-4.641.613l-6.355-4.947c-1.596-1.241-1.973-3.426-.842-4.879l.205-.263c1.131-1.454,3.34-1.626,4.936-.382l6.355,4.945Z"/>
            <path class="cls-12" d="M235.484,224.499c1.598,1.242,1.676,3.195.547,4.647l-.205.265c-1.131,1.453-3.045,1.853-4.641.613l-6.355-4.947c-1.596-1.241-1.973-3.426-.842-4.879l.205-.263c1.131-1.454,3.34-1.626,4.936-.382l6.355,4.945Z"/>
            <path class="cls-12" d="M254.484,224.499c1.598,1.242,1.676,3.195.547,4.647l-.205.265c-1.131,1.453-3.045,1.853-4.641.613l-6.355-4.947c-1.596-1.241-1.973-3.426-.842-4.879l.205-.263c1.131-1.454,3.34-1.626,4.936-.382l6.355,4.945Z"/>
            <path class="cls-12" d="M273.484,224.499c1.598,1.242,1.676,3.195.547,4.647l-.205.265c-1.131,1.453-3.045,1.853-4.641.613l-6.355-4.947c-1.596-1.241-1.973-3.426-.842-4.879l.205-.263c1.131-1.454,3.34-1.626,4.936-.382l6.355,4.945Z"/>
            <path class="cls-12" d="M292.484,224.499c1.598,1.242,1.676,3.195.547,4.647l-.205.265c-1.131,1.453-3.045,1.853-4.641.613l-6.355-4.947c-1.596-1.241-1.973-3.426-.842-4.879l.205-.263c1.131-1.454,3.34-1.626,4.936-.382l6.355,4.945Z"/>
            <path class="cls-12" d="M311.484,224.499c1.598,1.242,1.676,3.195.547,4.647l-.205.265c-1.131,1.453-3.045,1.853-4.641.613l-6.355-4.947c-1.596-1.241-1.973-3.426-.842-4.879l.205-.263c1.131-1.454,3.34-1.626,4.936-.382l6.355,4.945Z"/>
            <path class="cls-12" d="M330.484,224.499c1.598,1.242,1.676,3.195.547,4.647l-.205.265c-1.131,1.453-3.045,1.853-4.641.613l-6.355-4.947c-1.596-1.241-1.973-3.426-.842-4.879l.205-.263c1.131-1.454,3.34-1.626,4.936-.382l6.355,4.945Z"/>
            <path class="cls-12" d="M349.484,224.499c1.598,1.242,1.676,3.195.547,4.647l-.205.265c-1.131,1.453-3.045,1.853-4.641.613l-6.355-4.947c-1.596-1.241-1.973-3.426-.842-4.879l.205-.263c1.131-1.454,3.34-1.626,4.936-.382l6.355,4.945Z"/>
            <path class="cls-12" d="M368.484,224.499c1.598,1.242,1.676,3.195.547,4.647l-.205.265c-1.131,1.453-3.045,1.853-4.641.613l-6.355-4.947c-1.596-1.241-1.973-3.426-.842-4.879l.205-.263c1.131-1.454,3.34-1.626,4.936-.382l6.355,4.945Z"/>
          </g>
          <g>
            <path class="cls-12" d="M216.484,243.499c1.598,1.242,1.676,3.195.547,4.647l-.205.265c-1.131,1.453-3.045,1.853-4.641.613l-6.355-4.947c-1.596-1.241-1.973-3.426-.842-4.879l.205-.263c1.131-1.454,3.34-1.626,4.936-.382l6.355,4.945Z"/>
            <path class="cls-12" d="M235.484,243.499c1.598,1.242,1.676,3.195.547,4.647l-.205.265c-1.131,1.453-3.045,1.853-4.641.613l-6.355-4.947c-1.596-1.241-1.973-3.426-.842-4.879l.205-.263c1.131-1.454,3.34-1.626,4.936-.382l6.355,4.945Z"/>
            <path class="cls-12" d="M254.484,243.499c1.598,1.242,1.676,3.195.547,4.647l-.205.265c-1.131,1.453-3.045,1.853-4.641.613l-6.355-4.947c-1.596-1.241-1.973-3.426-.842-4.879l.205-.263c1.131-1.454,3.34-1.626,4.936-.382l6.355,4.945Z"/>
            <path class="cls-12" d="M273.484,243.499c1.598,1.242,1.676,3.195.547,4.647l-.205.265c-1.131,1.453-3.045,1.853-4.641.613l-6.355-4.947c-1.596-1.241-1.973-3.426-.842-4.879l.205-.263c1.131-1.454,3.34-1.626,4.936-.382l6.355,4.945Z"/>
            <path class="cls-12" d="M292.484,243.499c1.598,1.242,1.676,3.195.547,4.647l-.205.265c-1.131,1.453-3.045,1.853-4.641.613l-6.355-4.947c-1.596-1.241-1.973-3.426-.842-4.879l.205-.263c1.131-1.454,3.34-1.626,4.936-.382l6.355,4.945Z"/>
            <path class="cls-12" d="M311.484,243.499c1.598,1.242,1.676,3.195.547,4.647l-.205.265c-1.131,1.453-3.045,1.853-4.641.613l-6.355-4.947c-1.596-1.241-1.973-3.426-.842-4.879l.205-.263c1.131-1.454,3.34-1.626,4.936-.382l6.355,4.945Z"/>
            <path class="cls-12" d="M330.484,243.499c1.598,1.242,1.676,3.195.547,4.647l-.205.265c-1.131,1.453-3.045,1.853-4.641.613l-6.355-4.947c-1.596-1.241-1.973-3.426-.842-4.879l.205-.263c1.131-1.454,3.34-1.626,4.936-.382l6.355,4.945Z"/>
            <path class="cls-12" d="M349.484,243.499c1.598,1.242,1.676,3.195.547,4.647l-.205.265c-1.131,1.453-3.045,1.853-4.641.613l-6.355-4.947c-1.596-1.241-1.973-3.426-.842-4.879l.205-.263c1.131-1.454,3.34-1.626,4.936-.382l6.355,4.945Z"/>
            <path class="cls-12" d="M368.484,243.499c1.598,1.242,1.676,3.195.547,4.647l-.205.265c-1.131,1.453-3.045,1.853-4.641.613l-6.355-4.947c-1.596-1.241-1.973-3.426-.842-4.879l.205-.263c1.131-1.454,3.34-1.626,4.936-.382l6.355,4.945Z"/>
          </g>
          <g>
            <path class="cls-12" d="M216.484,262.499c1.598,1.242,1.676,3.195.547,4.647l-.205.265c-1.131,1.453-3.045,1.853-4.641.613l-6.355-4.947c-1.596-1.241-1.973-3.426-.842-4.879l.205-.263c1.131-1.454,3.34-1.626,4.936-.382l6.355,4.945Z"/>
            <path class="cls-12" d="M235.484,262.499c1.598,1.242,1.676,3.195.547,4.647l-.205.265c-1.131,1.453-3.045,1.853-4.641.613l-6.355-4.947c-1.596-1.241-1.973-3.426-.842-4.879l.205-.263c1.131-1.454,3.34-1.626,4.936-.382l6.355,4.945Z"/>
            <path class="cls-12" d="M254.484,262.499c1.598,1.242,1.676,3.195.547,4.647l-.205.265c-1.131,1.453-3.045,1.853-4.641.613l-6.355-4.947c-1.596-1.241-1.973-3.426-.842-4.879l.205-.263c1.131-1.454,3.34-1.626,4.936-.382l6.355,4.945Z"/>
            <path class="cls-12" d="M273.484,262.499c1.598,1.242,1.676,3.195.547,4.647l-.205.265c-1.131,1.453-3.045,1.853-4.641.613l-6.355-4.947c-1.596-1.241-1.973-3.426-.842-4.879l.205-.263c1.131-1.454,3.34-1.626,4.936-.382l6.355,4.945Z"/>
            <path class="cls-12" d="M292.484,262.499c1.598,1.242,1.676,3.195.547,4.647l-.205.265c-1.131,1.453-3.045,1.853-4.641.613l-6.355-4.947c-1.596-1.241-1.973-3.426-.842-4.879l.205-.263c1.131-1.454,3.34-1.626,4.936-.382l6.355,4.945Z"/>
            <path class="cls-12" d="M311.484,262.499c1.598,1.242,1.676,3.195.547,4.647l-.205.265c-1.131,1.453-3.045,1.853-4.641.613l-6.355-4.947c-1.596-1.241-1.973-3.426-.842-4.879l.205-.263c1.131-1.454,3.34-1.626,4.936-.382l6.355,4.945Z"/>
            <path class="cls-12" d="M330.484,262.499c1.598,1.242,1.676,3.195.547,4.647l-.205.265c-1.131,1.453-3.045,1.853-4.641.613l-6.355-4.947c-1.596-1.241-1.973-3.426-.842-4.879l.205-.263c1.131-1.454,3.34-1.626,4.936-.382l6.355,4.945Z"/>
            <path class="cls-12" d="M349.484,262.499c1.598,1.242,1.676,3.195.547,4.647l-.205.265c-1.131,1.453-3.045,1.853-4.641.613l-6.355-4.947c-1.596-1.241-1.973-3.426-.842-4.879l.205-.263c1.131-1.454,3.34-1.626,4.936-.382l6.355,4.945Z"/>
            <path class="cls-12" d="M368.484,262.499c1.598,1.242,1.676,3.195.547,4.647l-.205.265c-1.131,1.453-3.045,1.853-4.641.613l-6.355-4.947c-1.596-1.241-1.973-3.426-.842-4.879l.205-.263c1.131-1.454,3.34-1.626,4.936-.382l6.355,4.945Z"/>
          </g>
          <g>
            <path class="cls-12" d="M216.484,281.499c1.598,1.242,1.676,3.195.547,4.647l-.205.265c-1.131,1.453-3.045,1.853-4.641.613l-6.355-4.947c-1.596-1.241-1.973-3.426-.842-4.879l.205-.263c1.131-1.454,3.34-1.626,4.936-.382l6.355,4.945Z"/>
            <path class="cls-12" d="M235.484,281.499c1.598,1.242,1.676,3.195.547,4.647l-.205.265c-1.131,1.453-3.045,1.853-4.641.613l-6.355-4.947c-1.596-1.241-1.973-3.426-.842-4.879l.205-.263c1.131-1.454,3.34-1.626,4.936-.382l6.355,4.945Z"/>
            <path class="cls-12" d="M254.484,281.499c1.598,1.242,1.676,3.195.547,4.647l-.205.265c-1.131,1.453-3.045,1.853-4.641.613l-6.355-4.947c-1.596-1.241-1.973-3.426-.842-4.879l.205-.263c1.131-1.454,3.34-1.626,4.936-.382l6.355,4.945Z"/>
            <path class="cls-12" d="M273.484,281.499c1.598,1.242,1.676,3.195.547,4.647l-.205.265c-1.131,1.453-3.045,1.853-4.641.613l-6.355-4.947c-1.596-1.241-1.973-3.426-.842-4.879l.205-.263c1.131-1.454,3.34-1.626,4.936-.382l6.355,4.945Z"/>
            <path class="cls-12" d="M292.484,281.499c1.598,1.242,1.676,3.195.547,4.647l-.205.265c-1.131,1.453-3.045,1.853-4.641.613l-6.355-4.947c-1.596-1.241-1.973-3.426-.842-4.879l.205-.263c1.131-1.454,3.34-1.626,4.936-.382l6.355,4.945Z"/>
            <path class="cls-12" d="M311.484,281.499c1.598,1.242,1.676,3.195.547,4.647l-.205.265c-1.131,1.453-3.045,1.853-4.641.613l-6.355-4.947c-1.596-1.241-1.973-3.426-.842-4.879l.205-.263c1.131-1.454,3.34-1.626,4.936-.382l6.355,4.945Z"/>
            <path class="cls-12" d="M330.484,281.499c1.598,1.242,1.676,3.195.547,4.647l-.205.265c-1.131,1.453-3.045,1.853-4.641.613l-6.355-4.947c-1.596-1.241-1.973-3.426-.842-4.879l.205-.263c1.131-1.454,3.34-1.626,4.936-.382l6.355,4.945Z"/>
            <path class="cls-12" d="M349.484,281.499c1.598,1.242,1.676,3.195.547,4.647l-.205.265c-1.131,1.453-3.045,1.853-4.641.613l-6.355-4.947c-1.596-1.241-1.973-3.426-.842-4.879l.205-.263c1.131-1.454,3.34-1.626,4.936-.382l6.355,4.945Z"/>
            <path class="cls-12" d="M368.484,281.499c1.598,1.242,1.676,3.195.547,4.647l-.205.265c-1.131,1.453-3.045,1.853-4.641.613l-6.355-4.947c-1.596-1.241-1.973-3.426-.842-4.879l.205-.263c1.131-1.454,3.34-1.626,4.936-.382l6.355,4.945Z"/>
          </g>
        </g>
      </g>
    </g>
    <path class="cls-21" d="M311.07,66.219c-38.379,0-67.732-5.98-69.342-6.314-2.432-.506-3.994-2.888-3.488-5.32.504-2.434,2.883-3.995,5.32-3.492.506.106,51.342,10.443,105.666,3.945,2.461-.293,4.707,1.465,5.002,3.934.295,2.469-1.465,4.707-3.934,5.003-13.592,1.625-26.877,2.244-39.225,2.244Z"/>
  </g>
</svg>