<?xml version="1.0" encoding="UTF-8"?>
<svg id="Layer_1" data-name="Layer 1" xmlns="http://www.w3.org/2000/svg" viewBox="0 0 849.312 701.761">
  <defs>
    <style>
      .cls-1 {
        fill: #502f26;
      }

      .cls-2 {
        opacity: 0;
      }

      .cls-2, .cls-3, .cls-4, .cls-5, .cls-6, .cls-7, .cls-8, .cls-9, .cls-10, .cls-11, .cls-12, .cls-13 {
        fill: #ea7460;
      }

      .cls-14 {
        fill: #2d2828;
      }

      .cls-15 {
        fill: #494242;
      }

      .cls-16 {
        fill: #faa284;
      }

      .cls-17 {
        fill: #ef8d72;
      }

      .cls-18 {
        fill: #ffbf53;
      }

      .cls-19 {
        fill: #2d2b2b;
      }

      .cls-20 {
        fill: #997c28;
      }

      .cls-21 {
        fill: #fff;
      }

      .cls-22 {
        fill: #d6bb64;
      }

      .cls-23 {
        fill: #3f362d;
      }

      .cls-24 {
        fill: #a3adab;
      }

      .cls-25 {
        opacity: .9;
      }

      .cls-26 {
        opacity: .2;
      }

      .cls-27 {
        fill: #7c695b;
      }

      .cls-28 {
        fill: #646463;
      }

      .cls-29 {
        fill: #b37f28;
      }

      .cls-30 {
        fill: #c2d3d1;
      }

      .cls-4 {
        opacity: .909;
      }

      .cls-5 {
        opacity: .727;
      }

      .cls-6 {
        opacity: .818;
      }

      .cls-7 {
        opacity: .455;
      }

      .cls-8 {
        opacity: .364;
      }

      .cls-9 {
        opacity: .636;
      }

      .cls-10 {
        opacity: .545;
      }

      .cls-11 {
        opacity: .182;
      }

      .cls-12 {
        opacity: .273;
      }

      .cls-13 {
        opacity: .091;
      }

      .cls-31 {
        fill: #3e423c;
      }

      .cls-32 {
        fill: #d3755f;
      }

      .cls-33 {
        fill: #1e1d1d;
      }
    </style>
  </defs>
  <ellipse class="cls-26" cx="424.656" cy="684.761" rx="424.656" ry="17"/>
  <g>
    <polygon class="cls-27" points="366.309 477.527 319.473 682.449 326.543 683.328 384.867 480.961 366.309 477.527"/>
    <polygon class="cls-23" points="433.879 478.346 445.842 683.652 451.965 683.652 451.965 479.673 433.879 478.346"/>
    <polygon class="cls-23" points="524.492 477.527 571.328 682.449 564.258 683.328 505.934 480.961 524.492 477.527"/>
    <polygon class="cls-27" points="486.492 476.579 509.469 683.652 502.4 683.652 467.934 478.479 486.492 476.579"/>
    <path class="cls-22" d="M314.984,455.291c.279-.41.607-.818.99-1.223,5.582-5.883,14.822-5.232,21.83-7.432,24.357-7.644,47.971-25.824,60.877-50.334,7.436-14.115,11.371-30.508,12.693-46.765,7.973-97.905,74.025-153.771,147.494-131.283,74.906,22.928,54.812,242.541-47.834,265.905-37.594,8.557-76.291,12.365-114.576,9.155-24.963-2.093-53.777-5.968-75.025-22.253-4.707-3.607-10.369-10.023-6.449-15.772Z"/>
  </g>
  <g>
    <g>
      <path class="cls-17" d="M313.73,11.57s-11.764-4.889-18.863-6.774c0,0-7.693-5.695-10.215-4.673-2.521,1.023-2.16,3.277-.24,5.863,1.92,2.589,12.787,10.742,12.787,10.742l16.531-5.158Z"/>
      <path class="cls-16" d="M330.029,36.265l.471-15.251s-3.334-12.607-20.291-11.05l-17.621,1.618s-5.139-8.476-8.029-9.188c-4.24-1.044-13.754,5.16-14.867,6.62-1.111,1.463,7.283,15.64,7.283,15.64l35.336,7.288,17.719,4.322Z"/>
      <path class="cls-17" d="M291.195,11.964s-9.764,1.959-11.17,3.88c0,0-.035-3.665-2.233-4.31,0,0,2.815-.487,5.145-2.315,0,0,.818,4.13,8.258,2.745Z"/>
    </g>
    <path class="cls-19" d="M431.842,174.334s-41.357-95.01-94.895-154.723c-10.25-.875-24.166,11.321-24.978,15.916,11.246,20.084,44.932,76.798,88.07,167.834l23.596,71.208s34.701-37.37,8.207-100.235Z"/>
  </g>
  <g>
    <g>
      <path class="cls-17" d="M677.805,38.564s12.438-2.761,19.756-3.379c0,0,8.57-4.266,10.873-2.819,2.305,1.448,1.555,3.604-.785,5.816-2.344,2.214-14.467,8.346-14.467,8.346l-15.377-7.964Z"/>
      <path class="cls-16" d="M657.447,60.039l2.197-15.1s5.482-11.833,21.906-7.341l17.07,4.668s6.537-7.45,9.508-7.645c4.357-.289,12.644,7.48,13.486,9.113.838,1.634-9.9,14.128-9.9,14.128l-36.066,1.012-18.201,1.165Z"/>
      <path class="cls-17" d="M699.926,42.885s9.271,3.632,10.32,5.768c0,0,.676-3.602,2.951-3.853,0,0-2.685-.971-4.662-3.179,0,0-1.527,3.925-8.609,1.264Z"/>
    </g>
    <path class="cls-19" d="M517.465,190.361s62.602-88.969,135.756-148.924c10.246.927,21.822,15.363,21.82,20.03-20.91,15.375-62.016,71.286-120.375,153.399l-28.197,39.646s-30.525-12.951-9.004-64.152Z"/>
  </g>
  <g>
    <path class="cls-20" d="M679.738,329.102h5.226c10.863,0,19.703-10.34,19.703-23.048s-8.84-23.056-19.703-23.056h-5.226v6.366h5.226c7.356,0,13.338,7.486,13.338,16.689s-5.982,16.683-13.338,16.683h-5.226v6.365Z"/>
    <rect class="cls-22" x="645.412" y="280.615" width="39.895" height="51.323"/>
  </g>
  <path class="cls-33" d="M366.959,671.225l18.604-4.358c8.5-6,28.303-27.032,28.303-27.032,0,0,12.725-22.172,12.666-21.986.061-.166,9.834,21.506,9.834,21.506,9,6.145,6.25,23.148,6.25,23.148l-5.969,22.149h-11.031l.357-12.879-15.275,12.879h-44.316c-14.766-10,.578-13.427.578-13.427Z"/>
  <path class="cls-33" d="M289.959,671.225l18.604-4.358c8.5-6,28.303-27.032,28.303-27.032,0,0,12.725-22.172,12.666-21.986.061-.166,9.834,21.506,9.834,21.506,9,6.145,6.25,23.148,6.25,23.148l-5.969,22.149h-11.031l.357-12.879-15.275,12.879h-44.316c-14.766-10,.578-13.427.578-13.427Z"/>
  <path class="cls-19" d="M531.449,404.634c-2.15-30.106-29.389-64.522-29.389-64.522,5.783-39.392,24.904-86.815,24.904-86.815v-56.543c-4-2.545-13.676-6.724-24.867-10.01l.449-.391c-7.088-2.045-13.781-3.385-20.281-4.048-2.898-.351-5.609-.653-8.307-.653h-.211c-11.287,0-21.365,1.233-29.787,3.274-1.398.324-2.465.609-2.699.676-.027.008-.297.063-.297.071v.003c-15,4.089-24.531,7.053-24.531,7.053l-3.863,26.579c-14.426,21.553-15.129,34.553-15.129,34.553,1.695,17.251,14.855,24.667,14.855,24.667l7.129,53.101c-12.473,25.244-18.369,52.233-18.369,52.233,0,0-63.158-1.864-77.592,18.333-12,16.793-19.5,222.167-30.5,235.667,0,0,65.334,43,171.666-3l-27.752-167.008s108.557,30.053,94.57-63.22Z"/>
  <path class="cls-33" d="M369.965,612.861c7-5.5-55.707-160.468-55.707-160.468,0,0-5.272,55.601-9.295,101.878,15.883,20.261,59.482,62.927,65.002,58.59Z"/>
  <g>
    <path class="cls-15" d="M513.93,182.963s18.586-59.768,10.586-101.435c-8-41.667-44.865-40.333-52.934-40-8.066.333-55.068,4.506-52.4,61.586,2.666,57.081,14.711,69.116,13.334,79.849-.5,3.899-8.469.221-10.668,7.885-1.689,5.893-6,18.348-.541,34.264,4.291,12.511,15.553,29.719,34.318,31.25,18.768,1.531,43.49-9.834,56.539-29.5,13.049-19.666,9.602-25.709,7.727-32.916,0,0-.695-3.5-4.594-5.75-3.899-2.25-3.588,2.627-1.367-5.232Z"/>
    <g>
      <path class="cls-16" d="M509.668,108.123c-2.082-39.348-39.801-39.348-39.801-39.348-37.447,2.408-41.73,19.698-41.621,38.359-.393,6.879,1.137,17.928,3.105,27.087,4.484,20.857,12.199,33.562,29.149,36.596,38.334,6.86,46.924-32.697,46.924-32.697,0,0,3.477-6.72,2.244-29.997Z"/>
      <g class="cls-25">
        <path class="cls-2" d="M461.391,135.702c-.053,9.649-7.92,17.429-17.568,17.376-9.65-.053-17.43-7.92-17.377-17.569s7.92-17.43,17.57-17.376c9.648.053,17.43,7.92,17.375,17.569Z"/>
        <path class="cls-13" d="M444.006,119.668c8.801.048,15.898,7.224,15.85,16.026-.047,8.801-7.225,15.897-16.025,15.849-8.803-.048-15.898-7.224-15.85-16.026.049-8.801,7.225-15.898,16.025-15.849Z"/>
        <path class="cls-11" d="M443.998,121.203c7.953.043,14.367,6.528,14.322,14.482-.043,7.954-6.529,14.366-14.482,14.323-7.953-.043-14.365-6.528-14.322-14.482.045-7.954,6.527-14.367,14.482-14.323Z"/>
        <path class="cls-12" d="M443.99,122.738c7.105.039,12.836,5.832,12.795,12.938-.039,7.106-5.832,12.834-12.938,12.796-7.107-.039-12.836-5.832-12.797-12.939.039-7.106,5.832-12.835,12.939-12.796Z"/>
        <path class="cls-8" d="M443.98,124.273c6.258.034,11.305,5.137,11.27,11.395-.033,6.258-5.137,11.303-11.395,11.269-6.258-.034-11.305-5.137-11.27-11.395.035-6.258,5.137-11.304,11.395-11.269Z"/>
        <path class="cls-7" d="M443.973,125.808c5.41.03,9.773,4.441,9.742,9.852-.029,5.41-4.441,9.772-9.85,9.742-5.412-.03-9.773-4.441-9.744-9.852.029-5.41,4.441-9.773,9.852-9.742Z"/>
        <path class="cls-10" d="M443.965,127.344c4.561.025,8.24,3.745,8.215,8.308-.025,4.562-3.746,8.24-8.307,8.216-4.562-.025-8.242-3.745-8.217-8.308.025-4.562,3.744-8.241,8.309-8.216Z"/>
        <path class="cls-9" d="M443.955,128.879c3.715.02,6.711,3.049,6.689,6.764-.019,3.715-3.049,6.709-6.764,6.689-3.715-.02-6.709-3.049-6.689-6.764.021-3.715,3.049-6.71,6.764-6.689Z"/>
        <path class="cls-5" d="M443.947,130.414c2.865.016,5.178,2.353,5.162,5.221-.016,2.867-2.354,5.177-5.219,5.162-2.867-.016-5.18-2.353-5.164-5.221.016-2.867,2.354-5.178,5.221-5.162Z"/>
        <path class="cls-6" d="M443.938,131.949c2.019.011,3.648,1.657,3.637,3.677-.01,2.019-1.658,3.646-3.676,3.635-2.019-.011-3.648-1.657-3.637-3.677.012-2.019,1.658-3.647,3.676-3.635Z"/>
        <path class="cls-4" d="M443.93,133.484c1.172.006,2.117.961,2.109,2.133-.006,1.171-.963,2.115-2.133,2.109-1.17-.006-2.115-.961-2.109-2.133.008-1.171.961-2.116,2.133-2.109Z"/>
        <path class="cls-3" d="M444.504,135.609c-.002.323-.266.583-.588.582-.324-.002-.586-.266-.584-.59.002-.323.266-.584.59-.582.322.002.584.266.582.59Z"/>
      </g>
      <g class="cls-25">
        <path class="cls-2" d="M510.226,135.011c-.062,11.143-9.148,20.129-20.291,20.067-11.145-.062-20.131-9.146-20.068-20.29.062-11.145,9.146-20.129,20.291-20.068,11.143.061,20.129,9.147,20.068,20.291Z"/>
        <path class="cls-13" d="M490.148,116.492c10.164.056,18.361,8.344,18.305,18.508-.057,10.165-8.344,18.36-18.508,18.304-10.164-.056-18.361-8.343-18.305-18.507.057-10.166,8.342-18.36,18.508-18.305Z"/>
        <path class="cls-11" d="M490.139,118.265c9.186.051,16.592,7.54,16.541,16.726-.051,9.185-7.539,16.592-16.725,16.541-9.186-.051-16.594-7.54-16.541-16.725.051-9.186,7.537-16.592,16.725-16.542Z"/>
        <path class="cls-12" d="M490.129,120.038c8.205.045,14.824,6.736,14.777,14.943-.043,8.206-6.736,14.823-14.941,14.778-8.207-.045-14.824-6.736-14.779-14.942.047-8.208,6.736-14.824,14.943-14.779Z"/>
        <path class="cls-8" d="M490.119,121.811c7.227.039,13.055,5.933,13.016,13.16-.039,7.227-5.934,13.054-13.16,13.015-7.227-.04-13.057-5.932-13.016-13.159.041-7.229,5.932-13.055,13.16-13.016Z"/>
        <path class="cls-7" d="M490.109,123.584c6.248.034,11.287,5.129,11.252,11.377-.033,6.248-5.129,11.286-11.377,11.252-6.248-.035-11.287-5.128-11.252-11.377.035-6.249,5.129-11.287,11.377-11.252Z"/>
        <path class="cls-10" d="M490.1,125.357c5.27.029,9.518,4.325,9.488,9.595-.027,5.269-4.324,9.517-9.594,9.489-5.27-.03-9.518-4.326-9.488-9.594.029-5.27,4.324-9.518,9.594-9.49Z"/>
        <path class="cls-9" d="M490.09,127.13c4.289.024,7.75,3.521,7.725,7.812-.022,4.29-3.522,7.748-7.81,7.726-4.291-.024-7.75-3.522-7.727-7.812.025-4.291,3.522-7.749,7.812-7.727Z"/>
        <path class="cls-5" d="M490.08,128.903c3.31.018,5.98,2.718,5.963,6.03-.017,3.311-2.719,5.98-6.029,5.962-3.31-.019-5.98-2.718-5.963-6.029.02-3.312,2.719-5.981,6.029-5.963Z"/>
        <path class="cls-6" d="M490.07,130.676c2.332.013,4.213,1.914,4.199,4.247-.012,2.332-1.914,4.211-4.246,4.199-2.332-.014-4.213-1.915-4.199-4.246.012-2.333,1.914-4.213,4.246-4.2Z"/>
        <path class="cls-4" d="M490.06,132.449c1.353.007,2.443,1.11,2.436,2.464-.006,1.352-1.109,2.442-2.463,2.436-1.353-.008-2.443-1.111-2.436-2.463.006-1.354,1.109-2.444,2.463-2.437Z"/>
        <path class="cls-3" d="M490.723,134.903c0,.373-.307.674-.68.673-.373-.003-.676-.308-.674-.681.002-.375.309-.676.682-.674.373.002.676.307.672.682Z"/>
      </g>
      <path class="cls-1" d="M451.648,102.731s-8.43-3.284-17.674,3.359c0,0-.098-1.138,1.795-3.075,1.895-1.938,7.592-4.865,13.512-3.512,0,0,3.623,2.047,2.367,3.228Z"/>
      <path class="cls-1" d="M474.555,103.353s9.674-4.044,20.486,3.188c0,0,.092-1.299-2.139-3.436-2.223-2.136-8.863-5.266-15.676-3.512,0,0-4.148,2.461-2.672,3.761Z"/>
      <path class="cls-32" d="M466.432,138.426c-8.606,3.873-13.479-.057-13.988-4.18-.334-2.684,1.098-5.135,3.648-6.248,5.244-2.286,8.682-10.623,8.717-10.709h0c.096,1.882-1.531,9.034-8.135,13.229-1.426.905-2.303,1.837-2.139,3.165.285,2.311,3.772,5.645,11.897,4.743h0Z"/>
      <path class="cls-14" d="M448.287,72.879s2.217,5.699,15.697,13.112c16.816,9.249,36.994,7.206,45.857,26.173,0,0,1.828-23.53-13.908-35.182-14.271-10.568-33.271-11.17-47.646-4.104Z"/>
      <path class="cls-14" d="M448.287,72.879s-3.16,16.148-12.129,24.279c-8.969,8.131-7.975,12.775-7.975,12.775,0,0-4.602-29.428,20.104-37.055Z"/>
      <path class="cls-21" d="M452.07,143.701s9.986,3.348,27.861.973c0,0-3.113,11.871-15.25,10.938-10.807-.833-12.611-11.91-12.611-11.91Z"/>
      <path class="cls-1" d="M476.539,120.235c2.121-2.322,4.299-3.467,6.549-3.403,3.635.104,6.279,3.306,6.305,3.338l2.328-1.893c-.143-.176-3.553-4.301-8.547-4.444-3.123-.095-6.115,1.384-8.85,4.38l2.215,2.023Z"/>
      <path class="cls-1" d="M437.539,120.235c2.121-2.322,4.311-3.467,6.549-3.403,3.635.104,6.279,3.306,6.305,3.338l2.328-1.893c-.143-.176-3.553-4.301-8.547-4.444-3.119-.095-6.113,1.384-8.85,4.38l2.215,2.023Z"/>
    </g>
  </g>
  <g>
    <polygon class="cls-30" points="200.869 332.173 184.268 216.652 346.648 216.652 354.701 332.112 200.869 332.173"/>
    <polygon class="cls-24" points="346.648 216.652 354.932 216.652 360.006 324.965 427.965 321.158 427.965 332.082 354.406 332.164 346.648 216.652"/>
    <path class="cls-22" d="M274.326,250.072c.988,7.814-2.808,14.732-8.48,15.45-5.674.718-11.072-5.036-12.062-12.852-.988-7.815,2.809-14.733,8.48-15.451,5.674-.718,11.074,5.036,12.062,12.853Z"/>
  </g>
  <g>
    <rect class="cls-29" x="40.424" y="331.799" width="576.182" height="21.598"/>
    <rect class="cls-18" x="616.605" y="331.799" width="192.195" height="21.598"/>
    <polygon class="cls-28" points="599.029 353.652 648.889 684.652 637.178 684.652 563.424 353.652 599.029 353.652"/>
    <polygon class="cls-31" points="759.029 353.652 808.889 684.652 797.178 684.652 723.424 353.652 759.029 353.652"/>
    <polygon class="cls-31" points="258.283 353.652 208.424 684.652 220.135 684.652 293.889 353.652 258.283 353.652"/>
    <polygon class="cls-28" points="98.283 353.652 48.424 684.652 60.135 684.652 133.889 353.652 98.283 353.652"/>
  </g>
</svg>