<?xml version="1.0" encoding="UTF-8"?>
<svg id="Layer_1" data-name="Layer 1" xmlns="http://www.w3.org/2000/svg" xmlns:xlink="http://www.w3.org/1999/xlink" viewBox="0 0 913.66 726.213">
  <defs>
    <style>
      .cls-1 {
        fill: #9b9595;
      }

      .cls-2 {
        fill: #21201f;
      }

      .cls-3 {
        fill: #502f26;
      }

      .cls-4 {
        fill: #8baccd;
      }

      .cls-5 {
        fill: #faa284;
      }

      .cls-6 {
        fill: #db7c65;
      }

      .cls-7 {
        fill: #e2dcdc;
      }

      .cls-8 {
        fill: #ef8d72;
      }

      .cls-9 {
        fill: #922;
      }

      .cls-10 {
        fill: #cad8d7;
      }

      .cls-11 {
        fill: #6b6767;
      }

      .cls-12 {
        fill: #42403f;
      }

      .cls-13 {
        fill: #997c28;
      }

      .cls-14 {
        fill: #2a3836;
      }

      .cls-15 {
        fill: #141413;
      }

      .cls-16 {
        fill: #fff;
      }

      .cls-17 {
        fill: #efeeed;
      }

      .cls-18 {
        fill: #443c3b;
      }

      .cls-19 {
        fill: #4a7089;
      }

      .cls-20 {
        fill: #b5aeae;
      }

      .cls-21 {
        fill: #6189aa;
      }

      .cls-22 {
        fill: #332828;
      }

      .cls-23 {
        fill: #d6bb64;
      }

      .cls-24 {
        opacity: .2;
      }

      .cls-25 {
        fill: #759dc3;
      }

      .cls-26 {
        fill: #af7347;
      }

      .cls-27 {
        fill: #d3cbcb;
      }

      .cls-28 {
        fill: #98a3a2;
      }

      .cls-29 {
        fill: #674434;
      }

      .cls-30 {
        fill: #cbdaed;
      }

      .cls-31 {
        fill: #3b221d;
      }

      .cls-32 {
        clip-path: url(#clippath);
      }

      .cls-33 {
        fill: #a5b2bf;
      }
    </style>
    <clipPath id="clippath">
      <path class="cls-17" d="M690.757,299.745s26.961-144.202,33.551-193.797c3.072-23.118-24.628-17.854-37.957-18.74-21.327-1.418-33.712-14.025-36.998-6.285-9.732,22.912-20.027,109.874-20.027,109.874,0,0-29.141,71.514-33.041,89.088,0,0,20.073-160.299,49.342-216.48,0,0,4.179-41.359,55.966-30.472,57.361,12.059,49.85,41.476,49.533,56.397,0,0-1.15,108.165-5.359,141.154,0,0-27.706,64.1-55.011,69.261Z"/>
    </clipPath>
  </defs>
  <ellipse class="cls-24" cx="456.83" cy="709.213" rx="456.83" ry="17"/>
  <g>
    <path class="cls-13" d="M490.002,536.639s-18.775-52.196,34.098-48.84c52.871,3.357,218.729,18.519,218.729,18.519v30.212l-252.826.109Z"/>
    <path class="cls-23" d="M742.473,506.318l104.203-436.85-195.988,33s-36.927,45.017-10.072,93.694c0,0-49.107,88.267-10.786,141.979,0,0-47.425,97.824-22.819,156.033l135.463,12.143Z"/>
    <path class="cls-13" d="M732.287,505.904s-2.872-124.064,32.375-157.633c0,0-10.749-116.744,27.856-151.991,0,0-6.714-81.407,54.158-126.574l-104.203,436.612-10.186-.414Z"/>
    <path class="cls-26" d="M646.072,196.28s71.418-7.973,143.131,0c0,0-103.688,8.392-143.131,0Z"/>
    <path class="cls-26" d="M633.322,337.78s80.566-4.616,127.983,9.231c0,0-87.7-.419-127.983-9.231Z"/>
    <path class="cls-26" d="M677.543,196.372s-8.812-26.109,4.195-50.447c0,0-7.133,38.372,1.679,50.447,0,0-13.008,26.343-11.749,45.646,0,0-7.134-16.599,5.875-45.646Z"/>
    <path class="cls-26" d="M733.564,196.446s-6.561-26.764,8.471-49.907c0,0-10.371,37.626-2.617,50.406,0,0-15.202,25.142-15.589,44.481,0,0-5.695-17.144,9.735-44.98Z"/>
    <path class="cls-26" d="M668.15,339.133s-12.442-26.11.565-50.448c0,0-3.503,38.373,5.31,50.448,0,0-13.008,26.342-11.75,45.645,0,0-7.133-16.598,5.875-45.645Z"/>
    <path class="cls-26" d="M715.778,339.206s-9.008-26.764,6.023-49.908c0,0-7.922,37.627-.168,50.408,0,0-15.202,25.142-15.589,44.48,0,0-5.696-17.145,9.734-44.98Z"/>
    <polygon class="cls-10" points="631.828 536.104 631.828 674.104 653.436 674.104 660.99 536.104 631.828 536.104"/>
    <polygon class="cls-28" points="537.345 673.869 734.828 662.972 734.828 682.104 537.533 682.104 537.345 673.869"/>
    <path class="cls-14" d="M568.254,695.145c0-7.647-6.199-13.847-13.848-13.847s-13.847,6.199-13.847,13.847,6.199,13.848,13.847,13.848,13.848-6.2,13.848-13.848Z"/>
    <path class="cls-14" d="M731.065,695.145c0-7.647-6.198-13.847-13.847-13.847s-13.848,6.199-13.848,13.847,6.199,13.848,13.848,13.848,13.847-6.2,13.847-13.848Z"/>
    <path class="cls-14" d="M674.837,695.145c0-7.647-6.199-13.847-13.847-13.847s-13.848,6.199-13.848,13.847,6.199,13.848,13.848,13.848,13.847-6.2,13.847-13.848Z"/>
    <polygon class="cls-28" points="631.828 536.104 631.828 566.742 658.226 588.625 660.99 536.104 631.828 536.104"/>
  </g>
  <polygon class="cls-33" points="707.271 239.461 734.8 93.487 648.135 70.252 606.478 209.471 707.271 239.461"/>
  <g>
    <rect class="cls-4" x="77.828" y="378.104" width="146" height="330"/>
    <rect class="cls-25" x="223.828" y="378.104" width="123" height="330"/>
    <polygon class="cls-21" points="223.467 378.104 346.828 378.104 346.828 484.233 223.467 378.104"/>
  </g>
  <path class="cls-30" d="M624.881,183.535l-10.411-83.584,78.975,43.047,15.396-26.599s-92.978-88.568-118.055-76.83c-20.491,9.593-40.944,11.931-18.538,208.005,0,0,46.188-18.259,52.633-64.039Z"/>
  <path class="cls-30" d="M736.641,195.261l49.998-64.369-89.933,1.458-1.287-30.707s123.471-35.273,140.231-13.234c13.693,18.01,28.457,27.897-82.424,191.152,0,0-32.134-40.761-16.586-84.3Z"/>
  <g>
    <path class="cls-2" d="M340.537,673.513s-11.851,20.014-24.963,29.771l-79.957-70.936s12.502-20.288,47.375,10.722l35.824,4.729,21.721,25.714Z"/>
    <path class="cls-15" d="M309.715,710.117l-26.451-23.467,3.92-5.076s-15.119-5.477-30.35-18.988c-7.402-6.566-27.047-23.606-27.047-23.606l5.859-6.604,80.041,71.01-5.973,6.733Z"/>
    <path class="cls-12" d="M280.773,641.031s-12.156,11.324-39.342-13.844c0,0,13.809-7.875,39.342,13.844Z"/>
    <path class="cls-15" d="M289.641,680.277s18.811-19.635,44.463,2.902c0,0-10.812,14.92-18.779,19.883l-25.684-22.785Z"/>
  </g>
  <g>
    <path class="cls-2" d="M329.91,547.252s-11.31,20.262-24.173,30.344l-82.05-69.195s12.295-20.266,47.933,9.859l35.934,3.83,22.356,25.162Z"/>
    <path class="cls-15" d="M300.268,584.756l-27.247-22.977,3.755-5.132s-15.162-4.983-30.725-18.107c-7.565-6.38-27.541-22.81-27.541-22.81l5.764-6.835,81.797,68.981-5.803,6.88Z"/>
    <path class="cls-12" d="M269.315,516.32s-11.868,11.626-39.676-12.853c0,0,13.606-8.219,39.676,12.853Z"/>
    <path class="cls-15" d="M279.236,555.246s18.311-20.101,44.521,1.788c0,0-10.434,15.186-18.274,20.347l-26.246-22.135Z"/>
  </g>
  <g>
    <path class="cls-5" d="M652.499,184.475l-5.333,21.105,39.895,9.455,7.052-28.352c-18.453,4.136-34.95.036-41.613-2.209Z"/>
    <path class="cls-8" d="M694.112,186.684l5.721-24.134-39.895-9.458-7.439,31.383c6.663,2.245,23.16,6.345,41.613,2.209Z"/>
  </g>
  <path class="cls-30" d="M650.078,183.203l-2.5,7.25s-19.25-3-25.75-13.5l-49.58,70.621s1.645,152.043-31.689,165.879c0,0-80.586-12.914-130.731,2.623-22,6.816-100.043,85.265-120.188,85.655,0,0,4.4,48.212,29.19,71.058,24.789,22.846-26.853,52.666-12.76,79.333,14.093,26.667,47.426,51.377,94.76,43.022,0,0,88.471-147.653,136.236-183.004,0,0,139.151,48.305,151.792-67.19,0,0,48.097-132.619,64.368-165.391l-16.731-84.439s-23.07,11.505-41.368,1.252l1.702-6.252s-28.002,3.666-46.751-6.918Z"/>
  <g>
    <path class="cls-5" d="M734.111,124.072l-4.964,3.615c1.158-6.395,1.064-6.863,1.729-10.303,4.266-22.074,2.555-32.482,2.555-32.482-.397-28.279-81.624-25.135-81.624-25.135-1.667,14.827-20.828,68.613-9.689,96.999,3.318,8.458,8.216,16.031,18.388,20.058,44.312,17.541,66.241-24.736,66.241-24.736,0,0,15.972,7.265,19.933-14.334,3.118-17.006-12.569-13.682-12.569-13.682Z"/>
    <path class="cls-6" d="M651.808,59.768s81.227-3.145,81.624,25.135c0,0,1.336,8.152-1.307,25.312l-8.952-.716s-.717-15.024-14.907-16.301c-14.192-1.274-13.572,2.85-47.955-9.522-6.081-2.189-12.285,3.725-17.174,14.378,2.002-8.174,8.229-34.368,8.671-38.287Z"/>
    <path class="cls-6" d="M675.509,139.424c-9.69,1.59-13.536-3.669-12.945-7.95.383-2.789,2.481-4.869,5.341-5.307,5.889-.893,11.577-8.356,11.636-8.433h0c-.408,1.918-3.958,8.674-11.723,11.121-1.678.529-2.808,1.232-3,2.611-.331,2.4,2.28,6.684,10.691,7.957h0Z"/>
    <path class="cls-3" d="M651.894,89.115l.215-2.762c.59.085,10.32-.345,20.873,2.984l-.851,4.215c-8.519-3.288-20.092-4.416-20.237-4.438Z"/>
    <path class="cls-3" d="M716.771,105.203c-6.561-4.406-19.769-7.926-19.888-7.984l1.738-3.626c.499.226,12.488,3.368,19.574,9.487l-1.425,2.123Z"/>
    <path class="cls-18" d="M725.247,126.617s-11.155,25.084-20.964,22.361c-9.808-2.722-37.743-12.944-57.346-10.869,0,0-8.921,1.183-6.75-23.121,0,0-14.317,57.365,29.105,65.402,38.236,7.076,53.597-22.326,53.597-22.326l6.337-29.137-3.979-2.311Z"/>
    <path class="cls-16" d="M689.559,149.078s-16.575-3.733-32.258-7.267c0,0,.348,11.3,13.729,14.284,12.618,2.812,17.76-4.286,18.528-7.018Z"/>
    <g>
      <path class="cls-17" d="M690.757,299.745s26.961-144.202,33.551-193.797c3.072-23.118-24.628-17.854-37.957-18.74-21.327-1.418-33.712-14.025-36.998-6.285-9.732,22.912-20.027,109.874-20.027,109.874,0,0-29.141,71.514-33.041,89.088,0,0,20.073-160.299,49.342-216.48,0,0,4.179-41.359,55.966-30.472,57.361,12.059,49.85,41.476,49.533,56.397,0,0-1.15,108.165-5.359,141.154,0,0-27.706,64.1-55.011,69.261Z"/>
      <g class="cls-32">
        <g>
          <g>
            <path class="cls-9" d="M782.175,43.718c.887,1.817,2.782,2.297,4.436,1.489l.301-.146c1.655-.808,2.44-2.597,1.555-4.414l-3.534-7.238c-.887-1.816-2.947-2.634-4.602-1.827l-.299.146c-1.656.808-2.279,2.935-1.389,4.751l3.532,7.239Z"/>
            <path class="cls-9" d="M778.266,62.312c.887,1.817,2.782,2.297,4.436,1.489l.301-.146c1.655-.808,2.44-2.597,1.555-4.414l-3.534-7.238c-.887-1.816-2.947-2.634-4.602-1.827l-.299.146c-1.656.808-2.279,2.935-1.389,4.751l3.532,7.239Z"/>
            <path class="cls-9" d="M774.357,80.905c.887,1.817,2.782,2.297,4.436,1.489l.301-.146c1.655-.808,2.44-2.597,1.555-4.414l-3.534-7.238c-.887-1.816-2.947-2.634-4.602-1.827l-.299.146c-1.656.808-2.279,2.935-1.389,4.751l3.532,7.239Z"/>
            <path class="cls-9" d="M770.448,99.499c.887,1.817,2.782,2.297,4.436,1.489l.301-.146c1.655-.808,2.44-2.597,1.555-4.414l-3.534-7.238c-.887-1.816-2.947-2.634-4.602-1.827l-.299.146c-1.656.808-2.279,2.935-1.389,4.751l3.532,7.239Z"/>
            <path class="cls-9" d="M766.54,118.093c.887,1.817,2.782,2.297,4.436,1.489l.301-.146c1.655-.808,2.44-2.597,1.555-4.414l-3.534-7.238c-.887-1.816-2.947-2.634-4.602-1.827l-.299.146c-1.656.808-2.279,2.935-1.389,4.751l3.532,7.239Z"/>
            <path class="cls-9" d="M762.631,136.686c.887,1.817,2.782,2.297,4.436,1.489l.301-.146c1.655-.808,2.44-2.597,1.555-4.414l-3.534-7.238c-.887-1.816-2.947-2.634-4.602-1.827l-.299.146c-1.656.808-2.279,2.935-1.389,4.751l3.532,7.239Z"/>
            <path class="cls-9" d="M758.722,155.28c.887,1.817,2.782,2.297,4.436,1.489l.301-.146c1.655-.808,2.44-2.597,1.555-4.414l-3.534-7.238c-.887-1.816-2.947-2.634-4.602-1.827l-.299.146c-1.656.808-2.279,2.935-1.389,4.751l3.532,7.239Z"/>
            <path class="cls-9" d="M754.813,173.873c.887,1.817,2.782,2.297,4.436,1.489l.301-.146c1.655-.808,2.44-2.597,1.555-4.414l-3.534-7.238c-.887-1.816-2.947-2.634-4.602-1.827l-.299.146c-1.656.808-2.279,2.935-1.389,4.751l3.532,7.239Z"/>
            <path class="cls-9" d="M750.904,192.467c.887,1.817,2.782,2.297,4.436,1.489l.301-.146c1.655-.808,2.44-2.597,1.555-4.414l-3.534-7.238c-.887-1.816-2.947-2.634-4.602-1.827l-.299.146c-1.656.808-2.279,2.935-1.389,4.751l3.532,7.239Z"/>
            <path class="cls-9" d="M746.995,211.06c.887,1.817,2.782,2.297,4.436,1.489l.301-.146c1.655-.808,2.44-2.597,1.555-4.414l-3.534-7.238c-.887-1.816-2.947-2.634-4.602-1.827l-.299.146c-1.656.808-2.279,2.935-1.389,4.751l3.532,7.239Z"/>
            <path class="cls-9" d="M743.086,229.654c.887,1.817,2.782,2.297,4.436,1.489l.301-.146c1.655-.808,2.44-2.597,1.555-4.414l-3.534-7.238c-.887-1.816-2.947-2.634-4.602-1.827l-.299.146c-1.656.808-2.279,2.935-1.389,4.751l3.532,7.239Z"/>
            <path class="cls-9" d="M739.177,248.248c.887,1.817,2.782,2.297,4.436,1.489l.301-.146c1.655-.808,2.44-2.597,1.555-4.414l-3.534-7.238c-.887-1.816-2.947-2.634-4.602-1.827l-.299.146c-1.656.808-2.279,2.935-1.389,4.751l3.532,7.239Z"/>
            <path class="cls-9" d="M735.268,266.841c.887,1.817,2.782,2.297,4.436,1.489l.301-.146c1.655-.808,2.44-2.597,1.555-4.414l-3.534-7.238c-.887-1.816-2.947-2.634-4.602-1.827l-.299.146c-1.656.808-2.279,2.935-1.389,4.751l3.532,7.239Z"/>
            <path class="cls-9" d="M731.36,285.435c.887,1.817,2.782,2.297,4.436,1.489l.301-.146c1.655-.808,2.44-2.597,1.555-4.414l-3.534-7.238c-.887-1.816-2.947-2.634-4.602-1.827l-.299.146c-1.656.808-2.279,2.935-1.389,4.751l3.532,7.239Z"/>
            <path class="cls-9" d="M727.451,304.028c.887,1.817,2.782,2.297,4.436,1.489l.301-.146c1.655-.808,2.44-2.597,1.555-4.414l-3.534-7.238c-.887-1.816-2.947-2.634-4.602-1.827l-.299.146c-1.656.808-2.279,2.935-1.389,4.751l3.532,7.239Z"/>
            <path class="cls-9" d="M723.542,322.622c.887,1.817,2.782,2.297,4.436,1.489l.301-.146c1.655-.808,2.44-2.597,1.555-4.414l-3.534-7.238c-.887-1.816-2.947-2.634-4.602-1.827l-.299.146c-1.656.808-2.279,2.935-1.389,4.751l3.532,7.239Z"/>
          </g>
          <g>
            <path class="cls-9" d="M763.581,39.809c.887,1.817,2.782,2.297,4.436,1.489l.301-.146c1.655-.808,2.44-2.597,1.555-4.414l-3.534-7.238c-.887-1.816-2.947-2.634-4.602-1.827l-.299.146c-1.656.808-2.279,2.935-1.389,4.751l3.532,7.239Z"/>
            <path class="cls-9" d="M759.673,58.403c.887,1.817,2.782,2.297,4.436,1.489l.301-.146c1.655-.808,2.44-2.597,1.555-4.414l-3.534-7.238c-.887-1.816-2.947-2.634-4.602-1.827l-.299.146c-1.656.808-2.279,2.935-1.389,4.751l3.532,7.239Z"/>
            <path class="cls-9" d="M755.764,76.997c.887,1.817,2.782,2.297,4.436,1.489l.301-.146c1.655-.808,2.44-2.597,1.555-4.414l-3.534-7.238c-.887-1.816-2.947-2.634-4.602-1.827l-.299.146c-1.656.808-2.279,2.935-1.389,4.751l3.532,7.239Z"/>
            <path class="cls-9" d="M751.855,95.59c.887,1.817,2.782,2.297,4.436,1.489l.301-.146c1.655-.808,2.44-2.597,1.555-4.414l-3.534-7.238c-.887-1.816-2.947-2.634-4.602-1.827l-.299.146c-1.656.808-2.279,2.935-1.389,4.751l3.532,7.239Z"/>
            <path class="cls-9" d="M747.946,114.184c.887,1.817,2.782,2.297,4.436,1.489l.301-.146c1.655-.808,2.44-2.597,1.555-4.414l-3.534-7.238c-.887-1.816-2.947-2.634-4.602-1.827l-.299.146c-1.656.808-2.279,2.935-1.389,4.751l3.532,7.239Z"/>
            <path class="cls-9" d="M744.037,132.777c.887,1.817,2.782,2.297,4.436,1.489l.301-.146c1.655-.808,2.44-2.597,1.555-4.414l-3.534-7.238c-.887-1.816-2.947-2.634-4.602-1.827l-.299.146c-1.656.808-2.279,2.935-1.389,4.751l3.532,7.239Z"/>
            <path class="cls-9" d="M740.128,151.371c.887,1.817,2.782,2.297,4.436,1.489l.301-.146c1.655-.808,2.44-2.597,1.555-4.414l-3.534-7.238c-.887-1.816-2.947-2.634-4.602-1.827l-.299.146c-1.656.808-2.279,2.935-1.389,4.751l3.532,7.239Z"/>
            <path class="cls-9" d="M736.219,169.964c.887,1.817,2.782,2.297,4.436,1.489l.301-.146c1.655-.808,2.44-2.597,1.555-4.414l-3.534-7.238c-.887-1.816-2.947-2.634-4.602-1.827l-.299.146c-1.656.808-2.279,2.935-1.389,4.751l3.532,7.239Z"/>
            <path class="cls-9" d="M732.31,188.558c.887,1.817,2.782,2.297,4.436,1.489l.301-.146c1.655-.808,2.44-2.597,1.555-4.414l-3.534-7.238c-.887-1.816-2.947-2.634-4.602-1.827l-.299.146c-1.656.808-2.279,2.935-1.389,4.751l3.532,7.239Z"/>
            <path class="cls-9" d="M728.402,207.152c.887,1.817,2.782,2.297,4.436,1.489l.301-.146c1.655-.808,2.44-2.597,1.555-4.414l-3.534-7.238c-.887-1.816-2.947-2.634-4.602-1.827l-.299.146c-1.656.808-2.279,2.935-1.389,4.751l3.532,7.239Z"/>
            <path class="cls-9" d="M724.493,225.745c.887,1.817,2.782,2.297,4.436,1.489l.301-.146c1.655-.808,2.44-2.597,1.555-4.414l-3.534-7.238c-.887-1.816-2.947-2.634-4.602-1.827l-.299.146c-1.656.808-2.279,2.935-1.389,4.751l3.532,7.239Z"/>
            <path class="cls-9" d="M720.584,244.339c.887,1.817,2.782,2.297,4.436,1.489l.301-.146c1.655-.808,2.44-2.597,1.555-4.414l-3.534-7.238c-.887-1.816-2.947-2.634-4.602-1.827l-.299.146c-1.656.808-2.279,2.935-1.389,4.751l3.532,7.239Z"/>
            <path class="cls-9" d="M716.675,262.932c.887,1.817,2.782,2.297,4.436,1.489l.301-.146c1.655-.808,2.44-2.597,1.555-4.414l-3.534-7.238c-.887-1.816-2.947-2.634-4.602-1.827l-.299.146c-1.656.808-2.279,2.935-1.389,4.751l3.532,7.239Z"/>
            <path class="cls-9" d="M712.766,281.526c.887,1.817,2.782,2.297,4.436,1.489l.301-.146c1.655-.808,2.44-2.597,1.555-4.414l-3.534-7.238c-.887-1.816-2.947-2.634-4.602-1.827l-.299.146c-1.656.808-2.279,2.935-1.389,4.751l3.532,7.239Z"/>
            <path class="cls-9" d="M708.857,300.119c.887,1.817,2.782,2.297,4.436,1.489l.301-.146c1.655-.808,2.44-2.597,1.555-4.414l-3.534-7.238c-.887-1.816-2.947-2.634-4.602-1.827l-.299.146c-1.656.808-2.279,2.935-1.389,4.751l3.532,7.239Z"/>
            <path class="cls-9" d="M704.948,318.713c.887,1.817,2.782,2.297,4.436,1.489l.301-.146c1.655-.808,2.44-2.597,1.555-4.414l-3.534-7.238c-.887-1.816-2.947-2.634-4.602-1.827l-.299.146c-1.656.808-2.279,2.935-1.389,4.751l3.532,7.239Z"/>
          </g>
          <g>
            <path class="cls-9" d="M744.988,35.901c.887,1.817,2.782,2.297,4.436,1.489l.301-.146c1.655-.808,2.44-2.597,1.555-4.414l-3.534-7.238c-.887-1.816-2.947-2.634-4.602-1.827l-.299.146c-1.656.808-2.279,2.935-1.389,4.751l3.532,7.239Z"/>
            <path class="cls-9" d="M741.079,54.494c.887,1.817,2.782,2.297,4.436,1.489l.301-.146c1.655-.808,2.44-2.597,1.555-4.414l-3.534-7.238c-.887-1.816-2.947-2.634-4.602-1.827l-.299.146c-1.656.808-2.279,2.935-1.389,4.751l3.532,7.239Z"/>
            <path class="cls-9" d="M737.17,73.088c.887,1.817,2.782,2.297,4.436,1.489l.301-.146c1.655-.808,2.44-2.597,1.555-4.414l-3.534-7.238c-.887-1.816-2.947-2.634-4.602-1.827l-.299.146c-1.656.808-2.279,2.935-1.389,4.751l3.532,7.239Z"/>
            <path class="cls-9" d="M733.261,91.681c.887,1.817,2.782,2.297,4.436,1.489l.301-.146c1.655-.808,2.44-2.597,1.555-4.414l-3.534-7.238c-.887-1.816-2.947-2.634-4.602-1.827l-.299.146c-1.656.808-2.279,2.935-1.389,4.751l3.532,7.239Z"/>
            <path class="cls-9" d="M729.352,110.275c.887,1.817,2.782,2.297,4.436,1.489l.301-.146c1.655-.808,2.44-2.597,1.555-4.414l-3.534-7.238c-.887-1.816-2.947-2.634-4.602-1.827l-.299.146c-1.656.808-2.279,2.935-1.389,4.751l3.532,7.239Z"/>
            <path class="cls-9" d="M725.444,128.868c.887,1.817,2.782,2.297,4.436,1.489l.301-.146c1.655-.808,2.44-2.597,1.555-4.414l-3.534-7.238c-.887-1.816-2.947-2.634-4.602-1.827l-.299.146c-1.656.808-2.279,2.935-1.389,4.751l3.532,7.239Z"/>
            <path class="cls-9" d="M721.535,147.462c.887,1.817,2.782,2.297,4.436,1.489l.301-.146c1.655-.808,2.44-2.597,1.555-4.414l-3.534-7.238c-.887-1.816-2.947-2.634-4.602-1.827l-.299.146c-1.656.808-2.279,2.935-1.389,4.751l3.532,7.239Z"/>
            <path class="cls-9" d="M717.626,166.056c.887,1.817,2.782,2.297,4.436,1.489l.301-.146c1.655-.808,2.44-2.597,1.555-4.414l-3.534-7.238c-.887-1.816-2.947-2.634-4.602-1.827l-.299.146c-1.656.808-2.279,2.935-1.389,4.751l3.532,7.239Z"/>
            <path class="cls-9" d="M713.717,184.649c.887,1.817,2.782,2.297,4.436,1.489l.301-.146c1.655-.808,2.44-2.597,1.555-4.414l-3.534-7.238c-.887-1.816-2.947-2.634-4.602-1.827l-.299.146c-1.656.808-2.279,2.935-1.389,4.751l3.532,7.239Z"/>
            <path class="cls-9" d="M709.808,203.243c.887,1.817,2.782,2.297,4.436,1.489l.301-.146c1.655-.808,2.44-2.597,1.555-4.414l-3.534-7.238c-.887-1.816-2.947-2.634-4.602-1.827l-.299.146c-1.656.808-2.279,2.935-1.389,4.751l3.532,7.239Z"/>
            <path class="cls-9" d="M705.899,221.836c.887,1.817,2.782,2.297,4.436,1.489l.301-.146c1.655-.808,2.44-2.597,1.555-4.414l-3.534-7.238c-.887-1.816-2.947-2.634-4.602-1.827l-.299.146c-1.656.808-2.279,2.935-1.389,4.751l3.532,7.239Z"/>
            <path class="cls-9" d="M701.99,240.43c.887,1.817,2.782,2.297,4.436,1.489l.301-.146c1.655-.808,2.44-2.597,1.555-4.414l-3.534-7.238c-.887-1.816-2.947-2.634-4.602-1.827l-.299.146c-1.656.808-2.279,2.935-1.389,4.751l3.532,7.239Z"/>
            <path class="cls-9" d="M698.081,259.023c.887,1.817,2.782,2.297,4.436,1.489l.301-.146c1.655-.808,2.44-2.597,1.555-4.414l-3.534-7.238c-.887-1.816-2.947-2.634-4.602-1.827l-.299.146c-1.656.808-2.279,2.935-1.389,4.751l3.532,7.239Z"/>
            <path class="cls-9" d="M694.172,277.617c.887,1.817,2.782,2.297,4.436,1.489l.301-.146c1.655-.808,2.44-2.597,1.555-4.414l-3.534-7.238c-.887-1.816-2.947-2.634-4.602-1.827l-.299.146c-1.656.808-2.279,2.935-1.389,4.751l3.532,7.239Z"/>
            <path class="cls-9" d="M690.264,296.21c.887,1.817,2.782,2.297,4.436,1.489l.301-.146c1.655-.808,2.44-2.597,1.555-4.414l-3.534-7.238c-.887-1.816-2.947-2.634-4.602-1.827l-.299.146c-1.656.808-2.279,2.935-1.389,4.751l3.532,7.239Z"/>
            <path class="cls-9" d="M686.355,314.804c.887,1.817,2.782,2.297,4.436,1.489l.301-.146c1.655-.808,2.44-2.597,1.555-4.414l-3.534-7.238c-.887-1.816-2.947-2.634-4.602-1.827l-.299.146c-1.656.808-2.279,2.935-1.389,4.751l3.532,7.239Z"/>
          </g>
          <g>
            <path class="cls-9" d="M726.394,31.992c.887,1.817,2.782,2.297,4.436,1.489l.301-.146c1.655-.808,2.44-2.597,1.555-4.414l-3.534-7.238c-.887-1.816-2.947-2.634-4.602-1.827l-.299.146c-1.656.808-2.279,2.935-1.389,4.751l3.532,7.239Z"/>
            <path class="cls-9" d="M722.485,50.585c.887,1.817,2.782,2.297,4.436,1.489l.301-.146c1.655-.808,2.44-2.597,1.555-4.414l-3.534-7.238c-.887-1.816-2.947-2.634-4.602-1.827l-.299.146c-1.656.808-2.279,2.935-1.389,4.751l3.532,7.239Z"/>
            <path class="cls-9" d="M718.577,69.179c.887,1.817,2.782,2.297,4.436,1.489l.301-.146c1.655-.808,2.44-2.597,1.555-4.414l-3.534-7.238c-.887-1.816-2.947-2.634-4.602-1.827l-.299.146c-1.656.808-2.279,2.935-1.389,4.751l3.532,7.239Z"/>
            <path class="cls-9" d="M714.668,87.772c.887,1.817,2.782,2.297,4.436,1.489l.301-.146c1.655-.808,2.44-2.597,1.555-4.414l-3.534-7.238c-.887-1.816-2.947-2.634-4.602-1.827l-.299.146c-1.656.808-2.279,2.935-1.389,4.751l3.532,7.239Z"/>
            <path class="cls-9" d="M710.759,106.366c.887,1.817,2.782,2.297,4.436,1.489l.301-.146c1.655-.808,2.44-2.597,1.555-4.414l-3.534-7.238c-.887-1.816-2.947-2.634-4.602-1.827l-.299.146c-1.656.808-2.279,2.935-1.389,4.751l3.532,7.239Z"/>
            <path class="cls-9" d="M706.85,124.96c.887,1.817,2.782,2.297,4.436,1.489l.301-.146c1.655-.808,2.44-2.597,1.555-4.414l-3.534-7.238c-.887-1.816-2.947-2.634-4.602-1.827l-.299.146c-1.656.808-2.279,2.935-1.389,4.751l3.532,7.239Z"/>
            <path class="cls-9" d="M702.941,143.553c.887,1.817,2.782,2.297,4.436,1.489l.301-.146c1.655-.808,2.44-2.597,1.555-4.414l-3.534-7.238c-.887-1.816-2.947-2.634-4.602-1.827l-.299.146c-1.656.808-2.279,2.935-1.389,4.751l3.532,7.239Z"/>
            <path class="cls-9" d="M699.032,162.147c.887,1.817,2.782,2.297,4.436,1.489l.301-.146c1.655-.808,2.44-2.597,1.555-4.414l-3.534-7.238c-.887-1.816-2.947-2.634-4.602-1.827l-.299.146c-1.656.808-2.279,2.935-1.389,4.751l3.532,7.239Z"/>
            <path class="cls-9" d="M695.123,180.74c.887,1.817,2.782,2.297,4.436,1.489l.301-.146c1.655-.808,2.44-2.597,1.555-4.414l-3.534-7.238c-.887-1.816-2.947-2.634-4.602-1.827l-.299.146c-1.656.808-2.279,2.935-1.389,4.751l3.532,7.239Z"/>
            <path class="cls-9" d="M691.214,199.334c.887,1.817,2.782,2.297,4.436,1.489l.301-.146c1.655-.808,2.44-2.597,1.555-4.414l-3.534-7.238c-.887-1.816-2.947-2.634-4.602-1.827l-.299.146c-1.656.808-2.279,2.935-1.389,4.751l3.532,7.239Z"/>
            <path class="cls-9" d="M687.306,217.927c.887,1.817,2.782,2.297,4.436,1.489l.301-.146c1.655-.808,2.44-2.597,1.555-4.414l-3.534-7.238c-.887-1.816-2.947-2.634-4.602-1.827l-.299.146c-1.656.808-2.279,2.935-1.389,4.751l3.532,7.239Z"/>
            <path class="cls-9" d="M683.397,236.521c.887,1.817,2.782,2.297,4.436,1.489l.301-.146c1.655-.808,2.44-2.597,1.555-4.414l-3.534-7.238c-.887-1.816-2.947-2.634-4.602-1.827l-.299.146c-1.656.808-2.279,2.935-1.389,4.751l3.532,7.239Z"/>
            <path class="cls-9" d="M679.488,255.114c.887,1.817,2.782,2.297,4.436,1.489l.301-.146c1.655-.808,2.44-2.597,1.555-4.414l-3.534-7.238c-.887-1.816-2.947-2.634-4.602-1.827l-.299.146c-1.656.808-2.279,2.935-1.389,4.751l3.532,7.239Z"/>
            <path class="cls-9" d="M675.579,273.708c.887,1.817,2.782,2.297,4.436,1.489l.301-.146c1.655-.808,2.44-2.597,1.555-4.414l-3.534-7.238c-.887-1.816-2.947-2.634-4.602-1.827l-.299.146c-1.656.808-2.279,2.935-1.389,4.751l3.532,7.239Z"/>
            <path class="cls-9" d="M671.67,292.302c.887,1.817,2.782,2.297,4.436,1.489l.301-.146c1.655-.808,2.44-2.597,1.555-4.414l-3.534-7.238c-.887-1.816-2.947-2.634-4.602-1.827l-.299.146c-1.656.808-2.279,2.935-1.389,4.751l3.532,7.239Z"/>
            <path class="cls-9" d="M667.761,310.895c.887,1.817,2.782,2.297,4.436,1.489l.301-.146c1.655-.808,2.44-2.597,1.555-4.414l-3.534-7.238c-.887-1.816-2.947-2.634-4.602-1.827l-.299.146c-1.656.808-2.279,2.935-1.389,4.751l3.532,7.239Z"/>
          </g>
          <g>
            <path class="cls-9" d="M707.801,28.083c.887,1.817,2.782,2.297,4.436,1.489l.301-.146c1.655-.808,2.44-2.597,1.555-4.414l-3.534-7.238c-.887-1.816-2.947-2.634-4.602-1.827l-.299.146c-1.656.808-2.279,2.935-1.389,4.751l3.532,7.239Z"/>
            <path class="cls-9" d="M703.892,46.676c.887,1.817,2.782,2.297,4.436,1.489l.301-.146c1.655-.808,2.44-2.597,1.555-4.414l-3.534-7.238c-.887-1.816-2.947-2.634-4.602-1.827l-.299.146c-1.656.808-2.279,2.935-1.389,4.751l3.532,7.239Z"/>
            <path class="cls-9" d="M699.983,65.27c.887,1.817,2.782,2.297,4.436,1.489l.301-.146c1.655-.808,2.44-2.597,1.555-4.414l-3.534-7.238c-.887-1.816-2.947-2.634-4.602-1.827l-.299.146c-1.656.808-2.279,2.935-1.389,4.751l3.532,7.239Z"/>
            <path class="cls-9" d="M696.074,83.864c.887,1.817,2.782,2.297,4.436,1.489l.301-.146c1.655-.808,2.44-2.597,1.555-4.414l-3.534-7.238c-.887-1.816-2.947-2.634-4.602-1.827l-.299.146c-1.656.808-2.279,2.935-1.389,4.751l3.532,7.239Z"/>
            <path class="cls-9" d="M692.165,102.457c.887,1.817,2.782,2.297,4.436,1.489l.301-.146c1.655-.808,2.44-2.597,1.555-4.414l-3.534-7.238c-.887-1.816-2.947-2.634-4.602-1.827l-.299.146c-1.656.808-2.279,2.935-1.389,4.751l3.532,7.239Z"/>
            <path class="cls-9" d="M688.256,121.051c.887,1.817,2.782,2.297,4.436,1.489l.301-.146c1.655-.808,2.44-2.597,1.555-4.414l-3.534-7.238c-.887-1.816-2.947-2.634-4.602-1.827l-.299.146c-1.656.808-2.279,2.935-1.389,4.751l3.532,7.239Z"/>
            <path class="cls-9" d="M684.348,139.644c.887,1.817,2.782,2.297,4.436,1.489l.301-.146c1.655-.808,2.44-2.597,1.555-4.414l-3.534-7.238c-.887-1.816-2.947-2.634-4.602-1.827l-.299.146c-1.656.808-2.279,2.935-1.389,4.751l3.532,7.239Z"/>
            <path class="cls-9" d="M680.439,158.238c.887,1.817,2.782,2.297,4.436,1.489l.301-.146c1.655-.808,2.44-2.597,1.555-4.414l-3.534-7.238c-.887-1.816-2.947-2.634-4.602-1.827l-.299.146c-1.656.808-2.279,2.935-1.389,4.751l3.532,7.239Z"/>
            <path class="cls-9" d="M676.53,176.831c.887,1.817,2.782,2.297,4.436,1.489l.301-.146c1.655-.808,2.44-2.597,1.555-4.414l-3.534-7.238c-.887-1.816-2.947-2.634-4.602-1.827l-.299.146c-1.656.808-2.279,2.935-1.389,4.751l3.532,7.239Z"/>
            <path class="cls-9" d="M672.621,195.425c.887,1.817,2.782,2.297,4.436,1.489l.301-.146c1.655-.808,2.44-2.597,1.555-4.414l-3.534-7.238c-.887-1.816-2.947-2.634-4.602-1.827l-.299.146c-1.656.808-2.279,2.935-1.389,4.751l3.532,7.239Z"/>
            <path class="cls-9" d="M668.712,214.018c.887,1.817,2.782,2.297,4.436,1.489l.301-.146c1.655-.808,2.44-2.597,1.555-4.414l-3.534-7.238c-.887-1.816-2.947-2.634-4.602-1.827l-.299.146c-1.656.808-2.279,2.935-1.389,4.751l3.532,7.239Z"/>
            <path class="cls-9" d="M664.803,232.612c.887,1.817,2.782,2.297,4.436,1.489l.301-.146c1.655-.808,2.44-2.597,1.555-4.414l-3.534-7.238c-.887-1.816-2.947-2.634-4.602-1.827l-.299.146c-1.656.808-2.279,2.935-1.389,4.751l3.532,7.239Z"/>
            <path class="cls-9" d="M660.894,251.206c.887,1.817,2.782,2.297,4.436,1.489l.301-.146c1.655-.808,2.44-2.597,1.555-4.414l-3.534-7.238c-.887-1.816-2.947-2.634-4.602-1.827l-.299.146c-1.656.808-2.279,2.935-1.389,4.751l3.532,7.239Z"/>
            <path class="cls-9" d="M656.985,269.799c.887,1.817,2.782,2.297,4.436,1.489l.301-.146c1.655-.808,2.44-2.597,1.555-4.414l-3.534-7.238c-.887-1.816-2.947-2.634-4.602-1.827l-.299.146c-1.656.808-2.279,2.935-1.389,4.751l3.532,7.239Z"/>
            <path class="cls-9" d="M653.076,288.393c.887,1.817,2.782,2.297,4.436,1.489l.301-.146c1.655-.808,2.44-2.597,1.555-4.414l-3.534-7.238c-.887-1.816-2.947-2.634-4.602-1.827l-.299.146c-1.656.808-2.279,2.935-1.389,4.751l3.532,7.239Z"/>
            <path class="cls-9" d="M649.168,306.986c.887,1.817,2.782,2.297,4.436,1.489l.301-.146c1.655-.808,2.44-2.597,1.555-4.414l-3.534-7.238c-.887-1.816-2.947-2.634-4.602-1.827l-.299.146c-1.656.808-2.279,2.935-1.389,4.751l3.532,7.239Z"/>
          </g>
          <g>
            <path class="cls-9" d="M689.207,24.174c.887,1.817,2.782,2.297,4.436,1.489l.301-.146c1.655-.808,2.44-2.597,1.555-4.414l-3.534-7.238c-.887-1.816-2.947-2.634-4.602-1.827l-.299.146c-1.656.808-2.279,2.935-1.389,4.751l3.532,7.239Z"/>
            <path class="cls-9" d="M685.298,42.768c.887,1.817,2.782,2.297,4.436,1.489l.301-.146c1.655-.808,2.44-2.597,1.555-4.414l-3.534-7.238c-.887-1.816-2.947-2.634-4.602-1.827l-.299.146c-1.656.808-2.279,2.935-1.389,4.751l3.532,7.239Z"/>
            <path class="cls-9" d="M681.389,61.361c.887,1.817,2.782,2.297,4.436,1.489l.301-.146c1.655-.808,2.44-2.597,1.555-4.414l-3.534-7.238c-.887-1.816-2.947-2.634-4.602-1.827l-.299.146c-1.656.808-2.279,2.935-1.389,4.751l3.532,7.239Z"/>
            <path class="cls-9" d="M677.481,79.955c.887,1.817,2.782,2.297,4.436,1.489l.301-.146c1.655-.808,2.44-2.597,1.555-4.414l-3.534-7.238c-.887-1.816-2.947-2.634-4.602-1.827l-.299.146c-1.656.808-2.279,2.935-1.389,4.751l3.532,7.239Z"/>
            <path class="cls-9" d="M673.572,98.548c.887,1.817,2.782,2.297,4.436,1.489l.301-.146c1.655-.808,2.44-2.597,1.555-4.414l-3.534-7.238c-.887-1.816-2.947-2.634-4.602-1.827l-.299.146c-1.656.808-2.279,2.935-1.389,4.751l3.532,7.239Z"/>
            <path class="cls-9" d="M669.663,117.142c.887,1.817,2.782,2.297,4.436,1.489l.301-.146c1.655-.808,2.44-2.597,1.555-4.414l-3.534-7.238c-.887-1.816-2.947-2.634-4.602-1.827l-.299.146c-1.656.808-2.279,2.935-1.389,4.751l3.532,7.239Z"/>
            <path class="cls-9" d="M665.754,135.735c.887,1.817,2.782,2.297,4.436,1.489l.301-.146c1.655-.808,2.44-2.597,1.555-4.414l-3.534-7.238c-.887-1.816-2.947-2.634-4.602-1.827l-.299.146c-1.656.808-2.279,2.935-1.389,4.751l3.532,7.239Z"/>
            <path class="cls-9" d="M661.845,154.329c.887,1.817,2.782,2.297,4.436,1.489l.301-.146c1.655-.808,2.44-2.597,1.555-4.414l-3.534-7.238c-.887-1.816-2.947-2.634-4.602-1.827l-.299.146c-1.656.808-2.279,2.935-1.389,4.751l3.532,7.239Z"/>
            <path class="cls-9" d="M657.936,172.922c.887,1.817,2.782,2.297,4.436,1.489l.301-.146c1.655-.808,2.44-2.597,1.555-4.414l-3.534-7.238c-.887-1.816-2.947-2.634-4.602-1.827l-.299.146c-1.656.808-2.279,2.935-1.389,4.751l3.532,7.239Z"/>
            <path class="cls-9" d="M654.027,191.516c.887,1.817,2.782,2.297,4.436,1.489l.301-.146c1.655-.808,2.44-2.597,1.555-4.414l-3.534-7.238c-.887-1.816-2.947-2.634-4.602-1.827l-.299.146c-1.656.808-2.279,2.935-1.389,4.751l3.532,7.239Z"/>
            <path class="cls-9" d="M650.118,210.11c.887,1.817,2.782,2.297,4.436,1.489l.301-.146c1.655-.808,2.44-2.597,1.555-4.414l-3.534-7.238c-.887-1.816-2.947-2.634-4.602-1.827l-.299.146c-1.656.808-2.279,2.935-1.389,4.751l3.532,7.239Z"/>
            <path class="cls-9" d="M646.21,228.703c.887,1.817,2.782,2.297,4.436,1.489l.301-.146c1.655-.808,2.44-2.597,1.555-4.414l-3.534-7.238c-.887-1.816-2.947-2.634-4.602-1.827l-.299.146c-1.656.808-2.279,2.935-1.389,4.751l3.532,7.239Z"/>
            <path class="cls-9" d="M642.301,247.297c.887,1.817,2.782,2.297,4.436,1.489l.301-.146c1.655-.808,2.44-2.597,1.555-4.414l-3.534-7.238c-.887-1.816-2.947-2.634-4.602-1.827l-.299.146c-1.656.808-2.279,2.935-1.389,4.751l3.532,7.239Z"/>
            <path class="cls-9" d="M638.392,265.89c.887,1.817,2.782,2.297,4.436,1.489l.301-.146c1.655-.808,2.44-2.597,1.555-4.414l-3.534-7.238c-.887-1.816-2.947-2.634-4.602-1.827l-.299.146c-1.656.808-2.279,2.935-1.389,4.751l3.532,7.239Z"/>
            <path class="cls-9" d="M634.483,284.484c.887,1.817,2.782,2.297,4.436,1.489l.301-.146c1.655-.808,2.44-2.597,1.555-4.414l-3.534-7.238c-.887-1.816-2.947-2.634-4.602-1.827l-.299.146c-1.656.808-2.279,2.935-1.389,4.751l3.532,7.239Z"/>
            <path class="cls-9" d="M630.574,303.077c.887,1.817,2.782,2.297,4.436,1.489l.301-.146c1.655-.808,2.44-2.597,1.555-4.414l-3.534-7.238c-.887-1.816-2.947-2.634-4.602-1.827l-.299.146c-1.656.808-2.279,2.935-1.389,4.751l3.532,7.239Z"/>
          </g>
          <g>
            <path class="cls-9" d="M670.614,20.265c.887,1.817,2.782,2.297,4.436,1.489l.301-.146c1.655-.808,2.44-2.597,1.555-4.414l-3.534-7.238c-.887-1.816-2.947-2.634-4.602-1.827l-.299.146c-1.656.808-2.279,2.935-1.389,4.751l3.532,7.239Z"/>
            <path class="cls-9" d="M666.705,38.859c.887,1.817,2.782,2.297,4.436,1.489l.301-.146c1.655-.808,2.44-2.597,1.555-4.414l-3.534-7.238c-.887-1.816-2.947-2.634-4.602-1.827l-.299.146c-1.656.808-2.279,2.935-1.389,4.751l3.532,7.239Z"/>
            <path class="cls-9" d="M662.796,57.452c.887,1.817,2.782,2.297,4.436,1.489l.301-.146c1.655-.808,2.44-2.597,1.555-4.414l-3.534-7.238c-.887-1.816-2.947-2.634-4.602-1.827l-.299.146c-1.656.808-2.279,2.935-1.389,4.751l3.532,7.239Z"/>
            <path class="cls-9" d="M658.887,76.046c.887,1.817,2.782,2.297,4.436,1.489l.301-.146c1.655-.808,2.44-2.597,1.555-4.414l-3.534-7.238c-.887-1.816-2.947-2.634-4.602-1.827l-.299.146c-1.656.808-2.279,2.935-1.389,4.751l3.532,7.239Z"/>
            <path class="cls-9" d="M654.978,94.639c.887,1.817,2.782,2.297,4.436,1.489l.301-.146c1.655-.808,2.44-2.597,1.555-4.414l-3.534-7.238c-.887-1.816-2.947-2.634-4.602-1.827l-.299.146c-1.656.808-2.279,2.935-1.389,4.751l3.532,7.239Z"/>
            <path class="cls-9" d="M651.069,113.233c.887,1.817,2.782,2.297,4.436,1.489l.301-.146c1.655-.808,2.44-2.597,1.555-4.414l-3.534-7.238c-.887-1.816-2.947-2.634-4.602-1.827l-.299.146c-1.656.808-2.279,2.935-1.389,4.751l3.532,7.239Z"/>
            <path class="cls-9" d="M647.16,131.826c.887,1.817,2.782,2.297,4.436,1.489l.301-.146c1.655-.808,2.44-2.597,1.555-4.414l-3.534-7.238c-.887-1.816-2.947-2.634-4.602-1.827l-.299.146c-1.656.808-2.279,2.935-1.389,4.751l3.532,7.239Z"/>
            <path class="cls-9" d="M643.251,150.42c.887,1.817,2.782,2.297,4.436,1.489l.301-.146c1.655-.808,2.44-2.597,1.555-4.414l-3.534-7.238c-.887-1.816-2.947-2.634-4.602-1.827l-.299.146c-1.656.808-2.279,2.935-1.389,4.751l3.532,7.239Z"/>
            <path class="cls-9" d="M639.343,169.014c.887,1.817,2.782,2.297,4.436,1.489l.301-.146c1.655-.808,2.44-2.597,1.555-4.414l-3.534-7.238c-.887-1.816-2.947-2.634-4.602-1.827l-.299.146c-1.656.808-2.279,2.935-1.389,4.751l3.532,7.239Z"/>
            <path class="cls-9" d="M635.434,187.607c.887,1.817,2.782,2.297,4.436,1.489l.301-.146c1.655-.808,2.44-2.597,1.555-4.414l-3.534-7.238c-.887-1.816-2.947-2.634-4.602-1.827l-.299.146c-1.656.808-2.279,2.935-1.389,4.751l3.532,7.239Z"/>
            <path class="cls-9" d="M631.525,206.201c.887,1.817,2.782,2.297,4.436,1.489l.301-.146c1.655-.808,2.44-2.597,1.555-4.414l-3.534-7.238c-.887-1.816-2.947-2.634-4.602-1.827l-.299.146c-1.656.808-2.279,2.935-1.389,4.751l3.532,7.239Z"/>
            <path class="cls-9" d="M627.616,224.794c.887,1.817,2.782,2.297,4.436,1.489l.301-.146c1.655-.808,2.44-2.597,1.555-4.414l-3.534-7.238c-.887-1.816-2.947-2.634-4.602-1.827l-.299.146c-1.656.808-2.279,2.935-1.389,4.751l3.532,7.239Z"/>
            <path class="cls-9" d="M623.707,243.388c.887,1.817,2.782,2.297,4.436,1.489l.301-.146c1.655-.808,2.44-2.597,1.555-4.414l-3.534-7.238c-.887-1.816-2.947-2.634-4.602-1.827l-.299.146c-1.656.808-2.279,2.935-1.389,4.751l3.532,7.239Z"/>
            <path class="cls-9" d="M619.798,261.981c.887,1.817,2.782,2.297,4.436,1.489l.301-.146c1.655-.808,2.44-2.597,1.555-4.414l-3.534-7.238c-.887-1.816-2.947-2.634-4.602-1.827l-.299.146c-1.656.808-2.279,2.935-1.389,4.751l3.532,7.239Z"/>
            <path class="cls-9" d="M615.889,280.575c.887,1.817,2.782,2.297,4.436,1.489l.301-.146c1.655-.808,2.44-2.597,1.555-4.414l-3.534-7.238c-.887-1.816-2.947-2.634-4.602-1.827l-.299.146c-1.656.808-2.279,2.935-1.389,4.751l3.532,7.239Z"/>
            <path class="cls-9" d="M611.98,299.169c.887,1.817,2.782,2.297,4.436,1.489l.301-.146c1.655-.808,2.44-2.597,1.555-4.414l-3.534-7.238c-.887-1.816-2.947-2.634-4.602-1.827l-.299.146c-1.656.808-2.279,2.935-1.389,4.751l3.532,7.239Z"/>
          </g>
          <g>
            <path class="cls-9" d="M652.02,16.356c.887,1.817,2.782,2.297,4.436,1.489l.301-.146c1.655-.808,2.44-2.597,1.555-4.414l-3.534-7.238c-.887-1.816-2.947-2.634-4.602-1.827l-.299.146c-1.656.808-2.279,2.935-1.389,4.751l3.532,7.239Z"/>
            <path class="cls-9" d="M648.111,34.95c.887,1.817,2.782,2.297,4.436,1.489l.301-.146c1.655-.808,2.44-2.597,1.555-4.414l-3.534-7.238c-.887-1.816-2.947-2.634-4.602-1.827l-.299.146c-1.656.808-2.279,2.935-1.389,4.751l3.532,7.239Z"/>
            <path class="cls-9" d="M644.202,53.543c.887,1.817,2.782,2.297,4.436,1.489l.301-.146c1.655-.808,2.44-2.597,1.555-4.414l-3.534-7.238c-.887-1.816-2.947-2.634-4.602-1.827l-.299.146c-1.656.808-2.279,2.935-1.389,4.751l3.532,7.239Z"/>
            <path class="cls-9" d="M640.293,72.137c.887,1.817,2.782,2.297,4.436,1.489l.301-.146c1.655-.808,2.44-2.597,1.555-4.414l-3.534-7.238c-.887-1.816-2.947-2.634-4.602-1.827l-.299.146c-1.656.808-2.279,2.935-1.389,4.751l3.532,7.239Z"/>
            <path class="cls-9" d="M636.385,90.73c.887,1.817,2.782,2.297,4.436,1.489l.301-.146c1.655-.808,2.44-2.597,1.555-4.414l-3.534-7.238c-.887-1.816-2.947-2.634-4.602-1.827l-.299.146c-1.656.808-2.279,2.935-1.389,4.751l3.532,7.239Z"/>
            <path class="cls-9" d="M632.476,109.324c.887,1.817,2.782,2.297,4.436,1.489l.301-.146c1.655-.808,2.44-2.597,1.555-4.414l-3.534-7.238c-.887-1.816-2.947-2.634-4.602-1.827l-.299.146c-1.656.808-2.279,2.935-1.389,4.751l3.532,7.239Z"/>
            <path class="cls-9" d="M628.567,127.918c.887,1.817,2.782,2.297,4.436,1.489l.301-.146c1.655-.808,2.44-2.597,1.555-4.414l-3.534-7.238c-.887-1.816-2.947-2.634-4.602-1.827l-.299.146c-1.656.808-2.279,2.935-1.389,4.751l3.532,7.239Z"/>
            <path class="cls-9" d="M624.658,146.511c.887,1.817,2.782,2.297,4.436,1.489l.301-.146c1.655-.808,2.44-2.597,1.555-4.414l-3.534-7.238c-.887-1.816-2.947-2.634-4.602-1.827l-.299.146c-1.656.808-2.279,2.935-1.389,4.751l3.532,7.239Z"/>
            <path class="cls-9" d="M620.749,165.105c.887,1.817,2.782,2.297,4.436,1.489l.301-.146c1.655-.808,2.44-2.597,1.555-4.414l-3.534-7.238c-.887-1.816-2.947-2.634-4.602-1.827l-.299.146c-1.656.808-2.279,2.935-1.389,4.751l3.532,7.239Z"/>
            <path class="cls-9" d="M616.84,183.698c.887,1.817,2.782,2.297,4.436,1.489l.301-.146c1.655-.808,2.44-2.597,1.555-4.414l-3.534-7.238c-.887-1.816-2.947-2.634-4.602-1.827l-.299.146c-1.656.808-2.279,2.935-1.389,4.751l3.532,7.239Z"/>
            <path class="cls-9" d="M612.931,202.292c.887,1.817,2.782,2.297,4.436,1.489l.301-.146c1.655-.808,2.44-2.597,1.555-4.414l-3.534-7.238c-.887-1.816-2.947-2.634-4.602-1.827l-.299.146c-1.656.808-2.279,2.935-1.389,4.751l3.532,7.239Z"/>
            <path class="cls-9" d="M609.022,220.885c.887,1.817,2.782,2.297,4.436,1.489l.301-.146c1.655-.808,2.44-2.597,1.555-4.414l-3.534-7.238c-.887-1.816-2.947-2.634-4.602-1.827l-.299.146c-1.656.808-2.279,2.935-1.389,4.751l3.532,7.239Z"/>
            <path class="cls-9" d="M605.114,239.479c.887,1.817,2.782,2.297,4.436,1.489l.301-.146c1.655-.808,2.44-2.597,1.555-4.414l-3.534-7.238c-.887-1.816-2.947-2.634-4.602-1.827l-.299.146c-1.656.808-2.279,2.935-1.389,4.751l3.532,7.239Z"/>
            <path class="cls-9" d="M601.205,258.073c.887,1.817,2.782,2.297,4.436,1.489l.301-.146c1.655-.808,2.44-2.597,1.555-4.414l-3.534-7.238c-.887-1.816-2.947-2.634-4.602-1.827l-.299.146c-1.656.808-2.279,2.935-1.389,4.751l3.532,7.239Z"/>
            <path class="cls-9" d="M597.296,276.666c.887,1.817,2.782,2.297,4.436,1.489l.301-.146c1.655-.808,2.44-2.597,1.555-4.414l-3.534-7.238c-.887-1.816-2.947-2.634-4.602-1.827l-.299.146c-1.656.808-2.279,2.935-1.389,4.751l3.532,7.239Z"/>
            <path class="cls-9" d="M593.387,295.26c.887,1.817,2.782,2.297,4.436,1.489l.301-.146c1.655-.808,2.44-2.597,1.555-4.414l-3.534-7.238c-.887-1.816-2.947-2.634-4.602-1.827l-.299.146c-1.656.808-2.279,2.935-1.389,4.751l3.532,7.239Z"/>
          </g>
          <g>
            <path class="cls-9" d="M633.427,12.447c.887,1.817,2.782,2.297,4.436,1.489l.301-.146c1.655-.808,2.44-2.597,1.555-4.414l-3.534-7.238c-.887-1.816-2.947-2.634-4.602-1.827l-.299.146c-1.656.808-2.279,2.935-1.389,4.751l3.532,7.239Z"/>
            <path class="cls-9" d="M629.518,31.041c.887,1.817,2.782,2.297,4.436,1.489l.301-.146c1.655-.808,2.44-2.597,1.555-4.414l-3.534-7.238c-.887-1.816-2.947-2.634-4.602-1.827l-.299.146c-1.656.808-2.279,2.935-1.389,4.751l3.532,7.239Z"/>
            <path class="cls-9" d="M625.609,49.634c.887,1.817,2.782,2.297,4.436,1.489l.301-.146c1.655-.808,2.44-2.597,1.555-4.414l-3.534-7.238c-.887-1.816-2.947-2.634-4.602-1.827l-.299.146c-1.656.808-2.279,2.935-1.389,4.751l3.532,7.239Z"/>
            <path class="cls-9" d="M621.7,68.228c.887,1.817,2.782,2.297,4.436,1.489l.301-.146c1.655-.808,2.44-2.597,1.555-4.414l-3.534-7.238c-.887-1.816-2.947-2.634-4.602-1.827l-.299.146c-1.656.808-2.279,2.935-1.389,4.751l3.532,7.239Z"/>
            <path class="cls-9" d="M617.791,86.822c.887,1.817,2.782,2.297,4.436,1.489l.301-.146c1.655-.808,2.44-2.597,1.555-4.414l-3.534-7.238c-.887-1.816-2.947-2.634-4.602-1.827l-.299.146c-1.656.808-2.279,2.935-1.389,4.751l3.532,7.239Z"/>
            <path class="cls-9" d="M613.882,105.415c.887,1.817,2.782,2.297,4.436,1.489l.301-.146c1.655-.808,2.44-2.597,1.555-4.414l-3.534-7.238c-.887-1.816-2.947-2.634-4.602-1.827l-.299.146c-1.656.808-2.279,2.935-1.389,4.751l3.532,7.239Z"/>
            <path class="cls-9" d="M609.973,124.009c.887,1.817,2.782,2.297,4.436,1.489l.301-.146c1.655-.808,2.44-2.597,1.555-4.414l-3.534-7.238c-.887-1.816-2.947-2.634-4.602-1.827l-.299.146c-1.656.808-2.279,2.935-1.389,4.751l3.532,7.239Z"/>
            <path class="cls-9" d="M606.064,142.602c.887,1.817,2.782,2.297,4.436,1.489l.301-.146c1.655-.808,2.44-2.597,1.555-4.414l-3.534-7.238c-.887-1.816-2.947-2.634-4.602-1.827l-.299.146c-1.656.808-2.279,2.935-1.389,4.751l3.532,7.239Z"/>
            <path class="cls-9" d="M602.155,161.196c.887,1.817,2.782,2.297,4.436,1.489l.301-.146c1.655-.808,2.44-2.597,1.555-4.414l-3.534-7.238c-.887-1.816-2.947-2.634-4.602-1.827l-.299.146c-1.656.808-2.279,2.935-1.389,4.751l3.532,7.239Z"/>
            <path class="cls-9" d="M598.247,179.789c.887,1.817,2.782,2.297,4.436,1.489l.301-.146c1.655-.808,2.44-2.597,1.555-4.414l-3.534-7.238c-.887-1.816-2.947-2.634-4.602-1.827l-.299.146c-1.656.808-2.279,2.935-1.389,4.751l3.532,7.239Z"/>
            <path class="cls-9" d="M594.338,198.383c.887,1.817,2.782,2.297,4.436,1.489l.301-.146c1.655-.808,2.44-2.597,1.555-4.414l-3.534-7.238c-.887-1.816-2.947-2.634-4.602-1.827l-.299.146c-1.656.808-2.279,2.935-1.389,4.751l3.532,7.239Z"/>
            <path class="cls-9" d="M590.429,216.977c.887,1.817,2.782,2.297,4.436,1.489l.301-.146c1.655-.808,2.44-2.597,1.555-4.414l-3.534-7.238c-.887-1.816-2.947-2.634-4.602-1.827l-.299.146c-1.656.808-2.279,2.935-1.389,4.751l3.532,7.239Z"/>
            <path class="cls-9" d="M586.52,235.57c.887,1.817,2.782,2.297,4.436,1.489l.301-.146c1.655-.808,2.44-2.597,1.555-4.414l-3.534-7.238c-.887-1.816-2.947-2.634-4.602-1.827l-.299.146c-1.656.808-2.279,2.935-1.389,4.751l3.532,7.239Z"/>
            <path class="cls-9" d="M582.611,254.164c.887,1.817,2.782,2.297,4.436,1.489l.301-.146c1.655-.808,2.44-2.597,1.555-4.414l-3.534-7.238c-.887-1.816-2.947-2.634-4.602-1.827l-.299.146c-1.656.808-2.279,2.935-1.389,4.751l3.532,7.239Z"/>
            <path class="cls-9" d="M578.702,272.757c.887,1.817,2.782,2.297,4.436,1.489l.301-.146c1.655-.808,2.44-2.597,1.555-4.414l-3.534-7.238c-.887-1.816-2.947-2.634-4.602-1.827l-.299.146c-1.656.808-2.279,2.935-1.389,4.751l3.532,7.239Z"/>
            <path class="cls-9" d="M574.793,291.351c.887,1.817,2.782,2.297,4.436,1.489l.301-.146c1.655-.808,2.44-2.597,1.555-4.414l-3.534-7.238c-.887-1.816-2.947-2.634-4.602-1.827l-.299.146c-1.656.808-2.279,2.935-1.389,4.751l3.532,7.239Z"/>
          </g>
          <g>
            <path class="cls-9" d="M785.106,47.757c-1.818.887-2.297,2.782-1.491,4.435l.147.301c.808,1.655,2.597,2.44,4.414,1.555l7.237-3.534c1.817-.886,2.635-2.947,1.828-4.601l-.147-.299c-.807-1.656-2.934-2.278-4.75-1.389l-7.238,3.532Z"/>
            <path class="cls-9" d="M766.512,43.848c-1.818.887-2.297,2.782-1.491,4.435l.147.301c.808,1.655,2.597,2.44,4.414,1.555l7.237-3.534c1.817-.886,2.635-2.947,1.828-4.601l-.147-.299c-.807-1.656-2.934-2.278-4.75-1.389l-7.238,3.532Z"/>
            <path class="cls-9" d="M747.919,39.94c-1.818.887-2.297,2.782-1.491,4.435l.147.301c.808,1.655,2.597,2.44,4.414,1.555l7.237-3.534c1.817-.886,2.635-2.947,1.828-4.601l-.147-.299c-.807-1.656-2.934-2.278-4.75-1.389l-7.238,3.532Z"/>
            <path class="cls-9" d="M729.325,36.031c-1.818.887-2.297,2.782-1.491,4.435l.147.301c.808,1.655,2.597,2.44,4.414,1.555l7.237-3.534c1.817-.886,2.635-2.947,1.828-4.601l-.147-.299c-.807-1.656-2.934-2.278-4.75-1.389l-7.238,3.532Z"/>
            <path class="cls-9" d="M710.732,32.122c-1.818.887-2.297,2.782-1.491,4.435l.147.301c.808,1.655,2.597,2.44,4.414,1.555l7.237-3.534c1.817-.886,2.635-2.947,1.828-4.601l-.147-.299c-.807-1.656-2.934-2.278-4.75-1.389l-7.238,3.532Z"/>
            <path class="cls-9" d="M692.138,28.213c-1.818.887-2.297,2.782-1.491,4.435l.147.301c.808,1.655,2.597,2.44,4.414,1.555l7.237-3.534c1.817-.886,2.635-2.947,1.828-4.601l-.147-.299c-.807-1.656-2.934-2.278-4.75-1.389l-7.238,3.532Z"/>
            <path class="cls-9" d="M673.545,24.304c-1.818.887-2.297,2.782-1.491,4.435l.147.301c.808,1.655,2.597,2.44,4.414,1.555l7.237-3.534c1.817-.886,2.635-2.947,1.828-4.601l-.147-.299c-.807-1.656-2.934-2.278-4.75-1.389l-7.238,3.532Z"/>
            <path class="cls-9" d="M654.951,20.395c-1.818.887-2.297,2.782-1.491,4.435l.147.301c.808,1.655,2.597,2.44,4.414,1.555l7.237-3.534c1.817-.886,2.635-2.947,1.828-4.601l-.147-.299c-.807-1.656-2.934-2.278-4.75-1.389l-7.238,3.532Z"/>
            <path class="cls-9" d="M636.357,16.486c-1.818.887-2.297,2.782-1.491,4.435l.147.301c.808,1.655,2.597,2.44,4.414,1.555l7.237-3.534c1.817-.886,2.635-2.947,1.828-4.601l-.147-.299c-.807-1.656-2.934-2.278-4.75-1.389l-7.238,3.532Z"/>
          </g>
          <g>
            <path class="cls-9" d="M781.197,66.351c-1.818.887-2.297,2.782-1.491,4.435l.147.301c.808,1.655,2.597,2.44,4.414,1.555l7.237-3.534c1.817-.886,2.635-2.947,1.828-4.601l-.147-.299c-.807-1.656-2.934-2.278-4.75-1.389l-7.238,3.532Z"/>
            <path class="cls-9" d="M762.604,62.442c-1.818.887-2.297,2.782-1.491,4.435l.147.301c.808,1.655,2.597,2.44,4.414,1.555l7.237-3.534c1.817-.886,2.635-2.947,1.828-4.601l-.147-.299c-.807-1.656-2.934-2.278-4.75-1.389l-7.238,3.532Z"/>
            <path class="cls-9" d="M744.01,58.533c-1.818.887-2.297,2.782-1.491,4.435l.147.301c.808,1.655,2.597,2.44,4.414,1.555l7.237-3.534c1.817-.886,2.635-2.947,1.828-4.601l-.147-.299c-.807-1.656-2.934-2.278-4.75-1.389l-7.238,3.532Z"/>
            <path class="cls-9" d="M725.416,54.624c-1.818.887-2.297,2.782-1.491,4.435l.147.301c.808,1.655,2.597,2.44,4.414,1.555l7.237-3.534c1.817-.886,2.635-2.947,1.828-4.601l-.147-.299c-.807-1.656-2.934-2.278-4.75-1.389l-7.238,3.532Z"/>
            <path class="cls-9" d="M706.823,50.715c-1.818.887-2.297,2.782-1.491,4.435l.147.301c.808,1.655,2.597,2.44,4.414,1.555l7.237-3.534c1.817-.886,2.635-2.947,1.828-4.601l-.147-.299c-.807-1.656-2.934-2.278-4.75-1.389l-7.238,3.532Z"/>
            <path class="cls-9" d="M688.229,46.807c-1.818.887-2.297,2.782-1.491,4.435l.147.301c.808,1.655,2.597,2.44,4.414,1.555l7.237-3.534c1.817-.886,2.635-2.947,1.828-4.601l-.147-.299c-.807-1.656-2.934-2.278-4.75-1.389l-7.238,3.532Z"/>
            <path class="cls-9" d="M669.636,42.898c-1.818.887-2.297,2.782-1.491,4.435l.147.301c.808,1.655,2.597,2.44,4.414,1.555l7.237-3.534c1.817-.886,2.635-2.947,1.828-4.601l-.147-.299c-.807-1.656-2.934-2.278-4.75-1.389l-7.238,3.532Z"/>
            <path class="cls-9" d="M651.042,38.989c-1.818.887-2.297,2.782-1.491,4.435l.147.301c.808,1.655,2.597,2.44,4.414,1.555l7.237-3.534c1.817-.886,2.635-2.947,1.828-4.601l-.147-.299c-.807-1.656-2.934-2.278-4.75-1.389l-7.238,3.532Z"/>
            <path class="cls-9" d="M632.449,35.08c-1.818.887-2.297,2.782-1.491,4.435l.147.301c.808,1.655,2.597,2.44,4.414,1.555l7.237-3.534c1.817-.886,2.635-2.947,1.828-4.601l-.147-.299c-.807-1.656-2.934-2.278-4.75-1.389l-7.238,3.532Z"/>
          </g>
          <g>
            <path class="cls-9" d="M777.288,84.944c-1.818.887-2.297,2.782-1.491,4.435l.147.301c.808,1.655,2.597,2.44,4.414,1.555l7.237-3.534c1.817-.886,2.635-2.947,1.828-4.601l-.147-.299c-.807-1.656-2.934-2.278-4.75-1.389l-7.238,3.532Z"/>
            <path class="cls-9" d="M758.695,81.036c-1.818.887-2.297,2.782-1.491,4.435l.147.301c.808,1.655,2.597,2.44,4.414,1.555l7.237-3.534c1.817-.886,2.635-2.947,1.828-4.601l-.147-.299c-.807-1.656-2.934-2.278-4.75-1.389l-7.238,3.532Z"/>
            <path class="cls-9" d="M740.101,77.127c-1.818.887-2.297,2.782-1.491,4.435l.147.301c.808,1.655,2.597,2.44,4.414,1.555l7.237-3.534c1.817-.886,2.635-2.947,1.828-4.601l-.147-.299c-.807-1.656-2.934-2.278-4.75-1.389l-7.238,3.532Z"/>
            <path class="cls-9" d="M721.508,73.218c-1.818.887-2.297,2.782-1.491,4.435l.147.301c.808,1.655,2.597,2.44,4.414,1.555l7.237-3.534c1.817-.886,2.635-2.947,1.828-4.601l-.147-.299c-.807-1.656-2.934-2.278-4.75-1.389l-7.238,3.532Z"/>
            <path class="cls-9" d="M702.914,69.309c-1.818.887-2.297,2.782-1.491,4.435l.147.301c.808,1.655,2.597,2.44,4.414,1.555l7.237-3.534c1.817-.886,2.635-2.947,1.828-4.601l-.147-.299c-.807-1.656-2.934-2.278-4.75-1.389l-7.238,3.532Z"/>
            <path class="cls-9" d="M684.32,65.4c-1.818.887-2.297,2.782-1.491,4.435l.147.301c.808,1.655,2.597,2.44,4.414,1.555l7.237-3.534c1.817-.886,2.635-2.947,1.828-4.601l-.147-.299c-.807-1.656-2.934-2.278-4.75-1.389l-7.238,3.532Z"/>
            <path class="cls-9" d="M665.727,61.491c-1.818.887-2.297,2.782-1.491,4.435l.147.301c.808,1.655,2.597,2.44,4.414,1.555l7.237-3.534c1.817-.886,2.635-2.947,1.828-4.601l-.147-.299c-.807-1.656-2.934-2.278-4.75-1.389l-7.238,3.532Z"/>
            <path class="cls-9" d="M647.133,57.582c-1.818.887-2.297,2.782-1.491,4.435l.147.301c.808,1.655,2.597,2.44,4.414,1.555l7.237-3.534c1.817-.886,2.635-2.947,1.828-4.601l-.147-.299c-.807-1.656-2.934-2.278-4.75-1.389l-7.238,3.532Z"/>
            <path class="cls-9" d="M628.54,53.673c-1.818.887-2.297,2.782-1.491,4.435l.147.301c.808,1.655,2.597,2.44,4.414,1.555l7.237-3.534c1.817-.886,2.635-2.947,1.828-4.601l-.147-.299c-.807-1.656-2.934-2.278-4.75-1.389l-7.238,3.532Z"/>
          </g>
          <g>
            <path class="cls-9" d="M773.379,103.538c-1.818.887-2.297,2.782-1.491,4.435l.147.301c.808,1.655,2.597,2.44,4.414,1.555l7.237-3.534c1.817-.886,2.635-2.947,1.828-4.601l-.147-.299c-.807-1.656-2.934-2.278-4.75-1.389l-7.238,3.532Z"/>
            <path class="cls-9" d="M754.786,99.629c-1.818.887-2.297,2.782-1.491,4.435l.147.301c.808,1.655,2.597,2.44,4.414,1.555l7.237-3.534c1.817-.886,2.635-2.947,1.828-4.601l-.147-.299c-.807-1.656-2.934-2.278-4.75-1.389l-7.238,3.532Z"/>
            <path class="cls-9" d="M736.192,95.72c-1.818.887-2.297,2.782-1.491,4.435l.147.301c.808,1.655,2.597,2.44,4.414,1.555l7.237-3.534c1.817-.886,2.635-2.947,1.828-4.601l-.147-.299c-.807-1.656-2.934-2.278-4.75-1.389l-7.238,3.532Z"/>
            <path class="cls-9" d="M717.599,91.811c-1.818.887-2.297,2.782-1.491,4.435l.147.301c.808,1.655,2.597,2.44,4.414,1.555l7.237-3.534c1.817-.886,2.635-2.947,1.828-4.601l-.147-.299c-.807-1.656-2.934-2.278-4.75-1.389l-7.238,3.532Z"/>
            <path class="cls-9" d="M699.005,87.903c-1.818.887-2.297,2.782-1.491,4.435l.147.301c.808,1.655,2.597,2.44,4.414,1.555l7.237-3.534c1.817-.886,2.635-2.947,1.828-4.601l-.147-.299c-.807-1.656-2.934-2.278-4.75-1.389l-7.238,3.532Z"/>
            <path class="cls-9" d="M680.412,83.994c-1.818.887-2.297,2.782-1.491,4.435l.147.301c.808,1.655,2.597,2.44,4.414,1.555l7.237-3.534c1.817-.886,2.635-2.947,1.828-4.601l-.147-.299c-.807-1.656-2.934-2.278-4.75-1.389l-7.238,3.532Z"/>
            <path class="cls-9" d="M661.818,80.085c-1.818.887-2.297,2.782-1.491,4.435l.147.301c.808,1.655,2.597,2.44,4.414,1.555l7.237-3.534c1.817-.886,2.635-2.947,1.828-4.601l-.147-.299c-.807-1.656-2.934-2.278-4.75-1.389l-7.238,3.532Z"/>
            <path class="cls-9" d="M643.224,76.176c-1.818.887-2.297,2.782-1.491,4.435l.147.301c.808,1.655,2.597,2.44,4.414,1.555l7.237-3.534c1.817-.886,2.635-2.947,1.828-4.601l-.147-.299c-.807-1.656-2.934-2.278-4.75-1.389l-7.238,3.532Z"/>
            <path class="cls-9" d="M624.631,72.267c-1.818.887-2.297,2.782-1.491,4.435l.147.301c.808,1.655,2.597,2.44,4.414,1.555l7.237-3.534c1.817-.886,2.635-2.947,1.828-4.601l-.147-.299c-.807-1.656-2.934-2.278-4.75-1.389l-7.238,3.532Z"/>
          </g>
          <g>
            <path class="cls-9" d="M769.47,122.132c-1.818.887-2.297,2.782-1.491,4.435l.147.301c.808,1.655,2.597,2.44,4.414,1.555l7.237-3.534c1.817-.886,2.635-2.947,1.828-4.601l-.147-.299c-.807-1.656-2.934-2.278-4.75-1.389l-7.238,3.532Z"/>
            <path class="cls-9" d="M750.877,118.223c-1.818.887-2.297,2.782-1.491,4.435l.147.301c.808,1.655,2.597,2.44,4.414,1.555l7.237-3.534c1.817-.886,2.635-2.947,1.828-4.601l-.147-.299c-.807-1.656-2.934-2.278-4.75-1.389l-7.238,3.532Z"/>
            <path class="cls-9" d="M732.283,114.314c-1.818.887-2.297,2.782-1.491,4.435l.147.301c.808,1.655,2.597,2.44,4.414,1.555l7.237-3.534c1.817-.886,2.635-2.947,1.828-4.601l-.147-.299c-.807-1.656-2.934-2.278-4.75-1.389l-7.238,3.532Z"/>
            <path class="cls-9" d="M713.69,110.405c-1.818.887-2.297,2.782-1.491,4.435l.147.301c.808,1.655,2.597,2.44,4.414,1.555l7.237-3.534c1.817-.886,2.635-2.947,1.828-4.601l-.147-.299c-.807-1.656-2.934-2.278-4.75-1.389l-7.238,3.532Z"/>
            <path class="cls-9" d="M695.096,106.496c-1.818.887-2.297,2.782-1.491,4.435l.147.301c.808,1.655,2.597,2.44,4.414,1.555l7.237-3.534c1.817-.886,2.635-2.947,1.828-4.601l-.147-.299c-.807-1.656-2.934-2.278-4.75-1.389l-7.238,3.532Z"/>
            <path class="cls-9" d="M676.503,102.587c-1.818.887-2.297,2.782-1.491,4.435l.147.301c.808,1.655,2.597,2.44,4.414,1.555l7.237-3.534c1.817-.886,2.635-2.947,1.828-4.601l-.147-.299c-.807-1.656-2.934-2.278-4.75-1.389l-7.238,3.532Z"/>
            <path class="cls-9" d="M657.909,98.678c-1.818.887-2.297,2.782-1.491,4.435l.147.301c.808,1.655,2.597,2.44,4.414,1.555l7.237-3.534c1.817-.886,2.635-2.947,1.828-4.601l-.147-.299c-.807-1.656-2.934-2.278-4.75-1.389l-7.238,3.532Z"/>
            <path class="cls-9" d="M639.316,94.769c-1.818.887-2.297,2.782-1.491,4.435l.147.301c.808,1.655,2.597,2.44,4.414,1.555l7.237-3.534c1.817-.886,2.635-2.947,1.828-4.601l-.147-.299c-.807-1.656-2.934-2.278-4.75-1.389l-7.238,3.532Z"/>
            <path class="cls-9" d="M620.722,90.861c-1.818.887-2.297,2.782-1.491,4.435l.147.301c.808,1.655,2.597,2.44,4.414,1.555l7.237-3.534c1.817-.886,2.635-2.947,1.828-4.601l-.147-.299c-.807-1.656-2.934-2.278-4.75-1.389l-7.238,3.532Z"/>
          </g>
          <g>
            <path class="cls-9" d="M765.562,140.725c-1.818.887-2.297,2.782-1.491,4.435l.147.301c.808,1.655,2.597,2.44,4.414,1.555l7.237-3.534c1.817-.886,2.635-2.947,1.828-4.601l-.147-.299c-.807-1.656-2.934-2.278-4.75-1.389l-7.238,3.532Z"/>
            <path class="cls-9" d="M746.968,136.816c-1.818.887-2.297,2.782-1.491,4.435l.147.301c.808,1.655,2.597,2.44,4.414,1.555l7.237-3.534c1.817-.886,2.635-2.947,1.828-4.601l-.147-.299c-.807-1.656-2.934-2.278-4.75-1.389l-7.238,3.532Z"/>
            <path class="cls-9" d="M728.374,132.907c-1.818.887-2.297,2.782-1.491,4.435l.147.301c.808,1.655,2.597,2.44,4.414,1.555l7.237-3.534c1.817-.886,2.635-2.947,1.828-4.601l-.147-.299c-.807-1.656-2.934-2.278-4.75-1.389l-7.238,3.532Z"/>
            <path class="cls-9" d="M709.781,128.999c-1.818.887-2.297,2.782-1.491,4.435l.147.301c.808,1.655,2.597,2.44,4.414,1.555l7.237-3.534c1.817-.886,2.635-2.947,1.828-4.601l-.147-.299c-.807-1.656-2.934-2.278-4.75-1.389l-7.238,3.532Z"/>
            <path class="cls-9" d="M691.187,125.09c-1.818.887-2.297,2.782-1.491,4.435l.147.301c.808,1.655,2.597,2.44,4.414,1.555l7.237-3.534c1.817-.886,2.635-2.947,1.828-4.601l-.147-.299c-.807-1.656-2.934-2.278-4.75-1.389l-7.238,3.532Z"/>
            <path class="cls-9" d="M672.594,121.181c-1.818.887-2.297,2.782-1.491,4.435l.147.301c.808,1.655,2.597,2.44,4.414,1.555l7.237-3.534c1.817-.886,2.635-2.947,1.828-4.601l-.147-.299c-.807-1.656-2.934-2.278-4.75-1.389l-7.238,3.532Z"/>
            <path class="cls-9" d="M654,117.272c-1.818.887-2.297,2.782-1.491,4.435l.147.301c.808,1.655,2.597,2.44,4.414,1.555l7.237-3.534c1.817-.886,2.635-2.947,1.828-4.601l-.147-.299c-.807-1.656-2.934-2.278-4.75-1.389l-7.238,3.532Z"/>
            <path class="cls-9" d="M635.407,113.363c-1.818.887-2.297,2.782-1.491,4.435l.147.301c.808,1.655,2.597,2.44,4.414,1.555l7.237-3.534c1.817-.886,2.635-2.947,1.828-4.601l-.147-.299c-.807-1.656-2.934-2.278-4.75-1.389l-7.238,3.532Z"/>
            <path class="cls-9" d="M616.813,109.454c-1.818.887-2.297,2.782-1.491,4.435l.147.301c.808,1.655,2.597,2.44,4.414,1.555l7.237-3.534c1.817-.886,2.635-2.947,1.828-4.601l-.147-.299c-.807-1.656-2.934-2.278-4.75-1.389l-7.238,3.532Z"/>
          </g>
          <g>
            <path class="cls-9" d="M761.653,159.319c-1.818.887-2.297,2.782-1.491,4.435l.147.301c.808,1.655,2.597,2.44,4.414,1.555l7.237-3.534c1.817-.886,2.635-2.947,1.828-4.601l-.147-.299c-.807-1.656-2.934-2.278-4.75-1.389l-7.238,3.532Z"/>
            <path class="cls-9" d="M743.059,155.41c-1.818.887-2.297,2.782-1.491,4.435l.147.301c.808,1.655,2.597,2.44,4.414,1.555l7.237-3.534c1.817-.886,2.635-2.947,1.828-4.601l-.147-.299c-.807-1.656-2.934-2.278-4.75-1.389l-7.238,3.532Z"/>
            <path class="cls-9" d="M724.466,151.501c-1.818.887-2.297,2.782-1.491,4.435l.147.301c.808,1.655,2.597,2.44,4.414,1.555l7.237-3.534c1.817-.886,2.635-2.947,1.828-4.601l-.147-.299c-.807-1.656-2.934-2.278-4.75-1.389l-7.238,3.532Z"/>
            <path class="cls-9" d="M705.872,147.592c-1.818.887-2.297,2.782-1.491,4.435l.147.301c.808,1.655,2.597,2.44,4.414,1.555l7.237-3.534c1.817-.886,2.635-2.947,1.828-4.601l-.147-.299c-.807-1.656-2.934-2.278-4.75-1.389l-7.238,3.532Z"/>
            <path class="cls-9" d="M687.278,143.683c-1.818.887-2.297,2.782-1.491,4.435l.147.301c.808,1.655,2.597,2.44,4.414,1.555l7.237-3.534c1.817-.886,2.635-2.947,1.828-4.601l-.147-.299c-.807-1.656-2.934-2.278-4.75-1.389l-7.238,3.532Z"/>
            <path class="cls-9" d="M668.685,139.774c-1.818.887-2.297,2.782-1.491,4.435l.147.301c.808,1.655,2.597,2.44,4.414,1.555l7.237-3.534c1.817-.886,2.635-2.947,1.828-4.601l-.147-.299c-.807-1.656-2.934-2.278-4.75-1.389l-7.238,3.532Z"/>
            <path class="cls-9" d="M650.091,135.865c-1.818.887-2.297,2.782-1.491,4.435l.147.301c.808,1.655,2.597,2.44,4.414,1.555l7.237-3.534c1.817-.886,2.635-2.947,1.828-4.601l-.147-.299c-.807-1.656-2.934-2.278-4.75-1.389l-7.238,3.532Z"/>
            <path class="cls-9" d="M631.498,131.957c-1.818.887-2.297,2.782-1.491,4.435l.147.301c.808,1.655,2.597,2.44,4.414,1.555l7.237-3.534c1.817-.886,2.635-2.947,1.828-4.601l-.147-.299c-.807-1.656-2.934-2.278-4.75-1.389l-7.238,3.532Z"/>
            <path class="cls-9" d="M612.904,128.048c-1.818.887-2.297,2.782-1.491,4.435l.147.301c.808,1.655,2.597,2.44,4.414,1.555l7.237-3.534c1.817-.886,2.635-2.947,1.828-4.601l-.147-.299c-.807-1.656-2.934-2.278-4.75-1.389l-7.238,3.532Z"/>
          </g>
          <g>
            <path class="cls-9" d="M757.744,177.912c-1.818.887-2.297,2.782-1.491,4.435l.147.301c.808,1.655,2.597,2.44,4.414,1.555l7.237-3.534c1.817-.886,2.635-2.947,1.828-4.601l-.147-.299c-.807-1.656-2.934-2.278-4.75-1.389l-7.238,3.532Z"/>
            <path class="cls-9" d="M739.15,174.003c-1.818.887-2.297,2.782-1.491,4.435l.147.301c.808,1.655,2.597,2.44,4.414,1.555l7.237-3.534c1.817-.886,2.635-2.947,1.828-4.601l-.147-.299c-.807-1.656-2.934-2.278-4.75-1.389l-7.238,3.532Z"/>
            <path class="cls-9" d="M720.557,170.095c-1.818.887-2.297,2.782-1.491,4.435l.147.301c.808,1.655,2.597,2.44,4.414,1.555l7.237-3.534c1.817-.886,2.635-2.947,1.828-4.601l-.147-.299c-.807-1.656-2.934-2.278-4.75-1.389l-7.238,3.532Z"/>
            <path class="cls-9" d="M701.963,166.186c-1.818.887-2.297,2.782-1.491,4.435l.147.301c.808,1.655,2.597,2.44,4.414,1.555l7.237-3.534c1.817-.886,2.635-2.947,1.828-4.601l-.147-.299c-.807-1.656-2.934-2.278-4.75-1.389l-7.238,3.532Z"/>
            <path class="cls-9" d="M683.37,162.277c-1.818.887-2.297,2.782-1.491,4.435l.147.301c.808,1.655,2.597,2.44,4.414,1.555l7.237-3.534c1.817-.886,2.635-2.947,1.828-4.601l-.147-.299c-.807-1.656-2.934-2.278-4.75-1.389l-7.238,3.532Z"/>
            <path class="cls-9" d="M664.776,158.368c-1.818.887-2.297,2.782-1.491,4.435l.147.301c.808,1.655,2.597,2.44,4.414,1.555l7.237-3.534c1.817-.886,2.635-2.947,1.828-4.601l-.147-.299c-.807-1.656-2.934-2.278-4.75-1.389l-7.238,3.532Z"/>
            <path class="cls-9" d="M646.182,154.459c-1.818.887-2.297,2.782-1.491,4.435l.147.301c.808,1.655,2.597,2.44,4.414,1.555l7.237-3.534c1.817-.886,2.635-2.947,1.828-4.601l-.147-.299c-.807-1.656-2.934-2.278-4.75-1.389l-7.238,3.532Z"/>
            <path class="cls-9" d="M627.589,150.55c-1.818.887-2.297,2.782-1.491,4.435l.147.301c.808,1.655,2.597,2.44,4.414,1.555l7.237-3.534c1.817-.886,2.635-2.947,1.828-4.601l-.147-.299c-.807-1.656-2.934-2.278-4.75-1.389l-7.238,3.532Z"/>
            <path class="cls-9" d="M608.995,146.641c-1.818.887-2.297,2.782-1.491,4.435l.147.301c.808,1.655,2.597,2.44,4.414,1.555l7.237-3.534c1.817-.886,2.635-2.947,1.828-4.601l-.147-.299c-.807-1.656-2.934-2.278-4.75-1.389l-7.238,3.532Z"/>
          </g>
          <g>
            <path class="cls-9" d="M753.835,196.506c-1.818.887-2.297,2.782-1.491,4.435l.147.301c.808,1.655,2.597,2.44,4.414,1.555l7.237-3.534c1.817-.886,2.635-2.947,1.828-4.601l-.147-.299c-.807-1.656-2.934-2.278-4.75-1.389l-7.238,3.532Z"/>
            <path class="cls-9" d="M735.241,192.597c-1.818.887-2.297,2.782-1.491,4.435l.147.301c.808,1.655,2.597,2.44,4.414,1.555l7.237-3.534c1.817-.886,2.635-2.947,1.828-4.601l-.147-.299c-.807-1.656-2.934-2.278-4.75-1.389l-7.238,3.532Z"/>
            <path class="cls-9" d="M716.648,188.688c-1.818.887-2.297,2.782-1.491,4.435l.147.301c.808,1.655,2.597,2.44,4.414,1.555l7.237-3.534c1.817-.886,2.635-2.947,1.828-4.601l-.147-.299c-.807-1.656-2.934-2.278-4.75-1.389l-7.238,3.532Z"/>
            <path class="cls-9" d="M698.054,184.779c-1.818.887-2.297,2.782-1.491,4.435l.147.301c.808,1.655,2.597,2.44,4.414,1.555l7.237-3.534c1.817-.886,2.635-2.947,1.828-4.601l-.147-.299c-.807-1.656-2.934-2.278-4.75-1.389l-7.238,3.532Z"/>
            <path class="cls-9" d="M679.461,180.87c-1.818.887-2.297,2.782-1.491,4.435l.147.301c.808,1.655,2.597,2.44,4.414,1.555l7.237-3.534c1.817-.886,2.635-2.947,1.828-4.601l-.147-.299c-.807-1.656-2.934-2.278-4.75-1.389l-7.238,3.532Z"/>
            <path class="cls-9" d="M660.867,176.961c-1.818.887-2.297,2.782-1.491,4.435l.147.301c.808,1.655,2.597,2.44,4.414,1.555l7.237-3.534c1.817-.886,2.635-2.947,1.828-4.601l-.147-.299c-.807-1.656-2.934-2.278-4.75-1.389l-7.238,3.532Z"/>
            <path class="cls-9" d="M642.274,173.053c-1.818.887-2.297,2.782-1.491,4.435l.147.301c.808,1.655,2.597,2.44,4.414,1.555l7.237-3.534c1.817-.886,2.635-2.947,1.828-4.601l-.147-.299c-.807-1.656-2.934-2.278-4.75-1.389l-7.238,3.532Z"/>
            <path class="cls-9" d="M623.68,169.144c-1.818.887-2.297,2.782-1.491,4.435l.147.301c.808,1.655,2.597,2.44,4.414,1.555l7.237-3.534c1.817-.886,2.635-2.947,1.828-4.601l-.147-.299c-.807-1.656-2.934-2.278-4.75-1.389l-7.238,3.532Z"/>
            <path class="cls-9" d="M605.086,165.235c-1.818.887-2.297,2.782-1.491,4.435l.147.301c.808,1.655,2.597,2.44,4.414,1.555l7.237-3.534c1.817-.886,2.635-2.947,1.828-4.601l-.147-.299c-.807-1.656-2.934-2.278-4.75-1.389l-7.238,3.532Z"/>
          </g>
          <g>
            <path class="cls-9" d="M749.926,215.099c-1.818.887-2.297,2.782-1.491,4.435l.147.301c.808,1.655,2.597,2.44,4.414,1.555l7.237-3.534c1.817-.886,2.635-2.947,1.828-4.601l-.147-.299c-.807-1.656-2.934-2.278-4.75-1.389l-7.238,3.532Z"/>
            <path class="cls-9" d="M731.332,211.191c-1.818.887-2.297,2.782-1.491,4.435l.147.301c.808,1.655,2.597,2.44,4.414,1.555l7.237-3.534c1.817-.886,2.635-2.947,1.828-4.601l-.147-.299c-.807-1.656-2.934-2.278-4.75-1.389l-7.238,3.532Z"/>
            <path class="cls-9" d="M712.739,207.282c-1.818.887-2.297,2.782-1.491,4.435l.147.301c.808,1.655,2.597,2.44,4.414,1.555l7.237-3.534c1.817-.886,2.635-2.947,1.828-4.601l-.147-.299c-.807-1.656-2.934-2.278-4.75-1.389l-7.238,3.532Z"/>
            <path class="cls-9" d="M694.145,203.373c-1.818.887-2.297,2.782-1.491,4.435l.147.301c.808,1.655,2.597,2.44,4.414,1.555l7.237-3.534c1.817-.886,2.635-2.947,1.828-4.601l-.147-.299c-.807-1.656-2.934-2.278-4.75-1.389l-7.238,3.532Z"/>
            <path class="cls-9" d="M675.552,199.464c-1.818.887-2.297,2.782-1.491,4.435l.147.301c.808,1.655,2.597,2.44,4.414,1.555l7.237-3.534c1.817-.886,2.635-2.947,1.828-4.601l-.147-.299c-.807-1.656-2.934-2.278-4.75-1.389l-7.238,3.532Z"/>
            <path class="cls-9" d="M656.958,195.555c-1.818.887-2.297,2.782-1.491,4.435l.147.301c.808,1.655,2.597,2.44,4.414,1.555l7.237-3.534c1.817-.886,2.635-2.947,1.828-4.601l-.147-.299c-.807-1.656-2.934-2.278-4.75-1.389l-7.238,3.532Z"/>
            <path class="cls-9" d="M638.365,191.646c-1.818.887-2.297,2.782-1.491,4.435l.147.301c.808,1.655,2.597,2.44,4.414,1.555l7.237-3.534c1.817-.886,2.635-2.947,1.828-4.601l-.147-.299c-.807-1.656-2.934-2.278-4.75-1.389l-7.238,3.532Z"/>
            <path class="cls-9" d="M619.771,187.737c-1.818.887-2.297,2.782-1.491,4.435l.147.301c.808,1.655,2.597,2.44,4.414,1.555l7.237-3.534c1.817-.886,2.635-2.947,1.828-4.601l-.147-.299c-.807-1.656-2.934-2.278-4.75-1.389l-7.238,3.532Z"/>
            <path class="cls-9" d="M601.178,183.828c-1.818.887-2.297,2.782-1.491,4.435l.147.301c.808,1.655,2.597,2.44,4.414,1.555l7.237-3.534c1.817-.886,2.635-2.947,1.828-4.601l-.147-.299c-.807-1.656-2.934-2.278-4.75-1.389l-7.238,3.532Z"/>
          </g>
          <g>
            <path class="cls-9" d="M746.017,233.693c-1.818.887-2.297,2.782-1.491,4.435l.147.301c.808,1.655,2.597,2.44,4.414,1.555l7.237-3.534c1.817-.886,2.635-2.947,1.828-4.601l-.147-.299c-.807-1.656-2.934-2.278-4.75-1.389l-7.238,3.532Z"/>
            <path class="cls-9" d="M727.424,229.784c-1.818.887-2.297,2.782-1.491,4.435l.147.301c.808,1.655,2.597,2.44,4.414,1.555l7.237-3.534c1.817-.886,2.635-2.947,1.828-4.601l-.147-.299c-.807-1.656-2.934-2.278-4.75-1.389l-7.238,3.532Z"/>
            <path class="cls-9" d="M708.83,225.875c-1.818.887-2.297,2.782-1.491,4.435l.147.301c.808,1.655,2.597,2.44,4.414,1.555l7.237-3.534c1.817-.886,2.635-2.947,1.828-4.601l-.147-.299c-.807-1.656-2.934-2.278-4.75-1.389l-7.238,3.532Z"/>
            <path class="cls-9" d="M690.236,221.966c-1.818.887-2.297,2.782-1.491,4.435l.147.301c.808,1.655,2.597,2.44,4.414,1.555l7.237-3.534c1.817-.886,2.635-2.947,1.828-4.601l-.147-.299c-.807-1.656-2.934-2.278-4.75-1.389l-7.238,3.532Z"/>
            <path class="cls-9" d="M671.643,218.057c-1.818.887-2.297,2.782-1.491,4.435l.147.301c.808,1.655,2.597,2.44,4.414,1.555l7.237-3.534c1.817-.886,2.635-2.947,1.828-4.601l-.147-.299c-.807-1.656-2.934-2.278-4.75-1.389l-7.238,3.532Z"/>
            <path class="cls-9" d="M653.049,214.149c-1.818.887-2.297,2.782-1.491,4.435l.147.301c.808,1.655,2.597,2.44,4.414,1.555l7.237-3.534c1.817-.886,2.635-2.947,1.828-4.601l-.147-.299c-.807-1.656-2.934-2.278-4.75-1.389l-7.238,3.532Z"/>
            <path class="cls-9" d="M634.456,210.24c-1.818.887-2.297,2.782-1.491,4.435l.147.301c.808,1.655,2.597,2.44,4.414,1.555l7.237-3.534c1.817-.886,2.635-2.947,1.828-4.601l-.147-.299c-.807-1.656-2.934-2.278-4.75-1.389l-7.238,3.532Z"/>
            <path class="cls-9" d="M615.862,206.331c-1.818.887-2.297,2.782-1.491,4.435l.147.301c.808,1.655,2.597,2.44,4.414,1.555l7.237-3.534c1.817-.886,2.635-2.947,1.828-4.601l-.147-.299c-.807-1.656-2.934-2.278-4.75-1.389l-7.238,3.532Z"/>
            <path class="cls-9" d="M597.269,202.422c-1.818.887-2.297,2.782-1.491,4.435l.147.301c.808,1.655,2.597,2.44,4.414,1.555l7.237-3.534c1.817-.886,2.635-2.947,1.828-4.601l-.147-.299c-.807-1.656-2.934-2.278-4.75-1.389l-7.238,3.532Z"/>
          </g>
          <g>
            <path class="cls-9" d="M742.108,252.287c-1.818.887-2.297,2.782-1.491,4.435l.147.301c.808,1.655,2.597,2.44,4.414,1.555l7.237-3.534c1.817-.886,2.635-2.947,1.828-4.601l-.147-.299c-.807-1.656-2.934-2.278-4.75-1.389l-7.238,3.532Z"/>
            <path class="cls-9" d="M723.515,248.378c-1.818.887-2.297,2.782-1.491,4.435l.147.301c.808,1.655,2.597,2.44,4.414,1.555l7.237-3.534c1.817-.886,2.635-2.947,1.828-4.601l-.147-.299c-.807-1.656-2.934-2.278-4.75-1.389l-7.238,3.532Z"/>
            <path class="cls-9" d="M704.921,244.469c-1.818.887-2.297,2.782-1.491,4.435l.147.301c.808,1.655,2.597,2.44,4.414,1.555l7.237-3.534c1.817-.886,2.635-2.947,1.828-4.601l-.147-.299c-.807-1.656-2.934-2.278-4.75-1.389l-7.238,3.532Z"/>
            <path class="cls-9" d="M686.328,240.56c-1.818.887-2.297,2.782-1.491,4.435l.147.301c.808,1.655,2.597,2.44,4.414,1.555l7.237-3.534c1.817-.886,2.635-2.947,1.828-4.601l-.147-.299c-.807-1.656-2.934-2.278-4.75-1.389l-7.238,3.532Z"/>
            <path class="cls-9" d="M667.734,236.651c-1.818.887-2.297,2.782-1.491,4.435l.147.301c.808,1.655,2.597,2.44,4.414,1.555l7.237-3.534c1.817-.886,2.635-2.947,1.828-4.601l-.147-.299c-.807-1.656-2.934-2.278-4.75-1.389l-7.238,3.532Z"/>
            <path class="cls-9" d="M649.14,232.742c-1.818.887-2.297,2.782-1.491,4.435l.147.301c.808,1.655,2.597,2.44,4.414,1.555l7.237-3.534c1.817-.886,2.635-2.947,1.828-4.601l-.147-.299c-.807-1.656-2.934-2.278-4.75-1.389l-7.238,3.532Z"/>
            <path class="cls-9" d="M630.547,228.833c-1.818.887-2.297,2.782-1.491,4.435l.147.301c.808,1.655,2.597,2.44,4.414,1.555l7.237-3.534c1.817-.886,2.635-2.947,1.828-4.601l-.147-.299c-.807-1.656-2.934-2.278-4.75-1.389l-7.238,3.532Z"/>
            <path class="cls-9" d="M611.953,224.924c-1.818.887-2.297,2.782-1.491,4.435l.147.301c.808,1.655,2.597,2.44,4.414,1.555l7.237-3.534c1.817-.886,2.635-2.947,1.828-4.601l-.147-.299c-.807-1.656-2.934-2.278-4.75-1.389l-7.238,3.532Z"/>
            <path class="cls-9" d="M593.36,221.015c-1.818.887-2.297,2.782-1.491,4.435l.147.301c.808,1.655,2.597,2.44,4.414,1.555l7.237-3.534c1.817-.886,2.635-2.947,1.828-4.601l-.147-.299c-.807-1.656-2.934-2.278-4.75-1.389l-7.238,3.532Z"/>
          </g>
          <g>
            <path class="cls-9" d="M738.199,270.88c-1.818.887-2.297,2.782-1.491,4.435l.147.301c.808,1.655,2.597,2.44,4.414,1.555l7.237-3.534c1.817-.886,2.635-2.947,1.828-4.601l-.147-.299c-.807-1.656-2.934-2.278-4.75-1.389l-7.238,3.532Z"/>
            <path class="cls-9" d="M719.606,266.971c-1.818.887-2.297,2.782-1.491,4.435l.147.301c.808,1.655,2.597,2.44,4.414,1.555l7.237-3.534c1.817-.886,2.635-2.947,1.828-4.601l-.147-.299c-.807-1.656-2.934-2.278-4.75-1.389l-7.238,3.532Z"/>
            <path class="cls-9" d="M701.012,263.062c-1.818.887-2.297,2.782-1.491,4.435l.147.301c.808,1.655,2.597,2.44,4.414,1.555l7.237-3.534c1.817-.886,2.635-2.947,1.828-4.601l-.147-.299c-.807-1.656-2.934-2.278-4.75-1.389l-7.238,3.532Z"/>
            <path class="cls-9" d="M682.419,259.153c-1.818.887-2.297,2.782-1.491,4.435l.147.301c.808,1.655,2.597,2.44,4.414,1.555l7.237-3.534c1.817-.886,2.635-2.947,1.828-4.601l-.147-.299c-.807-1.656-2.934-2.278-4.75-1.389l-7.238,3.532Z"/>
            <path class="cls-9" d="M663.825,255.245c-1.818.887-2.297,2.782-1.491,4.435l.147.301c.808,1.655,2.597,2.44,4.414,1.555l7.237-3.534c1.817-.886,2.635-2.947,1.828-4.601l-.147-.299c-.807-1.656-2.934-2.278-4.75-1.389l-7.238,3.532Z"/>
            <path class="cls-9" d="M645.232,251.336c-1.818.887-2.297,2.782-1.491,4.435l.147.301c.808,1.655,2.597,2.44,4.414,1.555l7.237-3.534c1.817-.886,2.635-2.947,1.828-4.601l-.147-.299c-.807-1.656-2.934-2.278-4.75-1.389l-7.238,3.532Z"/>
            <path class="cls-9" d="M626.638,247.427c-1.818.887-2.297,2.782-1.491,4.435l.147.301c.808,1.655,2.597,2.44,4.414,1.555l7.237-3.534c1.817-.886,2.635-2.947,1.828-4.601l-.147-.299c-.807-1.656-2.934-2.278-4.75-1.389l-7.238,3.532Z"/>
            <path class="cls-9" d="M608.044,243.518c-1.818.887-2.297,2.782-1.491,4.435l.147.301c.808,1.655,2.597,2.44,4.414,1.555l7.237-3.534c1.817-.886,2.635-2.947,1.828-4.601l-.147-.299c-.807-1.656-2.934-2.278-4.75-1.389l-7.238,3.532Z"/>
            <path class="cls-9" d="M589.451,239.609c-1.818.887-2.297,2.782-1.491,4.435l.147.301c.808,1.655,2.597,2.44,4.414,1.555l7.237-3.534c1.817-.886,2.635-2.947,1.828-4.601l-.147-.299c-.807-1.656-2.934-2.278-4.75-1.389l-7.238,3.532Z"/>
          </g>
          <g>
            <path class="cls-9" d="M734.291,289.474c-1.818.887-2.297,2.782-1.491,4.435l.147.301c.808,1.655,2.597,2.44,4.414,1.555l7.237-3.534c1.817-.886,2.635-2.947,1.828-4.601l-.147-.299c-.807-1.656-2.934-2.278-4.75-1.389l-7.238,3.532Z"/>
            <path class="cls-9" d="M715.697,285.565c-1.818.887-2.297,2.782-1.491,4.435l.147.301c.808,1.655,2.597,2.44,4.414,1.555l7.237-3.534c1.817-.886,2.635-2.947,1.828-4.601l-.147-.299c-.807-1.656-2.934-2.278-4.75-1.389l-7.238,3.532Z"/>
            <path class="cls-9" d="M697.103,281.656c-1.818.887-2.297,2.782-1.491,4.435l.147.301c.808,1.655,2.597,2.44,4.414,1.555l7.237-3.534c1.817-.886,2.635-2.947,1.828-4.601l-.147-.299c-.807-1.656-2.934-2.278-4.75-1.389l-7.238,3.532Z"/>
            <path class="cls-9" d="M678.51,277.747c-1.818.887-2.297,2.782-1.491,4.435l.147.301c.808,1.655,2.597,2.44,4.414,1.555l7.237-3.534c1.817-.886,2.635-2.947,1.828-4.601l-.147-.299c-.807-1.656-2.934-2.278-4.75-1.389l-7.238,3.532Z"/>
            <path class="cls-9" d="M659.916,273.838c-1.818.887-2.297,2.782-1.491,4.435l.147.301c.808,1.655,2.597,2.44,4.414,1.555l7.237-3.534c1.817-.886,2.635-2.947,1.828-4.601l-.147-.299c-.807-1.656-2.934-2.278-4.75-1.389l-7.238,3.532Z"/>
            <path class="cls-9" d="M641.323,269.929c-1.818.887-2.297,2.782-1.491,4.435l.147.301c.808,1.655,2.597,2.44,4.414,1.555l7.237-3.534c1.817-.886,2.635-2.947,1.828-4.601l-.147-.299c-.807-1.656-2.934-2.278-4.75-1.389l-7.238,3.532Z"/>
            <path class="cls-9" d="M622.729,266.02c-1.818.887-2.297,2.782-1.491,4.435l.147.301c.808,1.655,2.597,2.44,4.414,1.555l7.237-3.534c1.817-.886,2.635-2.947,1.828-4.601l-.147-.299c-.807-1.656-2.934-2.278-4.75-1.389l-7.238,3.532Z"/>
            <path class="cls-9" d="M604.136,262.112c-1.818.887-2.297,2.782-1.491,4.435l.147.301c.808,1.655,2.597,2.44,4.414,1.555l7.237-3.534c1.817-.886,2.635-2.947,1.828-4.601l-.147-.299c-.807-1.656-2.934-2.278-4.75-1.389l-7.238,3.532Z"/>
            <path class="cls-9" d="M585.542,258.203c-1.818.887-2.297,2.782-1.491,4.435l.147.301c.808,1.655,2.597,2.44,4.414,1.555l7.237-3.534c1.817-.886,2.635-2.947,1.828-4.601l-.147-.299c-.807-1.656-2.934-2.278-4.75-1.389l-7.238,3.532Z"/>
          </g>
          <g>
            <path class="cls-9" d="M730.382,308.067c-1.818.887-2.297,2.782-1.491,4.435l.147.301c.808,1.655,2.597,2.44,4.414,1.555l7.237-3.534c1.817-.886,2.635-2.947,1.828-4.601l-.147-.299c-.807-1.656-2.934-2.278-4.75-1.389l-7.238,3.532Z"/>
            <path class="cls-9" d="M711.788,304.158c-1.818.887-2.297,2.782-1.491,4.435l.147.301c.808,1.655,2.597,2.44,4.414,1.555l7.237-3.534c1.817-.886,2.635-2.947,1.828-4.601l-.147-.299c-.807-1.656-2.934-2.278-4.75-1.389l-7.238,3.532Z"/>
            <path class="cls-9" d="M693.195,300.249c-1.818.887-2.297,2.782-1.491,4.435l.147.301c.808,1.655,2.597,2.44,4.414,1.555l7.237-3.534c1.817-.886,2.635-2.947,1.828-4.601l-.147-.299c-.807-1.656-2.934-2.278-4.75-1.389l-7.238,3.532Z"/>
            <path class="cls-9" d="M674.601,296.341c-1.818.887-2.297,2.782-1.491,4.435l.147.301c.808,1.655,2.597,2.44,4.414,1.555l7.237-3.534c1.817-.886,2.635-2.947,1.828-4.601l-.147-.299c-.807-1.656-2.934-2.278-4.75-1.389l-7.238,3.532Z"/>
            <path class="cls-9" d="M656.007,292.432c-1.818.887-2.297,2.782-1.491,4.435l.147.301c.808,1.655,2.597,2.44,4.414,1.555l7.237-3.534c1.817-.886,2.635-2.947,1.828-4.601l-.147-.299c-.807-1.656-2.934-2.278-4.75-1.389l-7.238,3.532Z"/>
            <path class="cls-9" d="M637.414,288.523c-1.818.887-2.297,2.782-1.491,4.435l.147.301c.808,1.655,2.597,2.44,4.414,1.555l7.237-3.534c1.817-.886,2.635-2.947,1.828-4.601l-.147-.299c-.807-1.656-2.934-2.278-4.75-1.389l-7.238,3.532Z"/>
            <path class="cls-9" d="M618.82,284.614c-1.818.887-2.297,2.782-1.491,4.435l.147.301c.808,1.655,2.597,2.44,4.414,1.555l7.237-3.534c1.817-.886,2.635-2.947,1.828-4.601l-.147-.299c-.807-1.656-2.934-2.278-4.75-1.389l-7.238,3.532Z"/>
            <path class="cls-9" d="M600.227,280.705c-1.818.887-2.297,2.782-1.491,4.435l.147.301c.808,1.655,2.597,2.44,4.414,1.555l7.237-3.534c1.817-.886,2.635-2.947,1.828-4.601l-.147-.299c-.807-1.656-2.934-2.278-4.75-1.389l-7.238,3.532Z"/>
            <path class="cls-9" d="M581.633,276.796c-1.818.887-2.297,2.782-1.491,4.435l.147.301c.808,1.655,2.597,2.44,4.414,1.555l7.237-3.534c1.817-.886,2.635-2.947,1.828-4.601l-.147-.299c-.807-1.656-2.934-2.278-4.75-1.389l-7.238,3.532Z"/>
          </g>
        </g>
      </g>
    </g>
    <path class="cls-22" d="M681.088,76.488c37.441,8.435,67.39,9.053,69.033,9.08,2.484.042,4.532-1.939,4.573-4.423.043-2.485-1.934-4.532-4.422-4.576-.517-.009-52.383-1.096-103.95-19.374-2.337-.826-4.913.395-5.744,2.738-.83,2.344.395,4.914,2.738,5.744,12.902,4.574,25.726,8.097,37.771,10.81Z"/>
    <path class="cls-3" d="M710.493,119.711s-9.833-6.583-17.433-.345l1.031,2.239s8.404-2.799,14.79,1.844l1.611-3.738Z"/>
    <path class="cls-3" d="M649.929,106.068s11.705-1.731,15.897,7.163l-1.892,1.58s-6.394-6.131-14.152-4.676l.147-4.067Z"/>
  </g>
  <path class="cls-33" d="M537.066,512.141s-85.71-27.908-171.42,34.679c0,0,95.849-18.968,134.746,2.944l36.674-37.623Z"/>
  <g>
    <rect class="cls-11" x="336.828" y="347.104" width="202" height="9"/>
    <rect class="cls-27" x="222.828" y="154.104" width="256" height="169"/>
    <rect class="cls-11" x="470.828" y="154.104" width="8" height="169"/>
    <path class="cls-7" d="M222.828,154.104h248v35.389s-95,91.667-248,86v-121.389Z"/>
    <polygon class="cls-20" points="331.521 275.104 365.646 275.104 348.584 356.104 307.506 356.104 331.521 275.104"/>
    <polygon class="cls-1" points="365.828 275.492 365.828 288.284 357.549 350.104 403.719 350.104 404.756 356.485 348.676 356.395 365.828 275.492"/>
    <ellipse class="cls-23" cx="351.006" cy="210.492" rx="17" ry="19"/>
  </g>
  <g>
    <g>
      <rect class="cls-4" x="599.828" y="377.104" width="19" height="331"/>
      <rect class="cls-25" x="618.828" y="377.104" width="17" height="331"/>
      <polygon class="cls-19" points="618.546 377.104 635.828 377.104 635.828 395.564 618.546 377.104"/>
    </g>
    <g>
      <rect class="cls-25" x="780.828" y="377.104" width="19" height="331"/>
      <rect class="cls-21" x="799.828" y="377.104" width="17" height="331"/>
      <polygon class="cls-19" points="799.546 377.104 816.828 377.104 816.828 395.564 799.546 377.104"/>
    </g>
    <rect class="cls-29" x="58.834" y="356.43" width="576.181" height="21.599"/>
    <rect class="cls-31" x="635.015" y="356.43" width="192.194" height="21.599"/>
  </g>
  <path class="cls-33" d="M632.246,309.021l-3.836-1.135c10.387-35.116,37.167-118.426,37.435-119.264l3.809,1.225c-.269.837-27.035,84.103-37.408,119.174Z"/>
</svg>