<?xml version="1.0" encoding="UTF-8"?>
<svg id="Layer_1" data-name="Layer 1" xmlns="http://www.w3.org/2000/svg" xmlns:xlink="http://www.w3.org/1999/xlink" viewBox="0 0 529.584 381.637">
  <defs>
    <style>
      .cls-1 {
        fill: #966048;
      }

      .cls-2 {
        fill: #502f26;
      }

      .cls-3 {
        fill: #75432f;
      }

      .cls-4 {
        fill: #faa284;
      }

      .cls-5 {
        fill: #db7c65;
      }

      .cls-6 {
        fill: #ef8d72;
      }

      .cls-7 {
        fill: #ddd9da;
      }

      .cls-8 {
        fill: #922;
      }

      .cls-9 {
        fill: #997c28;
      }

      .cls-10 {
        fill: #fff;
      }

      .cls-11 {
        fill: #efeeed;
      }

      .cls-12 {
        fill: #443c3b;
      }

      .cls-13 {
        fill: #703636;
      }

      .cls-14 {
        fill: #a82d2d;
      }

      .cls-15 {
        fill: #332828;
      }

      .cls-16 {
        fill: #d6bb64;
      }

      .cls-17 {
        fill: #af7347;
      }

      .cls-18 {
        fill: #cbdaed;
      }

      .cls-19 {
        fill: #161515;
      }

      .cls-20 {
        clip-path: url(#clippath);
      }

      .cls-21 {
        fill: #a5b2bf;
      }
    </style>
    <clipPath id="clippath">
      <path class="cls-11" d="M342.226,281.507s-3.281-146.664-7.035-196.554c-1.75-23.256-27.775-12.405-41-10.53-21.162,3-35.875-6.789-37.5,1.461-4.811,24.424,3.006,111.644,3.006,111.644,0,0-13.805,75.979-14.006,93.979,0,0-13.334-161,3.75-222,0,0-4.418-41.334,48.5-41.334,58.615,0,57.316,30.333,60.076,45,0,0,21.127,106.088,23.795,139.237,0,0-13.926,68.429-39.586,79.097Z"/>
    </clipPath>
  </defs>
  <g>
    <path class="cls-16" d="M312,148.699s-36.926,45.205-10.072,93.882c0,0-47.225,75.965-10.79,129.605,12.825.117,25.244-1.789,36.759-10.014,1,4,2,11,3,12,15,1,30-4,47,0,17,3,34.199.056,49.199,1.056,5.324.41,12.93,2.412,19.046,1.609l53.846-228.138h-187.988Z"/>
    <path class="cls-9" d="M453.83,242.887c-34.932,31.896-30.224,119.176-28.71,135.934.15-1.94,3.387-1.472,3.449-1.468,5.363.413,11.41.303,17.573-.517l53.846-227.524c-52.871,12.168-46.158,93.574-46.158,93.574Z"/>
    <path class="cls-17" d="M307.384,242.888s71.418-7.973,143.131,0c0,0-103.688,8.393-143.131,0Z"/>
    <path class="cls-17" d="M352.537,373.142c-7.888-.313-15.442-.453-22.321-.484.227.74.454,1.287.681,1.514,7.141.476,14.284-.405,21.64-1.03Z"/>
    <path class="cls-17" d="M411.296,379.566c-7.979-1.679-16.512-2.971-25.198-3.956,8.572,1.491,17.05,2.889,25.198,3.956Z"/>
    <path class="cls-17" d="M338.855,242.981s-8.812-26.109,4.195-50.447c0,0-7.133,38.371,1.68,50.447,0,0-13.008,26.342-11.75,45.645,0,0-7.133-16.598,5.875-45.645Z"/>
    <path class="cls-17" d="M394.877,243.056s-6.56-26.764,8.471-49.908c0,0-10.371,37.627-2.617,50.407,0,0-15.203,25.142-15.59,44.481,0,0-5.695-17.144,9.736-44.98Z"/>
    <path class="cls-17" d="M331.029,324.294c-7.548,14.122-6.524,28.831-4.338,38.699.402-.271.806-.535,1.206-.821,1,4,2,11,3,12,1.715.114,3.43.143,5.148.123-8.429-12.528-5.016-50.001-5.016-50.001Z"/>
    <path class="cls-17" d="M384.113,324.907c-13.666,21.045-7.459,45.076-6.221,49.264.001,0,.003,0,.005,0,2.001.353,4.003.706,6.001,1.056-7.67-12.86.215-50.321.215-50.321Z"/>
  </g>
  <polygon class="cls-13" points="358.318 211.702 345.259 63.729 255.543 64.85 253.17 210.146 358.318 211.702"/>
  <path class="cls-21" d="M230.931,194.401s-27.34,21.426-58.578,76.973c-45,80.016,5.033,79.877,5.033,79.877,0,0,29.752-19.592,60.238-89.301,10.135-23.17-3.924-62.56-6.693-67.549Z"/>
  <g>
    <path class="cls-4" d="M284.974,177.733l-.68,24.74,40.984,1.127.885-32.185c-17.223,7.81-34.209,7.158-41.189,6.318Z"/>
    <path class="cls-6" d="M326.164,171.415l.682-24.793-40.984-1.127-.887,32.238c6.98.84,23.967,1.492,41.189-6.318Z"/>
  </g>
  <rect class="cls-7" x="164.859" y="355.699" width="143" height="4"/>
  <g>
    <path class="cls-18" d="M387.373,200.507l-59.68-17.667.084-6.554s-26.918,7.387-45.918-.113v6s-33.939,4.79-51.178,12.229c0,0-14.495,62.341-12.666,175.771h56.882c29,0,59,6,88,0,1.737-.347,3.474-.206,5.211.203-.421-14.639-.781-24.472-.781-24.472,0,0,4.061-69.562,20.045-145.396Z"/>
    <path class="cls-19" d="M278.451,327.203l4-.059c-1.023-69.629,15.84-146.937,16.008-147.706l-4.142-.205c-.17.773-16.895,77.883-15.865,147.97Z"/>
  </g>
  <g>
    <path class="cls-9" d="M75.427,357.939h5.227c10.863,0,19.703-10.339,19.703-23.048s-8.84-23.055-19.703-23.055h-5.227v6.365h5.227c7.355,0,13.338,7.486,13.338,16.689s-5.982,16.683-13.338,16.683h-5.227v6.365Z"/>
    <rect class="cls-16" x="41.101" y="309.452" width="39.893" height="51.323"/>
  </g>
  <g>
    <rect class="cls-1" y="360.038" width="337.388" height="21.599"/>
    <rect class="cls-3" x="337.388" y="359.038" width="192.195" height="21.599"/>
  </g>
  <g>
    <path class="cls-21" d="M222.394,298.171s-7.055-11.584-26.565-6.305c-39.385,10.652-44.037,24.258-41.514,40.623,3.685,23.926,28.371,31.676,65.107-9.494,12.58-14.098,2.971-24.824,2.971-24.824Z"/>
    <polygon class="cls-16" points="240.56 255.782 247.67 323.409 244.699 333.399 239.713 324.247 232.603 256.618 240.56 255.782"/>
    <path class="cls-4" d="M236.562,323.655l6.178-9.549s2.086,1.211,6.648-2.16l-1.939-4.559s3.332-3.273,2.15-6.555c-1.18-3.281-11.133-18.652-19.762-21.221-8.629-2.57-30.266,20.06-30.266,20.06,0,0-8.873,13.402,2.938,19.91,11.811,6.506,17.801,1.107,17.801,1.107,0,0,10.334,11.723,16.252,2.965Z"/>
  </g>
  <g>
    <path class="cls-18" d="M387.375,200.507s20.82,12,49.979,135.42c0,0,.666,23.285-20.416,24.172-21.084.889-89.35,1.889-89.35,1.889,0,0-14.926-11.8-1.479-35.083l54-7.481-7.584-33.916s-11.125-54.334,14.85-85Z"/>
    <path class="cls-4" d="M328.838,334.669s-32.865-3.074-40.148,1.111c-7.283,4.186-32.012,17.684-29.9,23.332,0,0,2.641,2.961,10.164,1.184,7.523-1.777,15.82.449,28.758-2.574l6.307-2.285s15.695,7.869,24.855-1.635c9.162-9.504-.035-19.133-.035-19.133Z"/>
  </g>
  <g>
    <path class="cls-4" d="M350.316,100.985l-4.049,4.619c-.275-6.493-.469-6.93-.576-10.432-.692-22.471-4.649-32.25-4.649-32.25-6.601-27.5-85.152-6.581-85.152-6.581,1.633,14.831-5.238,71.514,11.867,96.757,5.096,7.521,11.537,13.834,22.346,15.526,47.084,7.373,59.185-38.69,59.185-38.69,0,0,17.178,3.577,16.295-18.363-.695-17.275-15.267-10.586-15.267-10.586Z"/>
    <path class="cls-5" d="M255.89,56.342s78.551-20.919,85.152,6.581c0,0,3.096,7.66,4.289,24.981l-8.891,1.268s-4-14.5-18.125-12.625-12.613,5.762-48.875,1.25c-6.414-.798-11.166,6.334-13.594,17.801.156-8.414.475-35.337.043-39.257Z"/>
    <path class="cls-2" d="M280.927,105.853c-.039,4.05-2.498,7.142-5.494,6.9-2.994-.24-5.389-3.719-5.348-7.771.039-4.051,2.498-7.142,5.492-6.901,2.996.239,5.391,3.719,5.35,7.771Z"/>
    <path class="cls-2" d="M322.082,104.655c-.037,4.051-2.498,7.143-5.494,6.902-2.994-.241-5.391-3.721-5.348-7.77.039-4.052,2.5-7.142,5.492-6.902,2.994.239,5.392,3.72,5.35,7.77Z"/>
    <path class="cls-5" d="M296.519,128.842c-9.104,3.681-14.012-.604-14.377-4.911-.238-2.805,1.352-5.295,4.045-6.351,5.549-2.166,9.459-10.696,9.498-10.784h0c.023,1.961-1.955,9.333-8.99,13.427-1.522.885-2.471,1.819-2.355,3.206.205,2.414,3.695,6.019,12.18,5.413h0Z"/>
    <path class="cls-2" d="M262.425,84.953l-.398-2.741c.594-.047,9.992-2.605,21.019-1.676l.096,4.299c-9.031-1.336-20.57.107-20.717.118Z"/>
    <path class="cls-2" d="M329.252,86.39c-7.369-2.857-21.027-3.389-21.156-3.418l.899-3.92c.537.11,12.924.541,21.182,4.952l-.924,2.386Z"/>
    <path class="cls-12" d="M342.226,105.417s-5.369,26.922-15.535,26.422c-10.168-.5-39.666-4.333-58.334,2,0,0-8.443,3.114-11.666-21.072,0,0-1.359,59.109,42.767,57.406,38.858-1.5,47.381-33.56,47.381-33.56l-.223-29.817-4.391-1.379Z"/>
    <g>
      <path class="cls-14" d="M312.347,135.173s-17.135,3.5-33.066,0c0,0,2.822,14.655,16.533,14.625,12.926-.028,16.383-11.792,16.533-14.625Z"/>
      <path class="cls-10" d="M295.449,142.173c-10.537,0-13.633-4.371-14.959-6.752,12.365,2.44,22.336.981,31.02-.092-.939,2.644-6.123,6.844-16.06,6.844Z"/>
    </g>
    <g>
      <path class="cls-11" d="M342.226,281.507s-3.281-146.664-7.035-196.554c-1.75-23.256-27.775-12.405-41-10.53-21.162,3-35.875-6.789-37.5,1.461-4.811,24.424,3.006,111.644,3.006,111.644,0,0-13.805,75.979-14.006,93.979,0,0-13.334-161,3.75-222,0,0-4.418-41.334,48.5-41.334,58.615,0,57.316,30.333,60.076,45,0,0,21.127,106.088,23.795,139.237,0,0-13.926,68.429-39.586,79.097Z"/>
      <g class="cls-20">
        <g>
          <g>
            <path class="cls-8" d="M379.017,12.149c1.242,1.596,3.195,1.676,4.646.545l.266-.205c1.453-1.131,1.853-3.044.613-4.64l-4.947-6.356c-1.242-1.595-3.426-1.972-4.879-.841l-.264.204c-1.453,1.131-1.625,3.341-.381,4.936l4.945,6.357Z"/>
            <path class="cls-8" d="M379.017,31.149c1.242,1.596,3.195,1.676,4.646.545l.266-.205c1.453-1.131,1.853-3.044.613-4.64l-4.947-6.356c-1.242-1.595-3.426-1.972-4.879-.841l-.264.204c-1.453,1.131-1.625,3.341-.381,4.936l4.945,6.357Z"/>
            <path class="cls-8" d="M379.017,50.149c1.242,1.596,3.195,1.676,4.646.545l.266-.205c1.453-1.131,1.853-3.044.613-4.64l-4.947-6.356c-1.242-1.595-3.426-1.972-4.879-.841l-.264.204c-1.453,1.131-1.625,3.341-.381,4.936l4.945,6.357Z"/>
            <path class="cls-8" d="M379.017,69.149c1.242,1.596,3.195,1.676,4.646.545l.266-.205c1.453-1.131,1.853-3.044.613-4.64l-4.947-6.356c-1.242-1.595-3.426-1.972-4.879-.841l-.264.204c-1.453,1.131-1.625,3.341-.381,4.936l4.945,6.357Z"/>
            <path class="cls-8" d="M379.017,88.149c1.242,1.596,3.195,1.676,4.646.545l.266-.205c1.453-1.131,1.853-3.044.613-4.64l-4.947-6.356c-1.242-1.595-3.426-1.972-4.879-.841l-.264.204c-1.453,1.131-1.625,3.341-.381,4.936l4.945,6.357Z"/>
            <path class="cls-8" d="M379.017,107.149c1.242,1.596,3.195,1.676,4.646.545l.266-.205c1.453-1.131,1.853-3.044.613-4.64l-4.947-6.356c-1.242-1.595-3.426-1.972-4.879-.841l-.264.204c-1.453,1.131-1.625,3.341-.381,4.936l4.945,6.357Z"/>
            <path class="cls-8" d="M379.017,126.149c1.242,1.596,3.195,1.676,4.646.545l.266-.205c1.453-1.131,1.853-3.044.613-4.64l-4.947-6.356c-1.242-1.595-3.426-1.972-4.879-.841l-.264.204c-1.453,1.131-1.625,3.341-.381,4.936l4.945,6.357Z"/>
            <path class="cls-8" d="M379.017,145.149c1.242,1.596,3.195,1.676,4.646.545l.266-.205c1.453-1.131,1.853-3.044.613-4.64l-4.947-6.356c-1.242-1.595-3.426-1.972-4.879-.841l-.264.204c-1.453,1.131-1.625,3.341-.381,4.936l4.945,6.357Z"/>
            <path class="cls-8" d="M379.017,164.149c1.242,1.596,3.195,1.676,4.646.545l.266-.205c1.453-1.131,1.853-3.044.613-4.64l-4.947-6.356c-1.242-1.595-3.426-1.972-4.879-.841l-.264.204c-1.453,1.131-1.625,3.341-.381,4.936l4.945,6.357Z"/>
            <path class="cls-8" d="M379.017,183.149c1.242,1.596,3.195,1.676,4.646.545l.266-.205c1.453-1.131,1.853-3.044.613-4.64l-4.947-6.356c-1.242-1.595-3.426-1.972-4.879-.841l-.264.204c-1.453,1.131-1.625,3.341-.381,4.936l4.945,6.357Z"/>
            <path class="cls-8" d="M379.017,202.149c1.242,1.596,3.195,1.676,4.646.545l.266-.205c1.453-1.131,1.853-3.044.613-4.64l-4.947-6.356c-1.242-1.595-3.426-1.972-4.879-.841l-.264.204c-1.453,1.131-1.625,3.341-.381,4.936l4.945,6.357Z"/>
            <path class="cls-8" d="M379.017,221.149c1.242,1.596,3.195,1.676,4.646.545l.266-.205c1.453-1.131,1.853-3.044.613-4.64l-4.947-6.356c-1.242-1.595-3.426-1.972-4.879-.841l-.264.204c-1.453,1.131-1.625,3.341-.381,4.936l4.945,6.357Z"/>
            <path class="cls-8" d="M379.017,240.149c1.242,1.596,3.195,1.676,4.646.545l.266-.205c1.453-1.131,1.853-3.044.613-4.64l-4.947-6.356c-1.242-1.595-3.426-1.972-4.879-.841l-.264.204c-1.453,1.131-1.625,3.341-.381,4.936l4.945,6.357Z"/>
            <path class="cls-8" d="M379.017,259.149c1.242,1.596,3.195,1.676,4.646.545l.266-.205c1.453-1.131,1.853-3.044.613-4.64l-4.947-6.356c-1.242-1.595-3.426-1.972-4.879-.841l-.264.204c-1.453,1.131-1.625,3.341-.381,4.936l4.945,6.357Z"/>
            <path class="cls-8" d="M379.017,278.149c1.242,1.596,3.195,1.676,4.646.545l.266-.205c1.453-1.131,1.853-3.044.613-4.64l-4.947-6.356c-1.242-1.595-3.426-1.972-4.879-.841l-.264.204c-1.453,1.131-1.625,3.341-.381,4.936l4.945,6.357Z"/>
            <path class="cls-8" d="M379.017,297.149c1.242,1.596,3.195,1.676,4.646.545l.266-.205c1.453-1.131,1.853-3.044.613-4.64l-4.947-6.356c-1.242-1.595-3.426-1.972-4.879-.841l-.264.204c-1.453,1.131-1.625,3.341-.381,4.936l4.945,6.357Z"/>
          </g>
          <g>
            <path class="cls-8" d="M360.017,12.149c1.242,1.596,3.195,1.676,4.646.545l.266-.205c1.453-1.131,1.853-3.044.613-4.64l-4.947-6.356c-1.242-1.595-3.426-1.972-4.879-.841l-.264.204c-1.453,1.131-1.625,3.341-.381,4.936l4.945,6.357Z"/>
            <path class="cls-8" d="M360.017,31.149c1.242,1.596,3.195,1.676,4.646.545l.266-.205c1.453-1.131,1.853-3.044.613-4.64l-4.947-6.356c-1.242-1.595-3.426-1.972-4.879-.841l-.264.204c-1.453,1.131-1.625,3.341-.381,4.936l4.945,6.357Z"/>
            <path class="cls-8" d="M360.017,50.149c1.242,1.596,3.195,1.676,4.646.545l.266-.205c1.453-1.131,1.853-3.044.613-4.64l-4.947-6.356c-1.242-1.595-3.426-1.972-4.879-.841l-.264.204c-1.453,1.131-1.625,3.341-.381,4.936l4.945,6.357Z"/>
            <path class="cls-8" d="M360.017,69.149c1.242,1.596,3.195,1.676,4.646.545l.266-.205c1.453-1.131,1.853-3.044.613-4.64l-4.947-6.356c-1.242-1.595-3.426-1.972-4.879-.841l-.264.204c-1.453,1.131-1.625,3.341-.381,4.936l4.945,6.357Z"/>
            <path class="cls-8" d="M360.017,88.149c1.242,1.596,3.195,1.676,4.646.545l.266-.205c1.453-1.131,1.853-3.044.613-4.64l-4.947-6.356c-1.242-1.595-3.426-1.972-4.879-.841l-.264.204c-1.453,1.131-1.625,3.341-.381,4.936l4.945,6.357Z"/>
            <path class="cls-8" d="M360.017,107.149c1.242,1.596,3.195,1.676,4.646.545l.266-.205c1.453-1.131,1.853-3.044.613-4.64l-4.947-6.356c-1.242-1.595-3.426-1.972-4.879-.841l-.264.204c-1.453,1.131-1.625,3.341-.381,4.936l4.945,6.357Z"/>
            <path class="cls-8" d="M360.017,126.149c1.242,1.596,3.195,1.676,4.646.545l.266-.205c1.453-1.131,1.853-3.044.613-4.64l-4.947-6.356c-1.242-1.595-3.426-1.972-4.879-.841l-.264.204c-1.453,1.131-1.625,3.341-.381,4.936l4.945,6.357Z"/>
            <path class="cls-8" d="M360.017,145.149c1.242,1.596,3.195,1.676,4.646.545l.266-.205c1.453-1.131,1.853-3.044.613-4.64l-4.947-6.356c-1.242-1.595-3.426-1.972-4.879-.841l-.264.204c-1.453,1.131-1.625,3.341-.381,4.936l4.945,6.357Z"/>
            <path class="cls-8" d="M360.017,164.149c1.242,1.596,3.195,1.676,4.646.545l.266-.205c1.453-1.131,1.853-3.044.613-4.64l-4.947-6.356c-1.242-1.595-3.426-1.972-4.879-.841l-.264.204c-1.453,1.131-1.625,3.341-.381,4.936l4.945,6.357Z"/>
            <path class="cls-8" d="M360.017,183.149c1.242,1.596,3.195,1.676,4.646.545l.266-.205c1.453-1.131,1.853-3.044.613-4.64l-4.947-6.356c-1.242-1.595-3.426-1.972-4.879-.841l-.264.204c-1.453,1.131-1.625,3.341-.381,4.936l4.945,6.357Z"/>
            <path class="cls-8" d="M360.017,202.149c1.242,1.596,3.195,1.676,4.646.545l.266-.205c1.453-1.131,1.853-3.044.613-4.64l-4.947-6.356c-1.242-1.595-3.426-1.972-4.879-.841l-.264.204c-1.453,1.131-1.625,3.341-.381,4.936l4.945,6.357Z"/>
            <path class="cls-8" d="M360.017,221.149c1.242,1.596,3.195,1.676,4.646.545l.266-.205c1.453-1.131,1.853-3.044.613-4.64l-4.947-6.356c-1.242-1.595-3.426-1.972-4.879-.841l-.264.204c-1.453,1.131-1.625,3.341-.381,4.936l4.945,6.357Z"/>
            <path class="cls-8" d="M360.017,240.149c1.242,1.596,3.195,1.676,4.646.545l.266-.205c1.453-1.131,1.853-3.044.613-4.64l-4.947-6.356c-1.242-1.595-3.426-1.972-4.879-.841l-.264.204c-1.453,1.131-1.625,3.341-.381,4.936l4.945,6.357Z"/>
            <path class="cls-8" d="M360.017,259.149c1.242,1.596,3.195,1.676,4.646.545l.266-.205c1.453-1.131,1.853-3.044.613-4.64l-4.947-6.356c-1.242-1.595-3.426-1.972-4.879-.841l-.264.204c-1.453,1.131-1.625,3.341-.381,4.936l4.945,6.357Z"/>
            <path class="cls-8" d="M360.017,278.149c1.242,1.596,3.195,1.676,4.646.545l.266-.205c1.453-1.131,1.853-3.044.613-4.64l-4.947-6.356c-1.242-1.595-3.426-1.972-4.879-.841l-.264.204c-1.453,1.131-1.625,3.341-.381,4.936l4.945,6.357Z"/>
            <path class="cls-8" d="M360.017,297.149c1.242,1.596,3.195,1.676,4.646.545l.266-.205c1.453-1.131,1.853-3.044.613-4.64l-4.947-6.356c-1.242-1.595-3.426-1.972-4.879-.841l-.264.204c-1.453,1.131-1.625,3.341-.381,4.936l4.945,6.357Z"/>
          </g>
          <g>
            <path class="cls-8" d="M341.017,12.149c1.242,1.596,3.195,1.676,4.646.545l.266-.205c1.453-1.131,1.853-3.044.613-4.64l-4.947-6.356c-1.242-1.595-3.426-1.972-4.879-.841l-.264.204c-1.453,1.131-1.625,3.341-.381,4.936l4.945,6.357Z"/>
            <path class="cls-8" d="M341.017,31.149c1.242,1.596,3.195,1.676,4.646.545l.266-.205c1.453-1.131,1.853-3.044.613-4.64l-4.947-6.356c-1.242-1.595-3.426-1.972-4.879-.841l-.264.204c-1.453,1.131-1.625,3.341-.381,4.936l4.945,6.357Z"/>
            <path class="cls-8" d="M341.017,50.149c1.242,1.596,3.195,1.676,4.646.545l.266-.205c1.453-1.131,1.853-3.044.613-4.64l-4.947-6.356c-1.242-1.595-3.426-1.972-4.879-.841l-.264.204c-1.453,1.131-1.625,3.341-.381,4.936l4.945,6.357Z"/>
            <path class="cls-8" d="M341.017,69.149c1.242,1.596,3.195,1.676,4.646.545l.266-.205c1.453-1.131,1.853-3.044.613-4.64l-4.947-6.356c-1.242-1.595-3.426-1.972-4.879-.841l-.264.204c-1.453,1.131-1.625,3.341-.381,4.936l4.945,6.357Z"/>
            <path class="cls-8" d="M341.017,88.149c1.242,1.596,3.195,1.676,4.646.545l.266-.205c1.453-1.131,1.853-3.044.613-4.64l-4.947-6.356c-1.242-1.595-3.426-1.972-4.879-.841l-.264.204c-1.453,1.131-1.625,3.341-.381,4.936l4.945,6.357Z"/>
            <path class="cls-8" d="M341.017,107.149c1.242,1.596,3.195,1.676,4.646.545l.266-.205c1.453-1.131,1.853-3.044.613-4.64l-4.947-6.356c-1.242-1.595-3.426-1.972-4.879-.841l-.264.204c-1.453,1.131-1.625,3.341-.381,4.936l4.945,6.357Z"/>
            <path class="cls-8" d="M341.017,126.149c1.242,1.596,3.195,1.676,4.646.545l.266-.205c1.453-1.131,1.853-3.044.613-4.64l-4.947-6.356c-1.242-1.595-3.426-1.972-4.879-.841l-.264.204c-1.453,1.131-1.625,3.341-.381,4.936l4.945,6.357Z"/>
            <path class="cls-8" d="M341.017,145.149c1.242,1.596,3.195,1.676,4.646.545l.266-.205c1.453-1.131,1.853-3.044.613-4.64l-4.947-6.356c-1.242-1.595-3.426-1.972-4.879-.841l-.264.204c-1.453,1.131-1.625,3.341-.381,4.936l4.945,6.357Z"/>
            <path class="cls-8" d="M341.017,164.149c1.242,1.596,3.195,1.676,4.646.545l.266-.205c1.453-1.131,1.853-3.044.613-4.64l-4.947-6.356c-1.242-1.595-3.426-1.972-4.879-.841l-.264.204c-1.453,1.131-1.625,3.341-.381,4.936l4.945,6.357Z"/>
            <path class="cls-8" d="M341.017,183.149c1.242,1.596,3.195,1.676,4.646.545l.266-.205c1.453-1.131,1.853-3.044.613-4.64l-4.947-6.356c-1.242-1.595-3.426-1.972-4.879-.841l-.264.204c-1.453,1.131-1.625,3.341-.381,4.936l4.945,6.357Z"/>
            <path class="cls-8" d="M341.017,202.149c1.242,1.596,3.195,1.676,4.646.545l.266-.205c1.453-1.131,1.853-3.044.613-4.64l-4.947-6.356c-1.242-1.595-3.426-1.972-4.879-.841l-.264.204c-1.453,1.131-1.625,3.341-.381,4.936l4.945,6.357Z"/>
            <path class="cls-8" d="M341.017,221.149c1.242,1.596,3.195,1.676,4.646.545l.266-.205c1.453-1.131,1.853-3.044.613-4.64l-4.947-6.356c-1.242-1.595-3.426-1.972-4.879-.841l-.264.204c-1.453,1.131-1.625,3.341-.381,4.936l4.945,6.357Z"/>
            <path class="cls-8" d="M341.017,240.149c1.242,1.596,3.195,1.676,4.646.545l.266-.205c1.453-1.131,1.853-3.044.613-4.64l-4.947-6.356c-1.242-1.595-3.426-1.972-4.879-.841l-.264.204c-1.453,1.131-1.625,3.341-.381,4.936l4.945,6.357Z"/>
            <path class="cls-8" d="M341.017,259.149c1.242,1.596,3.195,1.676,4.646.545l.266-.205c1.453-1.131,1.853-3.044.613-4.64l-4.947-6.356c-1.242-1.595-3.426-1.972-4.879-.841l-.264.204c-1.453,1.131-1.625,3.341-.381,4.936l4.945,6.357Z"/>
            <path class="cls-8" d="M341.017,278.149c1.242,1.596,3.195,1.676,4.646.545l.266-.205c1.453-1.131,1.853-3.044.613-4.64l-4.947-6.356c-1.242-1.595-3.426-1.972-4.879-.841l-.264.204c-1.453,1.131-1.625,3.341-.381,4.936l4.945,6.357Z"/>
            <path class="cls-8" d="M341.017,297.149c1.242,1.596,3.195,1.676,4.646.545l.266-.205c1.453-1.131,1.853-3.044.613-4.64l-4.947-6.356c-1.242-1.595-3.426-1.972-4.879-.841l-.264.204c-1.453,1.131-1.625,3.341-.381,4.936l4.945,6.357Z"/>
          </g>
          <g>
            <path class="cls-8" d="M322.017,12.149c1.242,1.596,3.195,1.676,4.646.545l.266-.205c1.453-1.131,1.853-3.044.613-4.64l-4.947-6.356c-1.242-1.595-3.426-1.972-4.879-.841l-.264.204c-1.453,1.131-1.625,3.341-.381,4.936l4.945,6.357Z"/>
            <path class="cls-8" d="M322.017,31.149c1.242,1.596,3.195,1.676,4.646.545l.266-.205c1.453-1.131,1.853-3.044.613-4.64l-4.947-6.356c-1.242-1.595-3.426-1.972-4.879-.841l-.264.204c-1.453,1.131-1.625,3.341-.381,4.936l4.945,6.357Z"/>
            <path class="cls-8" d="M322.017,50.149c1.242,1.596,3.195,1.676,4.646.545l.266-.205c1.453-1.131,1.853-3.044.613-4.64l-4.947-6.356c-1.242-1.595-3.426-1.972-4.879-.841l-.264.204c-1.453,1.131-1.625,3.341-.381,4.936l4.945,6.357Z"/>
            <path class="cls-8" d="M322.017,69.149c1.242,1.596,3.195,1.676,4.646.545l.266-.205c1.453-1.131,1.853-3.044.613-4.64l-4.947-6.356c-1.242-1.595-3.426-1.972-4.879-.841l-.264.204c-1.453,1.131-1.625,3.341-.381,4.936l4.945,6.357Z"/>
            <path class="cls-8" d="M322.017,88.149c1.242,1.596,3.195,1.676,4.646.545l.266-.205c1.453-1.131,1.853-3.044.613-4.64l-4.947-6.356c-1.242-1.595-3.426-1.972-4.879-.841l-.264.204c-1.453,1.131-1.625,3.341-.381,4.936l4.945,6.357Z"/>
            <path class="cls-8" d="M322.017,107.149c1.242,1.596,3.195,1.676,4.646.545l.266-.205c1.453-1.131,1.853-3.044.613-4.64l-4.947-6.356c-1.242-1.595-3.426-1.972-4.879-.841l-.264.204c-1.453,1.131-1.625,3.341-.381,4.936l4.945,6.357Z"/>
            <path class="cls-8" d="M322.017,126.149c1.242,1.596,3.195,1.676,4.646.545l.266-.205c1.453-1.131,1.853-3.044.613-4.64l-4.947-6.356c-1.242-1.595-3.426-1.972-4.879-.841l-.264.204c-1.453,1.131-1.625,3.341-.381,4.936l4.945,6.357Z"/>
            <path class="cls-8" d="M322.017,145.149c1.242,1.596,3.195,1.676,4.646.545l.266-.205c1.453-1.131,1.853-3.044.613-4.64l-4.947-6.356c-1.242-1.595-3.426-1.972-4.879-.841l-.264.204c-1.453,1.131-1.625,3.341-.381,4.936l4.945,6.357Z"/>
            <path class="cls-8" d="M322.017,164.149c1.242,1.596,3.195,1.676,4.646.545l.266-.205c1.453-1.131,1.853-3.044.613-4.64l-4.947-6.356c-1.242-1.595-3.426-1.972-4.879-.841l-.264.204c-1.453,1.131-1.625,3.341-.381,4.936l4.945,6.357Z"/>
            <path class="cls-8" d="M322.017,183.149c1.242,1.596,3.195,1.676,4.646.545l.266-.205c1.453-1.131,1.853-3.044.613-4.64l-4.947-6.356c-1.242-1.595-3.426-1.972-4.879-.841l-.264.204c-1.453,1.131-1.625,3.341-.381,4.936l4.945,6.357Z"/>
            <path class="cls-8" d="M322.017,202.149c1.242,1.596,3.195,1.676,4.646.545l.266-.205c1.453-1.131,1.853-3.044.613-4.64l-4.947-6.356c-1.242-1.595-3.426-1.972-4.879-.841l-.264.204c-1.453,1.131-1.625,3.341-.381,4.936l4.945,6.357Z"/>
            <path class="cls-8" d="M322.017,221.149c1.242,1.596,3.195,1.676,4.646.545l.266-.205c1.453-1.131,1.853-3.044.613-4.64l-4.947-6.356c-1.242-1.595-3.426-1.972-4.879-.841l-.264.204c-1.453,1.131-1.625,3.341-.381,4.936l4.945,6.357Z"/>
            <path class="cls-8" d="M322.017,240.149c1.242,1.596,3.195,1.676,4.646.545l.266-.205c1.453-1.131,1.853-3.044.613-4.64l-4.947-6.356c-1.242-1.595-3.426-1.972-4.879-.841l-.264.204c-1.453,1.131-1.625,3.341-.381,4.936l4.945,6.357Z"/>
            <path class="cls-8" d="M322.017,259.149c1.242,1.596,3.195,1.676,4.646.545l.266-.205c1.453-1.131,1.853-3.044.613-4.64l-4.947-6.356c-1.242-1.595-3.426-1.972-4.879-.841l-.264.204c-1.453,1.131-1.625,3.341-.381,4.936l4.945,6.357Z"/>
            <path class="cls-8" d="M322.017,278.149c1.242,1.596,3.195,1.676,4.646.545l.266-.205c1.453-1.131,1.853-3.044.613-4.64l-4.947-6.356c-1.242-1.595-3.426-1.972-4.879-.841l-.264.204c-1.453,1.131-1.625,3.341-.381,4.936l4.945,6.357Z"/>
            <path class="cls-8" d="M322.017,297.149c1.242,1.596,3.195,1.676,4.646.545l.266-.205c1.453-1.131,1.853-3.044.613-4.64l-4.947-6.356c-1.242-1.595-3.426-1.972-4.879-.841l-.264.204c-1.453,1.131-1.625,3.341-.381,4.936l4.945,6.357Z"/>
          </g>
          <g>
            <path class="cls-8" d="M303.017,12.149c1.242,1.596,3.195,1.676,4.646.545l.266-.205c1.453-1.131,1.853-3.044.613-4.64l-4.947-6.356c-1.242-1.595-3.426-1.972-4.879-.841l-.264.204c-1.453,1.131-1.625,3.341-.381,4.936l4.945,6.357Z"/>
            <path class="cls-8" d="M303.017,31.149c1.242,1.596,3.195,1.676,4.646.545l.266-.205c1.453-1.131,1.853-3.044.613-4.64l-4.947-6.356c-1.242-1.595-3.426-1.972-4.879-.841l-.264.204c-1.453,1.131-1.625,3.341-.381,4.936l4.945,6.357Z"/>
            <path class="cls-8" d="M303.017,50.149c1.242,1.596,3.195,1.676,4.646.545l.266-.205c1.453-1.131,1.853-3.044.613-4.64l-4.947-6.356c-1.242-1.595-3.426-1.972-4.879-.841l-.264.204c-1.453,1.131-1.625,3.341-.381,4.936l4.945,6.357Z"/>
            <path class="cls-8" d="M303.017,69.149c1.242,1.596,3.195,1.676,4.646.545l.266-.205c1.453-1.131,1.853-3.044.613-4.64l-4.947-6.356c-1.242-1.595-3.426-1.972-4.879-.841l-.264.204c-1.453,1.131-1.625,3.341-.381,4.936l4.945,6.357Z"/>
            <path class="cls-8" d="M303.017,88.149c1.242,1.596,3.195,1.676,4.646.545l.266-.205c1.453-1.131,1.853-3.044.613-4.64l-4.947-6.356c-1.242-1.595-3.426-1.972-4.879-.841l-.264.204c-1.453,1.131-1.625,3.341-.381,4.936l4.945,6.357Z"/>
            <path class="cls-8" d="M303.017,107.149c1.242,1.596,3.195,1.676,4.646.545l.266-.205c1.453-1.131,1.853-3.044.613-4.64l-4.947-6.356c-1.242-1.595-3.426-1.972-4.879-.841l-.264.204c-1.453,1.131-1.625,3.341-.381,4.936l4.945,6.357Z"/>
            <path class="cls-8" d="M303.017,126.149c1.242,1.596,3.195,1.676,4.646.545l.266-.205c1.453-1.131,1.853-3.044.613-4.64l-4.947-6.356c-1.242-1.595-3.426-1.972-4.879-.841l-.264.204c-1.453,1.131-1.625,3.341-.381,4.936l4.945,6.357Z"/>
            <path class="cls-8" d="M303.017,145.149c1.242,1.596,3.195,1.676,4.646.545l.266-.205c1.453-1.131,1.853-3.044.613-4.64l-4.947-6.356c-1.242-1.595-3.426-1.972-4.879-.841l-.264.204c-1.453,1.131-1.625,3.341-.381,4.936l4.945,6.357Z"/>
            <path class="cls-8" d="M303.017,164.149c1.242,1.596,3.195,1.676,4.646.545l.266-.205c1.453-1.131,1.853-3.044.613-4.64l-4.947-6.356c-1.242-1.595-3.426-1.972-4.879-.841l-.264.204c-1.453,1.131-1.625,3.341-.381,4.936l4.945,6.357Z"/>
            <path class="cls-8" d="M303.017,183.149c1.242,1.596,3.195,1.676,4.646.545l.266-.205c1.453-1.131,1.853-3.044.613-4.64l-4.947-6.356c-1.242-1.595-3.426-1.972-4.879-.841l-.264.204c-1.453,1.131-1.625,3.341-.381,4.936l4.945,6.357Z"/>
            <path class="cls-8" d="M303.017,202.149c1.242,1.596,3.195,1.676,4.646.545l.266-.205c1.453-1.131,1.853-3.044.613-4.64l-4.947-6.356c-1.242-1.595-3.426-1.972-4.879-.841l-.264.204c-1.453,1.131-1.625,3.341-.381,4.936l4.945,6.357Z"/>
            <path class="cls-8" d="M303.017,221.149c1.242,1.596,3.195,1.676,4.646.545l.266-.205c1.453-1.131,1.853-3.044.613-4.64l-4.947-6.356c-1.242-1.595-3.426-1.972-4.879-.841l-.264.204c-1.453,1.131-1.625,3.341-.381,4.936l4.945,6.357Z"/>
            <path class="cls-8" d="M303.017,240.149c1.242,1.596,3.195,1.676,4.646.545l.266-.205c1.453-1.131,1.853-3.044.613-4.64l-4.947-6.356c-1.242-1.595-3.426-1.972-4.879-.841l-.264.204c-1.453,1.131-1.625,3.341-.381,4.936l4.945,6.357Z"/>
            <path class="cls-8" d="M303.017,259.149c1.242,1.596,3.195,1.676,4.646.545l.266-.205c1.453-1.131,1.853-3.044.613-4.64l-4.947-6.356c-1.242-1.595-3.426-1.972-4.879-.841l-.264.204c-1.453,1.131-1.625,3.341-.381,4.936l4.945,6.357Z"/>
            <path class="cls-8" d="M303.017,278.149c1.242,1.596,3.195,1.676,4.646.545l.266-.205c1.453-1.131,1.853-3.044.613-4.64l-4.947-6.356c-1.242-1.595-3.426-1.972-4.879-.841l-.264.204c-1.453,1.131-1.625,3.341-.381,4.936l4.945,6.357Z"/>
            <path class="cls-8" d="M303.017,297.149c1.242,1.596,3.195,1.676,4.646.545l.266-.205c1.453-1.131,1.853-3.044.613-4.64l-4.947-6.356c-1.242-1.595-3.426-1.972-4.879-.841l-.264.204c-1.453,1.131-1.625,3.341-.381,4.936l4.945,6.357Z"/>
          </g>
          <g>
            <path class="cls-8" d="M284.017,12.149c1.242,1.596,3.195,1.676,4.646.545l.266-.205c1.453-1.131,1.853-3.044.613-4.64l-4.947-6.356c-1.242-1.595-3.426-1.972-4.879-.841l-.264.204c-1.453,1.131-1.625,3.341-.381,4.936l4.945,6.357Z"/>
            <path class="cls-8" d="M284.017,31.149c1.242,1.596,3.195,1.676,4.646.545l.266-.205c1.453-1.131,1.853-3.044.613-4.64l-4.947-6.356c-1.242-1.595-3.426-1.972-4.879-.841l-.264.204c-1.453,1.131-1.625,3.341-.381,4.936l4.945,6.357Z"/>
            <path class="cls-8" d="M284.017,50.149c1.242,1.596,3.195,1.676,4.646.545l.266-.205c1.453-1.131,1.853-3.044.613-4.64l-4.947-6.356c-1.242-1.595-3.426-1.972-4.879-.841l-.264.204c-1.453,1.131-1.625,3.341-.381,4.936l4.945,6.357Z"/>
            <path class="cls-8" d="M284.017,69.149c1.242,1.596,3.195,1.676,4.646.545l.266-.205c1.453-1.131,1.853-3.044.613-4.64l-4.947-6.356c-1.242-1.595-3.426-1.972-4.879-.841l-.264.204c-1.453,1.131-1.625,3.341-.381,4.936l4.945,6.357Z"/>
            <path class="cls-8" d="M284.017,88.149c1.242,1.596,3.195,1.676,4.646.545l.266-.205c1.453-1.131,1.853-3.044.613-4.64l-4.947-6.356c-1.242-1.595-3.426-1.972-4.879-.841l-.264.204c-1.453,1.131-1.625,3.341-.381,4.936l4.945,6.357Z"/>
            <path class="cls-8" d="M284.017,107.149c1.242,1.596,3.195,1.676,4.646.545l.266-.205c1.453-1.131,1.853-3.044.613-4.64l-4.947-6.356c-1.242-1.595-3.426-1.972-4.879-.841l-.264.204c-1.453,1.131-1.625,3.341-.381,4.936l4.945,6.357Z"/>
            <path class="cls-8" d="M284.017,126.149c1.242,1.596,3.195,1.676,4.646.545l.266-.205c1.453-1.131,1.853-3.044.613-4.64l-4.947-6.356c-1.242-1.595-3.426-1.972-4.879-.841l-.264.204c-1.453,1.131-1.625,3.341-.381,4.936l4.945,6.357Z"/>
            <path class="cls-8" d="M284.017,145.149c1.242,1.596,3.195,1.676,4.646.545l.266-.205c1.453-1.131,1.853-3.044.613-4.64l-4.947-6.356c-1.242-1.595-3.426-1.972-4.879-.841l-.264.204c-1.453,1.131-1.625,3.341-.381,4.936l4.945,6.357Z"/>
            <path class="cls-8" d="M284.017,164.149c1.242,1.596,3.195,1.676,4.646.545l.266-.205c1.453-1.131,1.853-3.044.613-4.64l-4.947-6.356c-1.242-1.595-3.426-1.972-4.879-.841l-.264.204c-1.453,1.131-1.625,3.341-.381,4.936l4.945,6.357Z"/>
            <path class="cls-8" d="M284.017,183.149c1.242,1.596,3.195,1.676,4.646.545l.266-.205c1.453-1.131,1.853-3.044.613-4.64l-4.947-6.356c-1.242-1.595-3.426-1.972-4.879-.841l-.264.204c-1.453,1.131-1.625,3.341-.381,4.936l4.945,6.357Z"/>
            <path class="cls-8" d="M284.017,202.149c1.242,1.596,3.195,1.676,4.646.545l.266-.205c1.453-1.131,1.853-3.044.613-4.64l-4.947-6.356c-1.242-1.595-3.426-1.972-4.879-.841l-.264.204c-1.453,1.131-1.625,3.341-.381,4.936l4.945,6.357Z"/>
            <path class="cls-8" d="M284.017,221.149c1.242,1.596,3.195,1.676,4.646.545l.266-.205c1.453-1.131,1.853-3.044.613-4.64l-4.947-6.356c-1.242-1.595-3.426-1.972-4.879-.841l-.264.204c-1.453,1.131-1.625,3.341-.381,4.936l4.945,6.357Z"/>
            <path class="cls-8" d="M284.017,240.149c1.242,1.596,3.195,1.676,4.646.545l.266-.205c1.453-1.131,1.853-3.044.613-4.64l-4.947-6.356c-1.242-1.595-3.426-1.972-4.879-.841l-.264.204c-1.453,1.131-1.625,3.341-.381,4.936l4.945,6.357Z"/>
            <path class="cls-8" d="M284.017,259.149c1.242,1.596,3.195,1.676,4.646.545l.266-.205c1.453-1.131,1.853-3.044.613-4.64l-4.947-6.356c-1.242-1.595-3.426-1.972-4.879-.841l-.264.204c-1.453,1.131-1.625,3.341-.381,4.936l4.945,6.357Z"/>
            <path class="cls-8" d="M284.017,278.149c1.242,1.596,3.195,1.676,4.646.545l.266-.205c1.453-1.131,1.853-3.044.613-4.64l-4.947-6.356c-1.242-1.595-3.426-1.972-4.879-.841l-.264.204c-1.453,1.131-1.625,3.341-.381,4.936l4.945,6.357Z"/>
            <path class="cls-8" d="M284.017,297.149c1.242,1.596,3.195,1.676,4.646.545l.266-.205c1.453-1.131,1.853-3.044.613-4.64l-4.947-6.356c-1.242-1.595-3.426-1.972-4.879-.841l-.264.204c-1.453,1.131-1.625,3.341-.381,4.936l4.945,6.357Z"/>
          </g>
          <g>
            <path class="cls-8" d="M265.017,12.149c1.242,1.596,3.195,1.676,4.646.545l.266-.205c1.453-1.131,1.853-3.044.613-4.64l-4.947-6.356c-1.242-1.595-3.426-1.972-4.879-.841l-.264.204c-1.453,1.131-1.625,3.341-.381,4.936l4.945,6.357Z"/>
            <path class="cls-8" d="M265.017,31.149c1.242,1.596,3.195,1.676,4.646.545l.266-.205c1.453-1.131,1.853-3.044.613-4.64l-4.947-6.356c-1.242-1.595-3.426-1.972-4.879-.841l-.264.204c-1.453,1.131-1.625,3.341-.381,4.936l4.945,6.357Z"/>
            <path class="cls-8" d="M265.017,50.149c1.242,1.596,3.195,1.676,4.646.545l.266-.205c1.453-1.131,1.853-3.044.613-4.64l-4.947-6.356c-1.242-1.595-3.426-1.972-4.879-.841l-.264.204c-1.453,1.131-1.625,3.341-.381,4.936l4.945,6.357Z"/>
            <path class="cls-8" d="M265.017,69.149c1.242,1.596,3.195,1.676,4.646.545l.266-.205c1.453-1.131,1.853-3.044.613-4.64l-4.947-6.356c-1.242-1.595-3.426-1.972-4.879-.841l-.264.204c-1.453,1.131-1.625,3.341-.381,4.936l4.945,6.357Z"/>
            <path class="cls-8" d="M265.017,88.149c1.242,1.596,3.195,1.676,4.646.545l.266-.205c1.453-1.131,1.853-3.044.613-4.64l-4.947-6.356c-1.242-1.595-3.426-1.972-4.879-.841l-.264.204c-1.453,1.131-1.625,3.341-.381,4.936l4.945,6.357Z"/>
            <path class="cls-8" d="M265.017,107.149c1.242,1.596,3.195,1.676,4.646.545l.266-.205c1.453-1.131,1.853-3.044.613-4.64l-4.947-6.356c-1.242-1.595-3.426-1.972-4.879-.841l-.264.204c-1.453,1.131-1.625,3.341-.381,4.936l4.945,6.357Z"/>
            <path class="cls-8" d="M265.017,126.149c1.242,1.596,3.195,1.676,4.646.545l.266-.205c1.453-1.131,1.853-3.044.613-4.64l-4.947-6.356c-1.242-1.595-3.426-1.972-4.879-.841l-.264.204c-1.453,1.131-1.625,3.341-.381,4.936l4.945,6.357Z"/>
            <path class="cls-8" d="M265.017,145.149c1.242,1.596,3.195,1.676,4.646.545l.266-.205c1.453-1.131,1.853-3.044.613-4.64l-4.947-6.356c-1.242-1.595-3.426-1.972-4.879-.841l-.264.204c-1.453,1.131-1.625,3.341-.381,4.936l4.945,6.357Z"/>
            <path class="cls-8" d="M265.017,164.149c1.242,1.596,3.195,1.676,4.646.545l.266-.205c1.453-1.131,1.853-3.044.613-4.64l-4.947-6.356c-1.242-1.595-3.426-1.972-4.879-.841l-.264.204c-1.453,1.131-1.625,3.341-.381,4.936l4.945,6.357Z"/>
            <path class="cls-8" d="M265.017,183.149c1.242,1.596,3.195,1.676,4.646.545l.266-.205c1.453-1.131,1.853-3.044.613-4.64l-4.947-6.356c-1.242-1.595-3.426-1.972-4.879-.841l-.264.204c-1.453,1.131-1.625,3.341-.381,4.936l4.945,6.357Z"/>
            <path class="cls-8" d="M265.017,202.149c1.242,1.596,3.195,1.676,4.646.545l.266-.205c1.453-1.131,1.853-3.044.613-4.64l-4.947-6.356c-1.242-1.595-3.426-1.972-4.879-.841l-.264.204c-1.453,1.131-1.625,3.341-.381,4.936l4.945,6.357Z"/>
            <path class="cls-8" d="M265.017,221.149c1.242,1.596,3.195,1.676,4.646.545l.266-.205c1.453-1.131,1.853-3.044.613-4.64l-4.947-6.356c-1.242-1.595-3.426-1.972-4.879-.841l-.264.204c-1.453,1.131-1.625,3.341-.381,4.936l4.945,6.357Z"/>
            <path class="cls-8" d="M265.017,240.149c1.242,1.596,3.195,1.676,4.646.545l.266-.205c1.453-1.131,1.853-3.044.613-4.64l-4.947-6.356c-1.242-1.595-3.426-1.972-4.879-.841l-.264.204c-1.453,1.131-1.625,3.341-.381,4.936l4.945,6.357Z"/>
            <path class="cls-8" d="M265.017,259.149c1.242,1.596,3.195,1.676,4.646.545l.266-.205c1.453-1.131,1.853-3.044.613-4.64l-4.947-6.356c-1.242-1.595-3.426-1.972-4.879-.841l-.264.204c-1.453,1.131-1.625,3.341-.381,4.936l4.945,6.357Z"/>
            <path class="cls-8" d="M265.017,278.149c1.242,1.596,3.195,1.676,4.646.545l.266-.205c1.453-1.131,1.853-3.044.613-4.64l-4.947-6.356c-1.242-1.595-3.426-1.972-4.879-.841l-.264.204c-1.453,1.131-1.625,3.341-.381,4.936l4.945,6.357Z"/>
            <path class="cls-8" d="M265.017,297.149c1.242,1.596,3.195,1.676,4.646.545l.266-.205c1.453-1.131,1.853-3.044.613-4.64l-4.947-6.356c-1.242-1.595-3.426-1.972-4.879-.841l-.264.204c-1.453,1.131-1.625,3.341-.381,4.936l4.945,6.357Z"/>
          </g>
          <g>
            <path class="cls-8" d="M246.017,12.149c1.242,1.596,3.195,1.676,4.646.545l.266-.205c1.453-1.131,1.853-3.044.613-4.64l-4.947-6.356c-1.242-1.595-3.426-1.972-4.879-.841l-.264.204c-1.453,1.131-1.625,3.341-.381,4.936l4.945,6.357Z"/>
            <path class="cls-8" d="M246.017,31.149c1.242,1.596,3.195,1.676,4.646.545l.266-.205c1.453-1.131,1.853-3.044.613-4.64l-4.947-6.356c-1.242-1.595-3.426-1.972-4.879-.841l-.264.204c-1.453,1.131-1.625,3.341-.381,4.936l4.945,6.357Z"/>
            <path class="cls-8" d="M246.017,50.149c1.242,1.596,3.195,1.676,4.646.545l.266-.205c1.453-1.131,1.853-3.044.613-4.64l-4.947-6.356c-1.242-1.595-3.426-1.972-4.879-.841l-.264.204c-1.453,1.131-1.625,3.341-.381,4.936l4.945,6.357Z"/>
            <path class="cls-8" d="M246.017,69.149c1.242,1.596,3.195,1.676,4.646.545l.266-.205c1.453-1.131,1.853-3.044.613-4.64l-4.947-6.356c-1.242-1.595-3.426-1.972-4.879-.841l-.264.204c-1.453,1.131-1.625,3.341-.381,4.936l4.945,6.357Z"/>
            <path class="cls-8" d="M246.017,88.149c1.242,1.596,3.195,1.676,4.646.545l.266-.205c1.453-1.131,1.853-3.044.613-4.64l-4.947-6.356c-1.242-1.595-3.426-1.972-4.879-.841l-.264.204c-1.453,1.131-1.625,3.341-.381,4.936l4.945,6.357Z"/>
            <path class="cls-8" d="M246.017,107.149c1.242,1.596,3.195,1.676,4.646.545l.266-.205c1.453-1.131,1.853-3.044.613-4.64l-4.947-6.356c-1.242-1.595-3.426-1.972-4.879-.841l-.264.204c-1.453,1.131-1.625,3.341-.381,4.936l4.945,6.357Z"/>
            <path class="cls-8" d="M246.017,126.149c1.242,1.596,3.195,1.676,4.646.545l.266-.205c1.453-1.131,1.853-3.044.613-4.64l-4.947-6.356c-1.242-1.595-3.426-1.972-4.879-.841l-.264.204c-1.453,1.131-1.625,3.341-.381,4.936l4.945,6.357Z"/>
            <path class="cls-8" d="M246.017,145.149c1.242,1.596,3.195,1.676,4.646.545l.266-.205c1.453-1.131,1.853-3.044.613-4.64l-4.947-6.356c-1.242-1.595-3.426-1.972-4.879-.841l-.264.204c-1.453,1.131-1.625,3.341-.381,4.936l4.945,6.357Z"/>
            <path class="cls-8" d="M246.017,164.149c1.242,1.596,3.195,1.676,4.646.545l.266-.205c1.453-1.131,1.853-3.044.613-4.64l-4.947-6.356c-1.242-1.595-3.426-1.972-4.879-.841l-.264.204c-1.453,1.131-1.625,3.341-.381,4.936l4.945,6.357Z"/>
            <path class="cls-8" d="M246.017,183.149c1.242,1.596,3.195,1.676,4.646.545l.266-.205c1.453-1.131,1.853-3.044.613-4.64l-4.947-6.356c-1.242-1.595-3.426-1.972-4.879-.841l-.264.204c-1.453,1.131-1.625,3.341-.381,4.936l4.945,6.357Z"/>
            <path class="cls-8" d="M246.017,202.149c1.242,1.596,3.195,1.676,4.646.545l.266-.205c1.453-1.131,1.853-3.044.613-4.64l-4.947-6.356c-1.242-1.595-3.426-1.972-4.879-.841l-.264.204c-1.453,1.131-1.625,3.341-.381,4.936l4.945,6.357Z"/>
            <path class="cls-8" d="M246.017,221.149c1.242,1.596,3.195,1.676,4.646.545l.266-.205c1.453-1.131,1.853-3.044.613-4.64l-4.947-6.356c-1.242-1.595-3.426-1.972-4.879-.841l-.264.204c-1.453,1.131-1.625,3.341-.381,4.936l4.945,6.357Z"/>
            <path class="cls-8" d="M246.017,240.149c1.242,1.596,3.195,1.676,4.646.545l.266-.205c1.453-1.131,1.853-3.044.613-4.64l-4.947-6.356c-1.242-1.595-3.426-1.972-4.879-.841l-.264.204c-1.453,1.131-1.625,3.341-.381,4.936l4.945,6.357Z"/>
            <path class="cls-8" d="M246.017,259.149c1.242,1.596,3.195,1.676,4.646.545l.266-.205c1.453-1.131,1.853-3.044.613-4.64l-4.947-6.356c-1.242-1.595-3.426-1.972-4.879-.841l-.264.204c-1.453,1.131-1.625,3.341-.381,4.936l4.945,6.357Z"/>
            <path class="cls-8" d="M246.017,278.149c1.242,1.596,3.195,1.676,4.646.545l.266-.205c1.453-1.131,1.853-3.044.613-4.64l-4.947-6.356c-1.242-1.595-3.426-1.972-4.879-.841l-.264.204c-1.453,1.131-1.625,3.341-.381,4.936l4.945,6.357Z"/>
            <path class="cls-8" d="M246.017,297.149c1.242,1.596,3.195,1.676,4.646.545l.266-.205c1.453-1.131,1.853-3.044.613-4.64l-4.947-6.356c-1.242-1.595-3.426-1.972-4.879-.841l-.264.204c-1.453,1.131-1.625,3.341-.381,4.936l4.945,6.357Z"/>
          </g>
          <g>
            <path class="cls-8" d="M227.017,12.149c1.242,1.596,3.195,1.676,4.646.545l.266-.205c1.453-1.131,1.853-3.044.613-4.64l-4.947-6.356c-1.242-1.595-3.426-1.972-4.879-.841l-.264.204c-1.453,1.131-1.625,3.341-.381,4.936l4.945,6.357Z"/>
            <path class="cls-8" d="M227.017,31.149c1.242,1.596,3.195,1.676,4.646.545l.266-.205c1.453-1.131,1.853-3.044.613-4.64l-4.947-6.356c-1.242-1.595-3.426-1.972-4.879-.841l-.264.204c-1.453,1.131-1.625,3.341-.381,4.936l4.945,6.357Z"/>
            <path class="cls-8" d="M227.017,50.149c1.242,1.596,3.195,1.676,4.646.545l.266-.205c1.453-1.131,1.853-3.044.613-4.64l-4.947-6.356c-1.242-1.595-3.426-1.972-4.879-.841l-.264.204c-1.453,1.131-1.625,3.341-.381,4.936l4.945,6.357Z"/>
            <path class="cls-8" d="M227.017,69.149c1.242,1.596,3.195,1.676,4.646.545l.266-.205c1.453-1.131,1.853-3.044.613-4.64l-4.947-6.356c-1.242-1.595-3.426-1.972-4.879-.841l-.264.204c-1.453,1.131-1.625,3.341-.381,4.936l4.945,6.357Z"/>
            <path class="cls-8" d="M227.017,88.149c1.242,1.596,3.195,1.676,4.646.545l.266-.205c1.453-1.131,1.853-3.044.613-4.64l-4.947-6.356c-1.242-1.595-3.426-1.972-4.879-.841l-.264.204c-1.453,1.131-1.625,3.341-.381,4.936l4.945,6.357Z"/>
            <path class="cls-8" d="M227.017,107.149c1.242,1.596,3.195,1.676,4.646.545l.266-.205c1.453-1.131,1.853-3.044.613-4.64l-4.947-6.356c-1.242-1.595-3.426-1.972-4.879-.841l-.264.204c-1.453,1.131-1.625,3.341-.381,4.936l4.945,6.357Z"/>
            <path class="cls-8" d="M227.017,126.149c1.242,1.596,3.195,1.676,4.646.545l.266-.205c1.453-1.131,1.853-3.044.613-4.64l-4.947-6.356c-1.242-1.595-3.426-1.972-4.879-.841l-.264.204c-1.453,1.131-1.625,3.341-.381,4.936l4.945,6.357Z"/>
            <path class="cls-8" d="M227.017,145.149c1.242,1.596,3.195,1.676,4.646.545l.266-.205c1.453-1.131,1.853-3.044.613-4.64l-4.947-6.356c-1.242-1.595-3.426-1.972-4.879-.841l-.264.204c-1.453,1.131-1.625,3.341-.381,4.936l4.945,6.357Z"/>
            <path class="cls-8" d="M227.017,164.149c1.242,1.596,3.195,1.676,4.646.545l.266-.205c1.453-1.131,1.853-3.044.613-4.64l-4.947-6.356c-1.242-1.595-3.426-1.972-4.879-.841l-.264.204c-1.453,1.131-1.625,3.341-.381,4.936l4.945,6.357Z"/>
            <path class="cls-8" d="M227.017,183.149c1.242,1.596,3.195,1.676,4.646.545l.266-.205c1.453-1.131,1.853-3.044.613-4.64l-4.947-6.356c-1.242-1.595-3.426-1.972-4.879-.841l-.264.204c-1.453,1.131-1.625,3.341-.381,4.936l4.945,6.357Z"/>
            <path class="cls-8" d="M227.017,202.149c1.242,1.596,3.195,1.676,4.646.545l.266-.205c1.453-1.131,1.853-3.044.613-4.64l-4.947-6.356c-1.242-1.595-3.426-1.972-4.879-.841l-.264.204c-1.453,1.131-1.625,3.341-.381,4.936l4.945,6.357Z"/>
            <path class="cls-8" d="M227.017,221.149c1.242,1.596,3.195,1.676,4.646.545l.266-.205c1.453-1.131,1.853-3.044.613-4.64l-4.947-6.356c-1.242-1.595-3.426-1.972-4.879-.841l-.264.204c-1.453,1.131-1.625,3.341-.381,4.936l4.945,6.357Z"/>
            <path class="cls-8" d="M227.017,240.149c1.242,1.596,3.195,1.676,4.646.545l.266-.205c1.453-1.131,1.853-3.044.613-4.64l-4.947-6.356c-1.242-1.595-3.426-1.972-4.879-.841l-.264.204c-1.453,1.131-1.625,3.341-.381,4.936l4.945,6.357Z"/>
            <path class="cls-8" d="M227.017,259.149c1.242,1.596,3.195,1.676,4.646.545l.266-.205c1.453-1.131,1.853-3.044.613-4.64l-4.947-6.356c-1.242-1.595-3.426-1.972-4.879-.841l-.264.204c-1.453,1.131-1.625,3.341-.381,4.936l4.945,6.357Z"/>
            <path class="cls-8" d="M227.017,278.149c1.242,1.596,3.195,1.676,4.646.545l.266-.205c1.453-1.131,1.853-3.044.613-4.64l-4.947-6.356c-1.242-1.595-3.426-1.972-4.879-.841l-.264.204c-1.453,1.131-1.625,3.341-.381,4.936l4.945,6.357Z"/>
            <path class="cls-8" d="M227.017,297.149c1.242,1.596,3.195,1.676,4.646.545l.266-.205c1.453-1.131,1.853-3.044.613-4.64l-4.947-6.356c-1.242-1.595-3.426-1.972-4.879-.841l-.264.204c-1.453,1.131-1.625,3.341-.381,4.936l4.945,6.357Z"/>
          </g>
          <g>
            <path class="cls-8" d="M382.716,15.499c-1.598,1.242-1.676,3.195-.547,4.647l.205.265c1.131,1.453,3.045,1.853,4.641.613l6.355-4.947c1.596-1.241,1.973-3.426.842-4.879l-.205-.263c-1.131-1.454-3.34-1.626-4.936-.382l-6.355,4.945Z"/>
            <path class="cls-8" d="M363.716,15.499c-1.598,1.242-1.676,3.195-.547,4.647l.205.265c1.131,1.453,3.045,1.853,4.641.613l6.355-4.947c1.596-1.241,1.973-3.426.842-4.879l-.205-.263c-1.131-1.454-3.34-1.626-4.936-.382l-6.355,4.945Z"/>
            <path class="cls-8" d="M344.716,15.499c-1.598,1.242-1.676,3.195-.547,4.647l.205.265c1.131,1.453,3.045,1.853,4.641.613l6.355-4.947c1.596-1.241,1.973-3.426.842-4.879l-.205-.263c-1.131-1.454-3.34-1.626-4.936-.382l-6.355,4.945Z"/>
            <path class="cls-8" d="M325.716,15.499c-1.598,1.242-1.676,3.195-.547,4.647l.205.265c1.131,1.453,3.045,1.853,4.641.613l6.355-4.947c1.596-1.241,1.973-3.426.842-4.879l-.205-.263c-1.131-1.454-3.34-1.626-4.936-.382l-6.355,4.945Z"/>
            <path class="cls-8" d="M306.716,15.499c-1.598,1.242-1.676,3.195-.547,4.647l.205.265c1.131,1.453,3.045,1.853,4.641.613l6.355-4.947c1.596-1.241,1.973-3.426.842-4.879l-.205-.263c-1.131-1.454-3.34-1.626-4.936-.382l-6.355,4.945Z"/>
            <path class="cls-8" d="M287.716,15.499c-1.598,1.242-1.676,3.195-.547,4.647l.205.265c1.131,1.453,3.045,1.853,4.641.613l6.355-4.947c1.596-1.241,1.973-3.426.842-4.879l-.205-.263c-1.131-1.454-3.34-1.626-4.936-.382l-6.355,4.945Z"/>
            <path class="cls-8" d="M268.716,15.499c-1.598,1.242-1.676,3.195-.547,4.647l.205.265c1.131,1.453,3.045,1.853,4.641.613l6.355-4.947c1.596-1.241,1.973-3.426.842-4.879l-.205-.263c-1.131-1.454-3.34-1.626-4.936-.382l-6.355,4.945Z"/>
            <path class="cls-8" d="M249.716,15.499c-1.598,1.242-1.676,3.195-.547,4.647l.205.265c1.131,1.453,3.045,1.853,4.641.613l6.355-4.947c1.596-1.241,1.973-3.426.842-4.879l-.205-.263c-1.131-1.454-3.34-1.626-4.936-.382l-6.355,4.945Z"/>
            <path class="cls-8" d="M230.716,15.499c-1.598,1.242-1.676,3.195-.547,4.647l.205.265c1.131,1.453,3.045,1.853,4.641.613l6.355-4.947c1.596-1.241,1.973-3.426.842-4.879l-.205-.263c-1.131-1.454-3.34-1.626-4.936-.382l-6.355,4.945Z"/>
          </g>
          <g>
            <path class="cls-8" d="M382.716,34.499c-1.598,1.242-1.676,3.195-.547,4.647l.205.265c1.131,1.453,3.045,1.853,4.641.613l6.355-4.947c1.596-1.241,1.973-3.426.842-4.879l-.205-.263c-1.131-1.454-3.34-1.626-4.936-.382l-6.355,4.945Z"/>
            <path class="cls-8" d="M363.716,34.499c-1.598,1.242-1.676,3.195-.547,4.647l.205.265c1.131,1.453,3.045,1.853,4.641.613l6.355-4.947c1.596-1.241,1.973-3.426.842-4.879l-.205-.263c-1.131-1.454-3.34-1.626-4.936-.382l-6.355,4.945Z"/>
            <path class="cls-8" d="M344.716,34.499c-1.598,1.242-1.676,3.195-.547,4.647l.205.265c1.131,1.453,3.045,1.853,4.641.613l6.355-4.947c1.596-1.241,1.973-3.426.842-4.879l-.205-.263c-1.131-1.454-3.34-1.626-4.936-.382l-6.355,4.945Z"/>
            <path class="cls-8" d="M325.716,34.499c-1.598,1.242-1.676,3.195-.547,4.647l.205.265c1.131,1.453,3.045,1.853,4.641.613l6.355-4.947c1.596-1.241,1.973-3.426.842-4.879l-.205-.263c-1.131-1.454-3.34-1.626-4.936-.382l-6.355,4.945Z"/>
            <path class="cls-8" d="M306.716,34.499c-1.598,1.242-1.676,3.195-.547,4.647l.205.265c1.131,1.453,3.045,1.853,4.641.613l6.355-4.947c1.596-1.241,1.973-3.426.842-4.879l-.205-.263c-1.131-1.454-3.34-1.626-4.936-.382l-6.355,4.945Z"/>
            <path class="cls-8" d="M287.716,34.499c-1.598,1.242-1.676,3.195-.547,4.647l.205.265c1.131,1.453,3.045,1.853,4.641.613l6.355-4.947c1.596-1.241,1.973-3.426.842-4.879l-.205-.263c-1.131-1.454-3.34-1.626-4.936-.382l-6.355,4.945Z"/>
            <path class="cls-8" d="M268.716,34.499c-1.598,1.242-1.676,3.195-.547,4.647l.205.265c1.131,1.453,3.045,1.853,4.641.613l6.355-4.947c1.596-1.241,1.973-3.426.842-4.879l-.205-.263c-1.131-1.454-3.34-1.626-4.936-.382l-6.355,4.945Z"/>
            <path class="cls-8" d="M249.716,34.499c-1.598,1.242-1.676,3.195-.547,4.647l.205.265c1.131,1.453,3.045,1.853,4.641.613l6.355-4.947c1.596-1.241,1.973-3.426.842-4.879l-.205-.263c-1.131-1.454-3.34-1.626-4.936-.382l-6.355,4.945Z"/>
            <path class="cls-8" d="M230.716,34.499c-1.598,1.242-1.676,3.195-.547,4.647l.205.265c1.131,1.453,3.045,1.853,4.641.613l6.355-4.947c1.596-1.241,1.973-3.426.842-4.879l-.205-.263c-1.131-1.454-3.34-1.626-4.936-.382l-6.355,4.945Z"/>
          </g>
          <g>
            <path class="cls-8" d="M382.716,53.499c-1.598,1.242-1.676,3.195-.547,4.647l.205.265c1.131,1.453,3.045,1.853,4.641.613l6.355-4.947c1.596-1.241,1.973-3.426.842-4.879l-.205-.263c-1.131-1.454-3.34-1.626-4.936-.382l-6.355,4.945Z"/>
            <path class="cls-8" d="M363.716,53.499c-1.598,1.242-1.676,3.195-.547,4.647l.205.265c1.131,1.453,3.045,1.853,4.641.613l6.355-4.947c1.596-1.241,1.973-3.426.842-4.879l-.205-.263c-1.131-1.454-3.34-1.626-4.936-.382l-6.355,4.945Z"/>
            <path class="cls-8" d="M344.716,53.499c-1.598,1.242-1.676,3.195-.547,4.647l.205.265c1.131,1.453,3.045,1.853,4.641.613l6.355-4.947c1.596-1.241,1.973-3.426.842-4.879l-.205-.263c-1.131-1.454-3.34-1.626-4.936-.382l-6.355,4.945Z"/>
            <path class="cls-8" d="M325.716,53.499c-1.598,1.242-1.676,3.195-.547,4.647l.205.265c1.131,1.453,3.045,1.853,4.641.613l6.355-4.947c1.596-1.241,1.973-3.426.842-4.879l-.205-.263c-1.131-1.454-3.34-1.626-4.936-.382l-6.355,4.945Z"/>
            <path class="cls-8" d="M306.716,53.499c-1.598,1.242-1.676,3.195-.547,4.647l.205.265c1.131,1.453,3.045,1.853,4.641.613l6.355-4.947c1.596-1.241,1.973-3.426.842-4.879l-.205-.263c-1.131-1.454-3.34-1.626-4.936-.382l-6.355,4.945Z"/>
            <path class="cls-8" d="M287.716,53.499c-1.598,1.242-1.676,3.195-.547,4.647l.205.265c1.131,1.453,3.045,1.853,4.641.613l6.355-4.947c1.596-1.241,1.973-3.426.842-4.879l-.205-.263c-1.131-1.454-3.34-1.626-4.936-.382l-6.355,4.945Z"/>
            <path class="cls-8" d="M268.716,53.499c-1.598,1.242-1.676,3.195-.547,4.647l.205.265c1.131,1.453,3.045,1.853,4.641.613l6.355-4.947c1.596-1.241,1.973-3.426.842-4.879l-.205-.263c-1.131-1.454-3.34-1.626-4.936-.382l-6.355,4.945Z"/>
            <path class="cls-8" d="M249.716,53.499c-1.598,1.242-1.676,3.195-.547,4.647l.205.265c1.131,1.453,3.045,1.853,4.641.613l6.355-4.947c1.596-1.241,1.973-3.426.842-4.879l-.205-.263c-1.131-1.454-3.34-1.626-4.936-.382l-6.355,4.945Z"/>
            <path class="cls-8" d="M230.716,53.499c-1.598,1.242-1.676,3.195-.547,4.647l.205.265c1.131,1.453,3.045,1.853,4.641.613l6.355-4.947c1.596-1.241,1.973-3.426.842-4.879l-.205-.263c-1.131-1.454-3.34-1.626-4.936-.382l-6.355,4.945Z"/>
          </g>
          <g>
            <path class="cls-8" d="M382.716,72.499c-1.598,1.242-1.676,3.195-.547,4.647l.205.265c1.131,1.453,3.045,1.853,4.641.613l6.355-4.947c1.596-1.241,1.973-3.426.842-4.879l-.205-.263c-1.131-1.454-3.34-1.626-4.936-.382l-6.355,4.945Z"/>
            <path class="cls-8" d="M363.716,72.499c-1.598,1.242-1.676,3.195-.547,4.647l.205.265c1.131,1.453,3.045,1.853,4.641.613l6.355-4.947c1.596-1.241,1.973-3.426.842-4.879l-.205-.263c-1.131-1.454-3.34-1.626-4.936-.382l-6.355,4.945Z"/>
            <path class="cls-8" d="M344.716,72.499c-1.598,1.242-1.676,3.195-.547,4.647l.205.265c1.131,1.453,3.045,1.853,4.641.613l6.355-4.947c1.596-1.241,1.973-3.426.842-4.879l-.205-.263c-1.131-1.454-3.34-1.626-4.936-.382l-6.355,4.945Z"/>
            <path class="cls-8" d="M325.716,72.499c-1.598,1.242-1.676,3.195-.547,4.647l.205.265c1.131,1.453,3.045,1.853,4.641.613l6.355-4.947c1.596-1.241,1.973-3.426.842-4.879l-.205-.263c-1.131-1.454-3.34-1.626-4.936-.382l-6.355,4.945Z"/>
            <path class="cls-8" d="M306.716,72.499c-1.598,1.242-1.676,3.195-.547,4.647l.205.265c1.131,1.453,3.045,1.853,4.641.613l6.355-4.947c1.596-1.241,1.973-3.426.842-4.879l-.205-.263c-1.131-1.454-3.34-1.626-4.936-.382l-6.355,4.945Z"/>
            <path class="cls-8" d="M287.716,72.499c-1.598,1.242-1.676,3.195-.547,4.647l.205.265c1.131,1.453,3.045,1.853,4.641.613l6.355-4.947c1.596-1.241,1.973-3.426.842-4.879l-.205-.263c-1.131-1.454-3.34-1.626-4.936-.382l-6.355,4.945Z"/>
            <path class="cls-8" d="M268.716,72.499c-1.598,1.242-1.676,3.195-.547,4.647l.205.265c1.131,1.453,3.045,1.853,4.641.613l6.355-4.947c1.596-1.241,1.973-3.426.842-4.879l-.205-.263c-1.131-1.454-3.34-1.626-4.936-.382l-6.355,4.945Z"/>
            <path class="cls-8" d="M249.716,72.499c-1.598,1.242-1.676,3.195-.547,4.647l.205.265c1.131,1.453,3.045,1.853,4.641.613l6.355-4.947c1.596-1.241,1.973-3.426.842-4.879l-.205-.263c-1.131-1.454-3.34-1.626-4.936-.382l-6.355,4.945Z"/>
            <path class="cls-8" d="M230.716,72.499c-1.598,1.242-1.676,3.195-.547,4.647l.205.265c1.131,1.453,3.045,1.853,4.641.613l6.355-4.947c1.596-1.241,1.973-3.426.842-4.879l-.205-.263c-1.131-1.454-3.34-1.626-4.936-.382l-6.355,4.945Z"/>
          </g>
          <g>
            <path class="cls-8" d="M382.716,91.499c-1.598,1.242-1.676,3.195-.547,4.647l.205.265c1.131,1.453,3.045,1.853,4.641.613l6.355-4.947c1.596-1.241,1.973-3.426.842-4.879l-.205-.263c-1.131-1.454-3.34-1.626-4.936-.382l-6.355,4.945Z"/>
            <path class="cls-8" d="M363.716,91.499c-1.598,1.242-1.676,3.195-.547,4.647l.205.265c1.131,1.453,3.045,1.853,4.641.613l6.355-4.947c1.596-1.241,1.973-3.426.842-4.879l-.205-.263c-1.131-1.454-3.34-1.626-4.936-.382l-6.355,4.945Z"/>
            <path class="cls-8" d="M344.716,91.499c-1.598,1.242-1.676,3.195-.547,4.647l.205.265c1.131,1.453,3.045,1.853,4.641.613l6.355-4.947c1.596-1.241,1.973-3.426.842-4.879l-.205-.263c-1.131-1.454-3.34-1.626-4.936-.382l-6.355,4.945Z"/>
            <path class="cls-8" d="M325.716,91.499c-1.598,1.242-1.676,3.195-.547,4.647l.205.265c1.131,1.453,3.045,1.853,4.641.613l6.355-4.947c1.596-1.241,1.973-3.426.842-4.879l-.205-.263c-1.131-1.454-3.34-1.626-4.936-.382l-6.355,4.945Z"/>
            <path class="cls-8" d="M306.716,91.499c-1.598,1.242-1.676,3.195-.547,4.647l.205.265c1.131,1.453,3.045,1.853,4.641.613l6.355-4.947c1.596-1.241,1.973-3.426.842-4.879l-.205-.263c-1.131-1.454-3.34-1.626-4.936-.382l-6.355,4.945Z"/>
            <path class="cls-8" d="M287.716,91.499c-1.598,1.242-1.676,3.195-.547,4.647l.205.265c1.131,1.453,3.045,1.853,4.641.613l6.355-4.947c1.596-1.241,1.973-3.426.842-4.879l-.205-.263c-1.131-1.454-3.34-1.626-4.936-.382l-6.355,4.945Z"/>
            <path class="cls-8" d="M268.716,91.499c-1.598,1.242-1.676,3.195-.547,4.647l.205.265c1.131,1.453,3.045,1.853,4.641.613l6.355-4.947c1.596-1.241,1.973-3.426.842-4.879l-.205-.263c-1.131-1.454-3.34-1.626-4.936-.382l-6.355,4.945Z"/>
            <path class="cls-8" d="M249.716,91.499c-1.598,1.242-1.676,3.195-.547,4.647l.205.265c1.131,1.453,3.045,1.853,4.641.613l6.355-4.947c1.596-1.241,1.973-3.426.842-4.879l-.205-.263c-1.131-1.454-3.34-1.626-4.936-.382l-6.355,4.945Z"/>
            <path class="cls-8" d="M230.716,91.499c-1.598,1.242-1.676,3.195-.547,4.647l.205.265c1.131,1.453,3.045,1.853,4.641.613l6.355-4.947c1.596-1.241,1.973-3.426.842-4.879l-.205-.263c-1.131-1.454-3.34-1.626-4.936-.382l-6.355,4.945Z"/>
          </g>
          <g>
            <path class="cls-8" d="M382.716,110.499c-1.598,1.242-1.676,3.195-.547,4.647l.205.265c1.131,1.453,3.045,1.853,4.641.613l6.355-4.947c1.596-1.241,1.973-3.426.842-4.879l-.205-.263c-1.131-1.454-3.34-1.626-4.936-.382l-6.355,4.945Z"/>
            <path class="cls-8" d="M363.716,110.499c-1.598,1.242-1.676,3.195-.547,4.647l.205.265c1.131,1.453,3.045,1.853,4.641.613l6.355-4.947c1.596-1.241,1.973-3.426.842-4.879l-.205-.263c-1.131-1.454-3.34-1.626-4.936-.382l-6.355,4.945Z"/>
            <path class="cls-8" d="M344.716,110.499c-1.598,1.242-1.676,3.195-.547,4.647l.205.265c1.131,1.453,3.045,1.853,4.641.613l6.355-4.947c1.596-1.241,1.973-3.426.842-4.879l-.205-.263c-1.131-1.454-3.34-1.626-4.936-.382l-6.355,4.945Z"/>
            <path class="cls-8" d="M325.716,110.499c-1.598,1.242-1.676,3.195-.547,4.647l.205.265c1.131,1.453,3.045,1.853,4.641.613l6.355-4.947c1.596-1.241,1.973-3.426.842-4.879l-.205-.263c-1.131-1.454-3.34-1.626-4.936-.382l-6.355,4.945Z"/>
            <path class="cls-8" d="M306.716,110.499c-1.598,1.242-1.676,3.195-.547,4.647l.205.265c1.131,1.453,3.045,1.853,4.641.613l6.355-4.947c1.596-1.241,1.973-3.426.842-4.879l-.205-.263c-1.131-1.454-3.34-1.626-4.936-.382l-6.355,4.945Z"/>
            <path class="cls-8" d="M287.716,110.499c-1.598,1.242-1.676,3.195-.547,4.647l.205.265c1.131,1.453,3.045,1.853,4.641.613l6.355-4.947c1.596-1.241,1.973-3.426.842-4.879l-.205-.263c-1.131-1.454-3.34-1.626-4.936-.382l-6.355,4.945Z"/>
            <path class="cls-8" d="M268.716,110.499c-1.598,1.242-1.676,3.195-.547,4.647l.205.265c1.131,1.453,3.045,1.853,4.641.613l6.355-4.947c1.596-1.241,1.973-3.426.842-4.879l-.205-.263c-1.131-1.454-3.34-1.626-4.936-.382l-6.355,4.945Z"/>
            <path class="cls-8" d="M249.716,110.499c-1.598,1.242-1.676,3.195-.547,4.647l.205.265c1.131,1.453,3.045,1.853,4.641.613l6.355-4.947c1.596-1.241,1.973-3.426.842-4.879l-.205-.263c-1.131-1.454-3.34-1.626-4.936-.382l-6.355,4.945Z"/>
            <path class="cls-8" d="M230.716,110.499c-1.598,1.242-1.676,3.195-.547,4.647l.205.265c1.131,1.453,3.045,1.853,4.641.613l6.355-4.947c1.596-1.241,1.973-3.426.842-4.879l-.205-.263c-1.131-1.454-3.34-1.626-4.936-.382l-6.355,4.945Z"/>
          </g>
          <g>
            <path class="cls-8" d="M382.716,129.499c-1.598,1.242-1.676,3.195-.547,4.647l.205.265c1.131,1.453,3.045,1.853,4.641.613l6.355-4.947c1.596-1.241,1.973-3.426.842-4.879l-.205-.263c-1.131-1.454-3.34-1.626-4.936-.382l-6.355,4.945Z"/>
            <path class="cls-8" d="M363.716,129.499c-1.598,1.242-1.676,3.195-.547,4.647l.205.265c1.131,1.453,3.045,1.853,4.641.613l6.355-4.947c1.596-1.241,1.973-3.426.842-4.879l-.205-.263c-1.131-1.454-3.34-1.626-4.936-.382l-6.355,4.945Z"/>
            <path class="cls-8" d="M344.716,129.499c-1.598,1.242-1.676,3.195-.547,4.647l.205.265c1.131,1.453,3.045,1.853,4.641.613l6.355-4.947c1.596-1.241,1.973-3.426.842-4.879l-.205-.263c-1.131-1.454-3.34-1.626-4.936-.382l-6.355,4.945Z"/>
            <path class="cls-8" d="M325.716,129.499c-1.598,1.242-1.676,3.195-.547,4.647l.205.265c1.131,1.453,3.045,1.853,4.641.613l6.355-4.947c1.596-1.241,1.973-3.426.842-4.879l-.205-.263c-1.131-1.454-3.34-1.626-4.936-.382l-6.355,4.945Z"/>
            <path class="cls-8" d="M306.716,129.499c-1.598,1.242-1.676,3.195-.547,4.647l.205.265c1.131,1.453,3.045,1.853,4.641.613l6.355-4.947c1.596-1.241,1.973-3.426.842-4.879l-.205-.263c-1.131-1.454-3.34-1.626-4.936-.382l-6.355,4.945Z"/>
            <path class="cls-8" d="M287.716,129.499c-1.598,1.242-1.676,3.195-.547,4.647l.205.265c1.131,1.453,3.045,1.853,4.641.613l6.355-4.947c1.596-1.241,1.973-3.426.842-4.879l-.205-.263c-1.131-1.454-3.34-1.626-4.936-.382l-6.355,4.945Z"/>
            <path class="cls-8" d="M268.716,129.499c-1.598,1.242-1.676,3.195-.547,4.647l.205.265c1.131,1.453,3.045,1.853,4.641.613l6.355-4.947c1.596-1.241,1.973-3.426.842-4.879l-.205-.263c-1.131-1.454-3.34-1.626-4.936-.382l-6.355,4.945Z"/>
            <path class="cls-8" d="M249.716,129.499c-1.598,1.242-1.676,3.195-.547,4.647l.205.265c1.131,1.453,3.045,1.853,4.641.613l6.355-4.947c1.596-1.241,1.973-3.426.842-4.879l-.205-.263c-1.131-1.454-3.34-1.626-4.936-.382l-6.355,4.945Z"/>
            <path class="cls-8" d="M230.716,129.499c-1.598,1.242-1.676,3.195-.547,4.647l.205.265c1.131,1.453,3.045,1.853,4.641.613l6.355-4.947c1.596-1.241,1.973-3.426.842-4.879l-.205-.263c-1.131-1.454-3.34-1.626-4.936-.382l-6.355,4.945Z"/>
          </g>
          <g>
            <path class="cls-8" d="M382.716,148.499c-1.598,1.242-1.676,3.195-.547,4.647l.205.265c1.131,1.453,3.045,1.853,4.641.613l6.355-4.947c1.596-1.241,1.973-3.426.842-4.879l-.205-.263c-1.131-1.454-3.34-1.626-4.936-.382l-6.355,4.945Z"/>
            <path class="cls-8" d="M363.716,148.499c-1.598,1.242-1.676,3.195-.547,4.647l.205.265c1.131,1.453,3.045,1.853,4.641.613l6.355-4.947c1.596-1.241,1.973-3.426.842-4.879l-.205-.263c-1.131-1.454-3.34-1.626-4.936-.382l-6.355,4.945Z"/>
            <path class="cls-8" d="M344.716,148.499c-1.598,1.242-1.676,3.195-.547,4.647l.205.265c1.131,1.453,3.045,1.853,4.641.613l6.355-4.947c1.596-1.241,1.973-3.426.842-4.879l-.205-.263c-1.131-1.454-3.34-1.626-4.936-.382l-6.355,4.945Z"/>
            <path class="cls-8" d="M325.716,148.499c-1.598,1.242-1.676,3.195-.547,4.647l.205.265c1.131,1.453,3.045,1.853,4.641.613l6.355-4.947c1.596-1.241,1.973-3.426.842-4.879l-.205-.263c-1.131-1.454-3.34-1.626-4.936-.382l-6.355,4.945Z"/>
            <path class="cls-8" d="M306.716,148.499c-1.598,1.242-1.676,3.195-.547,4.647l.205.265c1.131,1.453,3.045,1.853,4.641.613l6.355-4.947c1.596-1.241,1.973-3.426.842-4.879l-.205-.263c-1.131-1.454-3.34-1.626-4.936-.382l-6.355,4.945Z"/>
            <path class="cls-8" d="M287.716,148.499c-1.598,1.242-1.676,3.195-.547,4.647l.205.265c1.131,1.453,3.045,1.853,4.641.613l6.355-4.947c1.596-1.241,1.973-3.426.842-4.879l-.205-.263c-1.131-1.454-3.34-1.626-4.936-.382l-6.355,4.945Z"/>
            <path class="cls-8" d="M268.716,148.499c-1.598,1.242-1.676,3.195-.547,4.647l.205.265c1.131,1.453,3.045,1.853,4.641.613l6.355-4.947c1.596-1.241,1.973-3.426.842-4.879l-.205-.263c-1.131-1.454-3.34-1.626-4.936-.382l-6.355,4.945Z"/>
            <path class="cls-8" d="M249.716,148.499c-1.598,1.242-1.676,3.195-.547,4.647l.205.265c1.131,1.453,3.045,1.853,4.641.613l6.355-4.947c1.596-1.241,1.973-3.426.842-4.879l-.205-.263c-1.131-1.454-3.34-1.626-4.936-.382l-6.355,4.945Z"/>
            <path class="cls-8" d="M230.716,148.499c-1.598,1.242-1.676,3.195-.547,4.647l.205.265c1.131,1.453,3.045,1.853,4.641.613l6.355-4.947c1.596-1.241,1.973-3.426.842-4.879l-.205-.263c-1.131-1.454-3.34-1.626-4.936-.382l-6.355,4.945Z"/>
          </g>
          <g>
            <path class="cls-8" d="M382.716,167.499c-1.598,1.242-1.676,3.195-.547,4.647l.205.265c1.131,1.453,3.045,1.853,4.641.613l6.355-4.947c1.596-1.241,1.973-3.426.842-4.879l-.205-.263c-1.131-1.454-3.34-1.626-4.936-.382l-6.355,4.945Z"/>
            <path class="cls-8" d="M363.716,167.499c-1.598,1.242-1.676,3.195-.547,4.647l.205.265c1.131,1.453,3.045,1.853,4.641.613l6.355-4.947c1.596-1.241,1.973-3.426.842-4.879l-.205-.263c-1.131-1.454-3.34-1.626-4.936-.382l-6.355,4.945Z"/>
            <path class="cls-8" d="M344.716,167.499c-1.598,1.242-1.676,3.195-.547,4.647l.205.265c1.131,1.453,3.045,1.853,4.641.613l6.355-4.947c1.596-1.241,1.973-3.426.842-4.879l-.205-.263c-1.131-1.454-3.34-1.626-4.936-.382l-6.355,4.945Z"/>
            <path class="cls-8" d="M325.716,167.499c-1.598,1.242-1.676,3.195-.547,4.647l.205.265c1.131,1.453,3.045,1.853,4.641.613l6.355-4.947c1.596-1.241,1.973-3.426.842-4.879l-.205-.263c-1.131-1.454-3.34-1.626-4.936-.382l-6.355,4.945Z"/>
            <path class="cls-8" d="M306.716,167.499c-1.598,1.242-1.676,3.195-.547,4.647l.205.265c1.131,1.453,3.045,1.853,4.641.613l6.355-4.947c1.596-1.241,1.973-3.426.842-4.879l-.205-.263c-1.131-1.454-3.34-1.626-4.936-.382l-6.355,4.945Z"/>
            <path class="cls-8" d="M287.716,167.499c-1.598,1.242-1.676,3.195-.547,4.647l.205.265c1.131,1.453,3.045,1.853,4.641.613l6.355-4.947c1.596-1.241,1.973-3.426.842-4.879l-.205-.263c-1.131-1.454-3.34-1.626-4.936-.382l-6.355,4.945Z"/>
            <path class="cls-8" d="M268.716,167.499c-1.598,1.242-1.676,3.195-.547,4.647l.205.265c1.131,1.453,3.045,1.853,4.641.613l6.355-4.947c1.596-1.241,1.973-3.426.842-4.879l-.205-.263c-1.131-1.454-3.34-1.626-4.936-.382l-6.355,4.945Z"/>
            <path class="cls-8" d="M249.716,167.499c-1.598,1.242-1.676,3.195-.547,4.647l.205.265c1.131,1.453,3.045,1.853,4.641.613l6.355-4.947c1.596-1.241,1.973-3.426.842-4.879l-.205-.263c-1.131-1.454-3.34-1.626-4.936-.382l-6.355,4.945Z"/>
            <path class="cls-8" d="M230.716,167.499c-1.598,1.242-1.676,3.195-.547,4.647l.205.265c1.131,1.453,3.045,1.853,4.641.613l6.355-4.947c1.596-1.241,1.973-3.426.842-4.879l-.205-.263c-1.131-1.454-3.34-1.626-4.936-.382l-6.355,4.945Z"/>
          </g>
          <g>
            <path class="cls-8" d="M382.716,186.499c-1.598,1.242-1.676,3.195-.547,4.647l.205.265c1.131,1.453,3.045,1.853,4.641.613l6.355-4.947c1.596-1.241,1.973-3.426.842-4.879l-.205-.263c-1.131-1.454-3.34-1.626-4.936-.382l-6.355,4.945Z"/>
            <path class="cls-8" d="M363.716,186.499c-1.598,1.242-1.676,3.195-.547,4.647l.205.265c1.131,1.453,3.045,1.853,4.641.613l6.355-4.947c1.596-1.241,1.973-3.426.842-4.879l-.205-.263c-1.131-1.454-3.34-1.626-4.936-.382l-6.355,4.945Z"/>
            <path class="cls-8" d="M344.716,186.499c-1.598,1.242-1.676,3.195-.547,4.647l.205.265c1.131,1.453,3.045,1.853,4.641.613l6.355-4.947c1.596-1.241,1.973-3.426.842-4.879l-.205-.263c-1.131-1.454-3.34-1.626-4.936-.382l-6.355,4.945Z"/>
            <path class="cls-8" d="M325.716,186.499c-1.598,1.242-1.676,3.195-.547,4.647l.205.265c1.131,1.453,3.045,1.853,4.641.613l6.355-4.947c1.596-1.241,1.973-3.426.842-4.879l-.205-.263c-1.131-1.454-3.34-1.626-4.936-.382l-6.355,4.945Z"/>
            <path class="cls-8" d="M306.716,186.499c-1.598,1.242-1.676,3.195-.547,4.647l.205.265c1.131,1.453,3.045,1.853,4.641.613l6.355-4.947c1.596-1.241,1.973-3.426.842-4.879l-.205-.263c-1.131-1.454-3.34-1.626-4.936-.382l-6.355,4.945Z"/>
            <path class="cls-8" d="M287.716,186.499c-1.598,1.242-1.676,3.195-.547,4.647l.205.265c1.131,1.453,3.045,1.853,4.641.613l6.355-4.947c1.596-1.241,1.973-3.426.842-4.879l-.205-.263c-1.131-1.454-3.34-1.626-4.936-.382l-6.355,4.945Z"/>
            <path class="cls-8" d="M268.716,186.499c-1.598,1.242-1.676,3.195-.547,4.647l.205.265c1.131,1.453,3.045,1.853,4.641.613l6.355-4.947c1.596-1.241,1.973-3.426.842-4.879l-.205-.263c-1.131-1.454-3.34-1.626-4.936-.382l-6.355,4.945Z"/>
            <path class="cls-8" d="M249.716,186.499c-1.598,1.242-1.676,3.195-.547,4.647l.205.265c1.131,1.453,3.045,1.853,4.641.613l6.355-4.947c1.596-1.241,1.973-3.426.842-4.879l-.205-.263c-1.131-1.454-3.34-1.626-4.936-.382l-6.355,4.945Z"/>
            <path class="cls-8" d="M230.716,186.499c-1.598,1.242-1.676,3.195-.547,4.647l.205.265c1.131,1.453,3.045,1.853,4.641.613l6.355-4.947c1.596-1.241,1.973-3.426.842-4.879l-.205-.263c-1.131-1.454-3.34-1.626-4.936-.382l-6.355,4.945Z"/>
          </g>
          <g>
            <path class="cls-8" d="M382.716,205.499c-1.598,1.242-1.676,3.195-.547,4.647l.205.265c1.131,1.453,3.045,1.853,4.641.613l6.355-4.947c1.596-1.241,1.973-3.426.842-4.879l-.205-.263c-1.131-1.454-3.34-1.626-4.936-.382l-6.355,4.945Z"/>
            <path class="cls-8" d="M363.716,205.499c-1.598,1.242-1.676,3.195-.547,4.647l.205.265c1.131,1.453,3.045,1.853,4.641.613l6.355-4.947c1.596-1.241,1.973-3.426.842-4.879l-.205-.263c-1.131-1.454-3.34-1.626-4.936-.382l-6.355,4.945Z"/>
            <path class="cls-8" d="M344.716,205.499c-1.598,1.242-1.676,3.195-.547,4.647l.205.265c1.131,1.453,3.045,1.853,4.641.613l6.355-4.947c1.596-1.241,1.973-3.426.842-4.879l-.205-.263c-1.131-1.454-3.34-1.626-4.936-.382l-6.355,4.945Z"/>
            <path class="cls-8" d="M325.716,205.499c-1.598,1.242-1.676,3.195-.547,4.647l.205.265c1.131,1.453,3.045,1.853,4.641.613l6.355-4.947c1.596-1.241,1.973-3.426.842-4.879l-.205-.263c-1.131-1.454-3.34-1.626-4.936-.382l-6.355,4.945Z"/>
            <path class="cls-8" d="M306.716,205.499c-1.598,1.242-1.676,3.195-.547,4.647l.205.265c1.131,1.453,3.045,1.853,4.641.613l6.355-4.947c1.596-1.241,1.973-3.426.842-4.879l-.205-.263c-1.131-1.454-3.34-1.626-4.936-.382l-6.355,4.945Z"/>
            <path class="cls-8" d="M287.716,205.499c-1.598,1.242-1.676,3.195-.547,4.647l.205.265c1.131,1.453,3.045,1.853,4.641.613l6.355-4.947c1.596-1.241,1.973-3.426.842-4.879l-.205-.263c-1.131-1.454-3.34-1.626-4.936-.382l-6.355,4.945Z"/>
            <path class="cls-8" d="M268.716,205.499c-1.598,1.242-1.676,3.195-.547,4.647l.205.265c1.131,1.453,3.045,1.853,4.641.613l6.355-4.947c1.596-1.241,1.973-3.426.842-4.879l-.205-.263c-1.131-1.454-3.34-1.626-4.936-.382l-6.355,4.945Z"/>
            <path class="cls-8" d="M249.716,205.499c-1.598,1.242-1.676,3.195-.547,4.647l.205.265c1.131,1.453,3.045,1.853,4.641.613l6.355-4.947c1.596-1.241,1.973-3.426.842-4.879l-.205-.263c-1.131-1.454-3.34-1.626-4.936-.382l-6.355,4.945Z"/>
            <path class="cls-8" d="M230.716,205.499c-1.598,1.242-1.676,3.195-.547,4.647l.205.265c1.131,1.453,3.045,1.853,4.641.613l6.355-4.947c1.596-1.241,1.973-3.426.842-4.879l-.205-.263c-1.131-1.454-3.34-1.626-4.936-.382l-6.355,4.945Z"/>
          </g>
          <g>
            <path class="cls-8" d="M382.716,224.499c-1.598,1.242-1.676,3.195-.547,4.647l.205.265c1.131,1.453,3.045,1.853,4.641.613l6.355-4.947c1.596-1.241,1.973-3.426.842-4.879l-.205-.263c-1.131-1.454-3.34-1.626-4.936-.382l-6.355,4.945Z"/>
            <path class="cls-8" d="M363.716,224.499c-1.598,1.242-1.676,3.195-.547,4.647l.205.265c1.131,1.453,3.045,1.853,4.641.613l6.355-4.947c1.596-1.241,1.973-3.426.842-4.879l-.205-.263c-1.131-1.454-3.34-1.626-4.936-.382l-6.355,4.945Z"/>
            <path class="cls-8" d="M344.716,224.499c-1.598,1.242-1.676,3.195-.547,4.647l.205.265c1.131,1.453,3.045,1.853,4.641.613l6.355-4.947c1.596-1.241,1.973-3.426.842-4.879l-.205-.263c-1.131-1.454-3.34-1.626-4.936-.382l-6.355,4.945Z"/>
            <path class="cls-8" d="M325.716,224.499c-1.598,1.242-1.676,3.195-.547,4.647l.205.265c1.131,1.453,3.045,1.853,4.641.613l6.355-4.947c1.596-1.241,1.973-3.426.842-4.879l-.205-.263c-1.131-1.454-3.34-1.626-4.936-.382l-6.355,4.945Z"/>
            <path class="cls-8" d="M306.716,224.499c-1.598,1.242-1.676,3.195-.547,4.647l.205.265c1.131,1.453,3.045,1.853,4.641.613l6.355-4.947c1.596-1.241,1.973-3.426.842-4.879l-.205-.263c-1.131-1.454-3.34-1.626-4.936-.382l-6.355,4.945Z"/>
            <path class="cls-8" d="M287.716,224.499c-1.598,1.242-1.676,3.195-.547,4.647l.205.265c1.131,1.453,3.045,1.853,4.641.613l6.355-4.947c1.596-1.241,1.973-3.426.842-4.879l-.205-.263c-1.131-1.454-3.34-1.626-4.936-.382l-6.355,4.945Z"/>
            <path class="cls-8" d="M268.716,224.499c-1.598,1.242-1.676,3.195-.547,4.647l.205.265c1.131,1.453,3.045,1.853,4.641.613l6.355-4.947c1.596-1.241,1.973-3.426.842-4.879l-.205-.263c-1.131-1.454-3.34-1.626-4.936-.382l-6.355,4.945Z"/>
            <path class="cls-8" d="M249.716,224.499c-1.598,1.242-1.676,3.195-.547,4.647l.205.265c1.131,1.453,3.045,1.853,4.641.613l6.355-4.947c1.596-1.241,1.973-3.426.842-4.879l-.205-.263c-1.131-1.454-3.34-1.626-4.936-.382l-6.355,4.945Z"/>
            <path class="cls-8" d="M230.716,224.499c-1.598,1.242-1.676,3.195-.547,4.647l.205.265c1.131,1.453,3.045,1.853,4.641.613l6.355-4.947c1.596-1.241,1.973-3.426.842-4.879l-.205-.263c-1.131-1.454-3.34-1.626-4.936-.382l-6.355,4.945Z"/>
          </g>
          <g>
            <path class="cls-8" d="M382.716,243.499c-1.598,1.242-1.676,3.195-.547,4.647l.205.265c1.131,1.453,3.045,1.853,4.641.613l6.355-4.947c1.596-1.241,1.973-3.426.842-4.879l-.205-.263c-1.131-1.454-3.34-1.626-4.936-.382l-6.355,4.945Z"/>
            <path class="cls-8" d="M363.716,243.499c-1.598,1.242-1.676,3.195-.547,4.647l.205.265c1.131,1.453,3.045,1.853,4.641.613l6.355-4.947c1.596-1.241,1.973-3.426.842-4.879l-.205-.263c-1.131-1.454-3.34-1.626-4.936-.382l-6.355,4.945Z"/>
            <path class="cls-8" d="M344.716,243.499c-1.598,1.242-1.676,3.195-.547,4.647l.205.265c1.131,1.453,3.045,1.853,4.641.613l6.355-4.947c1.596-1.241,1.973-3.426.842-4.879l-.205-.263c-1.131-1.454-3.34-1.626-4.936-.382l-6.355,4.945Z"/>
            <path class="cls-8" d="M325.716,243.499c-1.598,1.242-1.676,3.195-.547,4.647l.205.265c1.131,1.453,3.045,1.853,4.641.613l6.355-4.947c1.596-1.241,1.973-3.426.842-4.879l-.205-.263c-1.131-1.454-3.34-1.626-4.936-.382l-6.355,4.945Z"/>
            <path class="cls-8" d="M306.716,243.499c-1.598,1.242-1.676,3.195-.547,4.647l.205.265c1.131,1.453,3.045,1.853,4.641.613l6.355-4.947c1.596-1.241,1.973-3.426.842-4.879l-.205-.263c-1.131-1.454-3.34-1.626-4.936-.382l-6.355,4.945Z"/>
            <path class="cls-8" d="M287.716,243.499c-1.598,1.242-1.676,3.195-.547,4.647l.205.265c1.131,1.453,3.045,1.853,4.641.613l6.355-4.947c1.596-1.241,1.973-3.426.842-4.879l-.205-.263c-1.131-1.454-3.34-1.626-4.936-.382l-6.355,4.945Z"/>
            <path class="cls-8" d="M268.716,243.499c-1.598,1.242-1.676,3.195-.547,4.647l.205.265c1.131,1.453,3.045,1.853,4.641.613l6.355-4.947c1.596-1.241,1.973-3.426.842-4.879l-.205-.263c-1.131-1.454-3.34-1.626-4.936-.382l-6.355,4.945Z"/>
            <path class="cls-8" d="M249.716,243.499c-1.598,1.242-1.676,3.195-.547,4.647l.205.265c1.131,1.453,3.045,1.853,4.641.613l6.355-4.947c1.596-1.241,1.973-3.426.842-4.879l-.205-.263c-1.131-1.454-3.34-1.626-4.936-.382l-6.355,4.945Z"/>
            <path class="cls-8" d="M230.716,243.499c-1.598,1.242-1.676,3.195-.547,4.647l.205.265c1.131,1.453,3.045,1.853,4.641.613l6.355-4.947c1.596-1.241,1.973-3.426.842-4.879l-.205-.263c-1.131-1.454-3.34-1.626-4.936-.382l-6.355,4.945Z"/>
          </g>
          <g>
            <path class="cls-8" d="M382.716,262.499c-1.598,1.242-1.676,3.195-.547,4.647l.205.265c1.131,1.453,3.045,1.853,4.641.613l6.355-4.947c1.596-1.241,1.973-3.426.842-4.879l-.205-.263c-1.131-1.454-3.34-1.626-4.936-.382l-6.355,4.945Z"/>
            <path class="cls-8" d="M363.716,262.499c-1.598,1.242-1.676,3.195-.547,4.647l.205.265c1.131,1.453,3.045,1.853,4.641.613l6.355-4.947c1.596-1.241,1.973-3.426.842-4.879l-.205-.263c-1.131-1.454-3.34-1.626-4.936-.382l-6.355,4.945Z"/>
            <path class="cls-8" d="M344.716,262.499c-1.598,1.242-1.676,3.195-.547,4.647l.205.265c1.131,1.453,3.045,1.853,4.641.613l6.355-4.947c1.596-1.241,1.973-3.426.842-4.879l-.205-.263c-1.131-1.454-3.34-1.626-4.936-.382l-6.355,4.945Z"/>
            <path class="cls-8" d="M325.716,262.499c-1.598,1.242-1.676,3.195-.547,4.647l.205.265c1.131,1.453,3.045,1.853,4.641.613l6.355-4.947c1.596-1.241,1.973-3.426.842-4.879l-.205-.263c-1.131-1.454-3.34-1.626-4.936-.382l-6.355,4.945Z"/>
            <path class="cls-8" d="M306.716,262.499c-1.598,1.242-1.676,3.195-.547,4.647l.205.265c1.131,1.453,3.045,1.853,4.641.613l6.355-4.947c1.596-1.241,1.973-3.426.842-4.879l-.205-.263c-1.131-1.454-3.34-1.626-4.936-.382l-6.355,4.945Z"/>
            <path class="cls-8" d="M287.716,262.499c-1.598,1.242-1.676,3.195-.547,4.647l.205.265c1.131,1.453,3.045,1.853,4.641.613l6.355-4.947c1.596-1.241,1.973-3.426.842-4.879l-.205-.263c-1.131-1.454-3.34-1.626-4.936-.382l-6.355,4.945Z"/>
            <path class="cls-8" d="M268.716,262.499c-1.598,1.242-1.676,3.195-.547,4.647l.205.265c1.131,1.453,3.045,1.853,4.641.613l6.355-4.947c1.596-1.241,1.973-3.426.842-4.879l-.205-.263c-1.131-1.454-3.34-1.626-4.936-.382l-6.355,4.945Z"/>
            <path class="cls-8" d="M249.716,262.499c-1.598,1.242-1.676,3.195-.547,4.647l.205.265c1.131,1.453,3.045,1.853,4.641.613l6.355-4.947c1.596-1.241,1.973-3.426.842-4.879l-.205-.263c-1.131-1.454-3.34-1.626-4.936-.382l-6.355,4.945Z"/>
            <path class="cls-8" d="M230.716,262.499c-1.598,1.242-1.676,3.195-.547,4.647l.205.265c1.131,1.453,3.045,1.853,4.641.613l6.355-4.947c1.596-1.241,1.973-3.426.842-4.879l-.205-.263c-1.131-1.454-3.34-1.626-4.936-.382l-6.355,4.945Z"/>
          </g>
          <g>
            <path class="cls-8" d="M382.716,281.499c-1.598,1.242-1.676,3.195-.547,4.647l.205.265c1.131,1.453,3.045,1.853,4.641.613l6.355-4.947c1.596-1.241,1.973-3.426.842-4.879l-.205-.263c-1.131-1.454-3.34-1.626-4.936-.382l-6.355,4.945Z"/>
            <path class="cls-8" d="M363.716,281.499c-1.598,1.242-1.676,3.195-.547,4.647l.205.265c1.131,1.453,3.045,1.853,4.641.613l6.355-4.947c1.596-1.241,1.973-3.426.842-4.879l-.205-.263c-1.131-1.454-3.34-1.626-4.936-.382l-6.355,4.945Z"/>
            <path class="cls-8" d="M344.716,281.499c-1.598,1.242-1.676,3.195-.547,4.647l.205.265c1.131,1.453,3.045,1.853,4.641.613l6.355-4.947c1.596-1.241,1.973-3.426.842-4.879l-.205-.263c-1.131-1.454-3.34-1.626-4.936-.382l-6.355,4.945Z"/>
            <path class="cls-8" d="M325.716,281.499c-1.598,1.242-1.676,3.195-.547,4.647l.205.265c1.131,1.453,3.045,1.853,4.641.613l6.355-4.947c1.596-1.241,1.973-3.426.842-4.879l-.205-.263c-1.131-1.454-3.34-1.626-4.936-.382l-6.355,4.945Z"/>
            <path class="cls-8" d="M306.716,281.499c-1.598,1.242-1.676,3.195-.547,4.647l.205.265c1.131,1.453,3.045,1.853,4.641.613l6.355-4.947c1.596-1.241,1.973-3.426.842-4.879l-.205-.263c-1.131-1.454-3.34-1.626-4.936-.382l-6.355,4.945Z"/>
            <path class="cls-8" d="M287.716,281.499c-1.598,1.242-1.676,3.195-.547,4.647l.205.265c1.131,1.453,3.045,1.853,4.641.613l6.355-4.947c1.596-1.241,1.973-3.426.842-4.879l-.205-.263c-1.131-1.454-3.34-1.626-4.936-.382l-6.355,4.945Z"/>
            <path class="cls-8" d="M268.716,281.499c-1.598,1.242-1.676,3.195-.547,4.647l.205.265c1.131,1.453,3.045,1.853,4.641.613l6.355-4.947c1.596-1.241,1.973-3.426.842-4.879l-.205-.263c-1.131-1.454-3.34-1.626-4.936-.382l-6.355,4.945Z"/>
            <path class="cls-8" d="M249.716,281.499c-1.598,1.242-1.676,3.195-.547,4.647l.205.265c1.131,1.453,3.045,1.853,4.641.613l6.355-4.947c1.596-1.241,1.973-3.426.842-4.879l-.205-.263c-1.131-1.454-3.34-1.626-4.936-.382l-6.355,4.945Z"/>
            <path class="cls-8" d="M230.716,281.499c-1.598,1.242-1.676,3.195-.547,4.647l.205.265c1.131,1.453,3.045,1.853,4.641.613l6.355-4.947c1.596-1.241,1.973-3.426.842-4.879l-.205-.263c-1.131-1.454-3.34-1.626-4.936-.382l-6.355,4.945Z"/>
          </g>
        </g>
      </g>
    </g>
    <path class="cls-15" d="M288.131,66.219c38.379,0,67.732-5.979,69.342-6.313,2.432-.506,3.994-2.888,3.488-5.32-.504-2.434-2.883-3.995-5.32-3.492-.506.105-51.342,10.443-105.666,3.945-2.461-.293-4.707,1.465-5.002,3.934-.295,2.469,1.467,4.707,3.934,5.003,13.592,1.625,26.877,2.244,39.225,2.244Z"/>
  </g>
</svg>