<?xml version="1.0" encoding="UTF-8"?>
<svg id="Layer_1" data-name="Layer 1" xmlns="http://www.w3.org/2000/svg" viewBox="0 0 676.583 829.445">
  <defs>
    <style>
      .cls-1 {
        fill: #502f26;
      }

      .cls-2 {
        opacity: 0;
      }

      .cls-2, .cls-3, .cls-4, .cls-5, .cls-6, .cls-7, .cls-8, .cls-9, .cls-10, .cls-11, .cls-12, .cls-13 {
        fill: #ea7460;
      }

      .cls-14 {
        fill: #2d2828;
      }

      .cls-15 {
        fill: #474444;
      }

      .cls-16 {
        fill: #494242;
      }

      .cls-17 {
        fill: #faa284;
      }

      .cls-18 {
        fill: #595454;
      }

      .cls-19 {
        fill: #2d2b2b;
      }

      .cls-20 {
        fill: #a53d3d;
      }

      .cls-21 {
        fill: #e9f3ff;
      }

      .cls-22 {
        fill: #fff;
      }

      .cls-23 {
        fill: #f0f2f1;
      }

      .cls-24 {
        fill: #d6bb64;
      }

      .cls-25 {
        opacity: .9;
      }

      .cls-26 {
        opacity: .2;
      }

      .cls-27 {
        fill: #e5eae8;
      }

      .cls-4 {
        opacity: .909;
      }

      .cls-5 {
        opacity: .727;
      }

      .cls-6 {
        opacity: .818;
      }

      .cls-7 {
        opacity: .455;
      }

      .cls-8 {
        opacity: .364;
      }

      .cls-9 {
        opacity: .636;
      }

      .cls-10 {
        opacity: .545;
      }

      .cls-11 {
        opacity: .182;
      }

      .cls-12 {
        opacity: .273;
      }

      .cls-13 {
        opacity: .091;
      }

      .cls-28 {
        fill: #d3755f;
      }

      .cls-29 {
        fill: #1e1d1d;
      }

      .cls-30 {
        fill: #212020;
      }

      .cls-31 {
        fill: #a5b2bf;
      }
    </style>
  </defs>
  <g>
    <path class="cls-26" d="M34.586,812.445c0,9.389,56.187,17,128.248,17,72.059,0,128.248-7.611,128.248-17s-56.189-17-128.248-17c-72.06,0-128.248,7.611-128.248,17Z"/>
    <path class="cls-17" d="M260.971,167.989s9.109-21.424,5.904-35.391c0,0-1.734-6.182-5.568-4.546-3.83,1.634-5.77-3.977-9.873-2.356-4.106,1.615-6.064-2.393-10.625,1.477,0,0-3.898-1.988-6.678,1.057-2.777,3.043-9.707,9.58-8.801,11.648.904,2.069,3.135,11.596,4.074,12.06.939.46,2.637.774,4.215-2.177,0,0-.393,3.371.375,7.296.771,3.929,7.062,10.633,7.062,10.633l10.803,11.681,9.111-11.381Z"/>
    <path class="cls-29" d="M224.183,235.171s-34.076-72.122-43.158-73.882c-9.078-1.76-10.707,67.128-10.707,67.128,26.115,51.504,46.019,60.695,46.019,60.695,1.023.611,2.025,1.099,3.006,1.48h0c21.471-5.732,4.84-55.422,4.84-55.422Z"/>
    <path class="cls-19" d="M262.945,168.546s-.137-5.375-12.262-7.125c-11.725-1.691-14.982,3.921-14.982,3.921-16.359,50.387-18.77,71.505-18.77,71.505,0,0-17.098,31.832,2.412,53.746h0c36.365,14.182,43.602-122.047,43.602-122.047Z"/>
    <path class="cls-17" d="M6.586,166.989s-9.107-21.424-5.902-35.391c0,0,1.734-6.182,5.568-4.546,3.83,1.634,5.77-3.977,9.871-2.356,4.107,1.615,6.066-2.393,10.627,1.477,0,0,3.899-1.988,6.676,1.057,2.779,3.043,9.707,9.58,8.803,11.648-.904,2.069-3.135,11.596-4.076,12.06-.938.46-2.637.774-4.215-2.177,0,0,.393,3.371-.373,7.296-.772,3.929-7.063,10.633-7.063,10.633l-10.803,11.681-9.113-11.381Z"/>
    <g>
      <path class="cls-29" d="M104.041,764.316l-11.867-17.947-15.883,20.775c.002.095-5.227,28.887-5.25,34.408-.033,7.75,4.322,10.659,4.322,10.659h36.25c6.441-1-7.572-47.895-7.572-47.895Z"/>
      <path class="cls-29" d="M269.947,798.785l-18.603-4.357c-8.5-6-28.303-27.033-28.303-27.033,0,0-12.725-22.172-12.666-21.986-.059-.166-9.834,21.506-9.834,21.506-9,6.145-6.25,23.148-6.25,23.148l5.969,22.149h11.031s-.357-12.879-.357-12.879l15.275,12.879h44.316c14.766-10-.578-13.427-.578-13.427Z"/>
      <path class="cls-19" d="M181.582,160.071s-57.543-26.115-112.543,4.242v56.107s24.004,67,22.586,84c-1.42,17-54.994,110.284-41.496,472.794,0,0,106.008,19.88,198.518-1.124,0,0-11.668-347.67-66.713-476.902,0,0,3.676-49.721,5.994-53.619,2.316-3.898,14.676-13.661,13.883-25.404-.793-11.744-15.459-33.725-15.631-34.886-.174-1.161-4.598-25.208-4.598-25.208Z"/>
    </g>
    <path class="cls-30" d="M68.933,164.313c-9.334,1.101-28.172,57.328-28.172,57.328,0,0-20.912,60.156,7.451,67.951,6.846-4.922,23.617-29.986,30.553-48.506,0,0,10.949-79.225-9.832-76.773Z"/>
    <path class="cls-19" d="M4.613,168.546s.137-5.375,12.262-7.125c11.723-1.691,14.982,3.921,14.982,3.921,16.357,50.387,18.77,70.505,18.77,70.505,0,0,17.096,31.832-2.412,53.746h-.002C11.849,303.774,4.613,168.546,4.613,168.546Z"/>
    <g>
      <path class="cls-16" d="M87.293,141.522s-18.584-59.768-10.584-101.435C84.709-1.579,121.574-.245,129.64.088c8.068.333,55.068,4.506,52.402,61.586-2.668,57.081-15.668,69.283-13.334,79.849s17.457,17.436,16.394,21.001c-1.061,3.564-5.535,7.997-7.949,21.001-2.414,13.004-12.789,29.865-31.557,31.396-18.766,1.531-40.125-13.5-53.174-33.166-13.049-19.667-18.662-17.549-23.687-17.441,0,0,.758-3.392,4.656-5.642s16.121-9.289,13.9-17.148Z"/>
      <path class="cls-17" d="M89.557,67.683c2.082-39.348,39.799-39.348,39.799-39.348,37.447,2.408,41.73,19.698,41.621,38.359.393,6.879-1.137,17.928-3.106,27.087-4.484,20.856-12.199,33.562-29.148,36.596-38.334,6.86-46.924-32.697-46.924-32.697,0,0-3.475-6.72-2.242-29.997Z"/>
      <path class="cls-1" d="M147.574,62.291s8.43-3.284,17.674,3.359c0,0,.098-1.138-1.795-3.075-1.894-1.937-7.592-4.865-13.512-3.512,0,0-3.623,2.047-2.367,3.228Z"/>
      <path class="cls-1" d="M124.67,62.913s-9.676-4.044-20.488,3.187c0,0-.09-1.299,2.139-3.436,2.223-2.136,8.863-5.266,15.676-3.512,0,0,4.148,2.461,2.674,3.761Z"/>
      <path class="cls-28" d="M132.793,97.985c8.603,3.873,13.477-.057,13.986-4.18.334-2.684-1.098-5.135-3.646-6.248-5.246-2.286-8.684-10.623-8.717-10.709h0c-.096,1.882,1.529,9.034,8.133,13.228,1.428.905,2.303,1.837,2.141,3.165-.285,2.311-3.774,5.645-11.897,4.743h0Z"/>
      <path class="cls-14" d="M150.935,32.438s-2.217,5.699-15.695,13.112c-16.817,9.249-36.996,7.206-45.858,26.173,0,0-1.828-23.53,13.906-35.182,14.273-10.568,33.272-11.17,47.647-4.104Z"/>
      <path class="cls-14" d="M150.935,32.438s3.16,16.148,12.129,24.279c8.971,8.131,7.975,12.775,7.975,12.775,0,0,4.602-29.428-20.103-37.055Z"/>
      <path class="cls-22" d="M147.152,103.261s-9.986,3.348-27.861.973c0,0,3.115,11.871,15.252,10.937,10.807-.833,12.609-11.91,12.609-11.91Z"/>
      <path class="cls-1" d="M122.683,79.795c-2.119-2.322-4.299-3.467-6.549-3.403-3.633.103-6.277,3.306-6.305,3.338l-2.328-1.893c.143-.176,3.555-4.301,8.549-4.444,3.121-.095,6.113,1.384,8.848,4.38l-2.215,2.022Z"/>
      <path class="cls-1" d="M161.683,79.795c-2.119-2.322-4.31-3.467-6.549-3.403-3.633.103-6.277,3.306-6.305,3.338l-2.328-1.893c.143-.176,3.555-4.301,8.549-4.444,3.119-.095,6.113,1.384,8.848,4.38l-2.215,2.022Z"/>
    </g>
  </g>
  <g>
    <ellipse class="cls-26" cx="541.543" cy="812.445" rx="117.112" ry="17"/>
    <g>
      <path class="cls-19" d="M557.107,745.989s-18.146,65.347-11.479,66.347h36.25s5.415,2.011-.462-65.02l-13.207-1.576-11.102.25Z"/>
      <path class="cls-17" d="M557.107,745.75l-6.049,49.606c3.151.666,19.888-2.621,26.151,2,0,0,3.829-21.448,4.207-50.281l-11.207-16.281-13.102,14.956Z"/>
    </g>
    <g>
      <path class="cls-19" d="M542.043,745.75c-8.25,23.645-29.572,49.606-29.572,49.606l-18.574,2.123-18.604,4.367s-4.655,4.489-.578,11.489h47.266l16.161-40.269-1.099,40.269h4.938l10.077-49.739s-1.015-11.702-10.015-17.847Z"/>
      <path class="cls-17" d="M542.043,745.688l-11.875-10.801-13.36,10.785s-14.411,45.807-22.911,51.807l16.98-.123s22.916-28.023,31.166-51.668Z"/>
    </g>
    <g>
      <path class="cls-17" d="M412.881,180.3s12.394-13.035-8.392-34.467c0,0-5.951-7.685-11.413-4.236,0,0-11.092-14.005-15.88-5.836,0,0-10.238,26.69.003,37.16,10.24,10.473,22.121,21.42,35.682,7.379Z"/>
      <g>
        <path class="cls-15" d="M493.918,160.289s-16.965,9.745-40.407,76.632c0,0-18.205-33.767-26.513-49.145,0,0-11.901-1.605-27.237,12.645,0,0,21.42,63.001,37.75,77.75,0,0,28.292,28.715,52-32,0,0,13.802-65.209,4.407-85.882Z"/>
        <path class="cls-23" d="M425.37,190.339l-4.617-13.17s-16.754-2.631-24.788,10.935l6.679,15.097,22.726-12.862Z"/>
      </g>
      <g>
        <path class="cls-31" d="M345.304,74.819c0-26.51,21.438-48,47.948-48s48.079,21.49,48.079,48c0,23.432-16.922,42.93-38.922,47.145v72.957c0,5.247-4.254,9.5-9.5,9.5s-9.5-4.253-9.5-9.5v-73.152c-22-4.602-38.104-23.871-38.104-46.949Z"/>
        <path class="cls-21" d="M343.304,72.819c0-26.51,21.438-48,47.948-48s48.079,21.49,48.079,48c0,23.432-16.922,42.93-38.922,47.145v72.957c0,5.247-4.254,9.5-9.5,9.5s-9.5-4.253-9.5-9.5v-73.152c-22-4.602-38.104-23.871-38.104-46.949Z"/>
        <polygon class="cls-24" points="385.956 101.227 358.121 76.669 368.045 65.421 384.736 80.145 414.504 47.025 425.66 57.052 385.956 101.227"/>
      </g>
      <path class="cls-17" d="M392.492,159.11c-.123,6.688-4.923,12.022-10.721,11.915h0c-5.799-.106-10.398-5.614-10.275-12.303l.318-17.299c.125-6.688,4.926-12.023,10.723-11.915h0c5.798.107,10.398,5.615,10.274,12.303l-.319,17.299Z"/>
      <path class="cls-17" d="M410.534,153.962c1.312,2.241.831,4.965-1.075,6.081h0c-1.906,1.114-4.516.202-5.829-2.038l-7.725-13.195c-1.312-2.244-.832-4.966,1.075-6.083h0c1.905-1.114,4.516-.201,5.828,2.04l7.726,13.195Z"/>
    </g>
    <path class="cls-19" d="M493.804,160.712s57.543-26.115,112.543,4.242v56.107s-24.004,67-22.586,84c1.42,17,54.994,110.284,41.496,472.794,0,0-106.008,19.88-198.518-1.124,0,0,11.668-347.67,66.713-476.902,0,0-3.676-49.721-5.994-53.619-2.316-3.898-14.676-13.661-13.883-25.404.793-11.744,15.459-33.725,15.631-34.886.174-1.161,4.598-25.208,4.598-25.208Z"/>
    <g>
      <path class="cls-17" d="M606.634,319.083l-11.393-5.982-2.371,5.078c-5.594-.418-8.709-3.277-11.402-3.043-2.695.232-7.406-1.504-7.406-1.504-1.506,4.199,4.1,6.953,4.1,6.953-.379.016-.758.027-1.137.043-.934.035-1.867.066-2.801.105-1.189.051-2.383.08-3.572.137-1.15.055-2.305.064-3.455.139-.891.057-1.783.092-2.66.264-.91.18-1.727.574-2.574.969-1.051.49-6.361,3.961-7.285,4.42-.43.213-1.32.648-1.32.652-.162,1.221.049,2.44.848,3.312,1.434,1.565,4.061.895,5.344.338.959-.416,2.182-1.209,3.076-1.793.767-.498.502-.623,1.996-.82.871-.115,1.752-.022,2.629-.039,1.906-.035,3.812-.059,5.719-.07.434-.002.869-.004,1.303-.008,0,0-8.355,3.715-10.893,5.143-1.898,1.066-6.299,7.982-6.299,7.982-3.191,4.951,3.672,4.906,3.672,4.906-.236.449-.533,1.191-.391,1.75.121.461.527.754.863.959.623.377,1.305.453,1.978.5,1.236.086,2.498-.055,3.621-.654.312-.168.611-.369.904-.578.285-.207.562-.428.834-.652.348-.289.682-.592,1.016-.898,1.023-.953,2.055-1.902,2.969-3.006.109-.133.334-.549.498-.598,0-.002,6.689-2.037,6.689-2.037-1.986,1.803-3.346,6.52-5.984,9.17-.396.398-.789.834-1.08,1.353-.268.477-.549,1.164-.318,1.756.221.572.809.611,1.256.674,1.445.201,2.844-.162,4.156-.826.674-.34,1.305-.791,1.889-1.312.43-.383.826-.809,1.193-1.275.158-.197.32-.398.467-.647,3.01-5.58,7.049-8.99,13.668-7.375,9.539,2.326,13.131-11.926,13.131-11.926l-1.477-11.559Z"/>
      <g>
        <path class="cls-23" d="M603.741,302.403l-11.769,11.697s-.426,14.006,16.949,19.506l9.105-8.301-14.285-22.902Z"/>
        <path class="cls-18" d="M606.199,164.313s72.661,76.953,70.329,100.453c0,0,0,15.75-58.252,62.5,0,0-16.25.166-20.75-20.834l42.834-46.666-39.939-36.645s-9.413-37.852,5.778-58.809Z"/>
      </g>
    </g>
    <g>
      <path class="cls-16" d="M587.948,141.522s18.585-59.768,10.585-101.435S553.667-.245,545.6.088c-8.067.333-55.068,4.506-52.401,61.586,2.667,57.081,15.668,69.283,13.334,79.849-2.334,10.565-17.457,17.436-16.396,21.001,1.062,3.564,5.535,7.997,7.949,21.001,2.414,13.004,12.79,29.865,31.557,31.397,18.767,1.531,40.125-13.5,53.174-33.166,13.049-19.667,18.662-17.549,23.688-17.441,0,0-.759-3.393-4.657-5.643-3.898-2.25-16.121-9.289-13.9-17.148Z"/>
      <path class="cls-17" d="M585.623,67.631c2.843-39.242-39.74-39.29-39.74-39.29-37.392,2.404-41.668,19.669-41.56,38.304-.391,6.868,1.135,17.9,3.102,27.046,4.478,20.825,12.031,34.532,29.105,36.542,36.461,4.292,45.336-32.65,45.336-32.65,0,0,1.929-4.685,3.758-29.952Z"/>
      <g class="cls-25">
        <path class="cls-2" d="M537.419,95.169c-.054,9.635-7.909,17.403-17.544,17.35-9.636-.053-17.404-7.907-17.35-17.543.053-9.635,7.906-17.403,17.543-17.35,9.635.053,17.404,7.908,17.351,17.543Z"/>
        <path class="cls-13" d="M520.06,79.159c8.788.048,15.875,7.213,15.826,16.002-.049,8.788-7.214,15.874-16.003,15.825-8.789-.048-15.875-7.212-15.825-16.002.048-8.788,7.212-15.874,16.002-15.825Z"/>
        <path class="cls-11" d="M520.052,80.692c7.942.043,14.346,6.518,14.302,14.46-.044,7.942-6.52,14.345-14.461,14.301-7.943-.043-14.346-6.518-14.301-14.46.044-7.942,6.517-14.345,14.46-14.301Z"/>
        <path class="cls-12" d="M520.043,82.224c7.095.039,12.817,5.824,12.778,12.919-.04,7.095-5.825,12.816-12.92,12.777-7.096-.039-12.817-5.823-12.777-12.919.039-7.095,5.822-12.816,12.919-12.776Z"/>
        <path class="cls-8" d="M520.035,83.757c6.248.034,11.288,5.129,11.253,11.378-.035,6.249-5.13,11.287-11.378,11.252-6.249-.034-11.288-5.128-11.252-11.378.034-6.249,5.128-11.287,11.378-11.252Z"/>
        <path class="cls-7" d="M520.026,85.29c5.402.029,9.759,4.434,9.729,9.836-.03,5.403-4.435,9.758-9.837,9.728-5.403-.03-9.759-4.433-9.728-9.837.03-5.402,4.433-9.758,9.836-9.728Z"/>
        <path class="cls-10" d="M520.017,86.823c4.555.025,8.23,3.739,8.205,8.295-.025,4.556-3.741,8.229-8.296,8.204-4.556-.025-8.23-3.739-8.204-8.295.025-4.556,3.739-8.229,8.295-8.203Z"/>
        <path class="cls-9" d="M520.009,88.356c3.709.02,6.7,3.044,6.68,6.753-.021,3.71-3.046,6.699-6.754,6.679-3.71-.02-6.7-3.044-6.679-6.754.02-3.709,3.044-6.699,6.753-6.679Z"/>
        <path class="cls-5" d="M520,89.889c2.862.015,5.171,2.349,5.156,5.212-.016,2.863-2.351,5.17-5.213,5.155-2.863-.016-5.171-2.349-5.155-5.213.016-2.863,2.349-5.17,5.212-5.154Z"/>
        <path class="cls-6" d="M519.992,91.422c2.015.01,3.642,1.654,3.632,3.671-.011,2.017-1.656,3.641-3.672,3.631-2.016-.011-3.642-1.654-3.631-3.671.011-2.016,1.655-3.641,3.671-3.63Z"/>
        <path class="cls-4" d="M519.983,92.954c1.169.006,2.113.96,2.107,2.129-.007,1.171-.961,2.112-2.13,2.106-1.17-.007-2.113-.959-2.106-2.13.007-1.17.96-2.112,2.129-2.106Z"/>
        <path class="cls-3" d="M520.558,95.075c-.002.324-.267.583-.589.582-.323-.002-.584-.265-.582-.589.002-.323.266-.583.588-.581.322.001.584.265.583.588Z"/>
      </g>
      <g class="cls-25">
        <path class="cls-2" d="M586.182,94.479c-.062,11.127-9.135,20.099-20.262,20.037-11.127-.062-20.1-9.132-20.037-20.259.062-11.129,9.132-20.1,20.26-20.039,11.128.062,20.1,9.133,20.039,20.261Z"/>
        <path class="cls-13" d="M566.133,75.988c10.15.056,18.334,8.33,18.278,18.481-.057,10.149-8.332,18.333-18.482,18.277-10.149-.056-18.334-8.33-18.277-18.479.056-10.151,8.33-18.334,18.48-18.279Z"/>
        <path class="cls-11" d="M566.123,77.758c9.172.051,16.568,7.528,16.518,16.701-.051,9.171-7.53,16.567-16.701,16.516-9.172-.051-16.568-7.527-16.516-16.699.051-9.173,7.527-16.568,16.7-16.518Z"/>
        <path class="cls-12" d="M566.114,79.528c8.195.045,14.802,6.726,14.757,14.921-.045,8.194-6.727,14.801-14.921,14.756-8.194-.046-14.802-6.725-14.756-14.919.045-8.196,6.725-14.802,14.92-14.757Z"/>
        <path class="cls-8" d="M566.104,81.299c7.217.04,13.036,5.923,12.996,13.141-.04,7.216-5.925,13.035-13.141,12.995-7.216-.04-13.036-5.923-12.996-13.139.04-7.218,5.923-13.036,13.14-12.997Z"/>
        <path class="cls-7" d="M566.094,83.069c6.239.034,11.271,5.121,11.236,11.361-.034,6.238-5.122,11.269-11.36,11.235-6.239-.035-11.27-5.121-11.235-11.359.034-6.24,5.12-11.27,11.36-11.236Z"/>
        <path class="cls-10" d="M566.084,84.839c5.262.029,9.505,4.319,9.475,9.581-.028,5.261-4.319,9.503-9.58,9.474-5.261-.03-9.504-4.319-9.475-9.579.029-5.263,4.318-9.504,9.58-9.476Z"/>
        <path class="cls-9" d="M566.074,86.609c4.284.024,7.739,3.516,7.715,7.801-.023,4.283-3.517,7.737-7.8,7.714-4.284-.024-7.738-3.516-7.714-7.799.024-4.285,3.516-7.738,7.8-7.715Z"/>
        <path class="cls-5" d="M566.065,88.38c3.306.018,5.973,2.714,5.954,6.021-.017,3.305-2.714,5.971-6.02,5.953-3.306-.019-5.972-2.714-5.954-6.019.018-3.307,2.713-5.972,6.02-5.955Z"/>
        <path class="cls-6" d="M566.055,90.15c2.328.013,4.207,1.911,4.193,4.241-.011,2.328-1.912,4.205-4.239,4.193-2.328-.014-4.207-1.912-4.194-4.24.013-2.329,1.911-4.207,4.24-4.194Z"/>
        <path class="cls-4" d="M566.045,91.92c1.351.007,2.442,1.109,2.433,2.461-.006,1.35-1.109,2.439-2.459,2.432-1.351-.008-2.441-1.11-2.433-2.46.007-1.352,1.109-2.441,2.46-2.433Z"/>
        <path class="cls-3" d="M566.707,94.371c0,.372-.307.673-.679.672-.373-.003-.675-.308-.673-.68.002-.374.307-.675.68-.673.373.002.676.307.672.681Z"/>
      </g>
      <g>
        <path class="cls-20" d="M527.088,103.261s11.122,3.474,28.939-.052c0,0-4.314,14.447-16.451,13.514-10.807-.833-12.488-13.462-12.488-13.462Z"/>
        <path class="cls-22" d="M527.51,103.987s11.564,3.949,27.791-.05c0,0-2.726,6.036-15.504,5.649-11.357-.343-12.287-5.6-12.287-5.6Z"/>
      </g>
      <path class="cls-1" d="M527.692,61.25s-8.418-3.279-17.648,3.355c0,0-.098-1.137,1.793-3.07,1.891-1.936,7.579-4.858,13.492-3.508,0,0,3.617,2.044,2.363,3.224Z"/>
      <path class="cls-1" d="M550.563,62.868s9.66-4.038,20.456,3.183c0,0,.09-1.298-2.134-3.432-2.221-2.132-8.852-5.257-15.653-3.506,0,0-4.143,2.457-2.669,3.755Z"/>
      <path class="cls-28" d="M542.451,97.888c-8.592,3.868-13.457-.057-13.967-4.173-.334-2.68,1.096-5.128,3.641-6.239,5.239-2.282,8.672-10.606,8.705-10.692h0c.096,1.878-1.527,9.02-8.121,13.209-1.425.904-2.299,1.834-2.137,3.159.285,2.309,3.767,5.637,11.879,4.736h0Z"/>
      <path class="cls-1" d="M561.866,70.087s-5.373-.19-6.025-2.239c0,0-.816,2.806,2.395,3.917-1.095,1.221-1.833,3.001-1.93,5.022-.184,3.838,2.009,7.058,4.897,7.195,2.887.138,5.374-2.862,5.558-6.699.182-3.837-2.01-7.057-4.896-7.195Z"/>
      <path class="cls-1" d="M522.528,69.869s-5.373-.19-6.027-2.238c0,0-.814,2.806,2.397,3.917-1.094,1.22-1.832,3.001-1.93,5.021-.184,3.837,2.01,7.058,4.896,7.195,2.889.138,5.375-2.862,5.561-6.699.181-3.837-2.011-7.058-4.896-7.196Z"/>
      <path class="cls-27" d="M584.838,77.269s-3.797-29.861-46.537-29.259c-34.039.48-34.039,23.667-34.039,23.667,0,0-9.113-48.703,40.812-46.694,51.663,2.079,39.764,52.286,39.764,52.286Z"/>
    </g>
  </g>
</svg>