<?xml version="1.0" encoding="UTF-8"?>
<svg id="Layer_1" data-name="Layer 1" xmlns="http://www.w3.org/2000/svg" xmlns:xlink="http://www.w3.org/1999/xlink" viewBox="0 0 455.344 449.922">
  <defs>
    <style>
      .cls-1 {
        fill: #4f4848;
      }

      .cls-2 {
        fill: #502f26;
      }

      .cls-3 {
        fill: #faa284;
      }

      .cls-4 {
        fill: #db7c65;
      }

      .cls-5 {
        fill: #ef8d72;
      }

      .cls-6 {
        fill: #922;
      }

      .cls-7 {
        fill: #4f4f4f;
      }

      .cls-8 {
        fill: #997c28;
      }

      .cls-9 {
        fill: #fff;
      }

      .cls-10 {
        fill: #efeeed;
      }

      .cls-11 {
        fill: #443c3b;
      }

      .cls-12 {
        fill: #703636;
      }

      .cls-13 {
        fill: #f0f2f1;
      }

      .cls-14 {
        fill: #332828;
      }

      .cls-15 {
        fill: #d6bb64;
      }

      .cls-16 {
        fill: #d4d6d5;
      }

      .cls-17 {
        fill: #383333;
      }

      .cls-18 {
        fill: #5b5555;
      }

      .cls-19 {
        fill: #d3d3d3;
      }

      .cls-20 {
        clip-path: url(#clippath);
      }
    </style>
    <clipPath id="clippath">
      <path class="cls-10" d="M246.455,308.804s-3.849-171.989-8.251-230.493c-2.052-27.272-32.57-14.547-48.08-12.349-24.816,3.518-42.07-7.961-43.975,1.713-5.641,28.641,3.525,130.921,3.525,130.921,0,0-16.188,89.099-16.424,110.207,0,0-15.636-188.8,4.398-260.333,0,0-5.181-48.471,56.875-48.471,68.736,0,67.213,35.571,70.45,52.77,0,0,24.776,124.406,27.904,163.28,0,0-16.33,80.244-46.42,92.754Z"/>
    </clipPath>
  </defs>
  <g>
    <path class="cls-5" d="M79.307,188.214l26.971-10.665s28.821-4.573,43.304-36.532c14.483-31.959-8.672-47.237-15.17-46.154-10.902,1.817-28.72,7.217-52.614,66.98l-2.491,26.371Z"/>
    <path class="cls-13" d="M93.176,199.354l17.195-17.538s-5.559-24.385-34.289-21.453l-14.942,17.186,32.037,21.805Z"/>
    <g>
      <path class="cls-7" d="M101.258,139.63c-1.986,2.68-.95,5.861,1.49,7.668l27.623,20.46c2.438,1.807,6.596,2.469,8.581-.211l41.491-56.024c1.986-2.678.526-6.982-1.914-8.789l-27.624-20.46c-2.44-1.805-6.171-1.347-8.157,1.333l-41.49,56.023Z"/>
      <rect class="cls-15" x="112.308" y="103.03" width="59.807" height="43.388" transform="translate(-42.657 164.771) rotate(-53.475)"/>
      <path class="cls-19" d="M116,151.157c1.367-1.849,3.977-2.237,5.824-.868,1.846,1.367,2.237,3.975.867,5.824-1.369,1.848-3.976,2.234-5.821.869-1.85-1.37-2.24-3.978-.87-5.826Z"/>
      <path class="cls-19" d="M160.366,93.314c.293-.396.854-.479,1.249-.187l7.046,5.219c.397.293.48.852.186,1.249l-.333.45c-.292.395-.852.479-1.248.187l-7.048-5.22c-.394-.294-.478-.852-.186-1.249l.333-.449Z"/>
    </g>
    <path class="cls-17" d="M117.902,210.096s-58.92,63.264-64.394,64.016c0,0,38.438-66.102,48.21-74.758,0,0-5.379-29.379-37.416-29.379,0,0-103.438,104.038-47.931,154.854,0,0,38.309,26.092,98.81-17.59,0,0,16.662-66.467,2.72-97.144Z"/>
  </g>
  <path class="cls-3" d="M359.239,163.494s9.186-11.601,21.137,12.069l24.883-48.814c1.272-2.627,3.952-6.486,6.577-5.217,2.632,1.28,2.45,6.079,1.139,9.334l-11.215,26.575c.626.381.58.379,1.194.707l19.64-27.112c3.15-3.329,5.86-7.503,8.416-5.752,2.556,1.75,3.58,6.072.453,11.065l-18.546,27.091c.336.222.678.437,1.025.689l21.156-20.708c4.625-4.119,8.099-5.942,10.288-3.84,2.189,2.095.846,6.99-2.484,10.584l-20.7,21.239c.147.129.301.266.454.408l23.056-12.519c5.006-2.596,7.792-3.18,9.279-.898,1.492,2.281-2.083,6.66-4.37,8.154l-21.451,12.915s-4.077,7.611-8.354,14.172c-5.695,8.746-18.329,14.901-18.329,14.901,0,0-7.645,18.116-13.887,20.061l-9.798-28.492c-7.473-15.647-13.417-29.05-19.564-36.611Z"/>
  <path class="cls-13" d="M375.729,202.139c-2.176,10.165-2.147,14.946-5.261,25.502,16.373,2.337,17.595,2.553,37.203,4.472,2.475-13.738,2.668-26.25,2.668-26.25-16.589-9.333-34.61-3.724-34.61-3.724Z"/>
  <path class="cls-1" d="M288.207,303.08s50.064,50.873,71.367,52.632c0,0,43.389,8.403,51.87-134.831,0,0-15.207-12.2-40.976-4.59l-16.311,64.577c-31.456-44.84-52.799-58.885-52.799-58.885,0,0-30.438,28.235-13.151,81.098Z"/>
  <polygon class="cls-12" points="264.151 228.119 248.839 54.596 143.63 55.909 140.847 226.295 264.151 228.119"/>
  <path class="cls-16" d="M245.282,203.243c-23.721-5.169-52.813-8.208-82.906-3.472.19,19.638.76,104.438,20.081,171.841,0,0,54.23-123.153,62.825-168.369Z"/>
  <polygon class="cls-8" points="180.194 226.988 187.388 245.675 164.67 362.396 182.502 385.494 200.977 368.725 198.919 246.847 212.124 231.844 198.797 212.47 180.194 226.988"/>
  <g>
    <path class="cls-3" d="M181.278,185.859l-.797,29.012,48.061,1.32,1.038-37.742c-20.197,9.158-40.116,8.394-48.302,7.409Z"/>
    <path class="cls-5" d="M229.579,178.45l.799-29.075-48.062-1.322-1.039,37.806c8.186.985,28.105,1.749,48.302-7.409Z"/>
  </g>
  <path class="cls-1" d="M279.826,445.614c-1.189-45.97-.753-103.803,6.974-135.027,0,0,10.091-52.742,14.559-88.605,0,0-27.385-14.95-60.726-22.217-8.594,45.214-58.176,171.847-58.176,171.847-19.32-67.404-15.293-153.945-15.483-173.582-15.175,2.388-33.947,5-49.072,12.066,0,0-4.42,72.594-9.375,230.952,0,0,57.539,16.44,171.299,4.566Z"/>
  <path class="cls-13" d="M181.194,188.888s2.222,16.768,17.603,23.582c0,0,28.634-4.898,30.652-23.618l14.445,14.096s-8.848,26.797-31.037,35.072l-13.87-21.147-18.851,17.443s-17.431-20.865-15.938-34.502l16.996-10.926Z"/>
  <path class="cls-18" d="M148.201,263.265l-9.381,9.968s27.399,84.631,43.519,116.619c0,0,52.353-74.198,67.005-108.26l-7.622-9.825,18.763-8.502s4.655-34.446,2.932-60.393c-5.01-1.489-17.158-4.278-22.575-5.458-8.593,45.214-58.384,174.198-58.384,174.198-19.32-67.404-15.303-156.726-15.493-176.362-4.458.701-17.453,4.298-22.501,5.57l-7.989,48.959,11.727,13.486Z"/>
  <g>
    <path class="cls-3" d="M255.94,97.112l-4.747,5.417c-.324-7.614-.551-8.126-.677-12.233-.81-26.351-5.45-37.819-5.45-37.819-7.743-32.248-99.856-7.717-99.856-7.717,1.915,17.392-6.143,83.862,13.915,113.464,5.977,8.82,13.53,16.223,26.205,18.207,55.214,8.646,69.404-45.371,69.404-45.371,0,0,20.145,4.195,19.11-21.534-.815-20.258-17.905-12.414-17.905-12.414Z"/>
    <path class="cls-4" d="M145.211,44.76s92.113-24.531,99.856,7.717c0,0,3.629,8.983,5.029,29.295l-10.426,1.488s-4.691-17.004-21.255-14.805c-16.564,2.199-14.791,6.757-57.314,1.466-7.52-.936-13.094,7.428-15.941,20.874.183-9.867.558-41.439.052-46.035Z"/>
    <path class="cls-4" d="M192.855,129.778c-10.677,4.316-16.431-.709-16.859-5.759-.281-3.289,1.584-6.209,4.743-7.447,6.506-2.54,11.091-12.543,11.137-12.646h0c.029,2.299-2.292,10.945-10.544,15.745-1.783,1.038-2.895,2.133-2.76,3.76.241,2.831,4.332,7.059,14.283,6.348h0Z"/>
    <path class="cls-2" d="M152.875,78.311l-.467-3.215c.696-.055,11.718-3.054,24.648-1.965l.113,5.041c-10.593-1.567-24.123.126-24.294.139Z"/>
    <path class="cls-2" d="M231.24,79.996c-8.642-3.351-24.658-3.974-24.809-4.008l1.054-4.597c.63.129,15.155.634,24.838,5.807l-1.082,2.798Z"/>
    <path class="cls-11" d="M246.455,102.309s-6.296,31.571-18.219,30.984c-11.923-.586-46.515-5.081-68.405,2.345,0,0-9.901,3.652-13.681-24.711,0,0-1.594,69.316,50.152,67.319,45.566-1.759,55.561-39.354,55.561-39.354l-.261-34.966-5.148-1.617Z"/>
    <path class="cls-9" d="M211.417,136.647h-38.776s3.31,12.837,19.388,12.802c15.159-.033,19.212-9.284,19.388-12.802Z"/>
    <g>
      <path class="cls-10" d="M246.455,308.804s-3.849-171.989-8.251-230.493c-2.052-27.272-32.57-14.547-48.08-12.349-24.816,3.518-42.07-7.961-43.975,1.713-5.641,28.641,3.525,130.921,3.525,130.921,0,0-16.188,89.099-16.424,110.207,0,0-15.636-188.8,4.398-260.333,0,0-5.181-48.471,56.875-48.471,68.736,0,67.213,35.571,70.45,52.77,0,0,24.776,124.406,27.904,163.28,0,0-16.33,80.244-46.42,92.754Z"/>
      <g class="cls-20">
        <g>
          <g>
            <path class="cls-6" d="M289.597,15.217c1.457,1.871,3.747,1.965,5.45.639l.31-.241c1.704-1.326,2.174-3.569.719-5.441l-5.801-7.454c-1.456-1.87-4.017-2.312-5.721-.986l-.308.239c-1.705,1.326-1.907,3.918-.448,5.788l5.799,7.455Z"/>
            <path class="cls-6" d="M289.597,37.498c1.457,1.871,3.747,1.965,5.45.639l.31-.241c1.704-1.326,2.174-3.569.719-5.441l-5.801-7.454c-1.456-1.87-4.017-2.312-5.721-.986l-.308.239c-1.705,1.326-1.907,3.918-.448,5.788l5.799,7.455Z"/>
            <path class="cls-6" d="M289.597,59.779c1.457,1.871,3.747,1.965,5.45.639l.31-.241c1.704-1.326,2.174-3.569.719-5.441l-5.801-7.454c-1.456-1.87-4.017-2.312-5.721-.986l-.308.239c-1.705,1.326-1.907,3.918-.448,5.788l5.799,7.455Z"/>
            <path class="cls-6" d="M289.597,82.06c1.457,1.871,3.747,1.965,5.45.639l.31-.241c1.704-1.326,2.174-3.569.719-5.441l-5.801-7.454c-1.456-1.87-4.017-2.312-5.721-.986l-.308.239c-1.705,1.326-1.907,3.918-.448,5.788l5.799,7.455Z"/>
            <path class="cls-6" d="M289.597,104.34c1.457,1.871,3.747,1.965,5.45.639l.31-.241c1.704-1.326,2.174-3.569.719-5.441l-5.801-7.454c-1.456-1.87-4.017-2.312-5.721-.986l-.308.239c-1.705,1.326-1.907,3.918-.448,5.788l5.799,7.455Z"/>
            <path class="cls-6" d="M289.597,126.621c1.457,1.871,3.747,1.965,5.45.639l.31-.241c1.704-1.326,2.174-3.569.719-5.441l-5.801-7.454c-1.456-1.87-4.017-2.312-5.721-.986l-.308.239c-1.705,1.326-1.907,3.918-.448,5.788l5.799,7.455Z"/>
            <path class="cls-6" d="M289.597,148.902c1.457,1.871,3.747,1.965,5.45.639l.31-.241c1.704-1.326,2.174-3.569.719-5.441l-5.801-7.454c-1.456-1.87-4.017-2.312-5.721-.986l-.308.239c-1.705,1.326-1.907,3.918-.448,5.788l5.799,7.455Z"/>
            <path class="cls-6" d="M289.597,171.183c1.457,1.871,3.747,1.965,5.45.639l.31-.241c1.704-1.326,2.174-3.569.719-5.441l-5.801-7.454c-1.456-1.87-4.017-2.312-5.721-.986l-.308.239c-1.705,1.326-1.907,3.918-.448,5.788l5.799,7.455Z"/>
            <path class="cls-6" d="M289.597,193.463c1.457,1.871,3.747,1.965,5.45.639l.31-.241c1.704-1.326,2.174-3.569.719-5.441l-5.801-7.454c-1.456-1.87-4.017-2.312-5.721-.986l-.308.239c-1.705,1.326-1.907,3.918-.448,5.788l5.799,7.455Z"/>
            <path class="cls-6" d="M289.597,215.744c1.457,1.871,3.747,1.965,5.45.639l.31-.241c1.704-1.326,2.174-3.569.719-5.441l-5.801-7.454c-1.456-1.87-4.017-2.312-5.721-.986l-.308.239c-1.705,1.326-1.907,3.918-.448,5.788l5.799,7.455Z"/>
            <path class="cls-6" d="M289.597,238.025c1.457,1.871,3.747,1.965,5.45.639l.31-.241c1.704-1.326,2.174-3.569.719-5.441l-5.801-7.454c-1.456-1.87-4.017-2.312-5.721-.986l-.308.239c-1.705,1.326-1.907,3.918-.448,5.788l5.799,7.455Z"/>
            <path class="cls-6" d="M289.597,260.306c1.457,1.871,3.747,1.965,5.45.639l.31-.241c1.704-1.326,2.174-3.569.719-5.441l-5.801-7.454c-1.456-1.87-4.017-2.312-5.721-.986l-.308.239c-1.705,1.326-1.907,3.918-.448,5.788l5.799,7.455Z"/>
            <path class="cls-6" d="M289.597,282.586c1.457,1.871,3.747,1.965,5.45.639l.31-.241c1.704-1.326,2.174-3.569.719-5.441l-5.801-7.454c-1.456-1.87-4.017-2.312-5.721-.986l-.308.239c-1.705,1.326-1.907,3.918-.448,5.788l5.799,7.455Z"/>
            <path class="cls-6" d="M289.597,304.867c1.457,1.871,3.747,1.965,5.45.639l.31-.241c1.704-1.326,2.174-3.569.719-5.441l-5.801-7.454c-1.456-1.87-4.017-2.312-5.721-.986l-.308.239c-1.705,1.326-1.907,3.918-.448,5.788l5.799,7.455Z"/>
            <path class="cls-6" d="M289.597,327.148c1.457,1.871,3.747,1.965,5.45.639l.31-.241c1.704-1.326,2.174-3.569.719-5.441l-5.801-7.454c-1.456-1.87-4.017-2.312-5.721-.986l-.308.239c-1.705,1.326-1.907,3.918-.448,5.788l5.799,7.455Z"/>
          </g>
          <g>
            <path class="cls-6" d="M267.317,15.217c1.457,1.871,3.747,1.965,5.45.639l.31-.241c1.704-1.326,2.174-3.569.719-5.441l-5.801-7.454c-1.456-1.87-4.017-2.312-5.721-.986l-.308.239c-1.705,1.326-1.907,3.918-.448,5.788l5.799,7.455Z"/>
            <path class="cls-6" d="M267.317,37.498c1.457,1.871,3.747,1.965,5.45.639l.31-.241c1.704-1.326,2.174-3.569.719-5.441l-5.801-7.454c-1.456-1.87-4.017-2.312-5.721-.986l-.308.239c-1.705,1.326-1.907,3.918-.448,5.788l5.799,7.455Z"/>
            <path class="cls-6" d="M267.317,59.779c1.457,1.871,3.747,1.965,5.45.639l.31-.241c1.704-1.326,2.174-3.569.719-5.441l-5.801-7.454c-1.456-1.87-4.017-2.312-5.721-.986l-.308.239c-1.705,1.326-1.907,3.918-.448,5.788l5.799,7.455Z"/>
            <path class="cls-6" d="M267.317,82.06c1.457,1.871,3.747,1.965,5.45.639l.31-.241c1.704-1.326,2.174-3.569.719-5.441l-5.801-7.454c-1.456-1.87-4.017-2.312-5.721-.986l-.308.239c-1.705,1.326-1.907,3.918-.448,5.788l5.799,7.455Z"/>
            <path class="cls-6" d="M267.317,104.34c1.457,1.871,3.747,1.965,5.45.639l.31-.241c1.704-1.326,2.174-3.569.719-5.441l-5.801-7.454c-1.456-1.87-4.017-2.312-5.721-.986l-.308.239c-1.705,1.326-1.907,3.918-.448,5.788l5.799,7.455Z"/>
            <path class="cls-6" d="M267.317,126.621c1.457,1.871,3.747,1.965,5.45.639l.31-.241c1.704-1.326,2.174-3.569.719-5.441l-5.801-7.454c-1.456-1.87-4.017-2.312-5.721-.986l-.308.239c-1.705,1.326-1.907,3.918-.448,5.788l5.799,7.455Z"/>
            <path class="cls-6" d="M267.317,148.902c1.457,1.871,3.747,1.965,5.45.639l.31-.241c1.704-1.326,2.174-3.569.719-5.441l-5.801-7.454c-1.456-1.87-4.017-2.312-5.721-.986l-.308.239c-1.705,1.326-1.907,3.918-.448,5.788l5.799,7.455Z"/>
            <path class="cls-6" d="M267.317,171.183c1.457,1.871,3.747,1.965,5.45.639l.31-.241c1.704-1.326,2.174-3.569.719-5.441l-5.801-7.454c-1.456-1.87-4.017-2.312-5.721-.986l-.308.239c-1.705,1.326-1.907,3.918-.448,5.788l5.799,7.455Z"/>
            <path class="cls-6" d="M267.317,193.463c1.457,1.871,3.747,1.965,5.45.639l.31-.241c1.704-1.326,2.174-3.569.719-5.441l-5.801-7.454c-1.456-1.87-4.017-2.312-5.721-.986l-.308.239c-1.705,1.326-1.907,3.918-.448,5.788l5.799,7.455Z"/>
            <path class="cls-6" d="M267.317,215.744c1.457,1.871,3.747,1.965,5.45.639l.31-.241c1.704-1.326,2.174-3.569.719-5.441l-5.801-7.454c-1.456-1.87-4.017-2.312-5.721-.986l-.308.239c-1.705,1.326-1.907,3.918-.448,5.788l5.799,7.455Z"/>
            <path class="cls-6" d="M267.317,238.025c1.457,1.871,3.747,1.965,5.45.639l.31-.241c1.704-1.326,2.174-3.569.719-5.441l-5.801-7.454c-1.456-1.87-4.017-2.312-5.721-.986l-.308.239c-1.705,1.326-1.907,3.918-.448,5.788l5.799,7.455Z"/>
            <path class="cls-6" d="M267.317,260.306c1.457,1.871,3.747,1.965,5.45.639l.31-.241c1.704-1.326,2.174-3.569.719-5.441l-5.801-7.454c-1.456-1.87-4.017-2.312-5.721-.986l-.308.239c-1.705,1.326-1.907,3.918-.448,5.788l5.799,7.455Z"/>
            <path class="cls-6" d="M267.317,282.586c1.457,1.871,3.747,1.965,5.45.639l.31-.241c1.704-1.326,2.174-3.569.719-5.441l-5.801-7.454c-1.456-1.87-4.017-2.312-5.721-.986l-.308.239c-1.705,1.326-1.907,3.918-.448,5.788l5.799,7.455Z"/>
            <path class="cls-6" d="M267.317,304.867c1.457,1.871,3.747,1.965,5.45.639l.31-.241c1.704-1.326,2.174-3.569.719-5.441l-5.801-7.454c-1.456-1.87-4.017-2.312-5.721-.986l-.308.239c-1.705,1.326-1.907,3.918-.448,5.788l5.799,7.455Z"/>
            <path class="cls-6" d="M267.317,327.148c1.457,1.871,3.747,1.965,5.45.639l.31-.241c1.704-1.326,2.174-3.569.719-5.441l-5.801-7.454c-1.456-1.87-4.017-2.312-5.721-.986l-.308.239c-1.705,1.326-1.907,3.918-.448,5.788l5.799,7.455Z"/>
          </g>
          <g>
            <path class="cls-6" d="M245.036,15.217c1.457,1.871,3.747,1.965,5.45.639l.31-.241c1.704-1.326,2.174-3.569.719-5.441l-5.801-7.454c-1.456-1.87-4.017-2.312-5.721-.986l-.308.239c-1.705,1.326-1.907,3.918-.448,5.788l5.799,7.455Z"/>
            <path class="cls-6" d="M245.036,37.498c1.457,1.871,3.747,1.965,5.45.639l.31-.241c1.704-1.326,2.174-3.569.719-5.441l-5.801-7.454c-1.456-1.87-4.017-2.312-5.721-.986l-.308.239c-1.705,1.326-1.907,3.918-.448,5.788l5.799,7.455Z"/>
            <path class="cls-6" d="M245.036,59.779c1.457,1.871,3.747,1.965,5.45.639l.31-.241c1.704-1.326,2.174-3.569.719-5.441l-5.801-7.454c-1.456-1.87-4.017-2.312-5.721-.986l-.308.239c-1.705,1.326-1.907,3.918-.448,5.788l5.799,7.455Z"/>
            <path class="cls-6" d="M245.036,82.06c1.457,1.871,3.747,1.965,5.45.639l.31-.241c1.704-1.326,2.174-3.569.719-5.441l-5.801-7.454c-1.456-1.87-4.017-2.312-5.721-.986l-.308.239c-1.705,1.326-1.907,3.918-.448,5.788l5.799,7.455Z"/>
            <path class="cls-6" d="M245.036,104.34c1.457,1.871,3.747,1.965,5.45.639l.31-.241c1.704-1.326,2.174-3.569.719-5.441l-5.801-7.454c-1.456-1.87-4.017-2.312-5.721-.986l-.308.239c-1.705,1.326-1.907,3.918-.448,5.788l5.799,7.455Z"/>
            <path class="cls-6" d="M245.036,126.621c1.457,1.871,3.747,1.965,5.45.639l.31-.241c1.704-1.326,2.174-3.569.719-5.441l-5.801-7.454c-1.456-1.87-4.017-2.312-5.721-.986l-.308.239c-1.705,1.326-1.907,3.918-.448,5.788l5.799,7.455Z"/>
            <path class="cls-6" d="M245.036,148.902c1.457,1.871,3.747,1.965,5.45.639l.31-.241c1.704-1.326,2.174-3.569.719-5.441l-5.801-7.454c-1.456-1.87-4.017-2.312-5.721-.986l-.308.239c-1.705,1.326-1.907,3.918-.448,5.788l5.799,7.455Z"/>
            <path class="cls-6" d="M245.036,171.183c1.457,1.871,3.747,1.965,5.45.639l.31-.241c1.704-1.326,2.174-3.569.719-5.441l-5.801-7.454c-1.456-1.87-4.017-2.312-5.721-.986l-.308.239c-1.705,1.326-1.907,3.918-.448,5.788l5.799,7.455Z"/>
            <path class="cls-6" d="M245.036,193.463c1.457,1.871,3.747,1.965,5.45.639l.31-.241c1.704-1.326,2.174-3.569.719-5.441l-5.801-7.454c-1.456-1.87-4.017-2.312-5.721-.986l-.308.239c-1.705,1.326-1.907,3.918-.448,5.788l5.799,7.455Z"/>
            <path class="cls-6" d="M245.036,215.744c1.457,1.871,3.747,1.965,5.45.639l.31-.241c1.704-1.326,2.174-3.569.719-5.441l-5.801-7.454c-1.456-1.87-4.017-2.312-5.721-.986l-.308.239c-1.705,1.326-1.907,3.918-.448,5.788l5.799,7.455Z"/>
            <path class="cls-6" d="M245.036,238.025c1.457,1.871,3.747,1.965,5.45.639l.31-.241c1.704-1.326,2.174-3.569.719-5.441l-5.801-7.454c-1.456-1.87-4.017-2.312-5.721-.986l-.308.239c-1.705,1.326-1.907,3.918-.448,5.788l5.799,7.455Z"/>
            <path class="cls-6" d="M245.036,260.306c1.457,1.871,3.747,1.965,5.45.639l.31-.241c1.704-1.326,2.174-3.569.719-5.441l-5.801-7.454c-1.456-1.87-4.017-2.312-5.721-.986l-.308.239c-1.705,1.326-1.907,3.918-.448,5.788l5.799,7.455Z"/>
            <path class="cls-6" d="M245.036,282.586c1.457,1.871,3.747,1.965,5.45.639l.31-.241c1.704-1.326,2.174-3.569.719-5.441l-5.801-7.454c-1.456-1.87-4.017-2.312-5.721-.986l-.308.239c-1.705,1.326-1.907,3.918-.448,5.788l5.799,7.455Z"/>
            <path class="cls-6" d="M245.036,304.867c1.457,1.871,3.747,1.965,5.45.639l.31-.241c1.704-1.326,2.174-3.569.719-5.441l-5.801-7.454c-1.456-1.87-4.017-2.312-5.721-.986l-.308.239c-1.705,1.326-1.907,3.918-.448,5.788l5.799,7.455Z"/>
            <path class="cls-6" d="M245.036,327.148c1.457,1.871,3.747,1.965,5.45.639l.31-.241c1.704-1.326,2.174-3.569.719-5.441l-5.801-7.454c-1.456-1.87-4.017-2.312-5.721-.986l-.308.239c-1.705,1.326-1.907,3.918-.448,5.788l5.799,7.455Z"/>
          </g>
          <g>
            <path class="cls-6" d="M222.755,15.217c1.457,1.871,3.747,1.965,5.45.639l.31-.241c1.704-1.326,2.174-3.569.719-5.441l-5.801-7.454c-1.456-1.87-4.017-2.312-5.721-.986l-.308.239c-1.705,1.326-1.907,3.918-.448,5.788l5.799,7.455Z"/>
            <path class="cls-6" d="M222.755,37.498c1.457,1.871,3.747,1.965,5.45.639l.31-.241c1.704-1.326,2.174-3.569.719-5.441l-5.801-7.454c-1.456-1.87-4.017-2.312-5.721-.986l-.308.239c-1.705,1.326-1.907,3.918-.448,5.788l5.799,7.455Z"/>
            <path class="cls-6" d="M222.755,59.779c1.457,1.871,3.747,1.965,5.45.639l.31-.241c1.704-1.326,2.174-3.569.719-5.441l-5.801-7.454c-1.456-1.87-4.017-2.312-5.721-.986l-.308.239c-1.705,1.326-1.907,3.918-.448,5.788l5.799,7.455Z"/>
            <path class="cls-6" d="M222.755,82.06c1.457,1.871,3.747,1.965,5.45.639l.31-.241c1.704-1.326,2.174-3.569.719-5.441l-5.801-7.454c-1.456-1.87-4.017-2.312-5.721-.986l-.308.239c-1.705,1.326-1.907,3.918-.448,5.788l5.799,7.455Z"/>
            <path class="cls-6" d="M222.755,104.34c1.457,1.871,3.747,1.965,5.45.639l.31-.241c1.704-1.326,2.174-3.569.719-5.441l-5.801-7.454c-1.456-1.87-4.017-2.312-5.721-.986l-.308.239c-1.705,1.326-1.907,3.918-.448,5.788l5.799,7.455Z"/>
            <path class="cls-6" d="M222.755,126.621c1.457,1.871,3.747,1.965,5.45.639l.31-.241c1.704-1.326,2.174-3.569.719-5.441l-5.801-7.454c-1.456-1.87-4.017-2.312-5.721-.986l-.308.239c-1.705,1.326-1.907,3.918-.448,5.788l5.799,7.455Z"/>
            <path class="cls-6" d="M222.755,148.902c1.457,1.871,3.747,1.965,5.45.639l.31-.241c1.704-1.326,2.174-3.569.719-5.441l-5.801-7.454c-1.456-1.87-4.017-2.312-5.721-.986l-.308.239c-1.705,1.326-1.907,3.918-.448,5.788l5.799,7.455Z"/>
            <path class="cls-6" d="M222.755,171.183c1.457,1.871,3.747,1.965,5.45.639l.31-.241c1.704-1.326,2.174-3.569.719-5.441l-5.801-7.454c-1.456-1.87-4.017-2.312-5.721-.986l-.308.239c-1.705,1.326-1.907,3.918-.448,5.788l5.799,7.455Z"/>
            <path class="cls-6" d="M222.755,193.463c1.457,1.871,3.747,1.965,5.45.639l.31-.241c1.704-1.326,2.174-3.569.719-5.441l-5.801-7.454c-1.456-1.87-4.017-2.312-5.721-.986l-.308.239c-1.705,1.326-1.907,3.918-.448,5.788l5.799,7.455Z"/>
            <path class="cls-6" d="M222.755,215.744c1.457,1.871,3.747,1.965,5.45.639l.31-.241c1.704-1.326,2.174-3.569.719-5.441l-5.801-7.454c-1.456-1.87-4.017-2.312-5.721-.986l-.308.239c-1.705,1.326-1.907,3.918-.448,5.788l5.799,7.455Z"/>
            <path class="cls-6" d="M222.755,238.025c1.457,1.871,3.747,1.965,5.45.639l.31-.241c1.704-1.326,2.174-3.569.719-5.441l-5.801-7.454c-1.456-1.87-4.017-2.312-5.721-.986l-.308.239c-1.705,1.326-1.907,3.918-.448,5.788l5.799,7.455Z"/>
            <path class="cls-6" d="M222.755,260.306c1.457,1.871,3.747,1.965,5.45.639l.31-.241c1.704-1.326,2.174-3.569.719-5.441l-5.801-7.454c-1.456-1.87-4.017-2.312-5.721-.986l-.308.239c-1.705,1.326-1.907,3.918-.448,5.788l5.799,7.455Z"/>
            <path class="cls-6" d="M222.755,282.586c1.457,1.871,3.747,1.965,5.45.639l.31-.241c1.704-1.326,2.174-3.569.719-5.441l-5.801-7.454c-1.456-1.87-4.017-2.312-5.721-.986l-.308.239c-1.705,1.326-1.907,3.918-.448,5.788l5.799,7.455Z"/>
            <path class="cls-6" d="M222.755,304.867c1.457,1.871,3.747,1.965,5.45.639l.31-.241c1.704-1.326,2.174-3.569.719-5.441l-5.801-7.454c-1.456-1.87-4.017-2.312-5.721-.986l-.308.239c-1.705,1.326-1.907,3.918-.448,5.788l5.799,7.455Z"/>
            <path class="cls-6" d="M222.755,327.148c1.457,1.871,3.747,1.965,5.45.639l.31-.241c1.704-1.326,2.174-3.569.719-5.441l-5.801-7.454c-1.456-1.87-4.017-2.312-5.721-.986l-.308.239c-1.705,1.326-1.907,3.918-.448,5.788l5.799,7.455Z"/>
          </g>
          <g>
            <path class="cls-6" d="M200.474,15.217c1.457,1.871,3.747,1.965,5.45.639l.31-.241c1.704-1.326,2.174-3.569.719-5.441l-5.801-7.454c-1.456-1.87-4.017-2.312-5.721-.986l-.308.239c-1.705,1.326-1.907,3.918-.448,5.788l5.799,7.455Z"/>
            <path class="cls-6" d="M200.474,37.498c1.457,1.871,3.747,1.965,5.45.639l.31-.241c1.704-1.326,2.174-3.569.719-5.441l-5.801-7.454c-1.456-1.87-4.017-2.312-5.721-.986l-.308.239c-1.705,1.326-1.907,3.918-.448,5.788l5.799,7.455Z"/>
            <path class="cls-6" d="M200.474,59.779c1.457,1.871,3.747,1.965,5.45.639l.31-.241c1.704-1.326,2.174-3.569.719-5.441l-5.801-7.454c-1.456-1.87-4.017-2.312-5.721-.986l-.308.239c-1.705,1.326-1.907,3.918-.448,5.788l5.799,7.455Z"/>
            <path class="cls-6" d="M200.474,82.06c1.457,1.871,3.747,1.965,5.45.639l.31-.241c1.704-1.326,2.174-3.569.719-5.441l-5.801-7.454c-1.456-1.87-4.017-2.312-5.721-.986l-.308.239c-1.705,1.326-1.907,3.918-.448,5.788l5.799,7.455Z"/>
            <path class="cls-6" d="M200.474,104.34c1.457,1.871,3.747,1.965,5.45.639l.31-.241c1.704-1.326,2.174-3.569.719-5.441l-5.801-7.454c-1.456-1.87-4.017-2.312-5.721-.986l-.308.239c-1.705,1.326-1.907,3.918-.448,5.788l5.799,7.455Z"/>
            <path class="cls-6" d="M200.474,126.621c1.457,1.871,3.747,1.965,5.45.639l.31-.241c1.704-1.326,2.174-3.569.719-5.441l-5.801-7.454c-1.456-1.87-4.017-2.312-5.721-.986l-.308.239c-1.705,1.326-1.907,3.918-.448,5.788l5.799,7.455Z"/>
            <path class="cls-6" d="M200.474,148.902c1.457,1.871,3.747,1.965,5.45.639l.31-.241c1.704-1.326,2.174-3.569.719-5.441l-5.801-7.454c-1.456-1.87-4.017-2.312-5.721-.986l-.308.239c-1.705,1.326-1.907,3.918-.448,5.788l5.799,7.455Z"/>
            <path class="cls-6" d="M200.474,171.183c1.457,1.871,3.747,1.965,5.45.639l.31-.241c1.704-1.326,2.174-3.569.719-5.441l-5.801-7.454c-1.456-1.87-4.017-2.312-5.721-.986l-.308.239c-1.705,1.326-1.907,3.918-.448,5.788l5.799,7.455Z"/>
            <path class="cls-6" d="M200.474,193.463c1.457,1.871,3.747,1.965,5.45.639l.31-.241c1.704-1.326,2.174-3.569.719-5.441l-5.801-7.454c-1.456-1.87-4.017-2.312-5.721-.986l-.308.239c-1.705,1.326-1.907,3.918-.448,5.788l5.799,7.455Z"/>
            <path class="cls-6" d="M200.474,215.744c1.457,1.871,3.747,1.965,5.45.639l.31-.241c1.704-1.326,2.174-3.569.719-5.441l-5.801-7.454c-1.456-1.87-4.017-2.312-5.721-.986l-.308.239c-1.705,1.326-1.907,3.918-.448,5.788l5.799,7.455Z"/>
            <path class="cls-6" d="M200.474,238.025c1.457,1.871,3.747,1.965,5.45.639l.31-.241c1.704-1.326,2.174-3.569.719-5.441l-5.801-7.454c-1.456-1.87-4.017-2.312-5.721-.986l-.308.239c-1.705,1.326-1.907,3.918-.448,5.788l5.799,7.455Z"/>
            <path class="cls-6" d="M200.474,260.306c1.457,1.871,3.747,1.965,5.45.639l.31-.241c1.704-1.326,2.174-3.569.719-5.441l-5.801-7.454c-1.456-1.87-4.017-2.312-5.721-.986l-.308.239c-1.705,1.326-1.907,3.918-.448,5.788l5.799,7.455Z"/>
            <path class="cls-6" d="M200.474,282.586c1.457,1.871,3.747,1.965,5.45.639l.31-.241c1.704-1.326,2.174-3.569.719-5.441l-5.801-7.454c-1.456-1.87-4.017-2.312-5.721-.986l-.308.239c-1.705,1.326-1.907,3.918-.448,5.788l5.799,7.455Z"/>
            <path class="cls-6" d="M200.474,304.867c1.457,1.871,3.747,1.965,5.45.639l.31-.241c1.704-1.326,2.174-3.569.719-5.441l-5.801-7.454c-1.456-1.87-4.017-2.312-5.721-.986l-.308.239c-1.705,1.326-1.907,3.918-.448,5.788l5.799,7.455Z"/>
            <path class="cls-6" d="M200.474,327.148c1.457,1.871,3.747,1.965,5.45.639l.31-.241c1.704-1.326,2.174-3.569.719-5.441l-5.801-7.454c-1.456-1.87-4.017-2.312-5.721-.986l-.308.239c-1.705,1.326-1.907,3.918-.448,5.788l5.799,7.455Z"/>
          </g>
          <g>
            <path class="cls-6" d="M178.194,15.217c1.457,1.871,3.747,1.965,5.45.639l.31-.241c1.704-1.326,2.174-3.569.719-5.441l-5.801-7.454c-1.456-1.87-4.017-2.312-5.721-.986l-.308.239c-1.705,1.326-1.907,3.918-.448,5.788l5.799,7.455Z"/>
            <path class="cls-6" d="M178.194,37.498c1.457,1.871,3.747,1.965,5.45.639l.31-.241c1.704-1.326,2.174-3.569.719-5.441l-5.801-7.454c-1.456-1.87-4.017-2.312-5.721-.986l-.308.239c-1.705,1.326-1.907,3.918-.448,5.788l5.799,7.455Z"/>
            <path class="cls-6" d="M178.194,59.779c1.457,1.871,3.747,1.965,5.45.639l.31-.241c1.704-1.326,2.174-3.569.719-5.441l-5.801-7.454c-1.456-1.87-4.017-2.312-5.721-.986l-.308.239c-1.705,1.326-1.907,3.918-.448,5.788l5.799,7.455Z"/>
            <path class="cls-6" d="M178.194,82.06c1.457,1.871,3.747,1.965,5.45.639l.31-.241c1.704-1.326,2.174-3.569.719-5.441l-5.801-7.454c-1.456-1.87-4.017-2.312-5.721-.986l-.308.239c-1.705,1.326-1.907,3.918-.448,5.788l5.799,7.455Z"/>
            <path class="cls-6" d="M178.194,104.34c1.457,1.871,3.747,1.965,5.45.639l.31-.241c1.704-1.326,2.174-3.569.719-5.441l-5.801-7.454c-1.456-1.87-4.017-2.312-5.721-.986l-.308.239c-1.705,1.326-1.907,3.918-.448,5.788l5.799,7.455Z"/>
            <path class="cls-6" d="M178.194,126.621c1.457,1.871,3.747,1.965,5.45.639l.31-.241c1.704-1.326,2.174-3.569.719-5.441l-5.801-7.454c-1.456-1.87-4.017-2.312-5.721-.986l-.308.239c-1.705,1.326-1.907,3.918-.448,5.788l5.799,7.455Z"/>
            <path class="cls-6" d="M178.194,148.902c1.457,1.871,3.747,1.965,5.45.639l.31-.241c1.704-1.326,2.174-3.569.719-5.441l-5.801-7.454c-1.456-1.87-4.017-2.312-5.721-.986l-.308.239c-1.705,1.326-1.907,3.918-.448,5.788l5.799,7.455Z"/>
            <path class="cls-6" d="M178.194,171.183c1.457,1.871,3.747,1.965,5.45.639l.31-.241c1.704-1.326,2.174-3.569.719-5.441l-5.801-7.454c-1.456-1.87-4.017-2.312-5.721-.986l-.308.239c-1.705,1.326-1.907,3.918-.448,5.788l5.799,7.455Z"/>
            <path class="cls-6" d="M178.194,193.463c1.457,1.871,3.747,1.965,5.45.639l.31-.241c1.704-1.326,2.174-3.569.719-5.441l-5.801-7.454c-1.456-1.87-4.017-2.312-5.721-.986l-.308.239c-1.705,1.326-1.907,3.918-.448,5.788l5.799,7.455Z"/>
            <path class="cls-6" d="M178.194,215.744c1.457,1.871,3.747,1.965,5.45.639l.31-.241c1.704-1.326,2.174-3.569.719-5.441l-5.801-7.454c-1.456-1.87-4.017-2.312-5.721-.986l-.308.239c-1.705,1.326-1.907,3.918-.448,5.788l5.799,7.455Z"/>
            <path class="cls-6" d="M178.194,238.025c1.457,1.871,3.747,1.965,5.45.639l.31-.241c1.704-1.326,2.174-3.569.719-5.441l-5.801-7.454c-1.456-1.87-4.017-2.312-5.721-.986l-.308.239c-1.705,1.326-1.907,3.918-.448,5.788l5.799,7.455Z"/>
            <path class="cls-6" d="M178.194,260.306c1.457,1.871,3.747,1.965,5.45.639l.31-.241c1.704-1.326,2.174-3.569.719-5.441l-5.801-7.454c-1.456-1.87-4.017-2.312-5.721-.986l-.308.239c-1.705,1.326-1.907,3.918-.448,5.788l5.799,7.455Z"/>
            <path class="cls-6" d="M178.194,282.586c1.457,1.871,3.747,1.965,5.45.639l.31-.241c1.704-1.326,2.174-3.569.719-5.441l-5.801-7.454c-1.456-1.87-4.017-2.312-5.721-.986l-.308.239c-1.705,1.326-1.907,3.918-.448,5.788l5.799,7.455Z"/>
            <path class="cls-6" d="M178.194,304.867c1.457,1.871,3.747,1.965,5.45.639l.31-.241c1.704-1.326,2.174-3.569.719-5.441l-5.801-7.454c-1.456-1.87-4.017-2.312-5.721-.986l-.308.239c-1.705,1.326-1.907,3.918-.448,5.788l5.799,7.455Z"/>
            <path class="cls-6" d="M178.194,327.148c1.457,1.871,3.747,1.965,5.45.639l.31-.241c1.704-1.326,2.174-3.569.719-5.441l-5.801-7.454c-1.456-1.87-4.017-2.312-5.721-.986l-.308.239c-1.705,1.326-1.907,3.918-.448,5.788l5.799,7.455Z"/>
          </g>
          <g>
            <path class="cls-6" d="M155.913,15.217c1.457,1.871,3.747,1.965,5.45.639l.31-.241c1.704-1.326,2.174-3.569.719-5.441l-5.801-7.454c-1.456-1.87-4.017-2.312-5.721-.986l-.308.239c-1.705,1.326-1.907,3.918-.448,5.788l5.799,7.455Z"/>
            <path class="cls-6" d="M155.913,37.498c1.457,1.871,3.747,1.965,5.45.639l.31-.241c1.704-1.326,2.174-3.569.719-5.441l-5.801-7.454c-1.456-1.87-4.017-2.312-5.721-.986l-.308.239c-1.705,1.326-1.907,3.918-.448,5.788l5.799,7.455Z"/>
            <path class="cls-6" d="M155.913,59.779c1.457,1.871,3.747,1.965,5.45.639l.31-.241c1.704-1.326,2.174-3.569.719-5.441l-5.801-7.454c-1.456-1.87-4.017-2.312-5.721-.986l-.308.239c-1.705,1.326-1.907,3.918-.448,5.788l5.799,7.455Z"/>
            <path class="cls-6" d="M155.913,82.06c1.457,1.871,3.747,1.965,5.45.639l.31-.241c1.704-1.326,2.174-3.569.719-5.441l-5.801-7.454c-1.456-1.87-4.017-2.312-5.721-.986l-.308.239c-1.705,1.326-1.907,3.918-.448,5.788l5.799,7.455Z"/>
            <path class="cls-6" d="M155.913,104.34c1.457,1.871,3.747,1.965,5.45.639l.31-.241c1.704-1.326,2.174-3.569.719-5.441l-5.801-7.454c-1.456-1.87-4.017-2.312-5.721-.986l-.308.239c-1.705,1.326-1.907,3.918-.448,5.788l5.799,7.455Z"/>
            <path class="cls-6" d="M155.913,126.621c1.457,1.871,3.747,1.965,5.45.639l.31-.241c1.704-1.326,2.174-3.569.719-5.441l-5.801-7.454c-1.456-1.87-4.017-2.312-5.721-.986l-.308.239c-1.705,1.326-1.907,3.918-.448,5.788l5.799,7.455Z"/>
            <path class="cls-6" d="M155.913,148.902c1.457,1.871,3.747,1.965,5.45.639l.31-.241c1.704-1.326,2.174-3.569.719-5.441l-5.801-7.454c-1.456-1.87-4.017-2.312-5.721-.986l-.308.239c-1.705,1.326-1.907,3.918-.448,5.788l5.799,7.455Z"/>
            <path class="cls-6" d="M155.913,171.183c1.457,1.871,3.747,1.965,5.45.639l.31-.241c1.704-1.326,2.174-3.569.719-5.441l-5.801-7.454c-1.456-1.87-4.017-2.312-5.721-.986l-.308.239c-1.705,1.326-1.907,3.918-.448,5.788l5.799,7.455Z"/>
            <path class="cls-6" d="M155.913,193.463c1.457,1.871,3.747,1.965,5.45.639l.31-.241c1.704-1.326,2.174-3.569.719-5.441l-5.801-7.454c-1.456-1.87-4.017-2.312-5.721-.986l-.308.239c-1.705,1.326-1.907,3.918-.448,5.788l5.799,7.455Z"/>
            <path class="cls-6" d="M155.913,215.744c1.457,1.871,3.747,1.965,5.45.639l.31-.241c1.704-1.326,2.174-3.569.719-5.441l-5.801-7.454c-1.456-1.87-4.017-2.312-5.721-.986l-.308.239c-1.705,1.326-1.907,3.918-.448,5.788l5.799,7.455Z"/>
            <path class="cls-6" d="M155.913,238.025c1.457,1.871,3.747,1.965,5.45.639l.31-.241c1.704-1.326,2.174-3.569.719-5.441l-5.801-7.454c-1.456-1.87-4.017-2.312-5.721-.986l-.308.239c-1.705,1.326-1.907,3.918-.448,5.788l5.799,7.455Z"/>
            <path class="cls-6" d="M155.913,260.306c1.457,1.871,3.747,1.965,5.45.639l.31-.241c1.704-1.326,2.174-3.569.719-5.441l-5.801-7.454c-1.456-1.87-4.017-2.312-5.721-.986l-.308.239c-1.705,1.326-1.907,3.918-.448,5.788l5.799,7.455Z"/>
            <path class="cls-6" d="M155.913,282.586c1.457,1.871,3.747,1.965,5.45.639l.31-.241c1.704-1.326,2.174-3.569.719-5.441l-5.801-7.454c-1.456-1.87-4.017-2.312-5.721-.986l-.308.239c-1.705,1.326-1.907,3.918-.448,5.788l5.799,7.455Z"/>
            <path class="cls-6" d="M155.913,304.867c1.457,1.871,3.747,1.965,5.45.639l.31-.241c1.704-1.326,2.174-3.569.719-5.441l-5.801-7.454c-1.456-1.87-4.017-2.312-5.721-.986l-.308.239c-1.705,1.326-1.907,3.918-.448,5.788l5.799,7.455Z"/>
            <path class="cls-6" d="M155.913,327.148c1.457,1.871,3.747,1.965,5.45.639l.31-.241c1.704-1.326,2.174-3.569.719-5.441l-5.801-7.454c-1.456-1.87-4.017-2.312-5.721-.986l-.308.239c-1.705,1.326-1.907,3.918-.448,5.788l5.799,7.455Z"/>
          </g>
          <g>
            <path class="cls-6" d="M133.632,15.217c1.457,1.871,3.747,1.965,5.45.639l.31-.241c1.704-1.326,2.174-3.569.719-5.441l-5.801-7.454c-1.456-1.87-4.017-2.312-5.721-.986l-.308.239c-1.705,1.326-1.907,3.918-.448,5.788l5.799,7.455Z"/>
            <path class="cls-6" d="M133.632,37.498c1.457,1.871,3.747,1.965,5.45.639l.31-.241c1.704-1.326,2.174-3.569.719-5.441l-5.801-7.454c-1.456-1.87-4.017-2.312-5.721-.986l-.308.239c-1.705,1.326-1.907,3.918-.448,5.788l5.799,7.455Z"/>
            <path class="cls-6" d="M133.632,59.779c1.457,1.871,3.747,1.965,5.45.639l.31-.241c1.704-1.326,2.174-3.569.719-5.441l-5.801-7.454c-1.456-1.87-4.017-2.312-5.721-.986l-.308.239c-1.705,1.326-1.907,3.918-.448,5.788l5.799,7.455Z"/>
            <path class="cls-6" d="M133.632,82.06c1.457,1.871,3.747,1.965,5.45.639l.31-.241c1.704-1.326,2.174-3.569.719-5.441l-5.801-7.454c-1.456-1.87-4.017-2.312-5.721-.986l-.308.239c-1.705,1.326-1.907,3.918-.448,5.788l5.799,7.455Z"/>
            <path class="cls-6" d="M133.632,104.34c1.457,1.871,3.747,1.965,5.45.639l.31-.241c1.704-1.326,2.174-3.569.719-5.441l-5.801-7.454c-1.456-1.87-4.017-2.312-5.721-.986l-.308.239c-1.705,1.326-1.907,3.918-.448,5.788l5.799,7.455Z"/>
            <path class="cls-6" d="M133.632,126.621c1.457,1.871,3.747,1.965,5.45.639l.31-.241c1.704-1.326,2.174-3.569.719-5.441l-5.801-7.454c-1.456-1.87-4.017-2.312-5.721-.986l-.308.239c-1.705,1.326-1.907,3.918-.448,5.788l5.799,7.455Z"/>
            <path class="cls-6" d="M133.632,148.902c1.457,1.871,3.747,1.965,5.45.639l.31-.241c1.704-1.326,2.174-3.569.719-5.441l-5.801-7.454c-1.456-1.87-4.017-2.312-5.721-.986l-.308.239c-1.705,1.326-1.907,3.918-.448,5.788l5.799,7.455Z"/>
            <path class="cls-6" d="M133.632,171.183c1.457,1.871,3.747,1.965,5.45.639l.31-.241c1.704-1.326,2.174-3.569.719-5.441l-5.801-7.454c-1.456-1.87-4.017-2.312-5.721-.986l-.308.239c-1.705,1.326-1.907,3.918-.448,5.788l5.799,7.455Z"/>
            <path class="cls-6" d="M133.632,193.463c1.457,1.871,3.747,1.965,5.45.639l.31-.241c1.704-1.326,2.174-3.569.719-5.441l-5.801-7.454c-1.456-1.87-4.017-2.312-5.721-.986l-.308.239c-1.705,1.326-1.907,3.918-.448,5.788l5.799,7.455Z"/>
            <path class="cls-6" d="M133.632,215.744c1.457,1.871,3.747,1.965,5.45.639l.31-.241c1.704-1.326,2.174-3.569.719-5.441l-5.801-7.454c-1.456-1.87-4.017-2.312-5.721-.986l-.308.239c-1.705,1.326-1.907,3.918-.448,5.788l5.799,7.455Z"/>
            <path class="cls-6" d="M133.632,238.025c1.457,1.871,3.747,1.965,5.45.639l.31-.241c1.704-1.326,2.174-3.569.719-5.441l-5.801-7.454c-1.456-1.87-4.017-2.312-5.721-.986l-.308.239c-1.705,1.326-1.907,3.918-.448,5.788l5.799,7.455Z"/>
            <path class="cls-6" d="M133.632,260.306c1.457,1.871,3.747,1.965,5.45.639l.31-.241c1.704-1.326,2.174-3.569.719-5.441l-5.801-7.454c-1.456-1.87-4.017-2.312-5.721-.986l-.308.239c-1.705,1.326-1.907,3.918-.448,5.788l5.799,7.455Z"/>
            <path class="cls-6" d="M133.632,282.586c1.457,1.871,3.747,1.965,5.45.639l.31-.241c1.704-1.326,2.174-3.569.719-5.441l-5.801-7.454c-1.456-1.87-4.017-2.312-5.721-.986l-.308.239c-1.705,1.326-1.907,3.918-.448,5.788l5.799,7.455Z"/>
            <path class="cls-6" d="M133.632,304.867c1.457,1.871,3.747,1.965,5.45.639l.31-.241c1.704-1.326,2.174-3.569.719-5.441l-5.801-7.454c-1.456-1.87-4.017-2.312-5.721-.986l-.308.239c-1.705,1.326-1.907,3.918-.448,5.788l5.799,7.455Z"/>
            <path class="cls-6" d="M133.632,327.148c1.457,1.871,3.747,1.965,5.45.639l.31-.241c1.704-1.326,2.174-3.569.719-5.441l-5.801-7.454c-1.456-1.87-4.017-2.312-5.721-.986l-.308.239c-1.705,1.326-1.907,3.918-.448,5.788l5.799,7.455Z"/>
          </g>
          <g>
            <path class="cls-6" d="M111.351,15.217c1.457,1.871,3.747,1.965,5.45.639l.31-.241c1.704-1.326,2.174-3.569.719-5.441l-5.801-7.454c-1.456-1.87-4.017-2.312-5.721-.986l-.308.239c-1.705,1.326-1.907,3.918-.448,5.788l5.799,7.455Z"/>
            <path class="cls-6" d="M111.351,37.498c1.457,1.871,3.747,1.965,5.45.639l.31-.241c1.704-1.326,2.174-3.569.719-5.441l-5.801-7.454c-1.456-1.87-4.017-2.312-5.721-.986l-.308.239c-1.705,1.326-1.907,3.918-.448,5.788l5.799,7.455Z"/>
            <path class="cls-6" d="M111.351,59.779c1.457,1.871,3.747,1.965,5.45.639l.31-.241c1.704-1.326,2.174-3.569.719-5.441l-5.801-7.454c-1.456-1.87-4.017-2.312-5.721-.986l-.308.239c-1.705,1.326-1.907,3.918-.448,5.788l5.799,7.455Z"/>
            <path class="cls-6" d="M111.351,82.06c1.457,1.871,3.747,1.965,5.45.639l.31-.241c1.704-1.326,2.174-3.569.719-5.441l-5.801-7.454c-1.456-1.87-4.017-2.312-5.721-.986l-.308.239c-1.705,1.326-1.907,3.918-.448,5.788l5.799,7.455Z"/>
            <path class="cls-6" d="M111.351,104.34c1.457,1.871,3.747,1.965,5.45.639l.31-.241c1.704-1.326,2.174-3.569.719-5.441l-5.801-7.454c-1.456-1.87-4.017-2.312-5.721-.986l-.308.239c-1.705,1.326-1.907,3.918-.448,5.788l5.799,7.455Z"/>
            <path class="cls-6" d="M111.351,126.621c1.457,1.871,3.747,1.965,5.45.639l.31-.241c1.704-1.326,2.174-3.569.719-5.441l-5.801-7.454c-1.456-1.87-4.017-2.312-5.721-.986l-.308.239c-1.705,1.326-1.907,3.918-.448,5.788l5.799,7.455Z"/>
            <path class="cls-6" d="M111.351,148.902c1.457,1.871,3.747,1.965,5.45.639l.31-.241c1.704-1.326,2.174-3.569.719-5.441l-5.801-7.454c-1.456-1.87-4.017-2.312-5.721-.986l-.308.239c-1.705,1.326-1.907,3.918-.448,5.788l5.799,7.455Z"/>
            <path class="cls-6" d="M111.351,171.183c1.457,1.871,3.747,1.965,5.45.639l.31-.241c1.704-1.326,2.174-3.569.719-5.441l-5.801-7.454c-1.456-1.87-4.017-2.312-5.721-.986l-.308.239c-1.705,1.326-1.907,3.918-.448,5.788l5.799,7.455Z"/>
            <path class="cls-6" d="M111.351,193.463c1.457,1.871,3.747,1.965,5.45.639l.31-.241c1.704-1.326,2.174-3.569.719-5.441l-5.801-7.454c-1.456-1.87-4.017-2.312-5.721-.986l-.308.239c-1.705,1.326-1.907,3.918-.448,5.788l5.799,7.455Z"/>
            <path class="cls-6" d="M111.351,215.744c1.457,1.871,3.747,1.965,5.45.639l.31-.241c1.704-1.326,2.174-3.569.719-5.441l-5.801-7.454c-1.456-1.87-4.017-2.312-5.721-.986l-.308.239c-1.705,1.326-1.907,3.918-.448,5.788l5.799,7.455Z"/>
            <path class="cls-6" d="M111.351,238.025c1.457,1.871,3.747,1.965,5.45.639l.31-.241c1.704-1.326,2.174-3.569.719-5.441l-5.801-7.454c-1.456-1.87-4.017-2.312-5.721-.986l-.308.239c-1.705,1.326-1.907,3.918-.448,5.788l5.799,7.455Z"/>
            <path class="cls-6" d="M111.351,260.306c1.457,1.871,3.747,1.965,5.45.639l.31-.241c1.704-1.326,2.174-3.569.719-5.441l-5.801-7.454c-1.456-1.87-4.017-2.312-5.721-.986l-.308.239c-1.705,1.326-1.907,3.918-.448,5.788l5.799,7.455Z"/>
            <path class="cls-6" d="M111.351,282.586c1.457,1.871,3.747,1.965,5.45.639l.31-.241c1.704-1.326,2.174-3.569.719-5.441l-5.801-7.454c-1.456-1.87-4.017-2.312-5.721-.986l-.308.239c-1.705,1.326-1.907,3.918-.448,5.788l5.799,7.455Z"/>
            <path class="cls-6" d="M111.351,304.867c1.457,1.871,3.747,1.965,5.45.639l.31-.241c1.704-1.326,2.174-3.569.719-5.441l-5.801-7.454c-1.456-1.87-4.017-2.312-5.721-.986l-.308.239c-1.705,1.326-1.907,3.918-.448,5.788l5.799,7.455Z"/>
            <path class="cls-6" d="M111.351,327.148c1.457,1.871,3.747,1.965,5.45.639l.31-.241c1.704-1.326,2.174-3.569.719-5.441l-5.801-7.454c-1.456-1.87-4.017-2.312-5.721-.986l-.308.239c-1.705,1.326-1.907,3.918-.448,5.788l5.799,7.455Z"/>
          </g>
          <g>
            <path class="cls-6" d="M293.935-3.135c-1.872,1.457-1.965,3.747-.641,5.45l.242.31c1.326,1.704,3.57,2.174,5.441.719l7.453-5.802c1.871-1.456,2.313-4.017.987-5.721l-.24-.308c-1.326-1.705-3.917-1.907-5.787-.448l-7.454,5.799Z"/>
            <path class="cls-6" d="M271.655-3.135c-1.872,1.457-1.965,3.747-.641,5.45l.242.31c1.326,1.704,3.57,2.174,5.441.719l7.453-5.802c1.871-1.456,2.313-4.017.987-5.721l-.24-.308c-1.326-1.705-3.917-1.907-5.787-.448l-7.454,5.799Z"/>
            <path class="cls-6" d="M249.374-3.135c-1.872,1.457-1.965,3.747-.641,5.45l.242.31c1.326,1.704,3.57,2.174,5.441.719l7.453-5.802c1.871-1.456,2.313-4.017.987-5.721l-.24-.308c-1.326-1.705-3.917-1.907-5.787-.448l-7.454,5.799Z"/>
            <path class="cls-6" d="M227.093-3.135c-1.872,1.457-1.965,3.747-.641,5.45l.242.31c1.326,1.704,3.57,2.174,5.441.719l7.453-5.802c1.871-1.456,2.313-4.017.987-5.721l-.24-.308c-1.326-1.705-3.917-1.907-5.787-.448l-7.454,5.799Z"/>
            <path class="cls-6" d="M204.812-3.135c-1.872,1.457-1.965,3.747-.641,5.45l.242.31c1.326,1.704,3.57,2.174,5.441.719l7.453-5.802c1.871-1.456,2.313-4.017.987-5.721l-.24-.308c-1.326-1.705-3.917-1.907-5.787-.448l-7.454,5.799Z"/>
            <path class="cls-6" d="M182.532-3.135c-1.872,1.457-1.965,3.747-.641,5.45l.242.31c1.326,1.704,3.57,2.174,5.441.719l7.453-5.802c1.871-1.456,2.313-4.017.987-5.721l-.24-.308c-1.326-1.705-3.917-1.907-5.787-.448l-7.454,5.799Z"/>
            <path class="cls-6" d="M160.251-3.135c-1.872,1.457-1.965,3.747-.641,5.45l.242.31c1.326,1.704,3.57,2.174,5.441.719l7.453-5.802c1.871-1.456,2.313-4.017.987-5.721l-.24-.308c-1.326-1.705-3.917-1.907-5.787-.448l-7.454,5.799Z"/>
            <path class="cls-6" d="M137.97-3.135c-1.872,1.457-1.965,3.747-.641,5.45l.242.31c1.326,1.704,3.57,2.174,5.441.719l7.453-5.802c1.871-1.456,2.313-4.017.987-5.721l-.24-.308c-1.326-1.705-3.917-1.907-5.787-.448l-7.454,5.799Z"/>
            <path class="cls-6" d="M115.689-3.135c-1.872,1.457-1.965,3.747-.641,5.45l.242.31c1.326,1.704,3.57,2.174,5.441.719l7.453-5.802c1.871-1.456,2.313-4.017.987-5.721l-.24-.308c-1.326-1.705-3.917-1.907-5.787-.448l-7.454,5.799Z"/>
          </g>
          <g>
            <path class="cls-6" d="M293.935,19.145c-1.872,1.457-1.965,3.747-.641,5.45l.242.31c1.326,1.704,3.57,2.174,5.441.719l7.453-5.802c1.871-1.456,2.313-4.017.987-5.721l-.24-.308c-1.326-1.705-3.917-1.907-5.787-.448l-7.454,5.799Z"/>
            <path class="cls-6" d="M271.655,19.145c-1.872,1.457-1.965,3.747-.641,5.45l.242.31c1.326,1.704,3.57,2.174,5.441.719l7.453-5.802c1.871-1.456,2.313-4.017.987-5.721l-.24-.308c-1.326-1.705-3.917-1.907-5.787-.448l-7.454,5.799Z"/>
            <path class="cls-6" d="M249.374,19.145c-1.872,1.457-1.965,3.747-.641,5.45l.242.31c1.326,1.704,3.57,2.174,5.441.719l7.453-5.802c1.871-1.456,2.313-4.017.987-5.721l-.24-.308c-1.326-1.705-3.917-1.907-5.787-.448l-7.454,5.799Z"/>
            <path class="cls-6" d="M227.093,19.145c-1.872,1.457-1.965,3.747-.641,5.45l.242.31c1.326,1.704,3.57,2.174,5.441.719l7.453-5.802c1.871-1.456,2.313-4.017.987-5.721l-.24-.308c-1.326-1.705-3.917-1.907-5.787-.448l-7.454,5.799Z"/>
            <path class="cls-6" d="M204.812,19.145c-1.872,1.457-1.965,3.747-.641,5.45l.242.31c1.326,1.704,3.57,2.174,5.441.719l7.453-5.802c1.871-1.456,2.313-4.017.987-5.721l-.24-.308c-1.326-1.705-3.917-1.907-5.787-.448l-7.454,5.799Z"/>
            <path class="cls-6" d="M182.532,19.145c-1.872,1.457-1.965,3.747-.641,5.45l.242.31c1.326,1.704,3.57,2.174,5.441.719l7.453-5.802c1.871-1.456,2.313-4.017.987-5.721l-.24-.308c-1.326-1.705-3.917-1.907-5.787-.448l-7.454,5.799Z"/>
            <path class="cls-6" d="M160.251,19.145c-1.872,1.457-1.965,3.747-.641,5.45l.242.31c1.326,1.704,3.57,2.174,5.441.719l7.453-5.802c1.871-1.456,2.313-4.017.987-5.721l-.24-.308c-1.326-1.705-3.917-1.907-5.787-.448l-7.454,5.799Z"/>
            <path class="cls-6" d="M137.97,19.145c-1.872,1.457-1.965,3.747-.641,5.45l.242.31c1.326,1.704,3.57,2.174,5.441.719l7.453-5.802c1.871-1.456,2.313-4.017.987-5.721l-.24-.308c-1.326-1.705-3.917-1.907-5.787-.448l-7.454,5.799Z"/>
            <path class="cls-6" d="M115.689,19.145c-1.872,1.457-1.965,3.747-.641,5.45l.242.31c1.326,1.704,3.57,2.174,5.441.719l7.453-5.802c1.871-1.456,2.313-4.017.987-5.721l-.24-.308c-1.326-1.705-3.917-1.907-5.787-.448l-7.454,5.799Z"/>
          </g>
          <g>
            <path class="cls-6" d="M293.935,41.426c-1.872,1.457-1.965,3.747-.641,5.45l.242.31c1.326,1.704,3.57,2.174,5.441.719l7.453-5.802c1.871-1.456,2.313-4.017.987-5.721l-.24-.308c-1.326-1.705-3.917-1.907-5.787-.448l-7.454,5.799Z"/>
            <path class="cls-6" d="M271.655,41.426c-1.872,1.457-1.965,3.747-.641,5.45l.242.31c1.326,1.704,3.57,2.174,5.441.719l7.453-5.802c1.871-1.456,2.313-4.017.987-5.721l-.24-.308c-1.326-1.705-3.917-1.907-5.787-.448l-7.454,5.799Z"/>
            <path class="cls-6" d="M249.374,41.426c-1.872,1.457-1.965,3.747-.641,5.45l.242.31c1.326,1.704,3.57,2.174,5.441.719l7.453-5.802c1.871-1.456,2.313-4.017.987-5.721l-.24-.308c-1.326-1.705-3.917-1.907-5.787-.448l-7.454,5.799Z"/>
            <path class="cls-6" d="M227.093,41.426c-1.872,1.457-1.965,3.747-.641,5.45l.242.31c1.326,1.704,3.57,2.174,5.441.719l7.453-5.802c1.871-1.456,2.313-4.017.987-5.721l-.24-.308c-1.326-1.705-3.917-1.907-5.787-.448l-7.454,5.799Z"/>
            <path class="cls-6" d="M204.812,41.426c-1.872,1.457-1.965,3.747-.641,5.45l.242.31c1.326,1.704,3.57,2.174,5.441.719l7.453-5.802c1.871-1.456,2.313-4.017.987-5.721l-.24-.308c-1.326-1.705-3.917-1.907-5.787-.448l-7.454,5.799Z"/>
            <path class="cls-6" d="M182.532,41.426c-1.872,1.457-1.965,3.747-.641,5.45l.242.31c1.326,1.704,3.57,2.174,5.441.719l7.453-5.802c1.871-1.456,2.313-4.017.987-5.721l-.24-.308c-1.326-1.705-3.917-1.907-5.787-.448l-7.454,5.799Z"/>
            <path class="cls-6" d="M160.251,41.426c-1.872,1.457-1.965,3.747-.641,5.45l.242.31c1.326,1.704,3.57,2.174,5.441.719l7.453-5.802c1.871-1.456,2.313-4.017.987-5.721l-.24-.308c-1.326-1.705-3.917-1.907-5.787-.448l-7.454,5.799Z"/>
            <path class="cls-6" d="M137.97,41.426c-1.872,1.457-1.965,3.747-.641,5.45l.242.31c1.326,1.704,3.57,2.174,5.441.719l7.453-5.802c1.871-1.456,2.313-4.017.987-5.721l-.24-.308c-1.326-1.705-3.917-1.907-5.787-.448l-7.454,5.799Z"/>
            <path class="cls-6" d="M115.689,41.426c-1.872,1.457-1.965,3.747-.641,5.45l.242.31c1.326,1.704,3.57,2.174,5.441.719l7.453-5.802c1.871-1.456,2.313-4.017.987-5.721l-.24-.308c-1.326-1.705-3.917-1.907-5.787-.448l-7.454,5.799Z"/>
          </g>
          <g>
            <path class="cls-6" d="M293.935,63.707c-1.872,1.457-1.965,3.747-.641,5.45l.242.31c1.326,1.704,3.57,2.174,5.441.719l7.453-5.802c1.871-1.456,2.313-4.017.987-5.721l-.24-.308c-1.326-1.705-3.917-1.907-5.787-.448l-7.454,5.799Z"/>
            <path class="cls-6" d="M271.655,63.707c-1.872,1.457-1.965,3.747-.641,5.45l.242.31c1.326,1.704,3.57,2.174,5.441.719l7.453-5.802c1.871-1.456,2.313-4.017.987-5.721l-.24-.308c-1.326-1.705-3.917-1.907-5.787-.448l-7.454,5.799Z"/>
            <path class="cls-6" d="M249.374,63.707c-1.872,1.457-1.965,3.747-.641,5.45l.242.31c1.326,1.704,3.57,2.174,5.441.719l7.453-5.802c1.871-1.456,2.313-4.017.987-5.721l-.24-.308c-1.326-1.705-3.917-1.907-5.787-.448l-7.454,5.799Z"/>
            <path class="cls-6" d="M227.093,63.707c-1.872,1.457-1.965,3.747-.641,5.45l.242.31c1.326,1.704,3.57,2.174,5.441.719l7.453-5.802c1.871-1.456,2.313-4.017.987-5.721l-.24-.308c-1.326-1.705-3.917-1.907-5.787-.448l-7.454,5.799Z"/>
            <path class="cls-6" d="M204.812,63.707c-1.872,1.457-1.965,3.747-.641,5.45l.242.31c1.326,1.704,3.57,2.174,5.441.719l7.453-5.802c1.871-1.456,2.313-4.017.987-5.721l-.24-.308c-1.326-1.705-3.917-1.907-5.787-.448l-7.454,5.799Z"/>
            <path class="cls-6" d="M182.532,63.707c-1.872,1.457-1.965,3.747-.641,5.45l.242.31c1.326,1.704,3.57,2.174,5.441.719l7.453-5.802c1.871-1.456,2.313-4.017.987-5.721l-.24-.308c-1.326-1.705-3.917-1.907-5.787-.448l-7.454,5.799Z"/>
            <path class="cls-6" d="M160.251,63.707c-1.872,1.457-1.965,3.747-.641,5.45l.242.31c1.326,1.704,3.57,2.174,5.441.719l7.453-5.802c1.871-1.456,2.313-4.017.987-5.721l-.24-.308c-1.326-1.705-3.917-1.907-5.787-.448l-7.454,5.799Z"/>
            <path class="cls-6" d="M137.97,63.707c-1.872,1.457-1.965,3.747-.641,5.45l.242.31c1.326,1.704,3.57,2.174,5.441.719l7.453-5.802c1.871-1.456,2.313-4.017.987-5.721l-.24-.308c-1.326-1.705-3.917-1.907-5.787-.448l-7.454,5.799Z"/>
            <path class="cls-6" d="M115.689,63.707c-1.872,1.457-1.965,3.747-.641,5.45l.242.31c1.326,1.704,3.57,2.174,5.441.719l7.453-5.802c1.871-1.456,2.313-4.017.987-5.721l-.24-.308c-1.326-1.705-3.917-1.907-5.787-.448l-7.454,5.799Z"/>
          </g>
          <g>
            <path class="cls-6" d="M293.935,85.988c-1.872,1.457-1.965,3.747-.641,5.45l.242.31c1.326,1.704,3.57,2.174,5.441.719l7.453-5.802c1.871-1.456,2.313-4.017.987-5.721l-.24-.308c-1.326-1.705-3.917-1.907-5.787-.448l-7.454,5.799Z"/>
            <path class="cls-6" d="M271.655,85.988c-1.872,1.457-1.965,3.747-.641,5.45l.242.31c1.326,1.704,3.57,2.174,5.441.719l7.453-5.802c1.871-1.456,2.313-4.017.987-5.721l-.24-.308c-1.326-1.705-3.917-1.907-5.787-.448l-7.454,5.799Z"/>
            <path class="cls-6" d="M249.374,85.988c-1.872,1.457-1.965,3.747-.641,5.45l.242.31c1.326,1.704,3.57,2.174,5.441.719l7.453-5.802c1.871-1.456,2.313-4.017.987-5.721l-.24-.308c-1.326-1.705-3.917-1.907-5.787-.448l-7.454,5.799Z"/>
            <path class="cls-6" d="M227.093,85.988c-1.872,1.457-1.965,3.747-.641,5.45l.242.31c1.326,1.704,3.57,2.174,5.441.719l7.453-5.802c1.871-1.456,2.313-4.017.987-5.721l-.24-.308c-1.326-1.705-3.917-1.907-5.787-.448l-7.454,5.799Z"/>
            <path class="cls-6" d="M204.812,85.988c-1.872,1.457-1.965,3.747-.641,5.45l.242.31c1.326,1.704,3.57,2.174,5.441.719l7.453-5.802c1.871-1.456,2.313-4.017.987-5.721l-.24-.308c-1.326-1.705-3.917-1.907-5.787-.448l-7.454,5.799Z"/>
            <path class="cls-6" d="M182.532,85.988c-1.872,1.457-1.965,3.747-.641,5.45l.242.31c1.326,1.704,3.57,2.174,5.441.719l7.453-5.802c1.871-1.456,2.313-4.017.987-5.721l-.24-.308c-1.326-1.705-3.917-1.907-5.787-.448l-7.454,5.799Z"/>
            <path class="cls-6" d="M160.251,85.988c-1.872,1.457-1.965,3.747-.641,5.45l.242.31c1.326,1.704,3.57,2.174,5.441.719l7.453-5.802c1.871-1.456,2.313-4.017.987-5.721l-.24-.308c-1.326-1.705-3.917-1.907-5.787-.448l-7.454,5.799Z"/>
            <path class="cls-6" d="M137.97,85.988c-1.872,1.457-1.965,3.747-.641,5.45l.242.31c1.326,1.704,3.57,2.174,5.441.719l7.453-5.802c1.871-1.456,2.313-4.017.987-5.721l-.24-.308c-1.326-1.705-3.917-1.907-5.787-.448l-7.454,5.799Z"/>
            <path class="cls-6" d="M115.689,85.988c-1.872,1.457-1.965,3.747-.641,5.45l.242.31c1.326,1.704,3.57,2.174,5.441.719l7.453-5.802c1.871-1.456,2.313-4.017.987-5.721l-.24-.308c-1.326-1.705-3.917-1.907-5.787-.448l-7.454,5.799Z"/>
          </g>
          <g>
            <path class="cls-6" d="M293.935,108.268c-1.872,1.457-1.965,3.747-.641,5.45l.242.31c1.326,1.704,3.57,2.174,5.441.719l7.453-5.802c1.871-1.456,2.313-4.017.987-5.721l-.24-.308c-1.326-1.705-3.917-1.907-5.787-.448l-7.454,5.799Z"/>
            <path class="cls-6" d="M271.655,108.268c-1.872,1.457-1.965,3.747-.641,5.45l.242.31c1.326,1.704,3.57,2.174,5.441.719l7.453-5.802c1.871-1.456,2.313-4.017.987-5.721l-.24-.308c-1.326-1.705-3.917-1.907-5.787-.448l-7.454,5.799Z"/>
            <path class="cls-6" d="M249.374,108.268c-1.872,1.457-1.965,3.747-.641,5.45l.242.31c1.326,1.704,3.57,2.174,5.441.719l7.453-5.802c1.871-1.456,2.313-4.017.987-5.721l-.24-.308c-1.326-1.705-3.917-1.907-5.787-.448l-7.454,5.799Z"/>
            <path class="cls-6" d="M227.093,108.268c-1.872,1.457-1.965,3.747-.641,5.45l.242.31c1.326,1.704,3.57,2.174,5.441.719l7.453-5.802c1.871-1.456,2.313-4.017.987-5.721l-.24-.308c-1.326-1.705-3.917-1.907-5.787-.448l-7.454,5.799Z"/>
            <path class="cls-6" d="M204.812,108.268c-1.872,1.457-1.965,3.747-.641,5.45l.242.31c1.326,1.704,3.57,2.174,5.441.719l7.453-5.802c1.871-1.456,2.313-4.017.987-5.721l-.24-.308c-1.326-1.705-3.917-1.907-5.787-.448l-7.454,5.799Z"/>
            <path class="cls-6" d="M182.532,108.268c-1.872,1.457-1.965,3.747-.641,5.45l.242.31c1.326,1.704,3.57,2.174,5.441.719l7.453-5.802c1.871-1.456,2.313-4.017.987-5.721l-.24-.308c-1.326-1.705-3.917-1.907-5.787-.448l-7.454,5.799Z"/>
            <path class="cls-6" d="M160.251,108.268c-1.872,1.457-1.965,3.747-.641,5.45l.242.31c1.326,1.704,3.57,2.174,5.441.719l7.453-5.802c1.871-1.456,2.313-4.017.987-5.721l-.24-.308c-1.326-1.705-3.917-1.907-5.787-.448l-7.454,5.799Z"/>
            <path class="cls-6" d="M137.97,108.268c-1.872,1.457-1.965,3.747-.641,5.45l.242.31c1.326,1.704,3.57,2.174,5.441.719l7.453-5.802c1.871-1.456,2.313-4.017.987-5.721l-.24-.308c-1.326-1.705-3.917-1.907-5.787-.448l-7.454,5.799Z"/>
            <path class="cls-6" d="M115.689,108.268c-1.872,1.457-1.965,3.747-.641,5.45l.242.31c1.326,1.704,3.57,2.174,5.441.719l7.453-5.802c1.871-1.456,2.313-4.017.987-5.721l-.24-.308c-1.326-1.705-3.917-1.907-5.787-.448l-7.454,5.799Z"/>
          </g>
          <g>
            <path class="cls-6" d="M293.935,130.549c-1.872,1.457-1.965,3.747-.641,5.45l.242.31c1.326,1.704,3.57,2.174,5.441.719l7.453-5.802c1.871-1.456,2.313-4.017.987-5.721l-.24-.308c-1.326-1.705-3.917-1.907-5.787-.448l-7.454,5.799Z"/>
            <path class="cls-6" d="M271.655,130.549c-1.872,1.457-1.965,3.747-.641,5.45l.242.31c1.326,1.704,3.57,2.174,5.441.719l7.453-5.802c1.871-1.456,2.313-4.017.987-5.721l-.24-.308c-1.326-1.705-3.917-1.907-5.787-.448l-7.454,5.799Z"/>
            <path class="cls-6" d="M249.374,130.549c-1.872,1.457-1.965,3.747-.641,5.45l.242.31c1.326,1.704,3.57,2.174,5.441.719l7.453-5.802c1.871-1.456,2.313-4.017.987-5.721l-.24-.308c-1.326-1.705-3.917-1.907-5.787-.448l-7.454,5.799Z"/>
            <path class="cls-6" d="M227.093,130.549c-1.872,1.457-1.965,3.747-.641,5.45l.242.31c1.326,1.704,3.57,2.174,5.441.719l7.453-5.802c1.871-1.456,2.313-4.017.987-5.721l-.24-.308c-1.326-1.705-3.917-1.907-5.787-.448l-7.454,5.799Z"/>
            <path class="cls-6" d="M204.812,130.549c-1.872,1.457-1.965,3.747-.641,5.45l.242.31c1.326,1.704,3.57,2.174,5.441.719l7.453-5.802c1.871-1.456,2.313-4.017.987-5.721l-.24-.308c-1.326-1.705-3.917-1.907-5.787-.448l-7.454,5.799Z"/>
            <path class="cls-6" d="M182.532,130.549c-1.872,1.457-1.965,3.747-.641,5.45l.242.31c1.326,1.704,3.57,2.174,5.441.719l7.453-5.802c1.871-1.456,2.313-4.017.987-5.721l-.24-.308c-1.326-1.705-3.917-1.907-5.787-.448l-7.454,5.799Z"/>
            <path class="cls-6" d="M160.251,130.549c-1.872,1.457-1.965,3.747-.641,5.45l.242.31c1.326,1.704,3.57,2.174,5.441.719l7.453-5.802c1.871-1.456,2.313-4.017.987-5.721l-.24-.308c-1.326-1.705-3.917-1.907-5.787-.448l-7.454,5.799Z"/>
            <path class="cls-6" d="M137.97,130.549c-1.872,1.457-1.965,3.747-.641,5.45l.242.31c1.326,1.704,3.57,2.174,5.441.719l7.453-5.802c1.871-1.456,2.313-4.017.987-5.721l-.24-.308c-1.326-1.705-3.917-1.907-5.787-.448l-7.454,5.799Z"/>
            <path class="cls-6" d="M115.689,130.549c-1.872,1.457-1.965,3.747-.641,5.45l.242.31c1.326,1.704,3.57,2.174,5.441.719l7.453-5.802c1.871-1.456,2.313-4.017.987-5.721l-.24-.308c-1.326-1.705-3.917-1.907-5.787-.448l-7.454,5.799Z"/>
          </g>
          <g>
            <path class="cls-6" d="M293.935,152.83c-1.872,1.457-1.965,3.747-.641,5.45l.242.31c1.326,1.704,3.57,2.174,5.441.719l7.453-5.802c1.871-1.456,2.313-4.017.987-5.721l-.24-.308c-1.326-1.705-3.917-1.907-5.787-.448l-7.454,5.799Z"/>
            <path class="cls-6" d="M271.655,152.83c-1.872,1.457-1.965,3.747-.641,5.45l.242.31c1.326,1.704,3.57,2.174,5.441.719l7.453-5.802c1.871-1.456,2.313-4.017.987-5.721l-.24-.308c-1.326-1.705-3.917-1.907-5.787-.448l-7.454,5.799Z"/>
            <path class="cls-6" d="M249.374,152.83c-1.872,1.457-1.965,3.747-.641,5.45l.242.31c1.326,1.704,3.57,2.174,5.441.719l7.453-5.802c1.871-1.456,2.313-4.017.987-5.721l-.24-.308c-1.326-1.705-3.917-1.907-5.787-.448l-7.454,5.799Z"/>
            <path class="cls-6" d="M227.093,152.83c-1.872,1.457-1.965,3.747-.641,5.45l.242.31c1.326,1.704,3.57,2.174,5.441.719l7.453-5.802c1.871-1.456,2.313-4.017.987-5.721l-.24-.308c-1.326-1.705-3.917-1.907-5.787-.448l-7.454,5.799Z"/>
            <path class="cls-6" d="M204.812,152.83c-1.872,1.457-1.965,3.747-.641,5.45l.242.31c1.326,1.704,3.57,2.174,5.441.719l7.453-5.802c1.871-1.456,2.313-4.017.987-5.721l-.24-.308c-1.326-1.705-3.917-1.907-5.787-.448l-7.454,5.799Z"/>
            <path class="cls-6" d="M182.532,152.83c-1.872,1.457-1.965,3.747-.641,5.45l.242.31c1.326,1.704,3.57,2.174,5.441.719l7.453-5.802c1.871-1.456,2.313-4.017.987-5.721l-.24-.308c-1.326-1.705-3.917-1.907-5.787-.448l-7.454,5.799Z"/>
            <path class="cls-6" d="M160.251,152.83c-1.872,1.457-1.965,3.747-.641,5.45l.242.31c1.326,1.704,3.57,2.174,5.441.719l7.453-5.802c1.871-1.456,2.313-4.017.987-5.721l-.24-.308c-1.326-1.705-3.917-1.907-5.787-.448l-7.454,5.799Z"/>
            <path class="cls-6" d="M137.97,152.83c-1.872,1.457-1.965,3.747-.641,5.45l.242.31c1.326,1.704,3.57,2.174,5.441.719l7.453-5.802c1.871-1.456,2.313-4.017.987-5.721l-.24-.308c-1.326-1.705-3.917-1.907-5.787-.448l-7.454,5.799Z"/>
            <path class="cls-6" d="M115.689,152.83c-1.872,1.457-1.965,3.747-.641,5.45l.242.31c1.326,1.704,3.57,2.174,5.441.719l7.453-5.802c1.871-1.456,2.313-4.017.987-5.721l-.24-.308c-1.326-1.705-3.917-1.907-5.787-.448l-7.454,5.799Z"/>
          </g>
          <g>
            <path class="cls-6" d="M293.935,175.111c-1.872,1.457-1.965,3.747-.641,5.45l.242.31c1.326,1.704,3.57,2.174,5.441.719l7.453-5.802c1.871-1.456,2.313-4.017.987-5.721l-.24-.308c-1.326-1.705-3.917-1.907-5.787-.448l-7.454,5.799Z"/>
            <path class="cls-6" d="M271.655,175.111c-1.872,1.457-1.965,3.747-.641,5.45l.242.31c1.326,1.704,3.57,2.174,5.441.719l7.453-5.802c1.871-1.456,2.313-4.017.987-5.721l-.24-.308c-1.326-1.705-3.917-1.907-5.787-.448l-7.454,5.799Z"/>
            <path class="cls-6" d="M249.374,175.111c-1.872,1.457-1.965,3.747-.641,5.45l.242.31c1.326,1.704,3.57,2.174,5.441.719l7.453-5.802c1.871-1.456,2.313-4.017.987-5.721l-.24-.308c-1.326-1.705-3.917-1.907-5.787-.448l-7.454,5.799Z"/>
            <path class="cls-6" d="M227.093,175.111c-1.872,1.457-1.965,3.747-.641,5.45l.242.31c1.326,1.704,3.57,2.174,5.441.719l7.453-5.802c1.871-1.456,2.313-4.017.987-5.721l-.24-.308c-1.326-1.705-3.917-1.907-5.787-.448l-7.454,5.799Z"/>
            <path class="cls-6" d="M204.812,175.111c-1.872,1.457-1.965,3.747-.641,5.45l.242.31c1.326,1.704,3.57,2.174,5.441.719l7.453-5.802c1.871-1.456,2.313-4.017.987-5.721l-.24-.308c-1.326-1.705-3.917-1.907-5.787-.448l-7.454,5.799Z"/>
            <path class="cls-6" d="M182.532,175.111c-1.872,1.457-1.965,3.747-.641,5.45l.242.31c1.326,1.704,3.57,2.174,5.441.719l7.453-5.802c1.871-1.456,2.313-4.017.987-5.721l-.24-.308c-1.326-1.705-3.917-1.907-5.787-.448l-7.454,5.799Z"/>
            <path class="cls-6" d="M160.251,175.111c-1.872,1.457-1.965,3.747-.641,5.45l.242.31c1.326,1.704,3.57,2.174,5.441.719l7.453-5.802c1.871-1.456,2.313-4.017.987-5.721l-.24-.308c-1.326-1.705-3.917-1.907-5.787-.448l-7.454,5.799Z"/>
            <path class="cls-6" d="M137.97,175.111c-1.872,1.457-1.965,3.747-.641,5.45l.242.31c1.326,1.704,3.57,2.174,5.441.719l7.453-5.802c1.871-1.456,2.313-4.017.987-5.721l-.24-.308c-1.326-1.705-3.917-1.907-5.787-.448l-7.454,5.799Z"/>
            <path class="cls-6" d="M115.689,175.111c-1.872,1.457-1.965,3.747-.641,5.45l.242.31c1.326,1.704,3.57,2.174,5.441.719l7.453-5.802c1.871-1.456,2.313-4.017.987-5.721l-.24-.308c-1.326-1.705-3.917-1.907-5.787-.448l-7.454,5.799Z"/>
          </g>
          <g>
            <path class="cls-6" d="M293.935,197.391c-1.872,1.457-1.965,3.747-.641,5.45l.242.31c1.326,1.704,3.57,2.174,5.441.719l7.453-5.802c1.871-1.456,2.313-4.017.987-5.721l-.24-.308c-1.326-1.705-3.917-1.907-5.787-.448l-7.454,5.799Z"/>
            <path class="cls-6" d="M271.655,197.391c-1.872,1.457-1.965,3.747-.641,5.45l.242.31c1.326,1.704,3.57,2.174,5.441.719l7.453-5.802c1.871-1.456,2.313-4.017.987-5.721l-.24-.308c-1.326-1.705-3.917-1.907-5.787-.448l-7.454,5.799Z"/>
            <path class="cls-6" d="M249.374,197.391c-1.872,1.457-1.965,3.747-.641,5.45l.242.31c1.326,1.704,3.57,2.174,5.441.719l7.453-5.802c1.871-1.456,2.313-4.017.987-5.721l-.24-.308c-1.326-1.705-3.917-1.907-5.787-.448l-7.454,5.799Z"/>
            <path class="cls-6" d="M227.093,197.391c-1.872,1.457-1.965,3.747-.641,5.45l.242.31c1.326,1.704,3.57,2.174,5.441.719l7.453-5.802c1.871-1.456,2.313-4.017.987-5.721l-.24-.308c-1.326-1.705-3.917-1.907-5.787-.448l-7.454,5.799Z"/>
            <path class="cls-6" d="M204.812,197.391c-1.872,1.457-1.965,3.747-.641,5.45l.242.31c1.326,1.704,3.57,2.174,5.441.719l7.453-5.802c1.871-1.456,2.313-4.017.987-5.721l-.24-.308c-1.326-1.705-3.917-1.907-5.787-.448l-7.454,5.799Z"/>
            <path class="cls-6" d="M182.532,197.391c-1.872,1.457-1.965,3.747-.641,5.45l.242.31c1.326,1.704,3.57,2.174,5.441.719l7.453-5.802c1.871-1.456,2.313-4.017.987-5.721l-.24-.308c-1.326-1.705-3.917-1.907-5.787-.448l-7.454,5.799Z"/>
            <path class="cls-6" d="M160.251,197.391c-1.872,1.457-1.965,3.747-.641,5.45l.242.31c1.326,1.704,3.57,2.174,5.441.719l7.453-5.802c1.871-1.456,2.313-4.017.987-5.721l-.24-.308c-1.326-1.705-3.917-1.907-5.787-.448l-7.454,5.799Z"/>
            <path class="cls-6" d="M137.97,197.391c-1.872,1.457-1.965,3.747-.641,5.45l.242.31c1.326,1.704,3.57,2.174,5.441.719l7.453-5.802c1.871-1.456,2.313-4.017.987-5.721l-.24-.308c-1.326-1.705-3.917-1.907-5.787-.448l-7.454,5.799Z"/>
            <path class="cls-6" d="M115.689,197.391c-1.872,1.457-1.965,3.747-.641,5.45l.242.31c1.326,1.704,3.57,2.174,5.441.719l7.453-5.802c1.871-1.456,2.313-4.017.987-5.721l-.24-.308c-1.326-1.705-3.917-1.907-5.787-.448l-7.454,5.799Z"/>
          </g>
          <g>
            <path class="cls-6" d="M293.935,219.672c-1.872,1.457-1.965,3.747-.641,5.45l.242.31c1.326,1.704,3.57,2.174,5.441.719l7.453-5.802c1.871-1.456,2.313-4.017.987-5.721l-.24-.308c-1.326-1.705-3.917-1.907-5.787-.448l-7.454,5.799Z"/>
            <path class="cls-6" d="M271.655,219.672c-1.872,1.457-1.965,3.747-.641,5.45l.242.31c1.326,1.704,3.57,2.174,5.441.719l7.453-5.802c1.871-1.456,2.313-4.017.987-5.721l-.24-.308c-1.326-1.705-3.917-1.907-5.787-.448l-7.454,5.799Z"/>
            <path class="cls-6" d="M249.374,219.672c-1.872,1.457-1.965,3.747-.641,5.45l.242.31c1.326,1.704,3.57,2.174,5.441.719l7.453-5.802c1.871-1.456,2.313-4.017.987-5.721l-.24-.308c-1.326-1.705-3.917-1.907-5.787-.448l-7.454,5.799Z"/>
            <path class="cls-6" d="M227.093,219.672c-1.872,1.457-1.965,3.747-.641,5.45l.242.31c1.326,1.704,3.57,2.174,5.441.719l7.453-5.802c1.871-1.456,2.313-4.017.987-5.721l-.24-.308c-1.326-1.705-3.917-1.907-5.787-.448l-7.454,5.799Z"/>
            <path class="cls-6" d="M204.812,219.672c-1.872,1.457-1.965,3.747-.641,5.45l.242.31c1.326,1.704,3.57,2.174,5.441.719l7.453-5.802c1.871-1.456,2.313-4.017.987-5.721l-.24-.308c-1.326-1.705-3.917-1.907-5.787-.448l-7.454,5.799Z"/>
            <path class="cls-6" d="M182.532,219.672c-1.872,1.457-1.965,3.747-.641,5.45l.242.31c1.326,1.704,3.57,2.174,5.441.719l7.453-5.802c1.871-1.456,2.313-4.017.987-5.721l-.24-.308c-1.326-1.705-3.917-1.907-5.787-.448l-7.454,5.799Z"/>
            <path class="cls-6" d="M160.251,219.672c-1.872,1.457-1.965,3.747-.641,5.45l.242.31c1.326,1.704,3.57,2.174,5.441.719l7.453-5.802c1.871-1.456,2.313-4.017.987-5.721l-.24-.308c-1.326-1.705-3.917-1.907-5.787-.448l-7.454,5.799Z"/>
            <path class="cls-6" d="M137.97,219.672c-1.872,1.457-1.965,3.747-.641,5.45l.242.31c1.326,1.704,3.57,2.174,5.441.719l7.453-5.802c1.871-1.456,2.313-4.017.987-5.721l-.24-.308c-1.326-1.705-3.917-1.907-5.787-.448l-7.454,5.799Z"/>
            <path class="cls-6" d="M115.689,219.672c-1.872,1.457-1.965,3.747-.641,5.45l.242.31c1.326,1.704,3.57,2.174,5.441.719l7.453-5.802c1.871-1.456,2.313-4.017.987-5.721l-.24-.308c-1.326-1.705-3.917-1.907-5.787-.448l-7.454,5.799Z"/>
          </g>
          <g>
            <path class="cls-6" d="M293.935,241.953c-1.872,1.457-1.965,3.747-.641,5.45l.242.31c1.326,1.704,3.57,2.174,5.441.719l7.453-5.802c1.871-1.456,2.313-4.017.987-5.721l-.24-.308c-1.326-1.705-3.917-1.907-5.787-.448l-7.454,5.799Z"/>
            <path class="cls-6" d="M271.655,241.953c-1.872,1.457-1.965,3.747-.641,5.45l.242.31c1.326,1.704,3.57,2.174,5.441.719l7.453-5.802c1.871-1.456,2.313-4.017.987-5.721l-.24-.308c-1.326-1.705-3.917-1.907-5.787-.448l-7.454,5.799Z"/>
            <path class="cls-6" d="M249.374,241.953c-1.872,1.457-1.965,3.747-.641,5.45l.242.31c1.326,1.704,3.57,2.174,5.441.719l7.453-5.802c1.871-1.456,2.313-4.017.987-5.721l-.24-.308c-1.326-1.705-3.917-1.907-5.787-.448l-7.454,5.799Z"/>
            <path class="cls-6" d="M227.093,241.953c-1.872,1.457-1.965,3.747-.641,5.45l.242.31c1.326,1.704,3.57,2.174,5.441.719l7.453-5.802c1.871-1.456,2.313-4.017.987-5.721l-.24-.308c-1.326-1.705-3.917-1.907-5.787-.448l-7.454,5.799Z"/>
            <path class="cls-6" d="M204.812,241.953c-1.872,1.457-1.965,3.747-.641,5.45l.242.31c1.326,1.704,3.57,2.174,5.441.719l7.453-5.802c1.871-1.456,2.313-4.017.987-5.721l-.24-.308c-1.326-1.705-3.917-1.907-5.787-.448l-7.454,5.799Z"/>
            <path class="cls-6" d="M182.532,241.953c-1.872,1.457-1.965,3.747-.641,5.45l.242.31c1.326,1.704,3.57,2.174,5.441.719l7.453-5.802c1.871-1.456,2.313-4.017.987-5.721l-.24-.308c-1.326-1.705-3.917-1.907-5.787-.448l-7.454,5.799Z"/>
            <path class="cls-6" d="M160.251,241.953c-1.872,1.457-1.965,3.747-.641,5.45l.242.31c1.326,1.704,3.57,2.174,5.441.719l7.453-5.802c1.871-1.456,2.313-4.017.987-5.721l-.24-.308c-1.326-1.705-3.917-1.907-5.787-.448l-7.454,5.799Z"/>
            <path class="cls-6" d="M137.97,241.953c-1.872,1.457-1.965,3.747-.641,5.45l.242.31c1.326,1.704,3.57,2.174,5.441.719l7.453-5.802c1.871-1.456,2.313-4.017.987-5.721l-.24-.308c-1.326-1.705-3.917-1.907-5.787-.448l-7.454,5.799Z"/>
            <path class="cls-6" d="M115.689,241.953c-1.872,1.457-1.965,3.747-.641,5.45l.242.31c1.326,1.704,3.57,2.174,5.441.719l7.453-5.802c1.871-1.456,2.313-4.017.987-5.721l-.24-.308c-1.326-1.705-3.917-1.907-5.787-.448l-7.454,5.799Z"/>
          </g>
          <g>
            <path class="cls-6" d="M293.935,264.234c-1.872,1.457-1.965,3.747-.641,5.45l.242.31c1.326,1.704,3.57,2.174,5.441.719l7.453-5.802c1.871-1.456,2.313-4.017.987-5.721l-.24-.308c-1.326-1.705-3.917-1.907-5.787-.448l-7.454,5.799Z"/>
            <path class="cls-6" d="M271.655,264.234c-1.872,1.457-1.965,3.747-.641,5.45l.242.31c1.326,1.704,3.57,2.174,5.441.719l7.453-5.802c1.871-1.456,2.313-4.017.987-5.721l-.24-.308c-1.326-1.705-3.917-1.907-5.787-.448l-7.454,5.799Z"/>
            <path class="cls-6" d="M249.374,264.234c-1.872,1.457-1.965,3.747-.641,5.45l.242.31c1.326,1.704,3.57,2.174,5.441.719l7.453-5.802c1.871-1.456,2.313-4.017.987-5.721l-.24-.308c-1.326-1.705-3.917-1.907-5.787-.448l-7.454,5.799Z"/>
            <path class="cls-6" d="M227.093,264.234c-1.872,1.457-1.965,3.747-.641,5.45l.242.31c1.326,1.704,3.57,2.174,5.441.719l7.453-5.802c1.871-1.456,2.313-4.017.987-5.721l-.24-.308c-1.326-1.705-3.917-1.907-5.787-.448l-7.454,5.799Z"/>
            <path class="cls-6" d="M204.812,264.234c-1.872,1.457-1.965,3.747-.641,5.45l.242.31c1.326,1.704,3.57,2.174,5.441.719l7.453-5.802c1.871-1.456,2.313-4.017.987-5.721l-.24-.308c-1.326-1.705-3.917-1.907-5.787-.448l-7.454,5.799Z"/>
            <path class="cls-6" d="M182.532,264.234c-1.872,1.457-1.965,3.747-.641,5.45l.242.31c1.326,1.704,3.57,2.174,5.441.719l7.453-5.802c1.871-1.456,2.313-4.017.987-5.721l-.24-.308c-1.326-1.705-3.917-1.907-5.787-.448l-7.454,5.799Z"/>
            <path class="cls-6" d="M160.251,264.234c-1.872,1.457-1.965,3.747-.641,5.45l.242.31c1.326,1.704,3.57,2.174,5.441.719l7.453-5.802c1.871-1.456,2.313-4.017.987-5.721l-.24-.308c-1.326-1.705-3.917-1.907-5.787-.448l-7.454,5.799Z"/>
            <path class="cls-6" d="M137.97,264.234c-1.872,1.457-1.965,3.747-.641,5.45l.242.31c1.326,1.704,3.57,2.174,5.441.719l7.453-5.802c1.871-1.456,2.313-4.017.987-5.721l-.24-.308c-1.326-1.705-3.917-1.907-5.787-.448l-7.454,5.799Z"/>
            <path class="cls-6" d="M115.689,264.234c-1.872,1.457-1.965,3.747-.641,5.45l.242.31c1.326,1.704,3.57,2.174,5.441.719l7.453-5.802c1.871-1.456,2.313-4.017.987-5.721l-.24-.308c-1.326-1.705-3.917-1.907-5.787-.448l-7.454,5.799Z"/>
          </g>
          <g>
            <path class="cls-6" d="M293.935,286.514c-1.872,1.457-1.965,3.747-.641,5.45l.242.31c1.326,1.704,3.57,2.174,5.441.719l7.453-5.802c1.871-1.456,2.313-4.017.987-5.721l-.24-.308c-1.326-1.705-3.917-1.907-5.787-.448l-7.454,5.799Z"/>
            <path class="cls-6" d="M271.655,286.514c-1.872,1.457-1.965,3.747-.641,5.45l.242.31c1.326,1.704,3.57,2.174,5.441.719l7.453-5.802c1.871-1.456,2.313-4.017.987-5.721l-.24-.308c-1.326-1.705-3.917-1.907-5.787-.448l-7.454,5.799Z"/>
            <path class="cls-6" d="M249.374,286.514c-1.872,1.457-1.965,3.747-.641,5.45l.242.31c1.326,1.704,3.57,2.174,5.441.719l7.453-5.802c1.871-1.456,2.313-4.017.987-5.721l-.24-.308c-1.326-1.705-3.917-1.907-5.787-.448l-7.454,5.799Z"/>
            <path class="cls-6" d="M227.093,286.514c-1.872,1.457-1.965,3.747-.641,5.45l.242.31c1.326,1.704,3.57,2.174,5.441.719l7.453-5.802c1.871-1.456,2.313-4.017.987-5.721l-.24-.308c-1.326-1.705-3.917-1.907-5.787-.448l-7.454,5.799Z"/>
            <path class="cls-6" d="M204.812,286.514c-1.872,1.457-1.965,3.747-.641,5.45l.242.31c1.326,1.704,3.57,2.174,5.441.719l7.453-5.802c1.871-1.456,2.313-4.017.987-5.721l-.24-.308c-1.326-1.705-3.917-1.907-5.787-.448l-7.454,5.799Z"/>
            <path class="cls-6" d="M182.532,286.514c-1.872,1.457-1.965,3.747-.641,5.45l.242.31c1.326,1.704,3.57,2.174,5.441.719l7.453-5.802c1.871-1.456,2.313-4.017.987-5.721l-.24-.308c-1.326-1.705-3.917-1.907-5.787-.448l-7.454,5.799Z"/>
            <path class="cls-6" d="M160.251,286.514c-1.872,1.457-1.965,3.747-.641,5.45l.242.31c1.326,1.704,3.57,2.174,5.441.719l7.453-5.802c1.871-1.456,2.313-4.017.987-5.721l-.24-.308c-1.326-1.705-3.917-1.907-5.787-.448l-7.454,5.799Z"/>
            <path class="cls-6" d="M137.97,286.514c-1.872,1.457-1.965,3.747-.641,5.45l.242.31c1.326,1.704,3.57,2.174,5.441.719l7.453-5.802c1.871-1.456,2.313-4.017.987-5.721l-.24-.308c-1.326-1.705-3.917-1.907-5.787-.448l-7.454,5.799Z"/>
            <path class="cls-6" d="M115.689,286.514c-1.872,1.457-1.965,3.747-.641,5.45l.242.31c1.326,1.704,3.57,2.174,5.441.719l7.453-5.802c1.871-1.456,2.313-4.017.987-5.721l-.24-.308c-1.326-1.705-3.917-1.907-5.787-.448l-7.454,5.799Z"/>
          </g>
          <g>
            <path class="cls-6" d="M293.935,308.795c-1.872,1.457-1.965,3.747-.641,5.45l.242.31c1.326,1.704,3.57,2.174,5.441.719l7.453-5.802c1.871-1.456,2.313-4.017.987-5.721l-.24-.308c-1.326-1.705-3.917-1.907-5.787-.448l-7.454,5.799Z"/>
            <path class="cls-6" d="M271.655,308.795c-1.872,1.457-1.965,3.747-.641,5.45l.242.31c1.326,1.704,3.57,2.174,5.441.719l7.453-5.802c1.871-1.456,2.313-4.017.987-5.721l-.24-.308c-1.326-1.705-3.917-1.907-5.787-.448l-7.454,5.799Z"/>
            <path class="cls-6" d="M249.374,308.795c-1.872,1.457-1.965,3.747-.641,5.45l.242.31c1.326,1.704,3.57,2.174,5.441.719l7.453-5.802c1.871-1.456,2.313-4.017.987-5.721l-.24-.308c-1.326-1.705-3.917-1.907-5.787-.448l-7.454,5.799Z"/>
            <path class="cls-6" d="M227.093,308.795c-1.872,1.457-1.965,3.747-.641,5.45l.242.31c1.326,1.704,3.57,2.174,5.441.719l7.453-5.802c1.871-1.456,2.313-4.017.987-5.721l-.24-.308c-1.326-1.705-3.917-1.907-5.787-.448l-7.454,5.799Z"/>
            <path class="cls-6" d="M204.812,308.795c-1.872,1.457-1.965,3.747-.641,5.45l.242.31c1.326,1.704,3.57,2.174,5.441.719l7.453-5.802c1.871-1.456,2.313-4.017.987-5.721l-.24-.308c-1.326-1.705-3.917-1.907-5.787-.448l-7.454,5.799Z"/>
            <path class="cls-6" d="M182.532,308.795c-1.872,1.457-1.965,3.747-.641,5.45l.242.31c1.326,1.704,3.57,2.174,5.441.719l7.453-5.802c1.871-1.456,2.313-4.017.987-5.721l-.24-.308c-1.326-1.705-3.917-1.907-5.787-.448l-7.454,5.799Z"/>
            <path class="cls-6" d="M160.251,308.795c-1.872,1.457-1.965,3.747-.641,5.45l.242.31c1.326,1.704,3.57,2.174,5.441.719l7.453-5.802c1.871-1.456,2.313-4.017.987-5.721l-.24-.308c-1.326-1.705-3.917-1.907-5.787-.448l-7.454,5.799Z"/>
            <path class="cls-6" d="M137.97,308.795c-1.872,1.457-1.965,3.747-.641,5.45l.242.31c1.326,1.704,3.57,2.174,5.441.719l7.453-5.802c1.871-1.456,2.313-4.017.987-5.721l-.24-.308c-1.326-1.705-3.917-1.907-5.787-.448l-7.454,5.799Z"/>
            <path class="cls-6" d="M115.689,308.795c-1.872,1.457-1.965,3.747-.641,5.45l.242.31c1.326,1.704,3.57,2.174,5.441.719l7.453-5.802c1.871-1.456,2.313-4.017.987-5.721l-.24-.308c-1.326-1.705-3.917-1.907-5.787-.448l-7.454,5.799Z"/>
          </g>
        </g>
      </g>
    </g>
    <path class="cls-14" d="M183.017,56.342c45.006,0,79.428-7.012,81.315-7.404,2.853-.593,4.685-3.386,4.092-6.239-.591-2.854-3.381-4.685-6.239-4.095-.594.124-60.208,12.247-123.912,4.627-2.887-.343-5.52,1.718-5.866,4.613-.347,2.895,1.719,5.52,4.613,5.867,15.939,1.906,31.517,2.632,45.996,2.632Z"/>
    <path class="cls-2" d="M227.796,98.211s-12.945-4.998-20.032,4.097l1.757,2.296s8.894-5.368,17.395-1.703l.88-4.691Z"/>
    <path class="cls-2" d="M154.994,98.211s12.945-4.998,20.032,4.097l-1.757,2.296s-8.894-5.368-17.395-1.703l-.88-4.691Z"/>
  </g>
</svg>