<svg width="175" height="63" viewBox="0 0 175 63" fill="none" xmlns="http://www.w3.org/2000/svg">
<g clip-path="url(#clip0_2121_2102)">
<path d="M28.2598 51.8467H30.0112L35.7728 59.5584V51.8467H37.6319V63.0002H36.0498L30.1195 55.065V63.0002H28.2598V51.8467Z" fill="#058080"/>
<path d="M40.3361 59.9402V54.5869H42.1952V59.3674C42.1952 60.6736 42.8245 61.4069 43.9309 61.4069C45.0373 61.4069 45.7591 60.6417 45.7591 59.3356V54.5876H47.6333V63.0008H45.7591V61.6947C45.2361 62.4916 44.4841 63.1762 43.2235 63.1762C41.3952 63.1762 40.3354 61.9019 40.3354 59.9416L40.3361 59.9402Z" fill="#058080"/>
<path d="M50.1992 54.5872H52.0583V55.8615C52.5806 55.1126 53.2874 54.4111 54.5316 54.4111C55.6997 54.4111 56.5291 55.0009 56.9589 55.8934C57.6046 55.0016 58.465 54.4111 59.694 54.4111C61.4613 54.4111 62.5368 55.5744 62.5368 57.6302V62.9997H60.6777V58.2193C60.6777 56.8806 60.0786 56.1635 59.0339 56.1635C57.9892 56.1635 57.2975 56.8968 57.2975 58.2511V62.9991H55.4385V58.203C55.4385 56.8968 54.8243 56.1635 53.7947 56.1635C52.765 56.1635 52.0583 56.9605 52.0583 58.2511V62.9991H50.1992V54.5858V54.5872Z" fill="#058080"/>
<path d="M66.9001 61.6936V62.9997H65.041V51.3682H66.9001V55.9895C67.4992 55.1126 68.3444 54.4118 69.6654 54.4118C71.5711 54.4118 73.4301 55.9739 73.4301 58.7779V58.8097C73.4301 61.5981 71.5861 63.1758 69.6654 63.1758C68.3136 63.1758 67.4677 62.475 66.9001 61.6943V61.6936ZM71.5395 58.809V58.7772C71.5395 57.1521 70.4798 56.0843 69.2198 56.0843C67.9599 56.0843 66.8535 57.1677 66.8535 58.7772V58.809C66.8535 60.4186 67.9592 61.502 69.2198 61.502C70.4804 61.502 71.5395 60.466 71.5395 58.809Z" fill="#058080"/>
<path d="M75.1499 58.8256V58.7938C75.1499 56.3879 76.7944 54.4121 79.1141 54.4121C81.6957 54.4121 83.0016 56.5152 83.0016 58.9373C83.0016 59.112 82.9858 59.2881 82.9707 59.479H77.0097C77.2091 60.8495 78.1462 61.614 79.3451 61.614C80.2521 61.614 80.8971 61.2632 81.5422 60.6105L82.6328 61.614C81.865 62.5701 80.8046 63.191 79.3143 63.191C76.963 63.191 75.1499 61.423 75.1499 58.8249V58.8256ZM81.1569 58.204C81.0349 56.9615 80.3275 55.9891 79.0984 55.9891C77.9611 55.9891 77.1625 56.8971 76.9939 58.204H81.1569Z" fill="#058080"/>
<path d="M85.1218 54.5869H86.9808V56.4829C87.4881 55.2241 88.4252 54.3635 89.8538 54.4271V56.4666H89.7461C88.1174 56.4666 86.9802 57.5663 86.9802 59.7967V62.9995H85.1211V54.5863L85.1218 54.5869Z" fill="#058080"/>
<path d="M91.0515 61.8998L91.8816 60.5936C92.7728 61.2789 93.7098 61.6296 94.5393 61.6296C95.3687 61.6296 95.7999 61.2789 95.7999 60.7216V60.6898C95.7999 60.0364 94.9389 59.8129 93.9868 59.5103C92.7878 59.1595 91.4511 58.6503 91.4511 57.0408V57.009C91.4511 55.415 92.7268 54.4434 94.3398 54.4434C95.3543 54.4434 96.46 54.8097 97.321 55.3995L96.5827 56.7699C95.7999 56.2763 94.9698 55.9737 94.2932 55.9737C93.5707 55.9737 93.1566 56.3244 93.1566 56.8018V56.8336C93.1566 57.4552 94.0327 57.7105 94.9849 58.0287C96.168 58.4113 97.5041 58.9686 97.5041 60.4819V60.5138C97.5041 62.2824 96.1831 63.1593 94.4927 63.1593C93.341 63.1593 92.0653 62.7286 91.0508 61.8998H91.0515Z" fill="#058080"/>
<path d="M104.725 51.8467H109.519C110.87 51.8467 111.931 52.2611 112.622 52.9619C113.191 53.5672 113.514 54.3954 113.514 55.3677V55.3995C113.514 57.2318 112.453 58.3315 110.962 58.7777L113.866 63.0002H111.624L108.981 59.1122H106.614V63.0002H104.724V51.8467H104.725ZM109.38 57.376C110.732 57.376 111.593 56.6427 111.593 55.5113V55.4794C111.593 54.285 110.764 53.6316 109.366 53.6316H106.616V57.376H109.381H109.38Z" fill="#058080"/>
<path d="M115.772 59.9402V54.5869H117.631V59.3674C117.631 60.6736 118.26 61.4069 119.366 61.4069C120.473 61.4069 121.195 60.6417 121.195 59.3356V54.5876H123.069V63.0008H121.195V61.6947C120.672 62.4916 119.92 63.1762 118.659 63.1762C116.831 63.1762 115.771 61.9019 115.771 59.9416L115.772 59.9402Z" fill="#058080"/>
<path d="M125.743 51.3682H127.602V62.9997H125.743V51.3682Z" fill="#058080"/>
<path d="M129.829 58.8256V58.7938C129.829 56.3879 131.473 54.4121 133.793 54.4121C136.374 54.4121 137.681 56.5152 137.681 58.9373C137.681 59.112 137.664 59.2881 137.65 59.479H131.689C131.888 60.8495 132.825 61.614 134.024 61.614C134.931 61.614 135.576 61.2632 136.221 60.6105L137.312 61.614C136.544 62.5701 135.484 63.191 133.993 63.191C131.642 63.191 129.829 61.423 129.829 58.8249V58.8256ZM135.837 58.204C135.715 56.9615 135.007 55.9891 133.778 55.9891C132.641 55.9891 131.842 56.8971 131.672 58.204H135.837Z" fill="#058080"/>
<path d="M162.414 18.5843C161.772 17.8733 161.355 17.0811 161.093 16.2509C160.834 15.3808 160.733 13.2858 160.733 9.98415C160.733 7.05695 160.393 4.9633 159.771 3.67541C159.192 2.37128 158.172 1.44227 156.791 0.868746C155.409 0.295902 153.471 0 150.904 0H149.645V5.50161C151.646 5.50161 152.889 5.65938 153.369 5.93632C153.831 6.23222 154.169 6.66287 154.268 7.05695C154.408 7.45239 154.577 8.56896 154.629 11.6634C154.675 14.4125 154.849 16.2509 155.03 17.2199C155.21 18.2274 155.589 19.1375 156.133 20.0082C156.671 20.8384 157.632 21.6882 158.974 22.5962C157.693 23.3092 156.751 24.1786 156.171 25.1476C155.59 26.1585 155.19 27.2047 154.971 28.3517C154.791 29.4798 154.739 32.0502 154.529 36.0621C154.454 37.4847 154.23 38.4131 153.768 38.8505C153.248 39.3021 151.886 39.6698 149.645 39.6698V45.1768H150.948C153.149 45.1768 154.849 44.9805 156.051 44.625C157.269 44.2085 158.252 43.5958 159.012 42.7439C159.77 41.8738 160.25 40.7857 160.433 39.5222C160.612 38.235 160.734 36.2605 160.734 33.6312C160.734 30.1705 161.175 27.9136 162.035 26.9277C162.914 25.9006 164.199 25.4056 165.941 25.4056V19.7496C164.198 19.6724 163.037 19.3142 162.415 18.5843" fill="#058080"/>
<path d="M3.52571 26.5926C4.16802 27.3035 4.58549 28.0958 4.84735 28.9259C5.10647 29.796 5.20724 31.891 5.20724 35.1927C5.20724 38.1199 5.54724 40.2135 6.16968 41.5014C6.74824 42.8055 7.76826 43.7346 9.14885 44.3081C10.5315 44.8809 12.4687 45.1768 15.0366 45.1768H16.2952V39.6752C14.2942 39.6752 13.0514 39.5175 12.5709 39.2405C12.1095 38.9446 11.7716 38.514 11.6722 38.1199C11.5323 37.7244 11.363 36.6079 11.3109 33.5134C11.265 30.7643 11.0915 28.9259 10.9106 27.957C10.7303 26.9494 10.3512 26.0394 9.80693 25.1686C9.26881 24.3384 8.30843 23.4886 6.96622 22.5806C8.24742 21.8676 9.18929 20.9982 9.76922 20.0292C10.3505 19.0183 10.7502 17.9721 10.9688 16.8251C11.1491 15.697 11.2012 13.1267 11.411 9.11472C11.4857 7.69209 11.7106 6.76376 12.1726 6.32634C12.6922 5.8747 14.0543 5.50702 16.2952 5.50702V0H14.992C12.7909 0 11.0915 0.196365 9.88919 0.551854C8.67106 0.968283 7.68805 1.58108 6.92784 2.4329C6.16968 3.303 5.68983 4.39113 5.50749 5.65464C5.32789 6.94184 5.20655 8.91633 5.20655 11.5456C5.20655 15.0064 4.76509 17.2632 3.90548 18.2491C3.02598 19.2763 1.74136 19.7713 -0.000488281 19.7713V25.4272C1.74205 25.5044 2.90328 25.8626 3.52503 26.5926" fill="#058080"/>
<path d="M88.0751 35.9354C80.2968 35.9354 73.9683 29.6842 73.9683 22.0009C73.9683 14.3176 80.2968 8.06641 88.0751 8.06641C95.8535 8.06641 102.182 14.3176 102.182 22.0009C102.182 22.5419 102.176 22.7071 102.117 23.2231L102.1 23.37L82.3094 23.9334V23.5346L84.0711 22.9441C88.5323 21.4511 95.2399 19.2064 95.8075 18.6837C94.6634 15.6881 91.5602 13.6784 88.0737 13.6784C83.4274 13.6784 79.6483 17.412 79.6483 22.0016C79.6483 26.5911 83.4274 30.324 88.0737 30.324C91.0577 30.324 93.7579 28.8147 95.2982 26.2871L95.3482 26.2044H101.525L101.449 26.4286C99.5209 32.115 94.1452 35.936 88.0731 35.936" fill="#052A39"/>
<path d="M32.0761 35.9354C24.2978 35.9354 17.9692 29.6842 17.9692 22.0009C17.9692 14.3176 24.2978 8.06641 32.0761 8.06641C39.8544 8.06641 46.1829 14.3176 46.1829 22.0009C46.1829 22.5433 46.1775 22.7078 46.1185 23.2231L46.1014 23.37L26.3111 23.9334V23.5346L28.0707 22.9448C32.5326 21.4511 39.2409 19.2064 39.8092 18.6837C38.6644 15.6881 35.5618 13.6784 32.0754 13.6784C27.4291 13.6784 23.65 17.412 23.65 22.0016C23.65 26.5911 27.4298 30.324 32.0754 30.324C35.0587 30.324 37.7596 28.8147 39.2999 26.2871L39.3499 26.2044H45.5269L45.4508 26.4286C43.5225 32.115 38.1469 35.936 32.0754 35.936" fill="#052A39"/>
<path d="M60.5557 24.008L53.26 8.97461H44.8955L60.178 35.9355H60.4926L75.0835 8.97461H67.2222L60.5557 24.008Z" fill="#052A39"/>
<path d="M140.598 36.0823C138.002 36.0823 136.407 35.2907 134.719 33.7306C133.011 32.178 132.146 30.1398 132.146 27.6744L132.168 14.5241H127.436V9.02925H132.193L138.066 0.0546875H138.473L138.495 9.02925H146.352V14.5241H138.495L138.473 26.8416C138.473 29.2034 139.236 30.5576 141.236 30.5576C142.622 30.5576 143.88 30.1317 144.686 29.2555L144.72 29.219L147.94 32.4001L147.918 32.4326C146.162 34.9907 143.838 36.0829 140.598 36.0829" fill="#052A39"/>
<path d="M114.697 35.8793C110.924 35.8908 106.922 34.54 104.475 31.7868L107.343 27.9895C113.382 34.3822 122.631 29.7893 117.476 25.6406C116.355 24.8863 113.759 24.1265 112.676 23.8306C108.827 22.6389 105.862 20.1945 105.649 16.3755C105.659 13.3711 107.236 10.7378 110.045 9.2942C114.44 7.16804 120.937 7.92168 124.788 10.9234L122.171 14.9529C120.08 13.0752 116.197 11.8124 113.772 13.4544C112.016 14.6543 111.603 16.7893 113.579 17.9173C116.036 19.5201 121.653 20.2013 123.704 22.3653C124.858 23.5273 125.444 25.0677 125.444 26.9434C125.375 32.707 120.776 35.9931 114.697 35.8807L114.697 35.8793Z" fill="#052A39"/>
<path d="M167.321 45.0784C167.272 45.0784 167.248 45.0547 167.248 45.0066V40.9764C167.248 40.9473 167.233 40.9331 167.204 40.9331H165.902C165.854 40.9331 165.83 40.9094 165.83 40.8606V40.2336C165.83 40.1848 165.854 40.1611 165.902 40.1611H169.456C169.505 40.1611 169.529 40.1848 169.529 40.2336V40.8606C169.529 40.9094 169.505 40.9331 169.456 40.9331H168.154C168.125 40.9331 168.11 40.9479 168.11 40.9764V45.0066C168.11 45.0547 168.086 45.0784 168.038 45.0784H167.321Z" fill="#052A39"/>
<path d="M170.57 40.2394C170.57 40.1914 170.594 40.167 170.642 40.167H171.294C171.357 40.167 171.399 40.1914 171.418 40.2394L172.785 43.2655H172.815L174.16 40.2394C174.18 40.1914 174.221 40.167 174.285 40.167H174.928C174.977 40.167 175.001 40.1914 175.001 40.2394V45.0064C175.001 45.0544 174.977 45.0781 174.928 45.0781H174.292C174.243 45.0781 174.219 45.0544 174.219 45.0064V42.0013H174.19L173.137 44.313C173.108 44.376 173.062 44.4064 172.998 44.4064H172.574C172.51 44.4064 172.464 44.3753 172.434 44.313L171.381 42.0013H171.352V45.0064C171.352 45.0544 171.328 45.0781 171.279 45.0781H170.643C170.595 45.0781 170.571 45.0544 170.571 45.0064V40.2394H170.57Z" fill="#052A39"/>
<path d="M145.915 54.0459C148.345 54.0628 150.221 55.9872 150.214 58.303C150.208 60.6688 148.267 62.5444 145.905 62.539C143.56 62.5329 141.613 60.6648 141.62 58.2806C141.626 55.9527 143.516 54.0635 145.915 54.0466V54.0459ZM148.329 58.3314C148.301 58.2901 148.279 58.2542 148.255 58.221C148.196 58.1418 148.138 58.0626 148.077 57.9861C147.884 57.743 147.664 57.5249 147.438 57.3123C147.332 57.2121 147.332 57.2108 147.185 57.2263C146.937 57.2521 146.69 57.2819 146.446 57.3306C146.184 57.3828 145.927 57.4511 145.681 57.5669C145.676 57.5866 145.67 57.6096 145.665 57.6326C145.648 57.7044 145.633 57.7775 145.612 57.8479C145.504 58.2088 145.373 58.5609 145.216 58.9042C145.203 58.9334 145.191 58.9632 145.179 58.9909C145.207 59.0295 145.232 59.0634 145.255 59.0972C145.526 59.4981 145.844 59.859 146.18 60.207C146.184 60.2111 146.188 60.2151 146.192 60.2199C146.208 60.2395 146.23 60.2483 146.255 60.247C146.306 60.2436 146.357 60.2436 146.407 60.2368C146.735 60.1935 147.054 60.1149 147.368 60.0127C147.507 59.9673 147.647 59.9213 147.782 59.8583C147.998 59.3633 148.157 58.848 148.327 58.3314H148.329ZM147.597 55.868C147.581 55.8491 147.572 55.8369 147.562 55.8267C147.417 55.6893 147.275 55.5484 147.126 55.415C146.914 55.2261 146.685 55.0596 146.438 54.9167C146.398 54.8937 146.359 54.8774 146.312 54.876C146.01 54.8693 145.713 54.897 145.423 54.9857C145.263 55.0352 145.107 55.0948 144.959 55.176C144.913 55.2017 144.881 55.2349 144.863 55.2864C144.817 55.4177 144.767 55.5478 144.719 55.6791C144.652 55.8667 144.603 56.0583 144.569 56.2547C144.559 56.3156 144.552 56.3765 144.543 56.4382C144.611 56.4862 144.675 56.5303 144.737 56.5763C144.801 56.6244 144.865 56.6731 144.928 56.7239C144.988 56.7727 145.047 56.8228 145.106 56.8736C145.164 56.9243 145.222 56.9765 145.278 57.03C145.336 57.0855 145.393 57.1431 145.45 57.1999C145.504 57.2534 145.544 57.3205 145.604 57.3706C145.702 57.3157 145.803 57.2764 145.905 57.2453C146.328 57.1173 146.76 57.0347 147.203 57.0212C147.224 57.0212 147.244 57.0185 147.268 57.0164C147.403 56.6393 147.477 56.2493 147.596 55.8674L147.597 55.868ZM146.037 60.3465C146.021 60.3303 146.007 60.3147 145.992 60.3005C145.816 60.1427 145.659 59.968 145.508 59.7872C145.347 59.5949 145.197 59.3952 145.056 59.1893C145.04 59.1656 145.027 59.1372 144.998 59.1243C144.523 59.2089 144.045 59.2177 143.564 59.1859C143.379 59.5495 143.258 59.9335 143.139 60.3235C143.173 60.3783 143.204 60.4359 143.242 60.4894C143.407 60.723 143.597 60.937 143.801 61.1374C143.911 61.2457 144.031 61.3453 144.146 61.4489C144.185 61.4841 144.231 61.503 144.283 61.5071C144.385 61.5152 144.486 61.5261 144.588 61.5328C144.855 61.5511 145.121 61.5511 145.387 61.5206C145.485 61.5091 145.583 61.4929 145.678 61.4631C145.846 61.1062 145.949 60.7298 146.037 60.3472V60.3465ZM148.477 60.8564C148.523 60.8523 148.559 60.8516 148.594 60.8455C148.782 60.811 148.968 60.7656 149.146 60.6912C149.197 60.6695 149.237 60.6404 149.268 60.5937C149.374 60.4386 149.472 60.2795 149.558 60.1129C149.763 59.7134 149.894 59.2916 149.959 58.8487C149.965 58.8101 149.965 58.7736 149.945 58.737C149.916 58.6821 149.892 58.6246 149.863 58.5691C149.753 58.3578 149.613 58.1655 149.475 57.9718C149.469 57.963 149.458 57.9576 149.451 57.9522C149.347 58.0138 149.249 58.0761 149.146 58.1316C149.047 58.1858 148.946 58.238 148.841 58.282C148.734 58.3273 148.623 58.3619 148.515 58.4005C148.377 58.9374 148.187 59.4541 147.976 59.9666C148.159 60.2504 148.329 60.5429 148.477 60.8557L148.477 60.8564ZM143.769 54.8679C143.748 54.8808 143.722 54.8957 143.697 54.9119C143.157 55.2593 142.725 55.7076 142.396 56.2547C142.353 56.3258 142.326 56.3969 142.329 56.4795C142.331 56.5147 142.325 56.5506 142.324 56.5858C142.322 56.7456 142.322 56.9054 142.348 57.0645C142.355 57.1045 142.371 57.1268 142.411 57.1403C142.586 57.2013 142.76 57.2649 142.935 57.3265C142.971 57.3394 143.01 57.3448 143.044 57.3536C143.056 57.3435 143.063 57.3381 143.069 57.332C143.409 56.9772 143.806 56.6989 144.248 56.4822C144.264 56.4741 144.281 56.4686 144.296 56.4578C144.307 56.4497 144.317 56.4368 144.322 56.4246C144.328 56.4084 144.328 56.3901 144.331 56.3725C144.384 55.9947 144.485 55.6304 144.645 55.283C144.652 55.2674 144.656 55.2505 144.663 55.2336C144.576 55.1611 144.48 55.113 144.386 55.0602C144.198 54.9546 143.995 54.897 143.768 54.8686L143.769 54.8679ZM143.375 59.0776C143.157 58.5968 143.024 58.0931 142.98 57.5656C142.903 57.5412 142.828 57.5189 142.756 57.4931C142.685 57.4687 142.616 57.441 142.546 57.4139C142.474 57.3861 142.407 57.3455 142.332 57.3238C142.312 57.3421 142.293 57.357 142.277 57.3739C142.139 57.5182 142.005 57.6658 141.901 57.8378C141.875 57.8818 141.851 57.9217 141.848 57.9752C141.822 58.3829 141.845 58.7864 141.938 59.1846C141.999 59.4507 142.086 59.7087 142.201 59.9578C142.217 59.9917 142.236 60.0154 142.272 60.0316C142.461 60.1163 142.657 60.1799 142.86 60.2219C142.891 60.228 142.923 60.2382 142.96 60.2314C143.049 59.8285 143.191 59.4459 143.375 59.0783L143.375 59.0776ZM147.747 55.7225C148.171 55.7726 148.566 55.8816 148.951 56.0454C149 55.9303 149.01 55.8125 149.037 55.6994C149.022 55.6805 149.009 55.6635 148.995 55.6486C148.368 54.9465 147.588 54.5091 146.658 54.331C146.644 54.3283 146.63 54.331 146.617 54.331C146.591 54.4109 146.552 54.6458 146.551 54.7325C147.001 55.002 147.401 55.3331 147.747 55.7231V55.7225ZM144.103 61.8951C144.116 61.9066 144.12 61.9113 144.125 61.914C144.149 61.9262 144.173 61.9377 144.198 61.9493C144.68 62.17 145.186 62.2932 145.716 62.3196C146.126 62.3406 146.531 62.2986 146.929 62.1984C146.948 62.1937 146.966 62.1835 146.988 62.1741C146.976 62.1429 146.965 62.1158 146.954 62.0887C146.509 62.0454 146.101 61.9113 145.735 61.6757C145.227 61.7888 144.724 61.784 144.218 61.7001C144.179 61.7664 144.142 61.8294 144.103 61.8958L144.103 61.8951ZM149.516 57.7098C149.544 57.7416 149.571 57.7721 149.599 57.8039C149.732 57.9569 149.851 58.1201 149.956 58.2935C149.964 58.307 149.968 58.3294 149.994 58.3206C150.008 57.8865 149.914 57.3042 149.701 56.7869C149.567 56.4625 149.323 56.0346 149.209 55.9324C149.176 56.0197 149.144 56.105 149.113 56.1897C149.345 56.6731 149.479 57.1796 149.517 57.7105L149.516 57.7098ZM148.487 61.0507C148.414 61.1631 148.325 61.2505 148.23 61.3317C147.923 61.5938 147.595 61.826 147.233 62.0068C147.217 62.0149 147.2 62.0224 147.185 62.0319C147.178 62.0366 147.174 62.0447 147.167 62.0515C147.169 62.0637 147.17 62.0752 147.174 62.0867C147.177 62.0969 147.184 62.1063 147.189 62.1152C147.412 62.0766 147.939 61.8186 148.273 61.5856C148.536 61.4021 148.865 61.1083 148.931 60.9925C148.784 61.0304 148.639 61.0494 148.487 61.0507Z" fill="#052A39"/>
</g>
<defs>
<clipPath id="clip0_2121_2102">
<rect width="175" height="63" fill="white"/>
</clipPath>
</defs>
</svg>
